<svg height="464pt" viewBox="0 0 464.00003 464" width="464pt" xmlns="http://www.w3.org/2000/svg"><path d="m464 232c0 128.128906-103.871094 232-232 232s-232-103.871094-232-232 103.871094-232 232-232 232 103.871094 232 232zm0 0" fill="#3b73a5"/><path d="m340.871094 27.128906-20.871094 20.871094h-32l-24 16 16 24-16 24 24 24 24-8 8-32 32-16 32 8 15.953125-15.953125c-17.160156-18.042969-37.109375-33.207031-59.082031-44.917969zm0 0" fill="#32b1cc"/><path d="m436.96875 123.3125-28.96875 20.6875-32 8-40 8-24 32-32 8-8 24 40 32 32-8 32-24 24 8 16 16-32 40 24 32 33.726562 11.238281c31.292969-66.179687 29.527344-143.246093-4.757812-207.925781zm0 0" fill="#32b1cc"/><path d="m216 288-32-32h-40l-32 24-24-8 8-32 40-16 32-24 24-16v-16h-32l-32 16h-24v-24l32-8 16-32-8-16-40 8-24 24-24 8-8-16-15.105469-15.105469c-39.46875 66-43.675781 147.269531-11.238281 216.992188l18.34375 6.113281 48 16 48-8 24 16v40l24 24 56-8-16-24 8-40 40-24 16-24-24-24zm0 0" fill="#32b1cc"/><g fill="#f5f688"><path d="m216 24h16v16h-16zm0 0"/><path d="m184 48h16v16h-16zm0 0"/><path d="m376 352h16v16h-16zm0 0"/><path d="m344 336h16v16h-16zm0 0"/></g></svg>