<?xml version="1.0" encoding="utf-8"?>
<!-- Generator: Adobe Illustrator 23.0.3, SVG Export Plug-In . SVG Version: 6.00 Build 0)  -->
<svg version="1.1" id="Capa_1" xmlns="http://www.w3.org/2000/svg" xmlns:xlink="http://www.w3.org/1999/xlink" x="0px" y="0px"
	 viewBox="0 0 154.88 136.59" style="enable-background:new 0 0 154.88 136.59;" xml:space="preserve">
<style type="text/css">
	.st0{display:none;}
	.st1{display:inline;}
	.st2{fill:#243A3D;}
	.st3{fill:#6E888A;}
	.st4{fill:#749191;}
	.st5{fill:#F3D65C;}
	.st6{fill:#9C9FA0;}
	.st7{fill:#F9FAE9;}
	.st8{font-family:'Roboto-Black';}
	.st9{font-size:72px;}
	.st10{fill:#D85B4B;}
	.st11{fill:#E57E25;}
	.st12{display:inline;fill:#F9FAE9;}
	.st13{display:inline;fill:#E7D06B;}
	.st14{display:inline;fill:#DFAA00;}
	.st15{display:inline;fill:#C8830F;}
	.st16{fill:#DFAA00;}
	.st17{fill:#C8830F;}
	.st18{fill:#E7D06B;}
	.st19{display:inline;fill:#F9F9E8;}
	.st20{display:inline;fill:#556080;}
	.st21{fill:#F2D55C;}
	.st22{display:inline;fill:#8697CA;}
	.st23{display:inline;fill:none;stroke:#8697CA;stroke-width:2;stroke-linecap:round;stroke-miterlimit:10;}
	.st24{display:inline;fill:#F2D55C;}
	.st25{display:none;fill:#F9F9E8;}
	.st26{display:inline;fill:#1968AF;}
	.st27{display:inline;fill:#5C7D2C;}
	.st28{fill:#5F6063;}
	.st29{display:inline;fill:#77797F;}
	.st30{display:inline;fill:#858B9A;}
	.st31{fill:#7783A2;}
	.st32{display:none;fill:#B6DEE5;}
	.st33{display:none;fill:#619298;}
	.st34{display:none;fill:#9FD3CB;}
	.st35{display:none;fill:#83C9C2;}
	.st36{display:none;fill:#6FC1B5;}
	.st37{display:none;fill:#47B2A0;}
	.st38{display:none;fill:#FCD195;}
	.st39{display:none;fill:#F8B44F;}
	.st40{display:none;fill:#3B74A5;}
	.st41{display:none;fill:#32B0CB;}
	.st42{display:inline;fill:#EFEB8B;}
	.st43{display:inline;fill:#9562A4;}
	.st44{display:inline;fill:#5B4192;}
	.st45{display:inline;fill:#89468C;}
	.st46{display:inline;fill:#6C2472;}
	.st47{display:inline;fill:#49388C;}
	.st48{display:inline;fill:#5C3D8E;}
	.st49{display:inline;fill:#C190C0;}
	.st50{display:inline;fill:#CD93C1;}
	.st51{display:inline;fill:#9D70AD;}
	.st52{fill:#9562A4;}
	.st53{fill:#DCB200;}
	.st54{display:inline;fill:#EDC210;}
	.st55{display:inline;fill:#F3D65C;}
	.st56{fill:#EFC929;}
	.st57{display:inline;fill:#CE3688;}
	.st58{display:inline;fill:#CC4B89;}
	.st59{display:inline;fill:#C94A8F;}
	.st60{display:inline;fill:#B2496D;}
	.st61{display:inline;fill:#868686;}
	.st62{display:inline;fill:#C4C4C4;}
	.st63{fill:#233A3D;}
	.st64{fill:#6F8889;}
	.st65{fill:#739090;}
	.st66{fill:#9C9E9F;}
	.st67{fill:#F9F9E8;}
	.st68{font-size:75.4975px;}
	.st69{display:inline;fill:#D75A4B;}
	.st70{display:inline;fill:#E47E24;}
	.st71{fill:#6EB16F;}
	.st72{fill:#549261;}
</style>
<g class="st0">
	<g class="st1">
		<circle class="st2" cx="74.04" cy="69.97" r="41.53"/>
		<circle class="st3" cx="66.37" cy="66.8" r="32.94"/>
		<circle class="st4" cx="60.98" cy="64.1" r="26.61"/>
		<path class="st5" d="M115.56,109.69h-5.42l-1.81-1.81v-5.42c0-1-0.81-1.81-1.81-1.81s-1.81,0.81-1.81,1.81v5.42l-1.81,1.81h-5.42
			c-1,0-1.81,0.81-1.81,1.81s0.81,1.81,1.81,1.81h5.42l1.81,1.81v5.42c0,1,0.81,1.81,1.81,1.81s1.81-0.81,1.81-1.81v-5.42l1.81-1.81
			h5.42c1,0,1.81-0.81,1.81-1.81C117.37,110.5,116.56,109.69,115.56,109.69z"/>
		<circle class="st5" cx="28.9" cy="24.84" r="1.81"/>
		<circle class="st5" cx="34.32" cy="116.92" r="1.81"/>
		<circle class="st6" cx="25.29" cy="104.28" r="1.81"/>
		<circle class="st5" cx="45.15" cy="19.42" r="1.81"/>
		<circle class="st5" cx="117.37" cy="24.84" r="1.81"/>
		<circle class="st5" cx="120.98" cy="111.5" r="1.81"/>
		<circle class="st5" cx="100.22" cy="88.71" r="1.81"/>
		<circle class="st5" cx="45.15" cy="64.11" r="1.81"/>
		<path class="st6" d="M73.18,111.49c-3.2,7.32-5.72,9.1-6.72,8.96c-1.17-0.16-3.65-3.42-4.64-14.67
			c-0.88-9.97-0.36-23.02,1.48-36.76c4.08-30.58,12.49-49.28,16.52-48.8c0.94,0.12,2.79,2.27,3.98,9.39
			c1.23,0.29,2.43,0.65,3.6,1.05c0.09-0.26,0.14-0.54,0.09-0.84c-1.28-8.39-3.64-12.7-7.2-13.17c-9.85-1.3-17.7,30.32-20.58,51.9
			c-1.87,13.99-2.39,27.33-1.49,37.55c1,11.34,3.61,17.38,7.76,17.93c0.21,0.03,0.42,0.04,0.63,0.04c3.46,0,6.78-3.84,10.13-11.71
			c0.13-0.31,0.14-0.64,0.1-0.95C75.63,111.48,74.41,111.51,73.18,111.49z"/>
	</g>
	<g class="st1">
		<text transform="matrix(1 0 0 1 49.5095 93.7096)" class="st7 st8 st9">1</text>
	</g>
</g>
<g class="st0">
	<g class="st1">
		<circle class="st10" cx="77.44" cy="67.34" r="42.2"/>
		<path class="st5" d="M126.67,23.38h-2.79l-4.24-4.24v-2.79c0-0.97-0.79-1.76-1.76-1.76s-1.76,0.79-1.76,1.76v2.79l-4.24,4.24
			h-2.79c-0.97,0-1.76,0.79-1.76,1.76s0.79,1.76,1.76,1.76h2.79l4.24,4.24v2.79c0,0.97,0.79,1.76,1.76,1.76s1.76-0.79,1.76-1.76
			v-2.79l4.25-4.24h2.79c0.97,0,1.76-0.79,1.76-1.76C128.43,24.17,127.64,23.38,126.67,23.38z"/>
		<circle class="st5" cx="40.52" cy="30.42" r="1.76"/>
		<circle class="st5" cx="73.92" cy="35.69" r="1.76"/>
		<circle class="st5" cx="123.15" cy="44.48" r="1.76"/>
		<circle class="st5" cx="93.27" cy="23.38" r="1.76"/>
		<circle class="st5" cx="91.51" cy="93.71" r="1.76"/>
		<circle class="st5" cx="35.24" cy="109.54" r="1.76"/>
		<circle class="st5" cx="31.72" cy="90.2" r="1.76"/>
		<path class="st11" d="M116.07,50.36c-1.63-3.69-3.76-7.11-6.32-10.16c-12.2,1.94-37.58,6.04-37.58,6.04L116.07,50.36z"/>
		<path class="st11" d="M114.66,87.22c1.73-3.23,3.05-6.72,3.89-10.39l-56.94,6.33C61.61,83.16,95.11,85.66,114.66,87.22z"/>
		<path class="st11" d="M35.88,60.08c-0.41,2.36-0.64,4.78-0.64,7.26c0,0.96,0.04,1.9,0.11,2.84l36.82-4.6
			C72.16,65.58,49.96,62.15,35.88,60.08z"/>
		<circle class="st5" cx="107.33" cy="109.54" r="1.76"/>
		<circle class="st5" cx="123.15" cy="88.44" r="1.76"/>
		<circle class="st5" cx="31.72" cy="21.62" r="1.76"/>
		<circle class="st5" cx="51.06" cy="18.11" r="1.76"/>
	</g>
	<text transform="matrix(1 0 0 1 56.9988 92.4389)" class="st12 st8 st9">2</text>
</g>
<g class="st0">
	<circle class="st13" cx="77" cy="68.99" r="41.98"/>
	<circle class="st14" cx="77" cy="68.99" r="32.48"/>
	<circle class="st15" cx="77" cy="68.99" r="19"/>
	<g class="st1">
		<path class="st16" d="M77,27.2c-1.05,0-1.9,0.85-1.9,1.9v3.8c0,1.05,0.85,1.9,1.9,1.9s1.9-0.85,1.9-1.9v-3.8
			C78.9,28.06,78.05,27.2,77,27.2z"/>
		<path class="st16" d="M77,103.18c-1.05,0-1.9,0.85-1.9,1.9v3.8c0,1.05,0.85,1.9,1.9,1.9s1.9-0.85,1.9-1.9v-3.8
			C78.9,104.04,78.05,103.18,77,103.18z"/>
		<path class="st16" d="M116.89,67.09h-3.8c-1.05,0-1.9,0.85-1.9,1.9s0.85,1.9,1.9,1.9h3.8c1.05,0,1.9-0.85,1.9-1.9
			S117.94,67.09,116.89,67.09z"/>
		<path class="st16" d="M42.81,68.99c0-1.05-0.85-1.9-1.9-1.9h-3.8c-1.05,0-1.9,0.85-1.9,1.9s0.85,1.9,1.9,1.9h3.8
			C41.96,70.89,42.81,70.04,42.81,68.99z"/>
		<path class="st16" d="M103.87,39.44l-2.69,2.69c-0.74,0.74-0.74,1.95,0,2.69c0.37,0.37,0.86,0.56,1.34,0.56s0.97-0.19,1.34-0.55
			l2.69-2.69c0.74-0.74,0.74-1.95,0-2.69C105.81,38.7,104.61,38.7,103.87,39.44z"/>
		<path class="st16" d="M50.14,93.17l-2.69,2.69c-0.74,0.74-0.74,1.95,0,2.69c0.37,0.37,0.86,0.56,1.34,0.56s0.97-0.19,1.34-0.55
			l2.69-2.69c0.74-0.74,0.74-1.95,0-2.69C52.08,92.43,50.88,92.43,50.14,93.17z"/>
		<path class="st16" d="M103.87,93.17c-0.74-0.74-1.94-0.74-2.69,0c-0.74,0.74-0.74,1.95,0,2.69l2.69,2.69
			c0.37,0.37,0.86,0.55,1.34,0.55c0.49,0,0.97-0.19,1.34-0.56c0.74-0.74,0.74-1.95,0-2.69L103.87,93.17z"/>
		<path class="st16" d="M50.14,39.44c-0.74-0.74-1.94-0.74-2.69,0c-0.74,0.74-0.74,1.95,0,2.69l2.69,2.69
			c0.37,0.37,0.86,0.55,1.34,0.55c0.49,0,0.97-0.19,1.34-0.56c0.74-0.74,0.74-1.95,0-2.69L50.14,39.44z"/>
		<path class="st16" d="M93.33,30.53c-0.96-0.41-2.08,0.04-2.49,1.01l-1.48,3.5c-0.41,0.96,0.04,2.08,1.01,2.49
			c0.24,0.1,0.49,0.15,0.74,0.15c0.74,0,1.44-0.43,1.75-1.16l1.48-3.5C94.75,32.05,94.3,30.94,93.33,30.53z"/>
		<path class="st16" d="M63.65,100.47c-0.97-0.41-2.08,0.04-2.49,1.01l-1.48,3.5c-0.41,0.96,0.04,2.08,1.01,2.49
			c0.24,0.1,0.49,0.15,0.74,0.15c0.74,0,1.44-0.43,1.75-1.16l1.48-3.5C65.06,101.99,64.61,100.88,63.65,100.47z"/>
		<path class="st16" d="M114.47,82.83l-3.5-1.49c-0.96-0.41-2.08,0.04-2.49,1.01c-0.41,0.96,0.04,2.08,1.01,2.49l3.5,1.49
			c0.24,0.1,0.49,0.15,0.74,0.15c0.74,0,1.44-0.43,1.75-1.16C115.88,84.36,115.43,83.24,114.47,82.83z"/>
		<path class="st16" d="M44.52,53.14l-3.5-1.49c-0.96-0.41-2.08,0.04-2.49,1.01c-0.41,0.96,0.04,2.08,1.01,2.49l3.5,1.49
			c0.24,0.1,0.49,0.15,0.74,0.15c0.74,0,1.44-0.43,1.75-1.16C45.94,54.67,45.49,53.55,44.52,53.14z"/>
		<path class="st16" d="M110.47,57.07c0.24,0,0.48-0.05,0.71-0.14l3.52-1.42c0.97-0.39,1.44-1.5,1.05-2.47
			c-0.39-0.97-1.5-1.44-2.47-1.05l-3.52,1.42c-0.97,0.39-1.44,1.5-1.05,2.47C109.01,56.62,109.72,57.07,110.47,57.07z"/>
		<path class="st16" d="M42.83,80.45l-3.52,1.42c-0.97,0.39-1.44,1.5-1.05,2.47c0.3,0.74,1.01,1.19,1.76,1.19
			c0.24,0,0.48-0.05,0.71-0.14l3.52-1.42c0.97-0.39,1.44-1.5,1.05-2.47C44.91,80.52,43.8,80.06,42.83,80.45z"/>
		<path class="st16" d="M92.28,101.44c-0.39-0.97-1.5-1.44-2.47-1.05c-0.97,0.39-1.44,1.5-1.05,2.47l1.42,3.52
			c0.3,0.74,1.01,1.19,1.76,1.19c0.24,0,0.48-0.05,0.71-0.14c0.97-0.39,1.44-1.5,1.05-2.47L92.28,101.44z"/>
		<path class="st16" d="M63.82,30.99c-0.39-0.97-1.5-1.44-2.47-1.05c-0.97,0.39-1.44,1.5-1.05,2.47l1.42,3.52
			c0.3,0.74,1.01,1.19,1.76,1.19c0.24,0,0.48-0.05,0.71-0.14c0.97-0.39,1.44-1.5,1.05-2.47L63.82,30.99z"/>
	</g>
	<g class="st1">
		<path class="st17" d="M77,38.6c-0.99,0-1.79,0.8-1.79,1.79v3.57c0,0.99,0.8,1.79,1.79,1.79c0.99,0,1.79-0.8,1.79-1.79v-3.57
			C78.79,39.4,77.99,38.6,77,38.6z"/>
		<path class="st17" d="M77,92.23c-0.99,0-1.79,0.8-1.79,1.79v3.57c0,0.99,0.8,1.79,1.79,1.79c0.99,0,1.79-0.8,1.79-1.79v-3.57
			C78.79,93.04,77.99,92.23,77,92.23z"/>
		<path class="st17" d="M105.61,67.21h-3.57c-0.99,0-1.79,0.8-1.79,1.79s0.8,1.79,1.79,1.79h3.57c0.99,0,1.79-0.8,1.79-1.79
			S106.6,67.21,105.61,67.21z"/>
		<path class="st17" d="M53.76,68.99c0-0.99-0.8-1.79-1.79-1.79H48.4c-0.99,0-1.79,0.8-1.79,1.79s0.8,1.79,1.79,1.79h3.57
			C52.96,70.78,53.76,69.98,53.76,68.99z"/>
		<path class="st17" d="M94.7,53.08c0.46,0,0.92-0.17,1.26-0.52l2.53-2.53c0.7-0.7,0.7-1.83,0-2.53c-0.7-0.7-1.83-0.7-2.53,0
			l-2.53,2.53c-0.7,0.7-0.7,1.83,0,2.53C93.79,52.91,94.24,53.08,94.7,53.08z"/>
		<path class="st17" d="M58.04,85.43l-2.53,2.53c-0.7,0.7-0.7,1.83,0,2.53c0.35,0.35,0.81,0.52,1.26,0.52
			c0.46,0,0.92-0.17,1.26-0.52l2.53-2.53c0.7-0.7,0.7-1.83,0-2.53C59.87,84.73,58.74,84.73,58.04,85.43z"/>
		<path class="st17" d="M95.97,85.43c-0.7-0.7-1.83-0.7-2.53,0c-0.7,0.7-0.7,1.83,0,2.53l2.53,2.53c0.35,0.35,0.81,0.52,1.26,0.52
			c0.46,0,0.92-0.17,1.26-0.52c0.7-0.7,0.7-1.83,0-2.53L95.97,85.43z"/>
		<path class="st17" d="M58.04,47.5c-0.7-0.7-1.83-0.7-2.53,0s-0.7,1.83,0,2.53l2.53,2.53c0.35,0.35,0.81,0.52,1.26,0.52
			c0.46,0,0.92-0.17,1.26-0.52c0.7-0.7,0.7-1.83,0-2.53L58.04,47.5z"/>
		<path class="st17" d="M88.88,41.02c-0.91-0.39-1.96,0.04-2.34,0.95l-1.4,3.29c-0.39,0.91,0.04,1.96,0.95,2.34
			c0.23,0.1,0.46,0.14,0.7,0.14c0.7,0,1.36-0.41,1.65-1.09l1.4-3.29C90.21,42.45,89.79,41.4,88.88,41.02z"/>
		<path class="st17" d="M67.92,90.39c-0.91-0.38-1.96,0.04-2.34,0.95l-1.4,3.29c-0.39,0.91,0.04,1.96,0.95,2.34
			c0.23,0.1,0.46,0.14,0.7,0.14c0.7,0,1.36-0.41,1.65-1.09l1.4-3.29C69.26,91.82,68.83,90.77,67.92,90.39z"/>
		<path class="st17" d="M104.03,78.52l-3.29-1.4c-0.91-0.38-1.96,0.04-2.34,0.95c-0.39,0.91,0.04,1.96,0.95,2.34l3.29,1.4
			c0.23,0.1,0.46,0.14,0.7,0.14c0.7,0,1.36-0.41,1.65-1.09C105.37,79.96,104.94,78.91,104.03,78.52z"/>
		<path class="st17" d="M49.97,59.46l3.29,1.4c0.23,0.1,0.46,0.14,0.7,0.14c0.7,0,1.36-0.41,1.65-1.09
			c0.39-0.91-0.04-1.96-0.95-2.34l-3.29-1.4c-0.91-0.38-1.96,0.04-2.34,0.95C48.64,58.03,49.06,59.08,49.97,59.46z"/>
		<path class="st17" d="M98.55,60c0.28,0.7,0.95,1.12,1.66,1.12c0.22,0,0.45-0.04,0.67-0.13l3.31-1.34
			c0.92-0.37,1.36-1.41,0.99-2.33c-0.37-0.92-1.41-1.36-2.33-0.99l-3.31,1.34C98.62,58.04,98.18,59.09,98.55,60z"/>
		<path class="st17" d="M55.45,77.41c-0.37-0.92-1.41-1.36-2.33-0.99l-3.31,1.34c-0.92,0.37-1.36,1.41-0.99,2.33
			c0.28,0.7,0.95,1.12,1.66,1.12c0.22,0,0.45-0.04,0.67-0.13l3.31-1.34C55.38,79.37,55.82,78.33,55.45,77.41z"/>
		<path class="st17" d="M88.04,91.24c-0.37-0.92-1.41-1.36-2.33-0.99c-0.92,0.37-1.36,1.41-0.99,2.33l1.34,3.31
			c0.28,0.7,0.95,1.12,1.66,1.12c0.22,0,0.45-0.04,0.67-0.13c0.92-0.37,1.36-1.41,0.99-2.33L88.04,91.24z"/>
		<path class="st17" d="M67.95,41.52c-0.37-0.92-1.41-1.35-2.33-0.99c-0.92,0.37-1.36,1.41-0.99,2.33l1.34,3.31
			c0.28,0.7,0.95,1.12,1.66,1.12c0.22,0,0.45-0.04,0.67-0.13c0.92-0.37,1.36-1.41,0.99-2.33L67.95,41.52z"/>
	</g>
	<g class="st1">
		<path class="st18" d="M77,12.01c-1.05,0-1.9,0.85-1.9,1.9v9.5c0,1.05,0.85,1.9,1.9,1.9s1.9-0.85,1.9-1.9v-9.5
			C78.9,12.86,78.05,12.01,77,12.01z"/>
		<path class="st18" d="M77,112.68c-1.05,0-1.9,0.85-1.9,1.9v9.5c0,1.05,0.85,1.9,1.9,1.9s1.9-0.85,1.9-1.9v-9.5
			C78.9,113.53,78.05,112.68,77,112.68z"/>
		<path class="st18" d="M132.09,67.09h-9.5c-1.05,0-1.9,0.85-1.9,1.9s0.85,1.9,1.9,1.9h9.5c1.05,0,1.9-0.85,1.9-1.9
			S133.14,67.09,132.09,67.09z"/>
		<path class="st18" d="M33.32,68.99c0-1.05-0.85-1.9-1.9-1.9h-9.5c-1.05,0-1.9,0.85-1.9,1.9s0.85,1.9,1.9,1.9h9.5
			C32.47,70.89,33.32,70.04,33.32,68.99z"/>
		<path class="st18" d="M109.24,38.66c0.49,0,0.97-0.19,1.34-0.56l6.71-6.71c0.74-0.74,0.74-1.94,0-2.69
			c-0.74-0.74-1.94-0.74-2.69,0l-6.71,6.71c-0.74,0.74-0.74,1.94,0,2.69C108.27,38.47,108.75,38.66,109.24,38.66z"/>
		<path class="st18" d="M43.42,99.89l-6.71,6.71c-0.74,0.74-0.74,1.94,0,2.69c0.37,0.37,0.86,0.56,1.34,0.56
			c0.49,0,0.97-0.19,1.34-0.56l6.71-6.71c0.74-0.74,0.74-1.94,0-2.69C45.37,99.14,44.17,99.14,43.42,99.89z"/>
		<path class="st18" d="M110.58,99.89c-0.74-0.74-1.94-0.74-2.69,0c-0.74,0.74-0.74,1.94,0,2.69l6.71,6.71
			c0.37,0.37,0.86,0.56,1.34,0.56s0.97-0.19,1.34-0.56c0.74-0.74,0.74-1.94,0-2.69L110.58,99.89z"/>
		<path class="st18" d="M39.4,28.7c-0.74-0.74-1.94-0.74-2.69,0c-0.74,0.74-0.74,1.94,0,2.69l6.71,6.71
			c0.37,0.37,0.86,0.56,1.34,0.56s0.97-0.19,1.34-0.56c0.74-0.74,0.74-1.94,0-2.69L39.4,28.7z"/>
		<path class="st18" d="M99.27,16.54c-0.96-0.41-2.08,0.04-2.49,1.01l-3.71,8.74c-0.41,0.96,0.04,2.08,1.01,2.49
			c0.24,0.1,0.49,0.15,0.74,0.15c0.74,0,1.44-0.43,1.75-1.16l3.71-8.74C100.69,18.06,100.24,16.95,99.27,16.54z"/>
		<path class="st18" d="M59.93,109.21c-0.97-0.41-2.08,0.04-2.49,1.01l-3.71,8.74c-0.41,0.96,0.04,2.08,1.01,2.49
			c0.24,0.1,0.49,0.15,0.74,0.15c0.74,0,1.44-0.43,1.75-1.16l3.71-8.74C61.35,110.73,60.9,109.62,59.93,109.21z"/>
		<path class="st18" d="M128.45,88.77l-8.74-3.71c-0.96-0.41-2.08,0.04-2.49,1.01c-0.41,0.96,0.04,2.08,1.01,2.49l8.74,3.71
			c0.24,0.1,0.49,0.15,0.74,0.15c0.74,0,1.44-0.43,1.75-1.16C129.87,90.29,129.42,89.18,128.45,88.77z"/>
		<path class="st18" d="M25.56,49.22l8.74,3.71c0.24,0.1,0.49,0.15,0.74,0.15c0.74,0,1.44-0.43,1.75-1.16
			c0.41-0.96-0.04-2.08-1.01-2.49l-8.74-3.71c-0.96-0.41-2.08,0.04-2.49,1.01C24.14,47.69,24.59,48.81,25.56,49.22z"/>
		<path class="st18" d="M117.51,52.32c0.3,0.74,1.01,1.19,1.76,1.19c0.24,0,0.48-0.05,0.71-0.14l8.81-3.56
			c0.97-0.39,1.44-1.5,1.05-2.47c-0.39-0.97-1.5-1.44-2.47-1.05l-8.81,3.56C117.59,50.24,117.12,51.35,117.51,52.32z"/>
		<path class="st18" d="M36.5,85.06c-0.39-0.97-1.5-1.44-2.47-1.05l-8.81,3.56c-0.97,0.39-1.44,1.5-1.05,2.47
			c0.3,0.74,1.01,1.19,1.76,1.19c0.24,0,0.48-0.05,0.71-0.14l8.81-3.56C36.42,87.13,36.89,86.03,36.5,85.06z"/>
		<path class="st18" d="M95.84,110.24c-0.39-0.97-1.5-1.44-2.47-1.05c-0.97,0.39-1.44,1.5-1.05,2.47l3.56,8.81
			c0.3,0.74,1.01,1.19,1.76,1.19c0.24,0,0.48-0.05,0.71-0.14c0.97-0.39,1.44-1.5,1.05-2.47L95.84,110.24z"/>
		<path class="st18" d="M58.13,16.9c-0.39-0.97-1.5-1.44-2.47-1.05c-0.97,0.39-1.44,1.5-1.05,2.47l3.56,8.81
			c0.3,0.74,1.01,1.19,1.76,1.19c0.24,0,0.48-0.05,0.71-0.14c0.97-0.39,1.44-1.5,1.05-2.47L58.13,16.9z"/>
	</g>
</g>
<g class="st0">
	<text transform="matrix(1 0 0 1 56.1531 93.6794)" class="st19 st8 st9">3</text>
</g>
<g class="st0">
	<ellipse class="st20" cx="71.66" cy="66.8" rx="43.08" ry="42.3"/>
	<g class="st1">
		<ellipse class="st21" cx="44.37" cy="100.64" rx="1.44" ry="1.41"/>
		<ellipse class="st21" cx="37.19" cy="61.16" rx="1.44" ry="1.41"/>
		<ellipse class="st21" cx="65.91" cy="59.75" rx="1.44" ry="1.41"/>
		<ellipse class="st21" cx="97.51" cy="32.96" rx="1.44" ry="1.41"/>
		<ellipse class="st21" cx="104.69" cy="61.16" rx="1.44" ry="1.41"/>
	</g>
	<ellipse class="st22" cx="104.69" cy="83.72" rx="5.74" ry="5.64"/>
	<ellipse class="st22" cx="86.41" cy="102.05" rx="5.74" ry="5.64"/>
	<ellipse class="st22" cx="64.48" cy="79.49" rx="5.74" ry="5.64"/>
	<ellipse class="st22" cx="82.35" cy="61.16" rx="7.18" ry="7.05"/>
	<line class="st23" x1="77.84" y1="66.6" x2="68.64" y2="75.63"/>
	<line class="st23" x1="100.45" y1="79.95" x2="86.86" y2="66.6"/>
	<line class="st23" x1="90.47" y1="98.07" x2="100.84" y2="87.88"/>
	<polyline class="st23" points="67.96,83.94 82.35,98.07 82.35,98.07 	"/>
	<ellipse class="st22" cx="64.48" cy="38.6" rx="4.31" ry="4.23"/>
	<ellipse class="st22" cx="37.19" cy="32.96" rx="4.31" ry="4.23"/>
	<line class="st23" x1="81.71" y1="56.93" x2="67.35" y2="41.42"/>
	<line class="st23" x1="60.17" y1="37.19" x2="41.5" y2="32.96"/>
	<ellipse class="st24" cx="64.48" cy="79.49" rx="3.71" ry="3.65"/>
	<ellipse class="st24" cx="86.41" cy="102.05" rx="3.71" ry="3.65"/>
	<ellipse class="st24" cx="104.69" cy="83.72" rx="2.7" ry="2.65"/>
	<ellipse class="st24" cx="82.35" cy="61.16" rx="4.13" ry="4.06"/>
	<ellipse class="st24" cx="64.48" cy="38.6" rx="1.44" ry="1.41"/>
	<ellipse class="st24" cx="37.19" cy="32.96" rx="1.44" ry="1.41"/>
</g>
<text transform="matrix(1 0 0 1 49.5737 92.4801)" class="st25 st8 st9">4</text>
<g class="st0">
	<path class="st24" d="M119.94,106.49h-2.84l-4.32-4.32v-2.84c0-0.99-0.8-1.79-1.79-1.79c-0.99,0-1.79,0.8-1.79,1.79v2.84
		l-4.32,4.32h-2.84c-0.99,0-1.79,0.8-1.79,1.79c0,0.99,0.8,1.79,1.79,1.79h2.84l4.32,4.32v2.84c0,0.99,0.8,1.79,1.79,1.79
		c0.99,0,1.79-0.8,1.79-1.79v-2.84l4.32-4.32h2.84c0.99,0,1.79-0.8,1.79-1.79C121.73,107.3,120.92,106.49,119.94,106.49z"/>
	<circle class="st26" cx="73.4" cy="67.12" r="41.17"/>
	<circle class="st24" cx="26.19" cy="22.37" r="1.79"/>
	<circle class="st24" cx="29.77" cy="108.29" r="1.79"/>
	<circle class="st24" cx="59.31" cy="115.89" r="1.79"/>
	<circle class="st24" cx="48.57" cy="72.49" r="1.79"/>
	<circle class="st24" cx="102.77" cy="19.46" r="1.79"/>
	<circle class="st24" cx="119.04" cy="94.64" r="1.79"/>
	<path class="st27" d="M75.87,63.74c0.26,0.13,0.65,0.43,0.81,0.67c1.25,1.83,0.53,4.5,1.77,5.16c0.98,0.52,1.54,1.58,1.12,2.6
		c-1.71,4.19-0.23,8.99,3.74,12.28c2.8,2.32,0.47,7.69-1.88,11.9c-0.84,1.51,0.66,3.25,2.29,2.67c2.57-0.91,4.7-2.24,7.17-4.36
		c3.57-3.07,4.35-6.42,7.89-9.03c0.04-0.03,0.07-0.06,0.08-0.11c0.91-2.65,3.72-8.45,0.88-9.93c-2.65-1.38-3.64-5.36-6.23-8.08
		c-0.3-0.31-0.72-0.47-1.15-0.52c-3.17-0.41-4.6-2.82-6.73-1.22c-1.6,1.2-3.39,0.47-3.95-1.45c-0.18-0.63-0.5-1.18-1.65-1.54
		c-0.87-0.27-1.3-1.26-0.98-2.12c0.01-0.01,0.01-0.03,0.01-0.04c0.42-1.15-1.95-0.97-3.16-0.77c-0.34,0.06,0.81-1.31,0.43-1.08
		c-1.48,0.88-3.32-0.64-3.24-2.35c0.08-1.74,0.41-1.66,3.4-2c3.22-1.5,4.78-0.41,4.67,3.27c1.99,0.29,2.68-0.59,2.09-2.64
		c-0.18-0.6-0.03-1.27,0.35-1.76c3.67-4.77,6.73-6.85,12.34-8.77c0.91-0.31,1.43-1.29,1.17-2.22c-0.9-3.3-2.3-8.51-4.68-8.88
		c-0.61-0.1-1.3-0.67-1.55-1.24c-0.84-1.92-1.4-2.73-2.98-3.2c-1.21-0.35-2.43,0.54-2.43,1.79c-0.02,3.85-0.01,7.16-4.41,2.77
		c-3.64-3.63-4.7-5.61-2.69-6.56c-0.09-0.78,0,0.04-0.09-0.74c-8.52-1.02-16.75,0.66-23.85,4.36c-0.13,0.07-0.18,0.24-0.11,0.37
		c2.79,5.14,3.36,7.84,3.05,13.83c-0.02,0.33,0.04,0.66,0.18,0.96c2.43,5.23,5.55,14.11,10.88,16.15
		C71.02,62.9,73.42,62.53,75.87,63.74z"/>
</g>
<text transform="matrix(1 0 0 1 52.9296 93.8067)" class="st25 st8 st9">5</text>
<g class="st0">
	<g class="st1">
		<path class="st28" d="M114.02,58.27l-20.96,5.62l-0.78-2.92l20.99-5.62c-1.39-4.56-3.45-8.73-6.06-12.44l-33.37,8.94l-0.78-2.92
			l32.16-8.62c-4.07-4.94-9.16-8.9-14.87-11.64L35.33,43.41c-3.58,5.23-6.01,11.2-7.07,17.52l6.31-1.69l0.78,2.92l-7.51,2.01
			c-0.41,4.52-0.12,9.16,0.96,13.81l54.05-14.48l0.78,2.92L29.59,80.89c0.59,1.91,1.26,3.77,2.07,5.54c4.17-0.68,6.29,4.4,4.18,7.2
			c0.25,0.35,0.52,0.67,0.78,1l23.01-6.17l0.78,2.92l-21.68,5.81c3.88,4.35,8.57,7.87,13.78,10.37l33.55-8.99l0.78,2.92l-29.74,7.97
			c7.99,2.78,16.86,3.29,25.65,0.94c8.8-2.36,16.24-7.24,21.78-13.65l-9.72,2.6l-0.78-2.92l13.51-3.62c0.23-0.33,0.46-0.66,0.68-1
			c-1.27-2.31-0.75-5.69,2.55-6.58c0.34-0.09,0.67-0.14,0.99-0.16c1.1-2.6,1.91-5.33,2.49-8.11l-9.45,2.53l-0.78-2.92l10.79-2.89
			C115.45,68.67,115.23,63.46,114.02,58.27z"/>
		<path class="st28" d="M60.09,25.84c-2.81,0.75-5.48,1.77-8,3.01c0.09,1.86-0.85,3.74-3.18,4.36c-1.31,0.35-2.44,0.13-3.33-0.42
			c-2.68,1.96-5.11,4.22-7.25,6.7l47.45-12.72C77.78,23.99,68.89,23.49,60.09,25.84z"/>
	</g>
	<circle class="st29" cx="64.61" cy="65.85" r="30.94"/>
	<circle class="st30" cx="58.58" cy="64.34" r="17.36"/>
	<circle class="st24" cx="30.67" cy="28.2" r="1.51"/>
	<circle class="st24" cx="42.75" cy="109.7" r="1.51"/>
	<circle class="st24" cx="110.66" cy="102.16" r="1.51"/>
	<circle class="st24" cx="30.67" cy="106.68" r="1.51"/>
	<circle class="st24" cx="37.15" cy="33.55" r="1.51"/>
	<circle class="st24" cx="106.14" cy="29.71" r="1.51"/>
	<g class="st1">
		<path class="st31" d="M105.42,76.2c-0.01-0.09,0-0.18-0.02-0.27c-0.35-2.66-2.42-5.35-5.71-5.35c-0.54,0-1.09,0.08-1.65,0.22
			c-3.41,0.91-4.6,3.89-4.26,6.44c0.09,0.65,0.28,1.31,0.56,1.92l-24.33,6.52c-0.91-1.79-2.65-3.2-5.02-3.2
			c-0.54,0-1.09,0.08-1.65,0.22c-3.18,0.85-4.41,3.5-4.29,5.91l-22.43,6.01c0.67,0.88,1.38,1.74,2.11,2.56l21.17-5.67
			c0.94,1.68,2.62,2.98,4.89,2.98c0.54,0,1.09-0.08,1.65-0.22c3.07-0.82,4.33-3.31,4.3-5.66l25.77-6.91
			c0.83,0.54,1.82,0.89,2.97,0.89c0.54,0,1.09-0.08,1.65-0.22c1.83-0.49,3.01-1.58,3.66-2.88l9.44-2.53
			c0.22-1.08,0.41-2.17,0.55-3.27L105.42,76.2z M65.66,91.36c-2.07,0.55-3.38-1.07-3.59-2.61c-0.08-0.58-0.16-2.53,2.05-3.13
			c0.3-0.08,0.59-0.12,0.87-0.12c1.62,0,2.55,1.41,2.72,2.73C67.79,88.81,67.87,90.76,65.66,91.36z M100.36,79.45
			c-2.07,0.55-3.38-1.07-3.59-2.61c-0.08-0.58-0.16-2.53,2.05-3.13c0.3-0.08,0.59-0.12,0.87-0.12c1.62,0,2.55,1.41,2.72,2.73
			C102.49,76.91,102.57,78.86,100.36,79.45z"/>
		<path class="st31" d="M85.77,26.77L38.33,39.49c-1.08,1.25-2.06,2.57-2.99,3.93l55.02-14.74C88.86,27.96,87.34,27.32,85.77,26.77z
			"/>
		<path class="st31" d="M39.77,65.26c0.54,0,1.09-0.08,1.65-0.22c3.07-0.82,4.33-3.31,4.3-5.66l17.7-4.74
			c0.88,1.9,2.67,3.43,5.15,3.43c0.54,0,1.09-0.08,1.65-0.22c3.29-0.88,4.5-3.69,4.28-6.17l32.71-8.76
			c-0.63-0.89-1.3-1.75-1.99-2.59L73.54,48.8c-0.97-1.57-2.59-2.75-4.76-2.75c-0.54,0-1.09,0.08-1.65,0.22
			c-2.95,0.79-4.24,3.13-4.31,5.4L45,56.45c-0.91-1.79-2.65-3.2-5.02-3.2c-0.54,0-1.09,0.08-1.65,0.22
			c-3.18,0.85-4.41,3.5-4.29,5.91l-5.77,1.55c-0.18,1.07-0.32,2.15-0.42,3.24l7.03-1.89C35.82,63.96,37.5,65.26,39.77,65.26z
			 M67.91,49.19c0.3-0.08,0.59-0.12,0.87-0.12c1.62,0,2.55,1.42,2.72,2.73c0.08,0.58,0.16,2.53-2.05,3.13
			c-2.07,0.55-3.38-1.07-3.59-2.61C65.78,51.73,65.7,49.78,67.91,49.19z M39.1,56.39c0.3-0.08,0.59-0.12,0.87-0.12
			c1.62,0,2.55,1.41,2.72,2.73c0.08,0.58,0.16,2.53-2.05,3.13c-2.08,0.56-3.38-1.07-3.59-2.61C36.98,58.93,36.9,56.98,39.1,56.39z"
			/>
		<path class="st31" d="M95.49,95.78c-0.35-2.66-2.42-5.36-5.71-5.36c-0.54,0-1.09,0.08-1.65,0.22c-3.41,0.91-4.6,3.89-4.26,6.44
			c0.09,0.65,0.28,1.31,0.56,1.92l-31.92,8.55c1.49,0.72,3.02,1.35,4.59,1.9l29.51-7.91c0.83,0.54,1.82,0.89,2.97,0.89
			c0.54,0,1.09-0.08,1.65-0.22c1.83-0.49,3.01-1.59,3.66-2.88l9.63-2.58c1.08-1.25,2.09-2.57,3.02-3.93L95.5,96.04
			C95.5,95.95,95.5,95.87,95.49,95.78z M90.45,99.3c-2.07,0.55-3.38-1.07-3.59-2.61c-0.08-0.58-0.16-2.53,2.05-3.13
			c0.3-0.08,0.59-0.12,0.87-0.12c1.62,0,2.55,1.42,2.72,2.73C92.57,96.76,92.65,98.71,90.45,99.3z"/>
		<path class="st31" d="M87.68,69.61c0.54,0,1.09-0.08,1.65-0.22c3.07-0.82,4.33-3.31,4.3-5.66l20.38-5.46
			c-0.11-0.49-0.2-0.98-0.33-1.47c-0.13-0.49-0.28-0.97-0.43-1.45L92.91,60.8c-0.91-1.79-2.65-3.2-5.02-3.2
			c-0.54,0-1.09,0.08-1.65,0.22c-3.18,0.85-4.41,3.5-4.29,5.91L28.8,77.98c0.11,0.49,0.2,0.98,0.33,1.47
			c0.13,0.49,0.31,0.96,0.45,1.44l53.2-14.25C83.73,68.31,85.41,69.61,87.68,69.61z M87.02,60.74c0.3-0.08,0.59-0.12,0.87-0.12
			c1.62,0,2.55,1.42,2.72,2.73c0.08,0.58,0.16,2.53-2.05,3.13c-2.07,0.55-3.38-1.07-3.59-2.61C84.89,63.28,84.81,61.33,87.02,60.74z
			"/>
	</g>
</g>
<text transform="matrix(1 0 0 1 49.8034 93.4247)" class="st25 st8 st9">6</text>
<path class="st32" d="M27.76,102.51c-0.16-4.35,0.84-9.41,2.95-15.04c4.42-11.79,13.19-24.62,24.7-36.13l-2.31-2.31
	C41.26,60.86,32.22,74.1,27.64,86.32c-4.74,12.64-4.16,22.78,1.62,28.57c0.32,0.32,0.74,0.48,1.16,0.48s0.84-0.16,1.16-0.48
	c0.64-0.64,0.64-1.68,0-2.31C29.19,110.19,27.91,106.81,27.76,102.51z"/>
<circle class="st33" cx="74.11" cy="70.04" r="41.46"/>
<path class="st32" d="M118.95,25.2c-4.91-4.91-12.98-6.07-23.04-3.4l1.38-1.63c0.58-0.69,0.5-1.72-0.19-2.31
	c-0.69-0.58-1.72-0.5-2.31,0.19l-5.09,6c-0.35,0.42-0.48,0.98-0.33,1.51c0.15,0.53,0.55,0.94,1.08,1.11l7.5,2.39
	c0.17,0.05,0.33,0.08,0.5,0.08c0.69,0,1.34-0.44,1.56-1.14c0.27-0.86-0.2-1.78-1.06-2.06l-2.67-0.85c3.76-1.04,7.21-1.51,10.29-1.4
	c4.3,0.15,7.69,1.44,10.06,3.82c2.38,2.38,3.66,5.77,3.82,10.06c0.16,4.35-0.84,9.41-2.95,15.04c-4.42,11.79-13.19,24.62-24.7,36.13
	c-11.51,11.51-24.34,20.28-36.13,24.7c-5.63,2.11-10.69,3.1-15.04,2.95c-4.3-0.15-7.69-1.44-10.06-3.82c-0.64-0.64-1.67-0.64-2.31,0
	c-0.64,0.64-0.64,1.68,0,2.31c3.19,3.19,7.72,4.8,13.26,4.8c4.49,0,9.65-1.06,15.31-3.18c12.22-4.58,25.46-13.62,37.29-25.45
	s20.87-25.07,25.45-37.29C125.31,41.13,124.73,30.98,118.95,25.2z"/>
<text transform="matrix(1 0 0 1 55.1531 98.4249)" class="st25 st8 st9">7</text>
<path class="st34" d="M122.27,66.34c0,1-0.06,1.93-0.18,2.93l-40.87,40.87c-1,0.12-1.94,0.18-2.93,0.18c-8.97,0-17.3-2.7-24.28-7.33
	L35.49,56.31c2.17-9.56,7.97-18.7,16.07-24.74c0.76-0.59-1.35-4.11-0.53-4.69c0.94-0.59,4.81,1.76,5.75,1.29
	c0.88-0.59,1.76-1.06,2.7-1.52l18.82,5.34l36.82,10.44C119.64,49.28,122.27,57.49,122.27,66.34z"/>
<path class="st35" d="M122.27,66.34c0,1-0.06,1.93-0.18,2.93l-40.87,40.87c-1,0.12-1.94,0.18-2.93,0.18V31.98l36.82,10.44
	C119.64,49.28,122.27,57.49,122.27,66.34z"/>
<path class="st36" d="M115.12,42.42l-13.13,16.59l-7.33-7.33H81.23v-5.86H64.28l-4.81-19.17c5.75-2.7,12.08-4.28,18.82-4.28
	C93.72,22.36,107.26,30.34,115.12,42.42z"/>
<path class="st36" d="M51.91,76.85V64.53l-16.4-8.2c-0.75,3.22-1.19,6.56-1.19,10.01c0,15.28,7.84,28.75,19.7,36.64l4-20.01
	L51.91,76.85z"/>
<path class="st37" d="M122.1,69.27c-0.41,6.74-2.4,13.08-5.57,18.65c-0.44,0.8,2.03,4.5,1.54,5.26c-0.63,0.97-4.24-1.02-5-0.1
	c-7.37,9.82-19.19,16.29-31.84,17.06V70.97l7.56-7.56h15.89v5.86H122.1z"/>
<path class="st37" d="M81.23,45.82H78.3V22.36c15.42,0,28.97,7.97,36.82,20.05l-13.13,16.59l-7.33-7.33H81.23V45.82z"/>
<path class="st38" d="M126.98,114.89c-7.92,7.92-37.43-18.18-45.76-25.57c-1-0.94-1.99-1.82-2.93-2.64
	c-4.63-4.28-7.97-7.62-9.15-8.8l4.1-4.16c1.7,1.7,3.4,3.34,5.04,4.93c1,0.94,1.99,1.88,2.93,2.76c4.98,4.69,35.26,31.49,41.83,29.2
	c0-0.64-2.07-6.33-9.99-17.53c1.35-1.64,2.46-3.34,3.46-5.16C130.01,106.27,129.45,112.49,126.98,114.89z"/>
<path class="st38" d="M33.73,21.97c1-0.35,6.68,1.68,17.83,9.6c1.64-1.29,3.4-2.46,5.22-3.4C38.37,14.62,32.21,15.23,29.81,17.69
	c-8.58,8.58,22.7,42.94,31.14,51.81l4.28-4.05C60.52,60.51,32.08,28.6,33.73,21.97z"/>
<path class="st39" d="M126.98,114.89c-7.92,7.92-37.43-18.18-45.76-25.57c-1-0.94-1.99-1.82-2.93-2.64v-8.03
	c1,0.94,1.99,1.88,2.93,2.76c4.98,4.69,35.26,31.49,41.83,29.2c0-0.64-2.07-6.33-9.99-17.53c1.35-1.64,2.46-3.34,3.46-5.16
	C130.01,106.27,129.45,112.49,126.98,114.89z"/>
<text transform="matrix(1 0 0 1 56.1288 89.8949)" class="st25 st8 st9">8</text>
<path class="st40" d="M116.68,67.47c0,23.89-19.37,43.27-43.27,43.27S30.14,91.36,30.14,67.47S49.52,24.2,73.41,24.2
	S116.68,43.57,116.68,67.47z"/>
<path class="st41" d="M93.71,29.26l-3.89,3.89h-5.97l-4.48,2.98l2.98,4.48l-2.98,4.48l4.48,4.48l4.48-1.49l1.49-5.97l5.97-2.98
	l5.97,1.49l2.98-2.98C101.53,34.27,97.81,31.44,93.71,29.26z"/>
<path class="st41" d="M111.63,47.2l-5.4,3.86l-5.97,1.49l-7.46,1.49l-4.48,5.97l-5.97,1.49l-1.49,4.48l7.46,5.97l5.97-1.49
	l5.97-4.48l4.48,1.49l2.98,2.98l-5.97,7.46l4.48,5.97l6.29,2.1C118.36,73.63,118.03,59.26,111.63,47.2z"/>
<path class="st41" d="M70.43,77.91l-5.97-5.97H57l-5.97,4.48l-4.48-1.49l1.49-5.97l7.46-2.98l5.97-4.48l4.48-2.98v-2.98h-5.97
	l-5.97,2.98h-4.48v-4.48l5.97-1.49l2.98-5.97L57,43.59l-7.46,1.49l-4.48,4.48l-4.48,1.49l-1.49-2.98l-2.82-2.82
	c-7.36,12.31-8.15,27.46-2.1,40.47l3.42,1.14l8.95,2.98l8.95-1.49l4.48,2.98v7.46l4.48,4.48l10.44-1.49l-2.98-4.48l1.49-7.46
	l7.46-4.48l2.98-4.48l-4.48-4.48L70.43,77.91z"/>
<g class="st0">
	<path class="st42" d="M70.43,28.68h2.98v2.98h-2.98V28.68z"/>
	<path class="st42" d="M64.46,33.15h2.98v2.98h-2.98V33.15z"/>
	<path class="st42" d="M100.26,89.84h2.98v2.98h-2.98V89.84z"/>
	<path class="st42" d="M94.3,86.86h2.98v2.98H94.3V86.86z"/>
</g>
<text transform="matrix(1 0 0 1 49.5353 92.8282)" class="st25 st8 st9">9</text>
<g class="st0">
	<path class="st43" d="M103.83,30.21c0,7.4-6,13.4-13.4,13.4c-7.4,0-13.4-6-13.4-13.4c0-7.4,6-13.4,13.4-13.4
		C97.83,16.81,103.83,22.81,103.83,30.21z"/>
	<path class="st44" d="M103.83,30.21c0,7.4-6,13.4-13.4,13.4c-1.05,0-2.07-0.12-3.06-0.35c5.93-1.38,10.34-6.7,10.34-13.05
		c0-6.35-4.41-11.66-10.34-13.05c0.98-0.23,2-0.35,3.06-0.35C97.83,16.81,103.83,22.81,103.83,30.21z"/>
	<path class="st45" d="M111.43,70.51c0,24.04-19.49,43.53-43.53,43.53c-13.37,0-25.34-6.03-33.32-15.52
		c-4.79-5.7-8.15-12.64-9.52-20.28c-0.2-1.1-0.35-2.21-0.46-3.34c-0.15-1.44-0.22-2.91-0.22-4.39c0-2.42,0.2-4.79,0.58-7.1
		c0.18-1.08,0.39-2.14,0.65-3.19c4.62-19.07,21.81-33.24,42.3-33.24c6.09,0,11.89,1.25,17.15,3.51c1.58,0.68,3.11,1.45,4.59,2.3
		c3.29,1.9,6.3,4.21,8.97,6.87c0.85,0.84,1.66,1.72,2.44,2.64c4.84,5.68,8.25,12.63,9.65,20.27
		C111.18,65.15,111.43,67.8,111.43,70.51z"/>
	<path class="st46" d="M101.06,42.3c-0.26,0.24-0.61,0.4-0.99,0.43c-0.02,0-3.1,0.26-8.12,2.34C87.3,47,80,50.92,71.6,58.67
		c-0.31,0.29-0.7,0.43-1.1,0.43c-0.44,0-0.87-0.17-1.19-0.52c-0.61-0.66-0.56-1.68,0.09-2.29c14.21-13.1,25.56-16,29.21-16.62
		C99.46,40.51,100.28,41.39,101.06,42.3z"/>
	<path class="st46" d="M63,66.75c-0.38,0-0.77-0.14-1.08-0.41c-0.67-0.6-0.73-1.62-0.13-2.29c1.05-1.18,2.12-2.33,3.18-3.44
		c0.62-0.64,1.65-0.66,2.29-0.04c0.64,0.62,0.66,1.65,0.04,2.29c-1.03,1.07-2.08,2.2-3.1,3.34C63.89,66.57,63.45,66.75,63,66.75z"/>
	<path class="st46" d="M111.43,70.51c0,24.04-19.49,43.53-43.53,43.53c-1.28,0-2.55-0.06-3.8-0.16
		c22.26-1.93,39.72-20.61,39.72-43.37c0-2.71-0.25-5.36-0.72-7.94c-3.51-19.03-19.39-33.73-39-35.43c1.25-0.11,2.52-0.16,3.8-0.16
		c21.33,0,39.08,15.34,42.81,35.59C111.18,65.15,111.43,67.8,111.43,70.51z"/>
	<path class="st46" d="M46.2,76.7c-5.23,1.51-10.31,1.94-14.37,1.94c-2.88,0-5.25-0.22-6.78-0.4c-0.2-1.1-0.35-2.21-0.46-3.34
		c1.26,0.18,3.89,0.49,7.26,0.49c3.82,0,8.6-0.39,13.45-1.8c0.86-0.25,1.76,0.25,2.01,1.11C47.56,75.56,47.06,76.46,46.2,76.7z"/>
	<path class="st43" d="M111.43,70.51c0,4.04-0.55,7.94-1.58,11.65c-5.09,18.38-21.95,31.88-41.95,31.88c-1.28,0-2.55-0.05-3.8-0.16
		c-3.11-0.27-6.12-0.86-9.01-1.75c-8.1-2.49-15.19-7.28-20.52-13.6c9.82-13.06,24.46-24.1,45.59-24.48
		c9.72-0.17,17.47-2.77,23.57-6.37c2.62-1.55,4.94-3.28,6.97-5.09C111.18,65.15,111.43,67.8,111.43,70.51z"/>
	<path class="st44" d="M111.43,70.51c0,4.04-0.55,7.94-1.58,11.65c-5.09,18.38-21.95,31.88-41.95,31.88c-1.28,0-2.55-0.05-3.8-0.16
		c22.26-1.93,39.72-20.61,39.72-43.37c0-0.96-0.03-1.9-0.09-2.84c2.62-1.55,4.94-3.28,6.97-5.09
		C111.18,65.15,111.43,67.8,111.43,70.51z"/>
	<path class="st47" d="M109.85,82.16c-0.44,1.59-0.97,3.15-1.58,4.66c-0.43,1.08-0.91,2.13-1.43,3.16
		c-7.14,14.27-21.9,24.06-38.94,24.06c-1.28,0-2.55-0.05-3.8-0.16c-3.11-0.27-6.12-0.86-9.01-1.75c4.49-1.92,9.34-5.3,12.8-11.27
		c6.47-11.15,18.97-17.68,34.34-18.66C104.71,82.04,107.25,82.03,109.85,82.16z"/>
	<path class="st48" d="M109.85,82.16c-5.09,18.38-21.95,31.88-41.95,31.88c-1.28,0-2.55-0.05-3.8-0.16
		c18.3-1.58,33.36-14.49,38.13-31.68C104.71,82.04,107.25,82.03,109.85,82.16z"/>
	<path class="st49" d="M114.37,32.34c-1.39,3.34-3.88,7.57-7.39,12.57c-7.14,10.16-17.79,22.47-29.99,34.68
		c-12.2,12.21-24.52,22.86-34.68,30c-5,3.51-9.23,6-12.57,7.39c-2.09,0.87-3.83,1.3-5.25,1.3c-1.34,0-2.4-0.39-3.18-1.17
		c-3.03-3.03-0.12-10.52,8.9-22.93c0.21-0.28,0.49-0.48,0.8-0.58c0.56,0.89,1.14,1.75,1.75,2.59c-9.58,13.2-9.86,17.92-9.16,18.63
		c0.65,0.65,4.93,0.49,16.85-7.88C50.45,99.9,62.61,89.38,74.69,77.3c12.08-12.08,22.6-24.24,29.63-34.25
		c8.37-11.91,8.53-16.2,7.88-16.85c-0.71-0.71-5.44-0.42-18.63,9.15c-0.9-0.66-1.82-1.28-2.76-1.86c0.11-0.16,0.24-0.31,0.41-0.43
		c12.61-9.22,20.22-12.21,23.28-9.16C116.1,25.52,116.06,28.27,114.37,32.34z"/>
	<path class="st50" d="M114.5,117.11c-0.78,0.78-1.83,1.17-3.18,1.17c-1.42,0-3.16-0.43-5.25-1.3c-3.34-1.39-7.57-3.87-12.57-7.39
		c-10.16-7.14-22.47-17.79-34.68-30c-12.2-12.2-22.86-24.52-29.99-34.68c-3.51-5-6-9.23-7.39-12.57c-1.69-4.07-1.74-6.83-0.13-8.43
		c3.02-3.02,10.49-0.13,22.83,8.83c0.31,0.23,0.52,0.55,0.61,0.89c-0.86,0.54-1.71,1.12-2.53,1.72C29.02,25.77,24.3,25.5,23.59,26.2
		c-0.65,0.65-0.49,4.93,7.88,16.85c7.03,10.01,17.56,22.17,29.64,34.25c12.08,12.08,24.24,22.6,34.25,29.64
		c11.91,8.37,16.2,8.53,16.85,7.88c0.71-0.71,0.42-5.44-9.16-18.63c0.66-0.89,1.28-1.82,1.86-2.76c0.16,0.1,0.31,0.24,0.43,0.4
		C114.56,106.44,117.56,114.05,114.5,117.11z"/>
	<path class="st51" d="M33.22,76.36c0,4.13-3.35,7.47-7.47,7.47c-4.13,0-7.48-3.35-7.48-7.47c0-4.13,3.35-7.47,7.48-7.47
		C29.88,68.88,33.22,72.23,33.22,76.36z"/>
	<g class="st1">
		<path class="st52" d="M33.22,76.36c0,4.13-3.35,7.47-7.47,7.47c-0.78,0-1.53-0.12-2.23-0.34c3.04-0.95,5.24-3.79,5.24-7.14
			c0-3.35-2.2-6.19-5.24-7.14c0.7-0.22,1.45-0.34,2.23-0.34C29.87,68.88,33.22,72.23,33.22,76.36z"/>
		<path class="st52" d="M47.91,19.79C47.91,19.79,47.91,19.79,47.91,19.79c-0.9,0-1.62-0.73-1.62-1.63l0-0.57
			c0-0.89,0.73-1.61,1.63-1.61c0.89,0,1.62,0.73,1.61,1.63l0,0.57C49.53,19.07,48.81,19.79,47.91,19.79z"/>
		<path class="st52" d="M47.9,25.54C47.89,25.54,47.89,25.54,47.9,25.54c-0.9,0-1.63-0.73-1.62-1.63l0-0.57
			c0-0.9,0.73-1.62,1.63-1.61c0.89,0,1.62,0.73,1.61,1.63l0,0.57C49.51,24.82,48.79,25.54,47.9,25.54z"/>
		<path class="st52" d="M51.07,22.39C51.06,22.39,51.06,22.39,51.07,22.39l-0.57,0c-0.89,0-1.62-0.73-1.61-1.63
			c0-0.89,0.73-1.61,1.62-1.61h0.01l0.57,0c0.89,0,1.62,0.73,1.61,1.63C52.68,21.67,51.96,22.39,51.07,22.39z"/>
		<path class="st52" d="M45.31,22.38C45.31,22.38,45.31,22.38,45.31,22.38l-0.57,0c-0.9,0-1.62-0.73-1.61-1.63
			c0-0.89,0.73-1.61,1.62-1.61h0.01l0.57,0c0.89,0,1.62,0.73,1.61,1.63C46.93,21.65,46.2,22.38,45.31,22.38z"/>
		<path class="st52" d="M16.15,89.18C16.14,89.18,16.14,89.18,16.15,89.18c-0.9-0.01-1.63-0.73-1.62-1.63l0-0.57
			c0-0.89,0.73-1.61,1.62-1.61h0.01c0.9,0,1.62,0.73,1.61,1.63l0,0.57C17.76,88.46,17.04,89.18,16.15,89.18z"/>
		<path class="st52" d="M16.13,94.93C16.13,94.93,16.13,94.93,16.13,94.93c-0.9,0-1.62-0.73-1.62-1.63l0-0.57
			c0-0.89,0.73-1.61,1.62-1.61h0.01c0.89,0,1.62,0.73,1.61,1.63l0,0.57C17.75,94.21,17.02,94.93,16.13,94.93z"/>
		<path class="st52" d="M19.3,91.78C19.3,91.78,19.3,91.78,19.3,91.78l-0.57,0c-0.89,0-1.62-0.73-1.61-1.63
			c0-0.89,0.73-1.62,1.63-1.61l0.57,0c0.89,0,1.62,0.73,1.61,1.63C20.92,91.06,20.19,91.78,19.3,91.78z"/>
		<path class="st52" d="M13.54,91.77C13.54,91.77,13.54,91.77,13.54,91.77l-0.57,0c-0.9,0-1.62-0.73-1.61-1.63
			c0-0.89,0.73-1.61,1.62-1.61h0.01l0.57,0c0.9,0,1.62,0.73,1.61,1.63C15.16,91.05,14.44,91.77,13.54,91.77z"/>
		<path class="st52" d="M117.22,92.34C117.21,92.34,117.21,92.34,117.22,92.34c-0.9,0-1.62-0.73-1.62-1.63l0-0.57
			c0-0.89,0.73-1.61,1.63-1.61c0.89,0,1.62,0.73,1.61,1.63l0,0.57C118.83,91.62,118.11,92.34,117.22,92.34z"/>
		<path class="st52" d="M117.2,98.1C117.2,98.1,117.19,98.1,117.2,98.1c-0.9,0-1.63-0.73-1.62-1.63l0-0.57
			c0-0.9,0.74-1.62,1.63-1.61c0.9,0,1.62,0.73,1.61,1.63l0,0.57C118.81,97.38,118.09,98.1,117.2,98.1z"/>
		<path class="st52" d="M120.37,94.95C120.37,94.95,120.36,94.95,120.37,94.95l-0.57,0c-0.89-0.01-1.62-0.73-1.61-1.63
			c0-0.89,0.73-1.61,1.62-1.61h0.01l0.57,0c0.89,0,1.62,0.73,1.61,1.63C121.99,94.22,121.26,94.95,120.37,94.95z"/>
		<path class="st52" d="M114.61,94.93C114.61,94.93,114.61,94.93,114.61,94.93l-0.57,0c-0.9,0-1.62-0.73-1.61-1.63
			c0-0.89,0.73-1.61,1.62-1.61h0.01l0.57,0c0.9,0,1.62,0.73,1.61,1.63C116.23,94.21,115.5,94.93,114.61,94.93z"/>
	</g>
	<path class="st44" d="M42.21,118.28C42.21,118.28,42.21,118.28,42.21,118.28h-0.03c-0.9,0-1.62-0.73-1.61-1.63
		c0-0.89,0.73-1.61,1.62-1.61h0.01h0.02c0.89,0,1.62,0.73,1.61,1.63C43.83,117.56,43.11,118.28,42.21,118.28z"/>
	<path class="st44" d="M49.93,121.27h-0.02c-0.89,0-1.62-0.73-1.62-1.62c0-0.89,0.73-1.62,1.62-1.62h0.02
		c0.89,0,1.62,0.73,1.62,1.62C51.55,120.54,50.82,121.27,49.93,121.27z"/>
	<path class="st44" d="M71.47,22.62C71.47,22.62,71.47,22.62,71.47,22.62h-0.03c-0.89,0-1.62-0.73-1.61-1.63
		c0-0.9,0.73-1.62,1.63-1.61h0.02c0.9,0,1.62,0.73,1.61,1.63C73.09,21.9,72.36,22.62,71.47,22.62z"/>
	<path class="st44" d="M110.61,19.22C110.61,19.22,110.6,19.22,110.61,19.22h-0.03c-0.89,0-1.62-0.73-1.61-1.63
		c0-0.89,0.73-1.61,1.62-1.61h0.01h0.02c0.9,0,1.62,0.73,1.61,1.63C112.22,18.5,111.5,19.22,110.61,19.22z"/>
	<path class="st44" d="M114.63,21.62C114.62,21.62,114.62,21.62,114.63,21.62h-0.03c-0.9,0-1.62-0.73-1.61-1.63
		c0-0.89,0.73-1.61,1.62-1.61h0.01h0.02c0.89,0,1.62,0.73,1.61,1.63C116.24,20.9,115.52,21.62,114.63,21.62z"/>
	<path class="st44" d="M19.72,65.2C19.72,65.2,19.72,65.2,19.72,65.2h-0.03c-0.9,0-1.62-0.73-1.61-1.63c0-0.89,0.73-1.61,1.62-1.61
		h0.01h0.02c0.89,0,1.62,0.73,1.61,1.63C21.34,64.48,20.62,65.2,19.72,65.2z"/>
	<path class="st47" d="M64.44,47.04c0-3.27-4.18-5.92-9.35-5.92c-5.16,0-9.35,2.65-9.35,5.92c0,3.27,4.18,5.92,9.35,5.92
		C60.26,52.97,64.44,50.31,64.44,47.04z"/>
	<path class="st48" d="M45.75,47.04c0-3.27,4.18-5.93,9.35-5.93c5.09,0,9.24,2.58,9.34,5.8c-1.7-1.44-4.42-2.37-7.47-2.37
		c-5.16,0-9.35,2.65-9.35,5.92c0,0.04,0,0.08,0,0.13C46.45,49.61,45.75,48.38,45.75,47.04z"/>
	<path class="st46" d="M89.65,32.79c-0.24,0.21-0.54,0.35-0.88,0.39c-10.66,1.22-18.32,7-18.39,7.06c-0.29,0.23-0.64,0.33-0.99,0.33
		c-0.49,0-0.97-0.22-1.29-0.63c-0.54-0.71-0.41-1.72,0.3-2.27c0.3-0.23,6.89-5.22,16.66-7.18C86.64,31.17,88.17,31.94,89.65,32.79z"
		/>
	<path class="st46" d="M36.29,63.51c-0.06,0.86-0.77,1.51-1.62,1.51c-0.04,0-0.07,0-0.11,0c-4.68-0.32-8.42-1.28-9.62-1.61
		c0.18-1.08,0.39-2.14,0.65-3.19c0.28,0.08,1.22,0.35,2.62,0.64c1.66,0.35,3.97,0.75,6.57,0.92C35.68,61.84,36.35,62.62,36.29,63.51
		z"/>
	<path class="st48" d="M108.27,86.82c-0.43,1.08-0.91,2.13-1.43,3.16c-2.49,0.17-9.65,0.76-12.93,2.22
		c-0.21,0.1-0.44,0.14-0.66,0.14c-0.62,0-1.21-0.36-1.48-0.96c-0.36-0.82,0-1.78,0.82-2.14c4.55-2.03,14.54-2.53,14.96-2.55
		C107.81,86.68,108.05,86.72,108.27,86.82z"/>
	<text transform="matrix(1 0 0 1 24.3134 98.0534)" class="st19 st8 st9">10</text>
</g>
<g class="st0">
	<g class="st1">
		<path class="st53" d="M120.79,61.57l-20.96,5.62l-0.78-2.92l20.99-5.62c-1.39-4.56-3.45-8.73-6.06-12.44L80.6,55.15l-0.78-2.92
			l32.16-8.62c-4.07-4.94-9.16-8.9-14.87-11.64L42.1,46.72c-3.58,5.23-6.01,11.2-7.07,17.52l6.31-1.69l0.78,2.92l-7.51,2.01
			c-0.41,4.52-0.12,9.16,0.96,13.81L89.62,66.8l0.78,2.92L36.36,84.2c0.59,1.91,1.26,3.77,2.07,5.54c4.17-0.68,6.29,4.4,4.18,7.2
			c0.25,0.35,0.52,0.67,0.78,1l23.01-6.17l0.78,2.92L45.5,100.5c3.88,4.35,8.57,7.87,13.78,10.37l33.55-8.99l0.78,2.92l-29.74,7.97
			c7.99,2.78,16.86,3.29,25.65,0.94c8.8-2.36,16.24-7.24,21.78-13.65l-9.72,2.6l-0.78-2.92l13.51-3.62c0.23-0.33,0.46-0.66,0.68-1
			c-1.27-2.31-0.75-5.69,2.55-6.58c0.34-0.09,0.67-0.14,0.99-0.16c1.1-2.6,1.91-5.33,2.49-8.11l-9.45,2.53l-0.78-2.92l10.79-2.89
			C122.22,71.97,121.99,66.77,120.79,61.57z"/>
		<path class="st53" d="M66.85,29.15c-2.81,0.75-5.48,1.77-8,3.01c0.09,1.86-0.85,3.74-3.18,4.36c-1.31,0.35-2.44,0.13-3.33-0.42
			c-2.68,1.96-5.11,4.22-7.25,6.7l47.45-12.72C84.54,27.29,75.65,26.79,66.85,29.15z"/>
	</g>
	<circle class="st54" cx="71.38" cy="69.15" r="30.94"/>
	<circle class="st55" cx="65.34" cy="67.64" r="17.36"/>
	<circle class="st55" cx="37.44" cy="31.51" r="1.51"/>
	<circle class="st55" cx="49.51" cy="113.01" r="1.51"/>
	<circle class="st55" cx="117.43" cy="105.46" r="1.51"/>
	<circle class="st55" cx="37.44" cy="109.99" r="1.51"/>
	<circle class="st55" cx="43.92" cy="36.86" r="1.51"/>
	<circle class="st55" cx="112.9" cy="33.02" r="1.51"/>
	<g class="st1">
		<path class="st56" d="M112.19,79.5c-0.01-0.09,0-0.18-0.02-0.27c-0.35-2.66-2.42-5.35-5.71-5.35c-0.54,0-1.09,0.08-1.65,0.22
			c-3.41,0.91-4.6,3.89-4.26,6.44c0.09,0.65,0.28,1.31,0.56,1.92l-24.33,6.52c-0.91-1.79-2.65-3.2-5.02-3.2
			c-0.54,0-1.09,0.08-1.65,0.22c-3.18,0.85-4.41,3.5-4.29,5.91l-22.43,6.01c0.67,0.88,1.38,1.74,2.11,2.56l21.17-5.67
			c0.94,1.68,2.62,2.98,4.89,2.98c0.54,0,1.09-0.08,1.65-0.22c3.07-0.82,4.33-3.31,4.3-5.66l25.77-6.91
			c0.83,0.54,1.82,0.89,2.97,0.89c0.54,0,1.09-0.08,1.65-0.22c1.83-0.49,3.01-1.58,3.66-2.88l9.44-2.53
			c0.22-1.08,0.41-2.17,0.55-3.27L112.19,79.5z M72.43,94.66c-2.07,0.55-3.38-1.07-3.59-2.61c-0.08-0.58-0.16-2.53,2.05-3.13
			c0.3-0.08,0.59-0.12,0.87-0.12c1.62,0,2.55,1.41,2.72,2.73C74.55,92.12,74.63,94.07,72.43,94.66z M107.13,82.76
			c-2.07,0.55-3.38-1.07-3.59-2.61c-0.08-0.58-0.16-2.53,2.05-3.13c0.3-0.08,0.59-0.12,0.87-0.12c1.62,0,2.55,1.41,2.72,2.73
			C109.26,80.22,109.34,82.17,107.13,82.76z"/>
		<path class="st56" d="M92.54,30.08L45.09,42.79c-1.08,1.25-2.06,2.57-2.99,3.93l55.02-14.74C95.63,31.26,94.1,30.62,92.54,30.08z"
			/>
		<path class="st56" d="M46.54,68.57c0.54,0,1.09-0.08,1.65-0.22c3.07-0.82,4.33-3.31,4.3-5.66l17.7-4.74
			c0.88,1.9,2.67,3.43,5.15,3.43c0.54,0,1.09-0.08,1.65-0.22c3.29-0.88,4.5-3.69,4.28-6.17l32.71-8.76
			c-0.63-0.89-1.3-1.75-1.99-2.59l-31.67,8.49c-0.97-1.57-2.59-2.75-4.76-2.75c-0.54,0-1.09,0.08-1.65,0.22
			c-2.95,0.79-4.24,3.13-4.31,5.4l-17.82,4.78c-0.91-1.79-2.65-3.2-5.02-3.2c-0.54,0-1.09,0.08-1.65,0.22
			c-3.18,0.85-4.41,3.5-4.29,5.91l-5.77,1.55c-0.18,1.07-0.32,2.15-0.42,3.24l7.03-1.89C42.59,67.27,44.26,68.57,46.54,68.57z
			 M74.67,52.5c0.3-0.08,0.59-0.12,0.87-0.12c1.62,0,2.55,1.42,2.72,2.73c0.08,0.58,0.16,2.53-2.05,3.13
			c-2.07,0.55-3.38-1.07-3.59-2.61C72.54,55.04,72.46,53.09,74.67,52.5z M45.87,59.69c0.3-0.08,0.59-0.12,0.87-0.12
			c1.62,0,2.55,1.41,2.72,2.73c0.08,0.58,0.16,2.53-2.05,3.13c-2.08,0.56-3.38-1.07-3.59-2.61C43.74,62.24,43.66,60.29,45.87,59.69z
			"/>
		<path class="st56" d="M102.26,99.09c-0.35-2.66-2.42-5.36-5.71-5.36c-0.54,0-1.09,0.08-1.65,0.22c-3.41,0.91-4.6,3.89-4.26,6.44
			c0.09,0.65,0.28,1.31,0.56,1.92l-31.92,8.55c1.49,0.72,3.02,1.35,4.59,1.9l29.51-7.91c0.83,0.54,1.82,0.89,2.97,0.89
			c0.54,0,1.09-0.08,1.65-0.22c1.83-0.49,3.01-1.59,3.66-2.88l9.63-2.58c1.08-1.25,2.09-2.57,3.02-3.93l-12.04,3.22
			C102.26,99.26,102.27,99.17,102.26,99.09z M97.21,102.6c-2.07,0.55-3.38-1.07-3.59-2.61c-0.08-0.58-0.16-2.53,2.05-3.13
			c0.3-0.08,0.59-0.12,0.87-0.12c1.62,0,2.55,1.42,2.72,2.73C99.34,100.06,99.42,102.01,97.21,102.6z"/>
		<path class="st56" d="M94.45,72.92c0.54,0,1.09-0.08,1.65-0.22c3.07-0.82,4.33-3.31,4.3-5.66l20.38-5.46
			c-0.11-0.49-0.2-0.98-0.33-1.47c-0.13-0.49-0.28-0.97-0.43-1.45l-20.36,5.45c-0.91-1.79-2.65-3.2-5.02-3.2
			c-0.54,0-1.09,0.08-1.65,0.22c-3.18,0.85-4.41,3.5-4.29,5.91L35.57,81.28c0.11,0.49,0.2,0.98,0.33,1.47
			c0.13,0.49,0.31,0.96,0.45,1.44l53.2-14.25C90.5,71.62,92.17,72.92,94.45,72.92z M93.78,64.04c0.3-0.08,0.59-0.12,0.87-0.12
			c1.62,0,2.55,1.42,2.72,2.73c0.08,0.58,0.16,2.53-2.05,3.13c-2.07,0.55-3.38-1.07-3.59-2.61C91.65,66.59,91.57,64.64,93.78,64.04z
			"/>
	</g>
</g>
<text transform="matrix(1 0 0 1 35.7789 95.9032)" class="st25 st8 st9">11</text>
<g class="st0">
	<path class="st57" d="M112.95,66.45c0,1-0.06,1.93-0.18,2.93l-40.87,40.87c-1,0.12-1.94,0.18-2.93,0.18
		c-8.97,0-17.3-2.7-24.28-7.33L26.17,56.43c2.17-9.56,7.97-18.7,16.07-24.74c0.76-0.59-1.35-4.11-0.53-4.69
		c0.94-0.59,4.81,1.76,5.75,1.29c0.88-0.59,1.76-1.06,2.7-1.52l18.82,5.34l36.82,10.44C110.31,49.39,112.95,57.6,112.95,66.45z"/>
	<path class="st58" d="M112.95,66.45c0,1-0.06,1.93-0.18,2.93l-40.87,40.87c-1,0.12-1.94,0.18-2.93,0.18V32.09l36.82,10.44
		C110.31,49.39,112.95,57.6,112.95,66.45z"/>
	<path class="st59" d="M105.8,42.53L92.67,59.12l-7.33-7.33H71.91v-5.86H54.96l-4.81-19.17c5.75-2.7,12.08-4.28,18.82-4.28
		C84.4,22.48,97.94,30.45,105.8,42.53z"/>
	<path class="st59" d="M42.59,76.97V64.64l-16.4-8.2C25.44,59.66,25,63,25,66.45c0,15.28,7.84,28.75,19.7,36.64l4-20.01L42.59,76.97
		z"/>
	<path class="st60" d="M112.78,69.39c-0.41,6.74-2.4,13.08-5.57,18.65c-0.44,0.8,2.03,4.5,1.54,5.26c-0.63,0.97-4.24-1.02-5-0.1
		c-7.37,9.82-19.19,16.29-31.84,17.06V71.09l7.56-7.56h15.89v5.86H112.78z"/>
	<path class="st60" d="M71.91,45.93h-2.93V22.48c15.42,0,28.97,7.97,36.82,20.05L92.67,59.12l-7.33-7.33H71.91V45.93z"/>
	<path class="st61" d="M117.66,115c-7.92,7.92-37.43-18.18-45.76-25.57c-1-0.94-1.99-1.82-2.93-2.64c-4.63-4.28-7.97-7.62-9.15-8.8
		l4.1-4.16c1.7,1.7,3.4,3.34,5.04,4.93c1,0.94,1.99,1.88,2.93,2.76c4.98,4.69,35.26,31.49,41.83,29.2c0-0.64-2.07-6.33-9.99-17.53
		c1.35-1.64,2.46-3.34,3.46-5.16C120.69,106.38,120.13,112.6,117.66,115z"/>
	<path class="st61" d="M24.41,22.09c1-0.35,6.68,1.68,17.83,9.6c1.64-1.29,3.4-2.46,5.22-3.4C29.05,14.74,22.89,15.34,20.48,17.8
		c-8.58,8.58,22.7,42.94,31.14,51.81l4.28-4.05C51.2,60.62,22.76,28.71,24.41,22.09z"/>
	<path class="st62" d="M117.66,115c-7.92,7.92-37.43-18.18-45.76-25.57c-1-0.94-1.99-1.82-2.93-2.64v-8.03
		c1,0.94,1.99,1.88,2.93,2.76c4.98,4.69,35.26,31.49,41.83,29.2c0-0.64-2.07-6.33-9.99-17.53c1.35-1.64,2.46-3.34,3.46-5.16
		C120.69,106.38,120.13,112.6,117.66,115z"/>
	<text transform="matrix(1 0 0 1 24.8084 91.0064)" class="st19 st8 st9">12</text>
</g>
<g class="st0">
	<g class="st1">
		<circle class="st63" cx="68.96" cy="66.17" r="43.54"/>
		<circle class="st64" cx="60.93" cy="62.85" r="34.54"/>
		<circle class="st65" cx="55.27" cy="60.01" r="27.9"/>
		<path class="st21" d="M112.5,107.82h-5.68l-1.89-1.89v-5.68c0-1.05-0.85-1.89-1.89-1.89s-1.89,0.85-1.89,1.89v5.68l-1.89,1.89
			h-5.68c-1.05,0-1.89,0.85-1.89,1.89s0.85,1.89,1.89,1.89h5.68l1.89,1.89v5.68c0,1.05,0.85,1.89,1.89,1.89s1.89-0.85,1.89-1.89
			v-5.68l1.89-1.89h5.68c1.05,0,1.89-0.85,1.89-1.89S113.55,107.82,112.5,107.82z"/>
		<circle class="st21" cx="21.63" cy="18.84" r="1.89"/>
		<circle class="st21" cx="27.31" cy="115.39" r="1.89"/>
		<circle class="st66" cx="17.84" cy="102.14" r="1.89"/>
		<circle class="st21" cx="38.67" cy="13.16" r="1.89"/>
		<circle class="st21" cx="114.4" cy="18.84" r="1.89"/>
		<circle class="st21" cx="118.18" cy="109.72" r="1.89"/>
		<circle class="st21" cx="96.41" cy="85.81" r="1.89"/>
		<circle class="st21" cx="38.67" cy="60.02" r="1.89"/>
		<path class="st66" d="M68.06,109.7c-3.36,7.68-6,9.54-7.05,9.39c-1.23-0.16-3.82-3.59-4.86-15.38
			c-0.92-10.45-0.37-24.14,1.55-38.54C61.97,33.1,70.79,13.5,75.02,14c0.98,0.13,2.93,2.38,4.17,9.85c1.29,0.31,2.54,0.68,3.78,1.1
			c0.09-0.28,0.14-0.57,0.1-0.88c-1.34-8.8-3.81-13.32-7.55-13.81C65.19,8.89,56.96,42.04,53.94,64.67
			c-1.96,14.67-2.51,28.66-1.57,39.37c1.05,11.89,3.79,18.22,8.14,18.8c0.22,0.03,0.44,0.04,0.66,0.04c3.63,0,7.11-4.03,10.62-12.28
			c0.14-0.33,0.15-0.67,0.1-1C70.63,109.7,69.35,109.73,68.06,109.7z"/>
	</g>
	<g class="st1">
		<text transform="matrix(1 0 0 1 22.2227 91.0607)" class="st67 st8 st68">13</text>
	</g>
</g>
<g class="st0">
	<g>
		<circle class="st69" cx="64.7" cy="71.91" r="42.2"/>
		<path class="st24" d="M113.93,27.96h-2.79l-4.24-4.24v-2.79c0-0.97-0.79-1.76-1.76-1.76c-0.97,0-1.76,0.79-1.76,1.76v2.79
			l-4.24,4.24h-2.79c-0.97,0-1.76,0.79-1.76,1.76c0,0.97,0.79,1.76,1.76,1.76h2.79l4.24,4.24v2.79c0,0.97,0.79,1.76,1.76,1.76
			c0.97,0,1.76-0.79,1.76-1.76v-2.79l4.25-4.24h2.79c0.97,0,1.76-0.79,1.76-1.76C115.69,28.74,114.91,27.96,113.93,27.96z"/>
		<circle class="st24" cx="27.78" cy="34.99" r="1.76"/>
		<circle class="st24" cx="61.18" cy="40.26" r="1.76"/>
		<circle class="st24" cx="110.42" cy="49.06" r="1.76"/>
		<circle class="st24" cx="80.53" cy="27.96" r="1.76"/>
		<circle class="st24" cx="78.77" cy="98.29" r="1.76"/>
		<circle class="st24" cx="22.5" cy="114.11" r="1.76"/>
		<circle class="st24" cx="18.99" cy="94.77" r="1.76"/>
		<path class="st70" d="M103.33,54.93c-1.63-3.69-3.76-7.11-6.32-10.16c-12.2,1.94-37.58,6.04-37.58,6.04L103.33,54.93z"/>
		<path class="st70" d="M101.93,91.8c1.73-3.23,3.05-6.72,3.89-10.39l-56.94,6.33C48.88,87.74,82.37,90.23,101.93,91.8z"/>
		<path class="st70" d="M23.14,64.65c-0.41,2.36-0.64,4.78-0.64,7.26c0,0.96,0.04,1.9,0.11,2.84l36.82-4.6
			C59.43,70.15,37.22,66.72,23.14,64.65z"/>
		<circle class="st24" cx="94.59" cy="114.11" r="1.76"/>
		<circle class="st24" cx="110.42" cy="93.01" r="1.76"/>
		<circle class="st24" cx="18.99" cy="26.2" r="1.76"/>
		<circle class="st24" cx="38.33" cy="22.68" r="1.76"/>
	</g>
	<text transform="matrix(1 0 0 1 19.3133 97.0118)" class="st67 st8 st9">14</text>
</g>
<g class="st0">
	<circle class="st13" cx="68.91" cy="68.33" r="41.98"/>
	<circle class="st14" cx="68.91" cy="68.33" r="32.48"/>
	<circle class="st15" cx="68.91" cy="68.33" r="19"/>
	<g class="st1">
		<path class="st16" d="M68.91,26.54c-1.05,0-1.9,0.85-1.9,1.9v3.8c0,1.05,0.85,1.9,1.9,1.9s1.9-0.85,1.9-1.9v-3.8
			C70.8,27.39,69.96,26.54,68.91,26.54z"/>
		<path class="st16" d="M68.91,102.52c-1.05,0-1.9,0.85-1.9,1.9v3.8c0,1.05,0.85,1.9,1.9,1.9s1.9-0.85,1.9-1.9v-3.8
			C70.8,103.37,69.96,102.52,68.91,102.52z"/>
		<path class="st16" d="M108.79,66.43H105c-1.05,0-1.9,0.85-1.9,1.9s0.85,1.9,1.9,1.9h3.8c1.05,0,1.9-0.85,1.9-1.9
			S109.85,66.43,108.79,66.43z"/>
		<path class="st16" d="M34.71,68.33c0-1.05-0.85-1.9-1.9-1.9h-3.8c-1.05,0-1.9,0.85-1.9,1.9s0.85,1.9,1.9,1.9h3.8
			C33.87,70.23,34.71,69.38,34.71,68.33z"/>
		<path class="st16" d="M95.77,38.78l-2.69,2.69c-0.74,0.74-0.74,1.95,0,2.69c0.37,0.37,0.86,0.56,1.34,0.56s0.97-0.19,1.34-0.55
			l2.69-2.69c0.74-0.74,0.74-1.95,0-2.69C97.71,38.04,96.51,38.04,95.77,38.78z"/>
		<path class="st16" d="M42.04,92.51l-2.69,2.69c-0.74,0.74-0.74,1.95,0,2.69c0.37,0.37,0.86,0.56,1.34,0.56s0.97-0.19,1.34-0.55
			l2.69-2.69c0.74-0.74,0.74-1.95,0-2.69C43.99,91.77,42.79,91.77,42.04,92.51z"/>
		<path class="st16" d="M95.77,92.51c-0.74-0.74-1.94-0.74-2.69,0c-0.74,0.74-0.74,1.95,0,2.69l2.69,2.69
			c0.37,0.37,0.86,0.55,1.34,0.55s0.97-0.19,1.34-0.56c0.74-0.74,0.74-1.95,0-2.69L95.77,92.51z"/>
		<path class="st16" d="M42.04,38.78c-0.74-0.74-1.94-0.74-2.69,0c-0.74,0.74-0.74,1.95,0,2.69l2.69,2.69
			c0.37,0.37,0.86,0.55,1.34,0.55c0.49,0,0.97-0.19,1.34-0.56c0.74-0.74,0.74-1.95,0-2.69L42.04,38.78z"/>
		<path class="st16" d="M85.23,29.86c-0.96-0.41-2.08,0.04-2.49,1.01l-1.48,3.5c-0.41,0.96,0.04,2.08,1.01,2.49
			c0.24,0.1,0.49,0.15,0.74,0.15c0.74,0,1.44-0.43,1.75-1.16l1.48-3.5C86.65,31.39,86.2,30.27,85.23,29.86z"/>
		<path class="st16" d="M55.55,99.8c-0.97-0.41-2.08,0.04-2.49,1.01l-1.48,3.5c-0.41,0.96,0.04,2.08,1.01,2.49
			c0.24,0.1,0.49,0.15,0.74,0.15c0.74,0,1.44-0.43,1.75-1.16l1.48-3.5C56.96,101.33,56.51,100.21,55.55,99.8z"/>
		<path class="st16" d="M106.37,82.17l-3.5-1.49c-0.96-0.41-2.08,0.04-2.49,1.01c-0.41,0.96,0.04,2.08,1.01,2.49l3.5,1.49
			c0.24,0.1,0.49,0.15,0.74,0.15c0.74,0,1.44-0.43,1.75-1.16C107.78,83.69,107.33,82.58,106.37,82.17z"/>
		<path class="st16" d="M36.43,52.48L32.93,51c-0.96-0.41-2.08,0.04-2.49,1.01c-0.41,0.96,0.04,2.08,1.01,2.49l3.5,1.49
			c0.24,0.1,0.49,0.15,0.74,0.15c0.74,0,1.44-0.43,1.75-1.16C37.84,54,37.39,52.89,36.43,52.48z"/>
		<path class="st16" d="M102.37,56.41c0.24,0,0.48-0.05,0.71-0.14l3.52-1.42c0.97-0.39,1.44-1.5,1.05-2.47
			c-0.39-0.97-1.5-1.44-2.47-1.05l-3.52,1.42c-0.97,0.39-1.44,1.5-1.05,2.47C100.91,55.96,101.62,56.41,102.37,56.41z"/>
		<path class="st16" d="M34.73,79.78l-3.52,1.42c-0.97,0.39-1.44,1.5-1.05,2.47c0.3,0.74,1.01,1.19,1.76,1.19
			c0.24,0,0.48-0.05,0.71-0.14l3.52-1.42c0.97-0.39,1.44-1.5,1.05-2.47C36.81,79.86,35.7,79.39,34.73,79.78z"/>
		<path class="st16" d="M84.18,100.78c-0.39-0.97-1.5-1.44-2.47-1.05c-0.97,0.39-1.44,1.5-1.05,2.47l1.42,3.52
			c0.3,0.74,1.01,1.19,1.76,1.19c0.24,0,0.48-0.05,0.71-0.14c0.97-0.39,1.44-1.5,1.05-2.47L84.18,100.78z"/>
		<path class="st16" d="M55.72,30.33c-0.39-0.97-1.5-1.44-2.47-1.05c-0.97,0.39-1.44,1.5-1.05,2.47l1.42,3.52
			c0.3,0.74,1.01,1.19,1.76,1.19c0.24,0,0.48-0.05,0.71-0.14c0.97-0.39,1.44-1.5,1.05-2.47L55.72,30.33z"/>
	</g>
	<g class="st1">
		<path class="st17" d="M68.91,37.94c-0.99,0-1.79,0.8-1.79,1.79v3.57c0,0.99,0.8,1.79,1.79,1.79s1.79-0.8,1.79-1.79v-3.57
			C70.69,38.74,69.89,37.94,68.91,37.94z"/>
		<path class="st17" d="M68.91,91.57c-0.99,0-1.79,0.8-1.79,1.79v3.57c0,0.99,0.8,1.79,1.79,1.79s1.79-0.8,1.79-1.79v-3.57
			C70.69,92.37,69.89,91.57,68.91,91.57z"/>
		<path class="st17" d="M97.51,66.54h-3.57c-0.99,0-1.79,0.8-1.79,1.79s0.8,1.79,1.79,1.79h3.57c0.99,0,1.79-0.8,1.79-1.79
			S98.5,66.54,97.51,66.54z"/>
		<path class="st17" d="M45.66,68.33c0-0.99-0.8-1.79-1.79-1.79H40.3c-0.99,0-1.79,0.8-1.79,1.79s0.8,1.79,1.79,1.79h3.57
			C44.87,70.12,45.66,69.32,45.66,68.33z"/>
		<path class="st17" d="M86.6,52.42c0.46,0,0.92-0.17,1.26-0.52l2.53-2.53c0.7-0.7,0.7-1.83,0-2.53c-0.7-0.7-1.83-0.7-2.53,0
			l-2.53,2.53c-0.7,0.7-0.7,1.83,0,2.53C85.69,52.25,86.14,52.42,86.6,52.42z"/>
		<path class="st17" d="M49.94,84.76l-2.53,2.53c-0.7,0.7-0.7,1.83,0,2.53c0.35,0.35,0.81,0.52,1.26,0.52
			c0.46,0,0.92-0.17,1.26-0.52l2.53-2.53c0.7-0.7,0.7-1.83,0-2.53C51.77,84.07,50.64,84.07,49.94,84.76z"/>
		<path class="st17" d="M87.87,84.76c-0.7-0.7-1.83-0.7-2.53,0c-0.7,0.7-0.7,1.83,0,2.53l2.53,2.53c0.35,0.35,0.81,0.52,1.26,0.52
			c0.46,0,0.92-0.17,1.26-0.52c0.7-0.7,0.7-1.83,0-2.53L87.87,84.76z"/>
		<path class="st17" d="M49.94,46.84c-0.7-0.7-1.83-0.7-2.53,0s-0.7,1.83,0,2.53l2.53,2.53c0.35,0.35,0.81,0.52,1.26,0.52
			c0.46,0,0.92-0.17,1.26-0.52c0.7-0.7,0.7-1.83,0-2.53L49.94,46.84z"/>
		<path class="st17" d="M80.78,40.35c-0.91-0.39-1.96,0.04-2.34,0.95l-1.4,3.29c-0.39,0.91,0.04,1.96,0.95,2.34
			c0.23,0.1,0.46,0.14,0.7,0.14c0.7,0,1.36-0.41,1.65-1.09l1.4-3.29C82.11,41.79,81.69,40.74,80.78,40.35z"/>
		<path class="st17" d="M59.82,89.72c-0.91-0.38-1.96,0.04-2.34,0.95l-1.4,3.29c-0.39,0.91,0.04,1.96,0.95,2.34
			c0.23,0.1,0.46,0.14,0.7,0.14c0.7,0,1.36-0.41,1.65-1.09l1.4-3.29C61.16,91.16,60.73,90.11,59.82,89.72z"/>
		<path class="st17" d="M95.93,77.86l-3.29-1.4c-0.91-0.38-1.96,0.04-2.34,0.95c-0.39,0.91,0.04,1.96,0.95,2.34l3.29,1.4
			c0.23,0.1,0.46,0.14,0.7,0.14c0.7,0,1.36-0.41,1.65-1.09C97.27,79.3,96.84,78.25,95.93,77.86z"/>
		<path class="st17" d="M41.88,58.8l3.29,1.4c0.23,0.1,0.46,0.14,0.7,0.14c0.7,0,1.36-0.41,1.65-1.09c0.39-0.91-0.04-1.96-0.95-2.34
			l-3.29-1.4c-0.91-0.38-1.96,0.04-2.34,0.95C40.54,57.36,40.97,58.41,41.88,58.8z"/>
		<path class="st17" d="M90.45,59.34c0.28,0.7,0.95,1.12,1.66,1.12c0.22,0,0.45-0.04,0.67-0.13l3.31-1.34
			c0.92-0.37,1.36-1.41,0.99-2.33c-0.37-0.92-1.41-1.36-2.33-0.99l-3.31,1.34C90.53,57.38,90.08,58.42,90.45,59.34z"/>
		<path class="st17" d="M47.36,76.75c-0.37-0.92-1.41-1.36-2.33-0.99l-3.31,1.34c-0.92,0.37-1.36,1.41-0.99,2.33
			c0.28,0.7,0.95,1.12,1.66,1.12c0.22,0,0.45-0.04,0.67-0.13l3.31-1.34C47.28,78.71,47.73,77.66,47.36,76.75z"/>
		<path class="st17" d="M79.94,90.58c-0.37-0.92-1.41-1.36-2.33-0.99c-0.92,0.37-1.36,1.41-0.99,2.33l1.34,3.31
			c0.28,0.7,0.95,1.12,1.66,1.12c0.22,0,0.45-0.04,0.67-0.13c0.92-0.37,1.36-1.41,0.99-2.33L79.94,90.58z"/>
		<path class="st17" d="M59.85,40.85c-0.37-0.92-1.41-1.35-2.33-0.99c-0.92,0.37-1.36,1.41-0.99,2.33l1.34,3.31
			c0.28,0.7,0.95,1.12,1.66,1.12c0.22,0,0.45-0.04,0.67-0.13c0.92-0.37,1.36-1.41,0.99-2.33L59.85,40.85z"/>
	</g>
	<g class="st1">
		<path class="st18" d="M68.91,11.35c-1.05,0-1.9,0.85-1.9,1.9v9.5c0,1.05,0.85,1.9,1.9,1.9s1.9-0.85,1.9-1.9v-9.5
			C70.8,12.2,69.96,11.35,68.91,11.35z"/>
		<path class="st18" d="M68.91,112.02c-1.05,0-1.9,0.85-1.9,1.9v9.5c0,1.05,0.85,1.9,1.9,1.9s1.9-0.85,1.9-1.9v-9.5
			C70.8,112.87,69.96,112.02,68.91,112.02z"/>
		<path class="st18" d="M123.99,66.43h-9.5c-1.05,0-1.9,0.85-1.9,1.9s0.85,1.9,1.9,1.9h9.5c1.05,0,1.9-0.85,1.9-1.9
			S125.04,66.43,123.99,66.43z"/>
		<path class="st18" d="M25.22,68.33c0-1.05-0.85-1.9-1.9-1.9h-9.5c-1.05,0-1.9,0.85-1.9,1.9s0.85,1.9,1.9,1.9h9.5
			C24.37,70.23,25.22,69.38,25.22,68.33z"/>
		<path class="st18" d="M101.14,37.99c0.49,0,0.97-0.19,1.34-0.56l6.71-6.71c0.74-0.74,0.74-1.94,0-2.69
			c-0.74-0.74-1.94-0.74-2.69,0l-6.71,6.71c-0.74,0.74-0.74,1.94,0,2.69C100.17,37.81,100.66,37.99,101.14,37.99z"/>
		<path class="st18" d="M35.33,99.22l-6.71,6.71c-0.74,0.74-0.74,1.94,0,2.69c0.37,0.37,0.86,0.56,1.34,0.56s0.97-0.19,1.34-0.56
			l6.71-6.71c0.74-0.74,0.74-1.94,0-2.69C37.27,98.48,36.07,98.48,35.33,99.22z"/>
		<path class="st18" d="M102.48,99.22c-0.74-0.74-1.94-0.74-2.69,0c-0.74,0.74-0.74,1.94,0,2.69l6.71,6.71
			c0.37,0.37,0.86,0.56,1.34,0.56s0.97-0.19,1.34-0.56c0.74-0.74,0.74-1.94,0-2.69L102.48,99.22z"/>
		<path class="st18" d="M31.3,28.04c-0.74-0.74-1.94-0.74-2.69,0s-0.74,1.94,0,2.69l6.71,6.71c0.37,0.37,0.86,0.56,1.34,0.56
			s0.97-0.19,1.34-0.56c0.74-0.74,0.74-1.94,0-2.69L31.3,28.04z"/>
		<path class="st18" d="M91.17,15.88c-0.96-0.41-2.08,0.04-2.49,1.01l-3.71,8.74c-0.41,0.96,0.04,2.08,1.01,2.49
			c0.24,0.1,0.49,0.15,0.74,0.15c0.74,0,1.44-0.43,1.75-1.16l3.71-8.74C92.59,17.4,92.14,16.29,91.17,15.88z"/>
		<path class="st18" d="M51.83,108.55c-0.97-0.41-2.08,0.04-2.49,1.01l-3.71,8.74c-0.41,0.96,0.04,2.08,1.01,2.49
			c0.24,0.1,0.49,0.15,0.74,0.15c0.74,0,1.44-0.43,1.75-1.16l3.71-8.74C53.25,110.07,52.8,108.96,51.83,108.55z"/>
		<path class="st18" d="M120.35,88.11l-8.74-3.71c-0.96-0.41-2.08,0.04-2.49,1.01c-0.41,0.96,0.04,2.08,1.01,2.49l8.74,3.71
			c0.24,0.1,0.49,0.15,0.74,0.15c0.74,0,1.44-0.43,1.75-1.16C121.77,89.63,121.32,88.51,120.35,88.11z"/>
		<path class="st18" d="M17.46,48.55l8.74,3.71c0.24,0.1,0.49,0.15,0.74,0.15c0.74,0,1.44-0.43,1.75-1.16
			c0.41-0.96-0.04-2.08-1.01-2.49l-8.74-3.71c-0.96-0.41-2.08,0.04-2.49,1.01C16.04,47.03,16.49,48.15,17.46,48.55z"/>
		<path class="st18" d="M109.41,51.66c0.3,0.74,1.01,1.19,1.76,1.19c0.24,0,0.48-0.05,0.71-0.14l8.81-3.56
			c0.97-0.39,1.44-1.5,1.05-2.47c-0.39-0.97-1.5-1.44-2.47-1.05l-8.81,3.56C109.49,49.58,109.02,50.69,109.41,51.66z"/>
		<path class="st18" d="M28.4,84.39c-0.39-0.97-1.5-1.44-2.47-1.05l-8.81,3.56c-0.97,0.39-1.44,1.5-1.05,2.47
			c0.3,0.74,1.01,1.19,1.76,1.19c0.24,0,0.48-0.05,0.71-0.14l8.81-3.56C28.32,86.47,28.79,85.36,28.4,84.39z"/>
		<path class="st18" d="M87.74,109.58c-0.39-0.97-1.5-1.44-2.47-1.05c-0.97,0.39-1.44,1.5-1.05,2.47l3.56,8.81
			c0.3,0.74,1.01,1.19,1.76,1.19c0.24,0,0.48-0.05,0.71-0.14c0.97-0.39,1.44-1.5,1.05-2.47L87.74,109.58z"/>
		<path class="st18" d="M50.03,16.24c-0.39-0.97-1.5-1.44-2.47-1.05c-0.97,0.39-1.44,1.5-1.05,2.47l3.56,8.81
			c0.3,0.74,1.01,1.19,1.76,1.19c0.24,0,0.48-0.05,0.71-0.14c0.97-0.39,1.44-1.5,1.05-2.47L50.03,16.24z"/>
	</g>
</g>
<g class="st0">
	<text transform="matrix(1 0 0 1 25.2893 93.0163)" class="st19 st8 st9">15</text>
</g>
<g class="st0">
	<ellipse class="st20" cx="63.66" cy="66.41" rx="43.08" ry="42.3"/>
	<g class="st1">
		<ellipse class="st21" cx="36.37" cy="100.25" rx="1.44" ry="1.41"/>
		<ellipse class="st21" cx="29.19" cy="60.77" rx="1.44" ry="1.41"/>
		<ellipse class="st21" cx="57.91" cy="59.36" rx="1.44" ry="1.41"/>
		<ellipse class="st21" cx="89.51" cy="32.57" rx="1.44" ry="1.41"/>
		<ellipse class="st21" cx="96.69" cy="60.77" rx="1.44" ry="1.41"/>
	</g>
	<ellipse class="st22" cx="96.69" cy="83.33" rx="5.74" ry="5.64"/>
	<ellipse class="st22" cx="78.41" cy="101.66" rx="5.74" ry="5.64"/>
	<ellipse class="st22" cx="56.48" cy="79.1" rx="5.74" ry="5.64"/>
	<ellipse class="st22" cx="74.35" cy="60.77" rx="7.18" ry="7.05"/>
	<line class="st23" x1="69.84" y1="66.21" x2="60.64" y2="75.23"/>
	<line class="st23" x1="92.45" y1="79.55" x2="78.86" y2="66.21"/>
	<line class="st23" x1="82.47" y1="97.67" x2="92.84" y2="87.49"/>
	<polyline class="st23" points="59.96,83.55 74.35,97.67 74.35,97.67 	"/>
	<ellipse class="st22" cx="56.48" cy="38.21" rx="4.31" ry="4.23"/>
	<ellipse class="st22" cx="29.19" cy="32.57" rx="4.31" ry="4.23"/>
	<line class="st23" x1="73.71" y1="56.54" x2="59.35" y2="41.03"/>
	<line class="st23" x1="52.17" y1="36.8" x2="33.5" y2="32.57"/>
	<ellipse class="st24" cx="56.48" cy="79.1" rx="3.71" ry="3.65"/>
	<ellipse class="st24" cx="78.41" cy="101.66" rx="3.71" ry="3.65"/>
	<ellipse class="st24" cx="96.69" cy="83.33" rx="2.7" ry="2.65"/>
	<ellipse class="st24" cx="74.35" cy="60.77" rx="4.13" ry="4.06"/>
	<ellipse class="st24" cx="56.48" cy="38.21" rx="1.44" ry="1.41"/>
	<ellipse class="st24" cx="29.19" cy="32.57" rx="1.44" ry="1.41"/>
</g>
<text transform="matrix(1 0 0 1 18.9888 92.0843)" class="st25 st8 st9">16</text>
<g class="st0">
	<path class="st24" d="M111.28,106.94h-2.84l-4.32-4.32v-2.84c0-0.99-0.8-1.79-1.79-1.79c-0.99,0-1.79,0.8-1.79,1.79v2.84
		l-4.32,4.32h-2.84c-0.99,0-1.79,0.8-1.79,1.79c0,0.99,0.8,1.79,1.79,1.79h2.84l4.32,4.32v2.84c0,0.99,0.8,1.79,1.79,1.79
		c0.99,0,1.79-0.8,1.79-1.79v-2.84l4.32-4.32h2.84c0.99,0,1.79-0.8,1.79-1.79C113.07,107.74,112.27,106.94,111.28,106.94z"/>
	<circle class="st26" cx="64.75" cy="67.56" r="41.17"/>
	<circle class="st24" cx="17.54" cy="22.82" r="1.79"/>
	<circle class="st24" cx="21.12" cy="108.74" r="1.79"/>
	<circle class="st24" cx="50.65" cy="116.34" r="1.79"/>
	<circle class="st24" cx="39.91" cy="72.93" r="1.79"/>
	<circle class="st24" cx="94.11" cy="19.91" r="1.79"/>
	<circle class="st24" cx="110.39" cy="95.08" r="1.79"/>
	<path class="st27" d="M67.22,64.18c0.26,0.13,0.65,0.43,0.81,0.67c1.25,1.83,0.53,4.5,1.77,5.16c0.98,0.52,1.54,1.58,1.12,2.6
		c-1.71,4.19-0.23,8.99,3.74,12.28c2.8,2.32,0.47,7.69-1.88,11.9c-0.84,1.51,0.66,3.25,2.29,2.67c2.57-0.91,4.7-2.24,7.17-4.36
		c3.57-3.07,4.35-6.42,7.89-9.03c0.04-0.03,0.07-0.06,0.08-0.11c0.91-2.65,3.72-8.45,0.88-9.93c-2.65-1.38-3.64-5.36-6.23-8.08
		c-0.3-0.31-0.72-0.47-1.15-0.52c-3.17-0.41-4.6-2.82-6.73-1.22c-1.6,1.2-3.39,0.47-3.95-1.45c-0.18-0.63-0.5-1.18-1.65-1.54
		c-0.87-0.27-1.3-1.26-0.98-2.12c0.01-0.01,0.01-0.03,0.01-0.04c0.42-1.15-1.95-0.97-3.16-0.77c-0.34,0.06,0.81-1.31,0.43-1.08
		c-1.48,0.88-3.32-0.64-3.24-2.35c0.08-1.74,0.41-1.66,3.4-2c3.22-1.5,4.78-0.41,4.67,3.27c1.99,0.29,2.68-0.59,2.09-2.64
		c-0.18-0.6-0.03-1.27,0.35-1.76c3.67-4.77,6.73-6.85,12.34-8.77c0.91-0.31,1.43-1.29,1.17-2.22c-0.9-3.3-2.3-8.51-4.68-8.88
		c-0.61-0.1-1.3-0.67-1.55-1.24c-0.84-1.92-1.4-2.73-2.98-3.2c-1.21-0.35-2.43,0.54-2.43,1.79c-0.02,3.85-0.01,7.16-4.41,2.77
		c-3.64-3.63-4.7-5.61-2.69-6.56c-0.09-0.78,0,0.04-0.09-0.74c-8.52-1.02-16.75,0.66-23.85,4.36c-0.13,0.07-0.18,0.24-0.11,0.37
		c2.79,5.14,3.36,7.84,3.05,13.83c-0.02,0.33,0.04,0.66,0.18,0.96c2.43,5.23,5.55,14.11,10.88,16.15
		C62.37,63.35,64.76,62.98,67.22,64.18z"/>
</g>
<text transform="matrix(1 0 0 1 20.2739 94.2534)" class="st25 st8 st9">17</text>
<g class="st0">
	<g class="st1">
		<path class="st28" d="M105.54,58.29l-20.96,5.62l-0.78-2.92l20.99-5.62c-1.39-4.56-3.45-8.73-6.06-12.44l-33.37,8.94l-0.78-2.92
			l32.16-8.62c-4.07-4.94-9.16-8.9-14.87-11.64L26.85,43.44c-3.58,5.23-6.01,11.2-7.07,17.52l6.31-1.69l0.78,2.92l-7.51,2.01
			c-0.41,4.52-0.12,9.16,0.96,13.81l54.05-14.48l0.78,2.92L21.11,80.92c0.59,1.91,1.26,3.77,2.07,5.54c4.17-0.68,6.29,4.4,4.18,7.2
			c0.25,0.35,0.52,0.67,0.78,1l23.01-6.17l0.78,2.92l-21.68,5.81c3.88,4.35,8.57,7.87,13.78,10.37l33.55-8.99l0.78,2.92l-29.74,7.97
			c7.99,2.78,16.86,3.29,25.65,0.94c8.8-2.36,16.24-7.24,21.78-13.65l-9.72,2.6l-0.78-2.92l13.51-3.62c0.23-0.33,0.46-0.66,0.68-1
			c-1.27-2.31-0.75-5.69,2.55-6.58c0.34-0.09,0.67-0.14,0.99-0.16c1.1-2.6,1.91-5.33,2.49-8.11l-9.45,2.53l-0.78-2.92l10.79-2.89
			C106.97,68.69,106.75,63.49,105.54,58.29z"/>
		<path class="st28" d="M51.61,25.87c-2.81,0.75-5.48,1.77-8,3.01c0.09,1.86-0.85,3.74-3.18,4.36c-1.31,0.35-2.44,0.13-3.33-0.42
			c-2.68,1.96-5.11,4.22-7.25,6.7L77.29,26.8C69.3,24.01,60.41,23.51,51.61,25.87z"/>
	</g>
	<circle class="st29" cx="56.13" cy="65.87" r="30.94"/>
	<circle class="st30" cx="50.1" cy="64.36" r="17.36"/>
	<circle class="st24" cx="22.19" cy="28.23" r="1.51"/>
	<circle class="st24" cx="34.27" cy="109.73" r="1.51"/>
	<circle class="st24" cx="102.18" cy="102.18" r="1.51"/>
	<circle class="st24" cx="22.19" cy="106.71" r="1.51"/>
	<circle class="st24" cx="28.67" cy="33.58" r="1.51"/>
	<circle class="st24" cx="97.66" cy="29.73" r="1.51"/>
	<g class="st1">
		<path class="st31" d="M96.94,76.22c-0.01-0.09,0-0.18-0.02-0.27c-0.35-2.66-2.42-5.35-5.71-5.35c-0.54,0-1.09,0.08-1.65,0.22
			c-3.41,0.91-4.6,3.89-4.26,6.44c0.09,0.65,0.28,1.31,0.56,1.92l-24.33,6.52c-0.91-1.79-2.65-3.2-5.02-3.2
			c-0.54,0-1.09,0.08-1.65,0.22c-3.18,0.85-4.41,3.5-4.29,5.91l-22.43,6.01c0.67,0.88,1.38,1.74,2.11,2.56l21.17-5.67
			c0.94,1.68,2.62,2.98,4.89,2.98c0.54,0,1.09-0.08,1.65-0.22c3.07-0.82,4.33-3.31,4.3-5.66l25.77-6.91
			c0.83,0.54,1.82,0.89,2.97,0.89c0.54,0,1.09-0.08,1.65-0.22c1.83-0.49,3.01-1.58,3.66-2.88l9.44-2.53
			c0.22-1.08,0.41-2.17,0.55-3.27L96.94,76.22z M57.18,91.38c-2.07,0.55-3.38-1.07-3.59-2.61c-0.08-0.58-0.16-2.53,2.05-3.13
			c0.3-0.08,0.59-0.12,0.87-0.12c1.62,0,2.55,1.41,2.72,2.73C59.31,88.84,59.39,90.79,57.18,91.38z M91.88,79.48
			c-2.07,0.55-3.38-1.07-3.59-2.61c-0.08-0.58-0.16-2.53,2.05-3.13c0.3-0.08,0.59-0.12,0.87-0.12c1.62,0,2.55,1.41,2.72,2.73
			C94.01,76.94,94.09,78.89,91.88,79.48z"/>
		<path class="st31" d="M77.29,26.8L29.84,39.51c-1.08,1.25-2.06,2.57-2.99,3.93L81.87,28.7C80.38,27.98,78.86,27.34,77.29,26.8z"/>
		<path class="st31" d="M31.29,65.29c0.54,0,1.09-0.08,1.65-0.22c3.07-0.82,4.33-3.31,4.3-5.66l17.7-4.74
			c0.88,1.9,2.67,3.43,5.15,3.43c0.54,0,1.09-0.08,1.65-0.22c3.29-0.88,4.5-3.69,4.28-6.17l32.71-8.76
			c-0.63-0.89-1.3-1.75-1.99-2.59l-31.67,8.49c-0.97-1.57-2.59-2.75-4.76-2.75c-0.54,0-1.09,0.08-1.65,0.22
			c-2.95,0.79-4.24,3.13-4.31,5.4l-17.82,4.78c-0.91-1.79-2.65-3.2-5.02-3.2c-0.54,0-1.09,0.08-1.65,0.22
			c-3.18,0.85-4.41,3.5-4.29,5.91l-5.77,1.55c-0.18,1.07-0.32,2.15-0.42,3.24l7.03-1.89C27.34,63.99,29.02,65.29,31.29,65.29z
			 M59.43,49.22c0.3-0.08,0.59-0.12,0.87-0.12c1.62,0,2.55,1.42,2.72,2.73c0.08,0.58,0.16,2.53-2.05,3.13
			c-2.07,0.55-3.38-1.07-3.59-2.61C57.3,51.76,57.22,49.81,59.43,49.22z M30.62,56.41c0.3-0.08,0.59-0.12,0.87-0.12
			c1.62,0,2.55,1.41,2.72,2.73c0.08,0.58,0.16,2.53-2.05,3.13c-2.08,0.56-3.38-1.07-3.59-2.61C28.5,58.96,28.42,57.01,30.62,56.41z"
			/>
		<path class="st31" d="M87.01,95.81c-0.35-2.66-2.42-5.36-5.71-5.36c-0.54,0-1.09,0.08-1.65,0.22c-3.41,0.91-4.6,3.89-4.26,6.44
			c0.09,0.65,0.28,1.31,0.56,1.92l-31.92,8.55c1.49,0.72,3.02,1.35,4.59,1.9l29.51-7.91c0.83,0.54,1.82,0.89,2.97,0.89
			c0.54,0,1.09-0.08,1.65-0.22c1.83-0.49,3.01-1.59,3.66-2.88l9.63-2.58c1.08-1.25,2.09-2.57,3.02-3.93l-12.04,3.22
			C87.02,95.98,87.02,95.89,87.01,95.81z M81.97,99.32c-2.07,0.55-3.38-1.07-3.59-2.61c-0.08-0.58-0.16-2.53,2.05-3.13
			c0.3-0.08,0.59-0.12,0.87-0.12c1.62,0,2.55,1.42,2.72,2.73C84.09,96.78,84.17,98.73,81.97,99.32z"/>
		<path class="st31" d="M79.2,69.64c0.54,0,1.09-0.08,1.65-0.22c3.07-0.82,4.33-3.31,4.3-5.66l20.38-5.46
			c-0.11-0.49-0.2-0.98-0.33-1.47c-0.13-0.49-0.28-0.97-0.43-1.45l-20.36,5.45c-0.91-1.79-2.65-3.2-5.02-3.2
			c-0.54,0-1.09,0.08-1.65,0.22c-3.18,0.85-4.41,3.5-4.29,5.91L20.32,78c0.11,0.49,0.2,0.98,0.33,1.47
			c0.13,0.49,0.31,0.96,0.45,1.44l53.2-14.25C75.25,68.34,76.93,69.64,79.2,69.64z M78.54,60.76c0.3-0.08,0.59-0.12,0.87-0.12
			c1.62,0,2.55,1.42,2.72,2.73c0.08,0.58,0.16,2.53-2.05,3.13c-2.07,0.55-3.38-1.07-3.59-2.61C76.41,63.31,76.33,61.36,78.54,60.76z
			"/>
	</g>
</g>
<text transform="matrix(1 0 0 1 18.3231 93.4511)" class="st25 st8 st9">18</text>
<path class="st71" d="M19.87,102.19c-0.16-4.35,0.84-9.41,2.95-15.04c4.42-11.79,13.19-24.62,24.7-36.13l-2.31-2.31
	C33.37,60.54,24.33,73.78,19.75,86c-4.74,12.64-4.16,22.78,1.62,28.57c0.32,0.32,0.74,0.48,1.16,0.48c0.42,0,0.84-0.16,1.16-0.48
	c0.64-0.64,0.64-1.68,0-2.31C21.31,109.87,20.02,106.49,19.87,102.19z"/>
<circle class="st72" cx="66.22" cy="69.72" r="41.46"/>
<path class="st71" d="M111.06,24.88c-4.91-4.91-12.98-6.07-23.04-3.4l1.38-1.63c0.58-0.69,0.5-1.72-0.19-2.31s-1.72-0.5-2.31,0.19
	l-5.09,6c-0.35,0.42-0.48,0.98-0.33,1.51c0.15,0.53,0.55,0.94,1.08,1.11l7.5,2.39c0.17,0.05,0.33,0.08,0.5,0.08
	c0.69,0,1.34-0.44,1.56-1.14c0.27-0.86-0.2-1.78-1.06-2.06l-2.67-0.85c3.76-1.04,7.21-1.51,10.29-1.4c4.3,0.15,7.69,1.44,10.06,3.82
	c2.38,2.38,3.66,5.77,3.82,10.06c0.16,4.35-0.84,9.41-2.95,15.04c-4.42,11.79-13.19,24.62-24.7,36.13
	c-11.51,11.51-24.34,20.28-36.13,24.7c-5.63,2.11-10.69,3.1-15.04,2.95c-4.3-0.15-7.69-1.44-10.06-3.82c-0.64-0.64-1.67-0.64-2.31,0
	c-0.64,0.64-0.64,1.68,0,2.31c3.19,3.19,7.72,4.8,13.26,4.8c4.49,0,9.65-1.06,15.31-3.18c12.22-4.58,25.46-13.62,37.29-25.45
	s20.87-25.07,25.45-37.29C117.42,40.81,116.85,30.66,111.06,24.88z"/>
<text transform="matrix(1 0 0 1 22.2652 98.1042)" class="st67 st8 st9">19</text>
</svg>
