<?xml version="1.0" encoding="utf-8"?>
<!-- Generator: Adobe Illustrator 23.0.3, SVG Export Plug-In . SVG Version: 6.00 Build 0)  -->
<svg version="1.1" id="Capa_1" xmlns="http://www.w3.org/2000/svg" xmlns:xlink="http://www.w3.org/1999/xlink" x="0px" y="0px"
	 viewBox="0 0 154.88 136.59" style="enable-background:new 0 0 154.88 136.59;" xml:space="preserve">
<style type="text/css">
	.st0{display:none;}
	.st1{display:inline;}
	.st2{fill:#243A3D;}
	.st3{fill:#6E888A;}
	.st4{fill:#749191;}
	.st5{fill:#F3D65C;}
	.st6{fill:#9C9FA0;}
	.st7{fill:#F9FAE9;}
	.st8{font-family:'Roboto-Black';}
	.st9{font-size:72px;}
	.st10{fill:#D85B4B;}
	.st11{fill:#E57E25;}
</style>
<g class="st0">
	<g class="st1">
		<circle class="st2" cx="74.04" cy="69.97" r="41.53"/>
		<circle class="st3" cx="66.37" cy="66.8" r="32.94"/>
		<circle class="st4" cx="60.98" cy="64.1" r="26.61"/>
		<path class="st5" d="M115.56,109.69h-5.42l-1.81-1.81v-5.42c0-1-0.81-1.81-1.81-1.81c-1,0-1.81,0.81-1.81,1.81v5.42l-1.81,1.81
			h-5.42c-1,0-1.81,0.81-1.81,1.81c0,1,0.81,1.81,1.81,1.81h5.42l1.81,1.81v5.42c0,1,0.81,1.81,1.81,1.81c1,0,1.81-0.81,1.81-1.81
			v-5.42l1.81-1.81h5.42c1,0,1.81-0.81,1.81-1.81C117.37,110.5,116.56,109.69,115.56,109.69z"/>
		<circle class="st5" cx="28.9" cy="24.84" r="1.81"/>
		<circle class="st5" cx="34.32" cy="116.92" r="1.81"/>
		<circle class="st6" cx="25.29" cy="104.28" r="1.81"/>
		<circle class="st5" cx="45.15" cy="19.42" r="1.81"/>
		<circle class="st5" cx="117.37" cy="24.84" r="1.81"/>
		<circle class="st5" cx="120.98" cy="111.5" r="1.81"/>
		<circle class="st5" cx="100.22" cy="88.71" r="1.81"/>
		<circle class="st5" cx="45.15" cy="64.11" r="1.81"/>
		<path class="st6" d="M73.18,111.49c-3.2,7.32-5.72,9.1-6.72,8.96c-1.17-0.16-3.65-3.42-4.64-14.67
			c-0.88-9.97-0.36-23.02,1.48-36.76c4.08-30.58,12.49-49.28,16.52-48.8c0.94,0.12,2.79,2.27,3.98,9.39
			c1.23,0.29,2.43,0.65,3.6,1.05c0.09-0.26,0.14-0.54,0.09-0.84c-1.28-8.39-3.64-12.7-7.2-13.17c-9.85-1.3-17.7,30.32-20.58,51.9
			c-1.87,13.99-2.39,27.33-1.49,37.55c1,11.34,3.61,17.38,7.76,17.93c0.21,0.03,0.42,0.04,0.63,0.04c3.46,0,6.78-3.84,10.13-11.71
			c0.13-0.31,0.14-0.64,0.1-0.95C75.63,111.48,74.41,111.51,73.18,111.49z"/>
	</g>
	<g class="st1">
		<text transform="matrix(1 0 0 1 49.5095 93.7096)" class="st7 st8 st9">1</text>
	</g>
</g>
<g>
	<g>
		<circle class="st10" cx="77.44" cy="67.34" r="42.2"/>
		<path class="st5" d="M126.67,23.38h-2.79l-4.24-4.24v-2.79c0-0.97-0.79-1.76-1.76-1.76s-1.76,0.79-1.76,1.76v2.79l-4.24,4.24
			h-2.79c-0.97,0-1.76,0.79-1.76,1.76c0,0.97,0.79,1.76,1.76,1.76h2.79l4.24,4.24v2.79c0,0.97,0.79,1.76,1.76,1.76
			s1.76-0.79,1.76-1.76v-2.79l4.25-4.24h2.79c0.97,0,1.76-0.79,1.76-1.76C128.43,24.17,127.64,23.38,126.67,23.38z"/>
		<circle class="st5" cx="40.52" cy="30.42" r="1.76"/>
		<circle class="st5" cx="73.92" cy="35.69" r="1.76"/>
		<circle class="st5" cx="123.15" cy="44.48" r="1.76"/>
		<circle class="st5" cx="93.27" cy="23.38" r="1.76"/>
		<circle class="st5" cx="91.51" cy="93.71" r="1.76"/>
		<circle class="st5" cx="35.24" cy="109.54" r="1.76"/>
		<circle class="st5" cx="31.72" cy="90.2" r="1.76"/>
		<path class="st11" d="M116.07,50.36c-1.63-3.69-3.76-7.11-6.32-10.16c-12.2,1.94-37.58,6.04-37.58,6.04L116.07,50.36z"/>
		<path class="st11" d="M114.66,87.22c1.73-3.23,3.05-6.72,3.89-10.39l-56.94,6.33C61.61,83.16,95.11,85.66,114.66,87.22z"/>
		<path class="st11" d="M35.88,60.08c-0.41,2.36-0.64,4.78-0.64,7.26c0,0.96,0.04,1.9,0.11,2.84l36.82-4.6
			C72.16,65.58,49.96,62.15,35.88,60.08z"/>
		<circle class="st5" cx="107.33" cy="109.54" r="1.76"/>
		<circle class="st5" cx="123.15" cy="88.44" r="1.76"/>
		<circle class="st5" cx="31.72" cy="21.62" r="1.76"/>
		<circle class="st5" cx="51.06" cy="18.11" r="1.76"/>
	</g>
	<text transform="matrix(1 0 0 1 56.9988 92.4389)" class="st7 st8 st9">2</text>
</g>
</svg>
