<?xml version="1.0" encoding="utf-8"?>
<!-- Generator: Adobe Illustrator 23.0.3, SVG Export Plug-In . SVG Version: 6.00 Build 0)  -->
<svg version="1.1" id="Capa_1" xmlns="http://www.w3.org/2000/svg" xmlns:xlink="http://www.w3.org/1999/xlink" x="0px" y="0px"
	 viewBox="0 0 154.88 136.59" style="enable-background:new 0 0 154.88 136.59;" xml:space="preserve">
<style type="text/css">
	.st0{display:none;}
	.st1{display:inline;}
	.st2{fill:#243A3D;}
	.st3{fill:#6E888A;}
	.st4{fill:#749191;}
	.st5{fill:#F3D65C;}
	.st6{fill:#9C9FA0;}
	.st7{fill:#F9FAE9;}
	.st8{font-family:'Roboto-Black';}
	.st9{font-size:72px;}
	.st10{fill:#D85B4B;}
	.st11{fill:#E57E25;}
	.st12{display:inline;fill:#F9FAE9;}
	.st13{display:inline;fill:#E7D06B;}
	.st14{display:inline;fill:#DFAA00;}
	.st15{display:inline;fill:#C8830F;}
	.st16{fill:#DFAA00;}
	.st17{fill:#C8830F;}
	.st18{fill:#E7D06B;}
	.st19{fill:#F9F9E8;}
	.st20{fill:#556080;}
	.st21{fill:#F2D55C;}
	.st22{fill:#8697CA;}
	.st23{fill:none;stroke:#8697CA;stroke-width:2;stroke-linecap:round;stroke-miterlimit:10;}
</style>
<g class="st0">
	<g class="st1">
		<circle class="st2" cx="74.04" cy="69.97" r="41.53"/>
		<circle class="st3" cx="66.37" cy="66.8" r="32.94"/>
		<circle class="st4" cx="60.98" cy="64.1" r="26.61"/>
		<path class="st5" d="M115.56,109.69h-5.42l-1.81-1.81v-5.42c0-1-0.81-1.81-1.81-1.81s-1.81,0.81-1.81,1.81v5.42l-1.81,1.81h-5.42
			c-1,0-1.81,0.81-1.81,1.81s0.81,1.81,1.81,1.81h5.42l1.81,1.81v5.42c0,1,0.81,1.81,1.81,1.81s1.81-0.81,1.81-1.81v-5.42l1.81-1.81
			h5.42c1,0,1.81-0.81,1.81-1.81C117.37,110.5,116.56,109.69,115.56,109.69z"/>
		<circle class="st5" cx="28.9" cy="24.84" r="1.81"/>
		<circle class="st5" cx="34.32" cy="116.92" r="1.81"/>
		<circle class="st6" cx="25.29" cy="104.28" r="1.81"/>
		<circle class="st5" cx="45.15" cy="19.42" r="1.81"/>
		<circle class="st5" cx="117.37" cy="24.84" r="1.81"/>
		<circle class="st5" cx="120.98" cy="111.5" r="1.81"/>
		<circle class="st5" cx="100.22" cy="88.71" r="1.81"/>
		<circle class="st5" cx="45.15" cy="64.11" r="1.81"/>
		<path class="st6" d="M73.18,111.49c-3.2,7.32-5.72,9.1-6.72,8.96c-1.17-0.16-3.65-3.42-4.64-14.67
			c-0.88-9.97-0.36-23.02,1.48-36.76c4.08-30.58,12.49-49.28,16.52-48.8c0.94,0.12,2.79,2.27,3.98,9.39
			c1.23,0.29,2.43,0.65,3.6,1.05c0.09-0.26,0.14-0.54,0.09-0.84c-1.28-8.39-3.64-12.7-7.2-13.17c-9.85-1.3-17.7,30.32-20.58,51.9
			c-1.87,13.99-2.39,27.33-1.49,37.55c1,11.34,3.61,17.38,7.76,17.93c0.21,0.03,0.42,0.04,0.63,0.04c3.46,0,6.78-3.84,10.13-11.71
			c0.13-0.31,0.14-0.64,0.1-0.95C75.63,111.48,74.41,111.51,73.18,111.49z"/>
	</g>
	<g class="st1">
		<text transform="matrix(1 0 0 1 49.5095 93.7096)" class="st7 st8 st9">1</text>
	</g>
</g>
<g class="st0">
	<g class="st1">
		<circle class="st10" cx="77.44" cy="67.34" r="42.2"/>
		<path class="st5" d="M126.67,23.38h-2.79l-4.24-4.24v-2.79c0-0.97-0.79-1.76-1.76-1.76s-1.76,0.79-1.76,1.76v2.79l-4.24,4.24
			h-2.79c-0.97,0-1.76,0.79-1.76,1.76s0.79,1.76,1.76,1.76h2.79l4.24,4.24v2.79c0,0.97,0.79,1.76,1.76,1.76s1.76-0.79,1.76-1.76
			v-2.79l4.25-4.24h2.79c0.97,0,1.76-0.79,1.76-1.76C128.43,24.17,127.64,23.38,126.67,23.38z"/>
		<circle class="st5" cx="40.52" cy="30.42" r="1.76"/>
		<circle class="st5" cx="73.92" cy="35.69" r="1.76"/>
		<circle class="st5" cx="123.15" cy="44.48" r="1.76"/>
		<circle class="st5" cx="93.27" cy="23.38" r="1.76"/>
		<circle class="st5" cx="91.51" cy="93.71" r="1.76"/>
		<circle class="st5" cx="35.24" cy="109.54" r="1.76"/>
		<circle class="st5" cx="31.72" cy="90.2" r="1.76"/>
		<path class="st11" d="M116.07,50.36c-1.63-3.69-3.76-7.11-6.32-10.16c-12.2,1.94-37.58,6.04-37.58,6.04L116.07,50.36z"/>
		<path class="st11" d="M114.66,87.22c1.73-3.23,3.05-6.72,3.89-10.39l-56.94,6.33C61.61,83.16,95.11,85.66,114.66,87.22z"/>
		<path class="st11" d="M35.88,60.08c-0.41,2.36-0.64,4.78-0.64,7.26c0,0.96,0.04,1.9,0.11,2.84l36.82-4.6
			C72.16,65.58,49.96,62.15,35.88,60.08z"/>
		<circle class="st5" cx="107.33" cy="109.54" r="1.76"/>
		<circle class="st5" cx="123.15" cy="88.44" r="1.76"/>
		<circle class="st5" cx="31.72" cy="21.62" r="1.76"/>
		<circle class="st5" cx="51.06" cy="18.11" r="1.76"/>
	</g>
	<text transform="matrix(1 0 0 1 56.9988 92.4389)" class="st12 st8 st9">2</text>
</g>
<g class="st0">
	<circle class="st13" cx="77" cy="68.99" r="41.98"/>
	<circle class="st14" cx="77" cy="68.99" r="32.48"/>
	<circle class="st15" cx="77" cy="68.99" r="19"/>
	<g class="st1">
		<path class="st16" d="M77,27.2c-1.05,0-1.9,0.85-1.9,1.9v3.8c0,1.05,0.85,1.9,1.9,1.9s1.9-0.85,1.9-1.9v-3.8
			C78.9,28.06,78.05,27.2,77,27.2z"/>
		<path class="st16" d="M77,103.18c-1.05,0-1.9,0.85-1.9,1.9v3.8c0,1.05,0.85,1.9,1.9,1.9s1.9-0.85,1.9-1.9v-3.8
			C78.9,104.04,78.05,103.18,77,103.18z"/>
		<path class="st16" d="M116.89,67.09h-3.8c-1.05,0-1.9,0.85-1.9,1.9s0.85,1.9,1.9,1.9h3.8c1.05,0,1.9-0.85,1.9-1.9
			S117.94,67.09,116.89,67.09z"/>
		<path class="st16" d="M42.81,68.99c0-1.05-0.85-1.9-1.9-1.9h-3.8c-1.05,0-1.9,0.85-1.9,1.9s0.85,1.9,1.9,1.9h3.8
			C41.96,70.89,42.81,70.04,42.81,68.99z"/>
		<path class="st16" d="M103.87,39.44l-2.69,2.69c-0.74,0.74-0.74,1.95,0,2.69c0.37,0.37,0.86,0.56,1.34,0.56s0.97-0.19,1.34-0.55
			l2.69-2.69c0.74-0.74,0.74-1.95,0-2.69C105.81,38.7,104.61,38.7,103.87,39.44z"/>
		<path class="st16" d="M50.14,93.17l-2.69,2.69c-0.74,0.74-0.74,1.95,0,2.69c0.37,0.37,0.86,0.56,1.34,0.56s0.97-0.19,1.34-0.55
			l2.69-2.69c0.74-0.74,0.74-1.95,0-2.69C52.08,92.43,50.88,92.43,50.14,93.17z"/>
		<path class="st16" d="M103.87,93.17c-0.74-0.74-1.94-0.74-2.69,0c-0.74,0.74-0.74,1.95,0,2.69l2.69,2.69
			c0.37,0.37,0.86,0.55,1.34,0.55c0.49,0,0.97-0.19,1.34-0.56c0.74-0.74,0.74-1.95,0-2.69L103.87,93.17z"/>
		<path class="st16" d="M50.14,39.44c-0.74-0.74-1.94-0.74-2.69,0c-0.74,0.74-0.74,1.95,0,2.69l2.69,2.69
			c0.37,0.37,0.86,0.55,1.34,0.55c0.49,0,0.97-0.19,1.34-0.56c0.74-0.74,0.74-1.95,0-2.69L50.14,39.44z"/>
		<path class="st16" d="M93.33,30.53c-0.96-0.41-2.08,0.04-2.49,1.01l-1.48,3.5c-0.41,0.96,0.04,2.08,1.01,2.49
			c0.24,0.1,0.49,0.15,0.74,0.15c0.74,0,1.44-0.43,1.75-1.16l1.48-3.5C94.75,32.05,94.3,30.94,93.33,30.53z"/>
		<path class="st16" d="M63.65,100.47c-0.97-0.41-2.08,0.04-2.49,1.01l-1.48,3.5c-0.41,0.96,0.04,2.08,1.01,2.49
			c0.24,0.1,0.49,0.15,0.74,0.15c0.74,0,1.44-0.43,1.75-1.16l1.48-3.5C65.06,101.99,64.61,100.88,63.65,100.47z"/>
		<path class="st16" d="M114.47,82.83l-3.5-1.49c-0.96-0.41-2.08,0.04-2.49,1.01c-0.41,0.96,0.04,2.08,1.01,2.49l3.5,1.49
			c0.24,0.1,0.49,0.15,0.74,0.15c0.74,0,1.44-0.43,1.75-1.16C115.88,84.36,115.43,83.24,114.47,82.83z"/>
		<path class="st16" d="M44.52,53.14l-3.5-1.49c-0.96-0.41-2.08,0.04-2.49,1.01c-0.41,0.96,0.04,2.08,1.01,2.49l3.5,1.49
			c0.24,0.1,0.49,0.15,0.74,0.15c0.74,0,1.44-0.43,1.75-1.16C45.94,54.67,45.49,53.55,44.52,53.14z"/>
		<path class="st16" d="M110.47,57.07c0.24,0,0.48-0.05,0.71-0.14l3.52-1.42c0.97-0.39,1.44-1.5,1.05-2.47
			c-0.39-0.97-1.5-1.44-2.47-1.05l-3.52,1.42c-0.97,0.39-1.44,1.5-1.05,2.47C109.01,56.62,109.72,57.07,110.47,57.07z"/>
		<path class="st16" d="M42.83,80.45l-3.52,1.42c-0.97,0.39-1.44,1.5-1.05,2.47c0.3,0.74,1.01,1.19,1.76,1.19
			c0.24,0,0.48-0.05,0.71-0.14l3.52-1.42c0.97-0.39,1.44-1.5,1.05-2.47C44.91,80.52,43.8,80.06,42.83,80.45z"/>
		<path class="st16" d="M92.28,101.44c-0.39-0.97-1.5-1.44-2.47-1.05c-0.97,0.39-1.44,1.5-1.05,2.47l1.42,3.52
			c0.3,0.74,1.01,1.19,1.76,1.19c0.24,0,0.48-0.05,0.71-0.14c0.97-0.39,1.44-1.5,1.05-2.47L92.28,101.44z"/>
		<path class="st16" d="M63.82,30.99c-0.39-0.97-1.5-1.44-2.47-1.05c-0.97,0.39-1.44,1.5-1.05,2.47l1.42,3.52
			c0.3,0.74,1.01,1.19,1.76,1.19c0.24,0,0.48-0.05,0.71-0.14c0.97-0.39,1.44-1.5,1.05-2.47L63.82,30.99z"/>
	</g>
	<g class="st1">
		<path class="st17" d="M77,38.6c-0.99,0-1.79,0.8-1.79,1.79v3.57c0,0.99,0.8,1.79,1.79,1.79c0.99,0,1.79-0.8,1.79-1.79v-3.57
			C78.79,39.4,77.99,38.6,77,38.6z"/>
		<path class="st17" d="M77,92.23c-0.99,0-1.79,0.8-1.79,1.79v3.57c0,0.99,0.8,1.79,1.79,1.79c0.99,0,1.79-0.8,1.79-1.79v-3.57
			C78.79,93.04,77.99,92.23,77,92.23z"/>
		<path class="st17" d="M105.61,67.21h-3.57c-0.99,0-1.79,0.8-1.79,1.79s0.8,1.79,1.79,1.79h3.57c0.99,0,1.79-0.8,1.79-1.79
			S106.6,67.21,105.61,67.21z"/>
		<path class="st17" d="M53.76,68.99c0-0.99-0.8-1.79-1.79-1.79H48.4c-0.99,0-1.79,0.8-1.79,1.79s0.8,1.79,1.79,1.79h3.57
			C52.96,70.78,53.76,69.98,53.76,68.99z"/>
		<path class="st17" d="M94.7,53.08c0.46,0,0.92-0.17,1.26-0.52l2.53-2.53c0.7-0.7,0.7-1.83,0-2.53c-0.7-0.7-1.83-0.7-2.53,0
			l-2.53,2.53c-0.7,0.7-0.7,1.83,0,2.53C93.79,52.91,94.24,53.08,94.7,53.08z"/>
		<path class="st17" d="M58.04,85.43l-2.53,2.53c-0.7,0.7-0.7,1.83,0,2.53c0.35,0.35,0.81,0.52,1.26,0.52
			c0.46,0,0.92-0.17,1.26-0.52l2.53-2.53c0.7-0.7,0.7-1.83,0-2.53C59.87,84.73,58.74,84.73,58.04,85.43z"/>
		<path class="st17" d="M95.97,85.43c-0.7-0.7-1.83-0.7-2.53,0c-0.7,0.7-0.7,1.83,0,2.53l2.53,2.53c0.35,0.35,0.81,0.52,1.26,0.52
			c0.46,0,0.92-0.17,1.26-0.52c0.7-0.7,0.7-1.83,0-2.53L95.97,85.43z"/>
		<path class="st17" d="M58.04,47.5c-0.7-0.7-1.83-0.7-2.53,0s-0.7,1.83,0,2.53l2.53,2.53c0.35,0.35,0.81,0.52,1.26,0.52
			c0.46,0,0.92-0.17,1.26-0.52c0.7-0.7,0.7-1.83,0-2.53L58.04,47.5z"/>
		<path class="st17" d="M88.88,41.02c-0.91-0.39-1.96,0.04-2.34,0.95l-1.4,3.29c-0.39,0.91,0.04,1.96,0.95,2.34
			c0.23,0.1,0.46,0.14,0.7,0.14c0.7,0,1.36-0.41,1.65-1.09l1.4-3.29C90.21,42.45,89.79,41.4,88.88,41.02z"/>
		<path class="st17" d="M67.92,90.39c-0.91-0.38-1.96,0.04-2.34,0.95l-1.4,3.29c-0.39,0.91,0.04,1.96,0.95,2.34
			c0.23,0.1,0.46,0.14,0.7,0.14c0.7,0,1.36-0.41,1.65-1.09l1.4-3.29C69.26,91.82,68.83,90.77,67.92,90.39z"/>
		<path class="st17" d="M104.03,78.52l-3.29-1.4c-0.91-0.38-1.96,0.04-2.34,0.95c-0.39,0.91,0.04,1.96,0.95,2.34l3.29,1.4
			c0.23,0.1,0.46,0.14,0.7,0.14c0.7,0,1.36-0.41,1.65-1.09C105.37,79.96,104.94,78.91,104.03,78.52z"/>
		<path class="st17" d="M49.97,59.46l3.29,1.4c0.23,0.1,0.46,0.14,0.7,0.14c0.7,0,1.36-0.41,1.65-1.09
			c0.39-0.91-0.04-1.96-0.95-2.34l-3.29-1.4c-0.91-0.38-1.96,0.04-2.34,0.95C48.64,58.03,49.06,59.08,49.97,59.46z"/>
		<path class="st17" d="M98.55,60c0.28,0.7,0.95,1.12,1.66,1.12c0.22,0,0.45-0.04,0.67-0.13l3.31-1.34
			c0.92-0.37,1.36-1.41,0.99-2.33c-0.37-0.92-1.41-1.36-2.33-0.99l-3.31,1.34C98.62,58.04,98.18,59.09,98.55,60z"/>
		<path class="st17" d="M55.45,77.41c-0.37-0.92-1.41-1.36-2.33-0.99l-3.31,1.34c-0.92,0.37-1.36,1.41-0.99,2.33
			c0.28,0.7,0.95,1.12,1.66,1.12c0.22,0,0.45-0.04,0.67-0.13l3.31-1.34C55.38,79.37,55.82,78.33,55.45,77.41z"/>
		<path class="st17" d="M88.04,91.24c-0.37-0.92-1.41-1.36-2.33-0.99c-0.92,0.37-1.36,1.41-0.99,2.33l1.34,3.31
			c0.28,0.7,0.95,1.12,1.66,1.12c0.22,0,0.45-0.04,0.67-0.13c0.92-0.37,1.36-1.41,0.99-2.33L88.04,91.24z"/>
		<path class="st17" d="M67.95,41.52c-0.37-0.92-1.41-1.35-2.33-0.99c-0.92,0.37-1.36,1.41-0.99,2.33l1.34,3.31
			c0.28,0.7,0.95,1.12,1.66,1.12c0.22,0,0.45-0.04,0.67-0.13c0.92-0.37,1.36-1.41,0.99-2.33L67.95,41.52z"/>
	</g>
	<g class="st1">
		<path class="st18" d="M77,12.01c-1.05,0-1.9,0.85-1.9,1.9v9.5c0,1.05,0.85,1.9,1.9,1.9s1.9-0.85,1.9-1.9v-9.5
			C78.9,12.86,78.05,12.01,77,12.01z"/>
		<path class="st18" d="M77,112.68c-1.05,0-1.9,0.85-1.9,1.9v9.5c0,1.05,0.85,1.9,1.9,1.9s1.9-0.85,1.9-1.9v-9.5
			C78.9,113.53,78.05,112.68,77,112.68z"/>
		<path class="st18" d="M132.09,67.09h-9.5c-1.05,0-1.9,0.85-1.9,1.9s0.85,1.9,1.9,1.9h9.5c1.05,0,1.9-0.85,1.9-1.9
			S133.14,67.09,132.09,67.09z"/>
		<path class="st18" d="M33.32,68.99c0-1.05-0.85-1.9-1.9-1.9h-9.5c-1.05,0-1.9,0.85-1.9,1.9s0.85,1.9,1.9,1.9h9.5
			C32.47,70.89,33.32,70.04,33.32,68.99z"/>
		<path class="st18" d="M109.24,38.66c0.49,0,0.97-0.19,1.34-0.56l6.71-6.71c0.74-0.74,0.74-1.94,0-2.69
			c-0.74-0.74-1.94-0.74-2.69,0l-6.71,6.71c-0.74,0.74-0.74,1.94,0,2.69C108.27,38.47,108.75,38.66,109.24,38.66z"/>
		<path class="st18" d="M43.42,99.89l-6.71,6.71c-0.74,0.74-0.74,1.94,0,2.69c0.37,0.37,0.86,0.56,1.34,0.56
			c0.49,0,0.97-0.19,1.34-0.56l6.71-6.71c0.74-0.74,0.74-1.94,0-2.69C45.37,99.14,44.17,99.14,43.42,99.89z"/>
		<path class="st18" d="M110.58,99.89c-0.74-0.74-1.94-0.74-2.69,0c-0.74,0.74-0.74,1.94,0,2.69l6.71,6.71
			c0.37,0.37,0.86,0.56,1.34,0.56s0.97-0.19,1.34-0.56c0.74-0.74,0.74-1.94,0-2.69L110.58,99.89z"/>
		<path class="st18" d="M39.4,28.7c-0.74-0.74-1.94-0.74-2.69,0c-0.74,0.74-0.74,1.94,0,2.69l6.71,6.71
			c0.37,0.37,0.86,0.56,1.34,0.56s0.97-0.19,1.34-0.56c0.74-0.74,0.74-1.94,0-2.69L39.4,28.7z"/>
		<path class="st18" d="M99.27,16.54c-0.96-0.41-2.08,0.04-2.49,1.01l-3.71,8.74c-0.41,0.96,0.04,2.08,1.01,2.49
			c0.24,0.1,0.49,0.15,0.74,0.15c0.74,0,1.44-0.43,1.75-1.16l3.71-8.74C100.69,18.06,100.24,16.95,99.27,16.54z"/>
		<path class="st18" d="M59.93,109.21c-0.97-0.41-2.08,0.04-2.49,1.01l-3.71,8.74c-0.41,0.96,0.04,2.08,1.01,2.49
			c0.24,0.1,0.49,0.15,0.74,0.15c0.74,0,1.44-0.43,1.75-1.16l3.71-8.74C61.35,110.73,60.9,109.62,59.93,109.21z"/>
		<path class="st18" d="M128.45,88.77l-8.74-3.71c-0.96-0.41-2.08,0.04-2.49,1.01c-0.41,0.96,0.04,2.08,1.01,2.49l8.74,3.71
			c0.24,0.1,0.49,0.15,0.74,0.15c0.74,0,1.44-0.43,1.75-1.16C129.87,90.29,129.42,89.18,128.45,88.77z"/>
		<path class="st18" d="M25.56,49.22l8.74,3.71c0.24,0.1,0.49,0.15,0.74,0.15c0.74,0,1.44-0.43,1.75-1.16
			c0.41-0.96-0.04-2.08-1.01-2.49l-8.74-3.71c-0.96-0.41-2.08,0.04-2.49,1.01C24.14,47.69,24.59,48.81,25.56,49.22z"/>
		<path class="st18" d="M117.51,52.32c0.3,0.74,1.01,1.19,1.76,1.19c0.24,0,0.48-0.05,0.71-0.14l8.81-3.56
			c0.97-0.39,1.44-1.5,1.05-2.47c-0.39-0.97-1.5-1.44-2.47-1.05l-8.81,3.56C117.59,50.24,117.12,51.35,117.51,52.32z"/>
		<path class="st18" d="M36.5,85.06c-0.39-0.97-1.5-1.44-2.47-1.05l-8.81,3.56c-0.97,0.39-1.44,1.5-1.05,2.47
			c0.3,0.74,1.01,1.19,1.76,1.19c0.24,0,0.48-0.05,0.71-0.14l8.81-3.56C36.42,87.13,36.89,86.03,36.5,85.06z"/>
		<path class="st18" d="M95.84,110.24c-0.39-0.97-1.5-1.44-2.47-1.05c-0.97,0.39-1.44,1.5-1.05,2.47l3.56,8.81
			c0.3,0.74,1.01,1.19,1.76,1.19c0.24,0,0.48-0.05,0.71-0.14c0.97-0.39,1.44-1.5,1.05-2.47L95.84,110.24z"/>
		<path class="st18" d="M58.13,16.9c-0.39-0.97-1.5-1.44-2.47-1.05c-0.97,0.39-1.44,1.5-1.05,2.47l3.56,8.81
			c0.3,0.74,1.01,1.19,1.76,1.19c0.24,0,0.48-0.05,0.71-0.14c0.97-0.39,1.44-1.5,1.05-2.47L58.13,16.9z"/>
	</g>
</g>
<g>
	<text transform="matrix(1 0 0 1 56.1531 93.6794)" class="st19 st8 st9">3</text>
</g>
<g>
	<ellipse class="st20" cx="71.66" cy="66.8" rx="43.08" ry="42.3"/>
	<g>
		<ellipse class="st21" cx="44.37" cy="100.64" rx="1.44" ry="1.41"/>
		<ellipse class="st21" cx="37.19" cy="61.16" rx="1.44" ry="1.41"/>
		<ellipse class="st21" cx="65.91" cy="59.75" rx="1.44" ry="1.41"/>
		<ellipse class="st21" cx="97.51" cy="32.96" rx="1.44" ry="1.41"/>
		<ellipse class="st21" cx="104.69" cy="61.16" rx="1.44" ry="1.41"/>
	</g>
	<ellipse class="st22" cx="104.69" cy="83.72" rx="5.74" ry="5.64"/>
	<ellipse class="st22" cx="86.41" cy="102.05" rx="5.74" ry="5.64"/>
	<ellipse class="st22" cx="64.48" cy="79.49" rx="5.74" ry="5.64"/>
	<ellipse class="st22" cx="82.35" cy="61.16" rx="7.18" ry="7.05"/>
	<line class="st23" x1="77.84" y1="66.6" x2="68.64" y2="75.63"/>
	<line class="st23" x1="100.45" y1="79.95" x2="86.86" y2="66.6"/>
	<line class="st23" x1="90.47" y1="98.07" x2="100.84" y2="87.88"/>
	<polyline class="st23" points="67.96,83.94 82.35,98.07 82.35,98.07 	"/>
	<ellipse class="st22" cx="64.48" cy="38.6" rx="4.31" ry="4.23"/>
	<ellipse class="st22" cx="37.19" cy="32.96" rx="4.31" ry="4.23"/>
	<line class="st23" x1="81.71" y1="56.93" x2="67.35" y2="41.42"/>
	<line class="st23" x1="60.17" y1="37.19" x2="41.5" y2="32.96"/>
	<ellipse class="st21" cx="64.48" cy="79.49" rx="3.71" ry="3.65"/>
	<ellipse class="st21" cx="86.41" cy="102.05" rx="3.71" ry="3.65"/>
	<ellipse class="st21" cx="104.69" cy="83.72" rx="2.7" ry="2.65"/>
	<ellipse class="st21" cx="82.35" cy="61.16" rx="4.13" ry="4.06"/>
	<ellipse class="st21" cx="64.48" cy="38.6" rx="1.44" ry="1.41"/>
	<ellipse class="st21" cx="37.19" cy="32.96" rx="1.44" ry="1.41"/>
</g>
<text transform="matrix(1 0 0 1 49.5737 92.4801)" class="st19 st8 st9">4</text>
</svg>
