<?xml version="1.0" encoding="utf-8"?>
<!-- Generator: Adobe Illustrator 23.0.3, SVG Export Plug-In . SVG Version: 6.00 Build 0)  -->
<svg version="1.1" id="Capa_1" xmlns="http://www.w3.org/2000/svg" xmlns:xlink="http://www.w3.org/1999/xlink" x="0px" y="0px"
	 viewBox="0 0 154.88 136.59" style="enable-background:new 0 0 154.88 136.59;" xml:space="preserve">
<style type="text/css">
	.st0{display:none;}
	.st1{display:inline;}
	.st2{fill:#243A3D;}
	.st3{fill:#6E888A;}
	.st4{fill:#749191;}
	.st5{fill:#F3D65C;}
	.st6{fill:#9C9FA0;}
	.st7{fill:#F9FAE9;}
	.st8{font-family:'Roboto-Black';}
	.st9{font-size:72px;}
	.st10{fill:#D85B4B;}
	.st11{fill:#E57E25;}
	.st12{display:inline;fill:#F9FAE9;}
	.st13{display:inline;fill:#E7D06B;}
	.st14{display:inline;fill:#DFAA00;}
	.st15{display:inline;fill:#C8830F;}
	.st16{fill:#DFAA00;}
	.st17{fill:#C8830F;}
	.st18{fill:#E7D06B;}
	.st19{display:inline;fill:#F9F9E8;}
	.st20{display:inline;fill:#556080;}
	.st21{fill:#F2D55C;}
	.st22{display:inline;fill:#8697CA;}
	.st23{display:inline;fill:none;stroke:#8697CA;stroke-width:2;stroke-linecap:round;stroke-miterlimit:10;}
	.st24{display:inline;fill:#F2D55C;}
	.st25{display:none;fill:#F9F9E8;}
	.st26{display:inline;fill:#1968AF;}
	.st27{display:inline;fill:#5C7D2C;}
	.st28{fill:#5F6063;}
	.st29{display:inline;fill:#77797F;}
	.st30{display:inline;fill:#858B9A;}
	.st31{fill:#7783A2;}
	.st32{display:none;fill:#B6DEE5;}
	.st33{display:none;fill:#619298;}
	.st34{display:none;fill:#9FD3CB;}
	.st35{display:none;fill:#83C9C2;}
	.st36{display:none;fill:#6FC1B5;}
	.st37{display:none;fill:#47B2A0;}
	.st38{display:none;fill:#FCD195;}
	.st39{display:none;fill:#F8B44F;}
	.st40{fill:#3B74A5;}
	.st41{fill:#32B0CB;}
	.st42{fill:#EFEB8B;}
	.st43{fill:#F9F9E8;}
</style>
<g class="st0">
	<g class="st1">
		<circle class="st2" cx="74.04" cy="69.97" r="41.53"/>
		<circle class="st3" cx="66.37" cy="66.8" r="32.94"/>
		<circle class="st4" cx="60.98" cy="64.1" r="26.61"/>
		<path class="st5" d="M115.56,109.69h-5.42l-1.81-1.81v-5.42c0-1-0.81-1.81-1.81-1.81s-1.81,0.81-1.81,1.81v5.42l-1.81,1.81h-5.42
			c-1,0-1.81,0.81-1.81,1.81s0.81,1.81,1.81,1.81h5.42l1.81,1.81v5.42c0,1,0.81,1.81,1.81,1.81s1.81-0.81,1.81-1.81v-5.42l1.81-1.81
			h5.42c1,0,1.81-0.81,1.81-1.81C117.37,110.5,116.56,109.69,115.56,109.69z"/>
		<circle class="st5" cx="28.9" cy="24.84" r="1.81"/>
		<circle class="st5" cx="34.32" cy="116.92" r="1.81"/>
		<circle class="st6" cx="25.29" cy="104.28" r="1.81"/>
		<circle class="st5" cx="45.15" cy="19.42" r="1.81"/>
		<circle class="st5" cx="117.37" cy="24.84" r="1.81"/>
		<circle class="st5" cx="120.98" cy="111.5" r="1.81"/>
		<circle class="st5" cx="100.22" cy="88.71" r="1.81"/>
		<circle class="st5" cx="45.15" cy="64.11" r="1.81"/>
		<path class="st6" d="M73.18,111.49c-3.2,7.32-5.72,9.1-6.72,8.96c-1.17-0.16-3.65-3.42-4.64-14.67
			c-0.88-9.97-0.36-23.02,1.48-36.76c4.08-30.58,12.49-49.28,16.52-48.8c0.94,0.12,2.79,2.27,3.98,9.39
			c1.23,0.29,2.43,0.65,3.6,1.05c0.09-0.26,0.14-0.54,0.09-0.84c-1.28-8.39-3.64-12.7-7.2-13.17c-9.85-1.3-17.7,30.32-20.58,51.9
			c-1.87,13.99-2.39,27.33-1.49,37.55c1,11.34,3.61,17.38,7.76,17.93c0.21,0.03,0.42,0.04,0.63,0.04c3.46,0,6.78-3.84,10.13-11.71
			c0.13-0.31,0.14-0.64,0.1-0.95C75.63,111.48,74.41,111.51,73.18,111.49z"/>
	</g>
	<g class="st1">
		<text transform="matrix(1 0 0 1 49.5095 93.7096)" class="st7 st8 st9">1</text>
	</g>
</g>
<g class="st0">
	<g class="st1">
		<circle class="st10" cx="77.44" cy="67.34" r="42.2"/>
		<path class="st5" d="M126.67,23.38h-2.79l-4.24-4.24v-2.79c0-0.97-0.79-1.76-1.76-1.76s-1.76,0.79-1.76,1.76v2.79l-4.24,4.24
			h-2.79c-0.97,0-1.76,0.79-1.76,1.76s0.79,1.76,1.76,1.76h2.79l4.24,4.24v2.79c0,0.97,0.79,1.76,1.76,1.76s1.76-0.79,1.76-1.76
			v-2.79l4.25-4.24h2.79c0.97,0,1.76-0.79,1.76-1.76C128.43,24.17,127.64,23.38,126.67,23.38z"/>
		<circle class="st5" cx="40.52" cy="30.42" r="1.76"/>
		<circle class="st5" cx="73.92" cy="35.69" r="1.76"/>
		<circle class="st5" cx="123.15" cy="44.48" r="1.76"/>
		<circle class="st5" cx="93.27" cy="23.38" r="1.76"/>
		<circle class="st5" cx="91.51" cy="93.71" r="1.76"/>
		<circle class="st5" cx="35.24" cy="109.54" r="1.76"/>
		<circle class="st5" cx="31.72" cy="90.2" r="1.76"/>
		<path class="st11" d="M116.07,50.36c-1.63-3.69-3.76-7.11-6.32-10.16c-12.2,1.94-37.58,6.04-37.58,6.04L116.07,50.36z"/>
		<path class="st11" d="M114.66,87.22c1.73-3.23,3.05-6.72,3.89-10.39l-56.94,6.33C61.61,83.16,95.11,85.66,114.66,87.22z"/>
		<path class="st11" d="M35.88,60.08c-0.41,2.36-0.64,4.78-0.64,7.26c0,0.96,0.04,1.9,0.11,2.84l36.82-4.6
			C72.16,65.58,49.96,62.15,35.88,60.08z"/>
		<circle class="st5" cx="107.33" cy="109.54" r="1.76"/>
		<circle class="st5" cx="123.15" cy="88.44" r="1.76"/>
		<circle class="st5" cx="31.72" cy="21.62" r="1.76"/>
		<circle class="st5" cx="51.06" cy="18.11" r="1.76"/>
	</g>
	<text transform="matrix(1 0 0 1 56.9988 92.4389)" class="st12 st8 st9">2</text>
</g>
<g class="st0">
	<circle class="st13" cx="77" cy="68.99" r="41.98"/>
	<circle class="st14" cx="77" cy="68.99" r="32.48"/>
	<circle class="st15" cx="77" cy="68.99" r="19"/>
	<g class="st1">
		<path class="st16" d="M77,27.2c-1.05,0-1.9,0.85-1.9,1.9v3.8c0,1.05,0.85,1.9,1.9,1.9s1.9-0.85,1.9-1.9v-3.8
			C78.9,28.06,78.05,27.2,77,27.2z"/>
		<path class="st16" d="M77,103.18c-1.05,0-1.9,0.85-1.9,1.9v3.8c0,1.05,0.85,1.9,1.9,1.9s1.9-0.85,1.9-1.9v-3.8
			C78.9,104.04,78.05,103.18,77,103.18z"/>
		<path class="st16" d="M116.89,67.09h-3.8c-1.05,0-1.9,0.85-1.9,1.9s0.85,1.9,1.9,1.9h3.8c1.05,0,1.9-0.85,1.9-1.9
			S117.94,67.09,116.89,67.09z"/>
		<path class="st16" d="M42.81,68.99c0-1.05-0.85-1.9-1.9-1.9h-3.8c-1.05,0-1.9,0.85-1.9,1.9s0.85,1.9,1.9,1.9h3.8
			C41.96,70.89,42.81,70.04,42.81,68.99z"/>
		<path class="st16" d="M103.87,39.44l-2.69,2.69c-0.74,0.74-0.74,1.95,0,2.69c0.37,0.37,0.86,0.56,1.34,0.56s0.97-0.19,1.34-0.55
			l2.69-2.69c0.74-0.74,0.74-1.95,0-2.69C105.81,38.7,104.61,38.7,103.87,39.44z"/>
		<path class="st16" d="M50.14,93.17l-2.69,2.69c-0.74,0.74-0.74,1.95,0,2.69c0.37,0.37,0.86,0.56,1.34,0.56s0.97-0.19,1.34-0.55
			l2.69-2.69c0.74-0.74,0.74-1.95,0-2.69C52.08,92.43,50.88,92.43,50.14,93.17z"/>
		<path class="st16" d="M103.87,93.17c-0.74-0.74-1.94-0.74-2.69,0c-0.74,0.74-0.74,1.95,0,2.69l2.69,2.69
			c0.37,0.37,0.86,0.55,1.34,0.55c0.49,0,0.97-0.19,1.34-0.56c0.74-0.74,0.74-1.95,0-2.69L103.87,93.17z"/>
		<path class="st16" d="M50.14,39.44c-0.74-0.74-1.94-0.74-2.69,0c-0.74,0.74-0.74,1.95,0,2.69l2.69,2.69
			c0.37,0.37,0.86,0.55,1.34,0.55c0.49,0,0.97-0.19,1.34-0.56c0.74-0.74,0.74-1.95,0-2.69L50.14,39.44z"/>
		<path class="st16" d="M93.33,30.53c-0.96-0.41-2.08,0.04-2.49,1.01l-1.48,3.5c-0.41,0.96,0.04,2.08,1.01,2.49
			c0.24,0.1,0.49,0.15,0.74,0.15c0.74,0,1.44-0.43,1.75-1.16l1.48-3.5C94.75,32.05,94.3,30.94,93.33,30.53z"/>
		<path class="st16" d="M63.65,100.47c-0.97-0.41-2.08,0.04-2.49,1.01l-1.48,3.5c-0.41,0.96,0.04,2.08,1.01,2.49
			c0.24,0.1,0.49,0.15,0.74,0.15c0.74,0,1.44-0.43,1.75-1.16l1.48-3.5C65.06,101.99,64.61,100.88,63.65,100.47z"/>
		<path class="st16" d="M114.47,82.83l-3.5-1.49c-0.96-0.41-2.08,0.04-2.49,1.01c-0.41,0.96,0.04,2.08,1.01,2.49l3.5,1.49
			c0.24,0.1,0.49,0.15,0.74,0.15c0.74,0,1.44-0.43,1.75-1.16C115.88,84.36,115.43,83.24,114.47,82.83z"/>
		<path class="st16" d="M44.52,53.14l-3.5-1.49c-0.96-0.41-2.08,0.04-2.49,1.01c-0.41,0.96,0.04,2.08,1.01,2.49l3.5,1.49
			c0.24,0.1,0.49,0.15,0.74,0.15c0.74,0,1.44-0.43,1.75-1.16C45.94,54.67,45.49,53.55,44.52,53.14z"/>
		<path class="st16" d="M110.47,57.07c0.24,0,0.48-0.05,0.71-0.14l3.52-1.42c0.97-0.39,1.44-1.5,1.05-2.47
			c-0.39-0.97-1.5-1.44-2.47-1.05l-3.52,1.42c-0.97,0.39-1.44,1.5-1.05,2.47C109.01,56.62,109.72,57.07,110.47,57.07z"/>
		<path class="st16" d="M42.83,80.45l-3.52,1.42c-0.97,0.39-1.44,1.5-1.05,2.47c0.3,0.74,1.01,1.19,1.76,1.19
			c0.24,0,0.48-0.05,0.71-0.14l3.52-1.42c0.97-0.39,1.44-1.5,1.05-2.47C44.91,80.52,43.8,80.06,42.83,80.45z"/>
		<path class="st16" d="M92.28,101.44c-0.39-0.97-1.5-1.44-2.47-1.05c-0.97,0.39-1.44,1.5-1.05,2.47l1.42,3.52
			c0.3,0.74,1.01,1.19,1.76,1.19c0.24,0,0.48-0.05,0.71-0.14c0.97-0.39,1.44-1.5,1.05-2.47L92.28,101.44z"/>
		<path class="st16" d="M63.82,30.99c-0.39-0.97-1.5-1.44-2.47-1.05c-0.97,0.39-1.44,1.5-1.05,2.47l1.42,3.52
			c0.3,0.74,1.01,1.19,1.76,1.19c0.24,0,0.48-0.05,0.71-0.14c0.97-0.39,1.44-1.5,1.05-2.47L63.82,30.99z"/>
	</g>
	<g class="st1">
		<path class="st17" d="M77,38.6c-0.99,0-1.79,0.8-1.79,1.79v3.57c0,0.99,0.8,1.79,1.79,1.79c0.99,0,1.79-0.8,1.79-1.79v-3.57
			C78.79,39.4,77.99,38.6,77,38.6z"/>
		<path class="st17" d="M77,92.23c-0.99,0-1.79,0.8-1.79,1.79v3.57c0,0.99,0.8,1.79,1.79,1.79c0.99,0,1.79-0.8,1.79-1.79v-3.57
			C78.79,93.04,77.99,92.23,77,92.23z"/>
		<path class="st17" d="M105.61,67.21h-3.57c-0.99,0-1.79,0.8-1.79,1.79s0.8,1.79,1.79,1.79h3.57c0.99,0,1.79-0.8,1.79-1.79
			S106.6,67.21,105.61,67.21z"/>
		<path class="st17" d="M53.76,68.99c0-0.99-0.8-1.79-1.79-1.79H48.4c-0.99,0-1.79,0.8-1.79,1.79s0.8,1.79,1.79,1.79h3.57
			C52.96,70.78,53.76,69.98,53.76,68.99z"/>
		<path class="st17" d="M94.7,53.08c0.46,0,0.92-0.17,1.26-0.52l2.53-2.53c0.7-0.7,0.7-1.83,0-2.53c-0.7-0.7-1.83-0.7-2.53,0
			l-2.53,2.53c-0.7,0.7-0.7,1.83,0,2.53C93.79,52.91,94.24,53.08,94.7,53.08z"/>
		<path class="st17" d="M58.04,85.43l-2.53,2.53c-0.7,0.7-0.7,1.83,0,2.53c0.35,0.35,0.81,0.52,1.26,0.52
			c0.46,0,0.92-0.17,1.26-0.52l2.53-2.53c0.7-0.7,0.7-1.83,0-2.53C59.87,84.73,58.74,84.73,58.04,85.43z"/>
		<path class="st17" d="M95.97,85.43c-0.7-0.7-1.83-0.7-2.53,0c-0.7,0.7-0.7,1.83,0,2.53l2.53,2.53c0.35,0.35,0.81,0.52,1.26,0.52
			c0.46,0,0.92-0.17,1.26-0.52c0.7-0.7,0.7-1.83,0-2.53L95.97,85.43z"/>
		<path class="st17" d="M58.04,47.5c-0.7-0.7-1.83-0.7-2.53,0s-0.7,1.83,0,2.53l2.53,2.53c0.35,0.35,0.81,0.52,1.26,0.52
			c0.46,0,0.92-0.17,1.26-0.52c0.7-0.7,0.7-1.83,0-2.53L58.04,47.5z"/>
		<path class="st17" d="M88.88,41.02c-0.91-0.39-1.96,0.04-2.34,0.95l-1.4,3.29c-0.39,0.91,0.04,1.96,0.95,2.34
			c0.23,0.1,0.46,0.14,0.7,0.14c0.7,0,1.36-0.41,1.65-1.09l1.4-3.29C90.21,42.45,89.79,41.4,88.88,41.02z"/>
		<path class="st17" d="M67.92,90.39c-0.91-0.38-1.96,0.04-2.34,0.95l-1.4,3.29c-0.39,0.91,0.04,1.96,0.95,2.34
			c0.23,0.1,0.46,0.14,0.7,0.14c0.7,0,1.36-0.41,1.65-1.09l1.4-3.29C69.26,91.82,68.83,90.77,67.92,90.39z"/>
		<path class="st17" d="M104.03,78.52l-3.29-1.4c-0.91-0.38-1.96,0.04-2.34,0.95c-0.39,0.91,0.04,1.96,0.95,2.34l3.29,1.4
			c0.23,0.1,0.46,0.14,0.7,0.14c0.7,0,1.36-0.41,1.65-1.09C105.37,79.96,104.94,78.91,104.03,78.52z"/>
		<path class="st17" d="M49.97,59.46l3.29,1.4c0.23,0.1,0.46,0.14,0.7,0.14c0.7,0,1.36-0.41,1.65-1.09
			c0.39-0.91-0.04-1.96-0.95-2.34l-3.29-1.4c-0.91-0.38-1.96,0.04-2.34,0.95C48.64,58.03,49.06,59.08,49.97,59.46z"/>
		<path class="st17" d="M98.55,60c0.28,0.7,0.95,1.12,1.66,1.12c0.22,0,0.45-0.04,0.67-0.13l3.31-1.34
			c0.92-0.37,1.36-1.41,0.99-2.33c-0.37-0.92-1.41-1.36-2.33-0.99l-3.31,1.34C98.62,58.04,98.18,59.09,98.55,60z"/>
		<path class="st17" d="M55.45,77.41c-0.37-0.92-1.41-1.36-2.33-0.99l-3.31,1.34c-0.92,0.37-1.36,1.41-0.99,2.33
			c0.28,0.7,0.95,1.12,1.66,1.12c0.22,0,0.45-0.04,0.67-0.13l3.31-1.34C55.38,79.37,55.82,78.33,55.45,77.41z"/>
		<path class="st17" d="M88.04,91.24c-0.37-0.92-1.41-1.36-2.33-0.99c-0.92,0.37-1.36,1.41-0.99,2.33l1.34,3.31
			c0.28,0.7,0.95,1.12,1.66,1.12c0.22,0,0.45-0.04,0.67-0.13c0.92-0.37,1.36-1.41,0.99-2.33L88.04,91.24z"/>
		<path class="st17" d="M67.95,41.52c-0.37-0.92-1.41-1.35-2.33-0.99c-0.92,0.37-1.36,1.41-0.99,2.33l1.34,3.31
			c0.28,0.7,0.95,1.12,1.66,1.12c0.22,0,0.45-0.04,0.67-0.13c0.92-0.37,1.36-1.41,0.99-2.33L67.95,41.52z"/>
	</g>
	<g class="st1">
		<path class="st18" d="M77,12.01c-1.05,0-1.9,0.85-1.9,1.9v9.5c0,1.05,0.85,1.9,1.9,1.9s1.9-0.85,1.9-1.9v-9.5
			C78.9,12.86,78.05,12.01,77,12.01z"/>
		<path class="st18" d="M77,112.68c-1.05,0-1.9,0.85-1.9,1.9v9.5c0,1.05,0.85,1.9,1.9,1.9s1.9-0.85,1.9-1.9v-9.5
			C78.9,113.53,78.05,112.68,77,112.68z"/>
		<path class="st18" d="M132.09,67.09h-9.5c-1.05,0-1.9,0.85-1.9,1.9s0.85,1.9,1.9,1.9h9.5c1.05,0,1.9-0.85,1.9-1.9
			S133.14,67.09,132.09,67.09z"/>
		<path class="st18" d="M33.32,68.99c0-1.05-0.85-1.9-1.9-1.9h-9.5c-1.05,0-1.9,0.85-1.9,1.9s0.85,1.9,1.9,1.9h9.5
			C32.47,70.89,33.32,70.04,33.32,68.99z"/>
		<path class="st18" d="M109.24,38.66c0.49,0,0.97-0.19,1.34-0.56l6.71-6.71c0.74-0.74,0.74-1.94,0-2.69
			c-0.74-0.74-1.94-0.74-2.69,0l-6.71,6.71c-0.74,0.74-0.74,1.94,0,2.69C108.27,38.47,108.75,38.66,109.24,38.66z"/>
		<path class="st18" d="M43.42,99.89l-6.71,6.71c-0.74,0.74-0.74,1.94,0,2.69c0.37,0.37,0.86,0.56,1.34,0.56
			c0.49,0,0.97-0.19,1.34-0.56l6.71-6.71c0.74-0.74,0.74-1.94,0-2.69C45.37,99.14,44.17,99.14,43.42,99.89z"/>
		<path class="st18" d="M110.58,99.89c-0.74-0.74-1.94-0.74-2.69,0c-0.74,0.74-0.74,1.94,0,2.69l6.71,6.71
			c0.37,0.37,0.86,0.56,1.34,0.56s0.97-0.19,1.34-0.56c0.74-0.74,0.74-1.94,0-2.69L110.58,99.89z"/>
		<path class="st18" d="M39.4,28.7c-0.74-0.74-1.94-0.74-2.69,0c-0.74,0.74-0.74,1.94,0,2.69l6.71,6.71
			c0.37,0.37,0.86,0.56,1.34,0.56s0.97-0.19,1.34-0.56c0.74-0.74,0.74-1.94,0-2.69L39.4,28.7z"/>
		<path class="st18" d="M99.27,16.54c-0.96-0.41-2.08,0.04-2.49,1.01l-3.71,8.74c-0.41,0.96,0.04,2.08,1.01,2.49
			c0.24,0.1,0.49,0.15,0.74,0.15c0.74,0,1.44-0.43,1.75-1.16l3.71-8.74C100.69,18.06,100.24,16.95,99.27,16.54z"/>
		<path class="st18" d="M59.93,109.21c-0.97-0.41-2.08,0.04-2.49,1.01l-3.71,8.74c-0.41,0.96,0.04,2.08,1.01,2.49
			c0.24,0.1,0.49,0.15,0.74,0.15c0.74,0,1.44-0.43,1.75-1.16l3.71-8.74C61.35,110.73,60.9,109.62,59.93,109.21z"/>
		<path class="st18" d="M128.45,88.77l-8.74-3.71c-0.96-0.41-2.08,0.04-2.49,1.01c-0.41,0.96,0.04,2.08,1.01,2.49l8.74,3.71
			c0.24,0.1,0.49,0.15,0.74,0.15c0.74,0,1.44-0.43,1.75-1.16C129.87,90.29,129.42,89.18,128.45,88.77z"/>
		<path class="st18" d="M25.56,49.22l8.74,3.71c0.24,0.1,0.49,0.15,0.74,0.15c0.74,0,1.44-0.43,1.75-1.16
			c0.41-0.96-0.04-2.08-1.01-2.49l-8.74-3.71c-0.96-0.41-2.08,0.04-2.49,1.01C24.14,47.69,24.59,48.81,25.56,49.22z"/>
		<path class="st18" d="M117.51,52.32c0.3,0.74,1.01,1.19,1.76,1.19c0.24,0,0.48-0.05,0.71-0.14l8.81-3.56
			c0.97-0.39,1.44-1.5,1.05-2.47c-0.39-0.97-1.5-1.44-2.47-1.05l-8.81,3.56C117.59,50.24,117.12,51.35,117.51,52.32z"/>
		<path class="st18" d="M36.5,85.06c-0.39-0.97-1.5-1.44-2.47-1.05l-8.81,3.56c-0.97,0.39-1.44,1.5-1.05,2.47
			c0.3,0.74,1.01,1.19,1.76,1.19c0.24,0,0.48-0.05,0.71-0.14l8.81-3.56C36.42,87.13,36.89,86.03,36.5,85.06z"/>
		<path class="st18" d="M95.84,110.24c-0.39-0.97-1.5-1.44-2.47-1.05c-0.97,0.39-1.44,1.5-1.05,2.47l3.56,8.81
			c0.3,0.74,1.01,1.19,1.76,1.19c0.24,0,0.48-0.05,0.71-0.14c0.97-0.39,1.44-1.5,1.05-2.47L95.84,110.24z"/>
		<path class="st18" d="M58.13,16.9c-0.39-0.97-1.5-1.44-2.47-1.05c-0.97,0.39-1.44,1.5-1.05,2.47l3.56,8.81
			c0.3,0.74,1.01,1.19,1.76,1.19c0.24,0,0.48-0.05,0.71-0.14c0.97-0.39,1.44-1.5,1.05-2.47L58.13,16.9z"/>
	</g>
</g>
<g class="st0">
	<text transform="matrix(1 0 0 1 56.1531 93.6794)" class="st19 st8 st9">3</text>
</g>
<g class="st0">
	<ellipse class="st20" cx="71.66" cy="66.8" rx="43.08" ry="42.3"/>
	<g class="st1">
		<ellipse class="st21" cx="44.37" cy="100.64" rx="1.44" ry="1.41"/>
		<ellipse class="st21" cx="37.19" cy="61.16" rx="1.44" ry="1.41"/>
		<ellipse class="st21" cx="65.91" cy="59.75" rx="1.44" ry="1.41"/>
		<ellipse class="st21" cx="97.51" cy="32.96" rx="1.44" ry="1.41"/>
		<ellipse class="st21" cx="104.69" cy="61.16" rx="1.44" ry="1.41"/>
	</g>
	<ellipse class="st22" cx="104.69" cy="83.72" rx="5.74" ry="5.64"/>
	<ellipse class="st22" cx="86.41" cy="102.05" rx="5.74" ry="5.64"/>
	<ellipse class="st22" cx="64.48" cy="79.49" rx="5.74" ry="5.64"/>
	<ellipse class="st22" cx="82.35" cy="61.16" rx="7.18" ry="7.05"/>
	<line class="st23" x1="77.84" y1="66.6" x2="68.64" y2="75.63"/>
	<line class="st23" x1="100.45" y1="79.95" x2="86.86" y2="66.6"/>
	<line class="st23" x1="90.47" y1="98.07" x2="100.84" y2="87.88"/>
	<polyline class="st23" points="67.96,83.94 82.35,98.07 82.35,98.07 	"/>
	<ellipse class="st22" cx="64.48" cy="38.6" rx="4.31" ry="4.23"/>
	<ellipse class="st22" cx="37.19" cy="32.96" rx="4.31" ry="4.23"/>
	<line class="st23" x1="81.71" y1="56.93" x2="67.35" y2="41.42"/>
	<line class="st23" x1="60.17" y1="37.19" x2="41.5" y2="32.96"/>
	<ellipse class="st24" cx="64.48" cy="79.49" rx="3.71" ry="3.65"/>
	<ellipse class="st24" cx="86.41" cy="102.05" rx="3.71" ry="3.65"/>
	<ellipse class="st24" cx="104.69" cy="83.72" rx="2.7" ry="2.65"/>
	<ellipse class="st24" cx="82.35" cy="61.16" rx="4.13" ry="4.06"/>
	<ellipse class="st24" cx="64.48" cy="38.6" rx="1.44" ry="1.41"/>
	<ellipse class="st24" cx="37.19" cy="32.96" rx="1.44" ry="1.41"/>
</g>
<text transform="matrix(1 0 0 1 49.5737 92.4801)" class="st25 st8 st9">4</text>
<g class="st0">
	<path class="st24" d="M119.94,106.49h-2.84l-4.32-4.32v-2.84c0-0.99-0.8-1.79-1.79-1.79c-0.99,0-1.79,0.8-1.79,1.79v2.84
		l-4.32,4.32h-2.84c-0.99,0-1.79,0.8-1.79,1.79c0,0.99,0.8,1.79,1.79,1.79h2.84l4.32,4.32v2.84c0,0.99,0.8,1.79,1.79,1.79
		c0.99,0,1.79-0.8,1.79-1.79v-2.84l4.32-4.32h2.84c0.99,0,1.79-0.8,1.79-1.79C121.73,107.3,120.92,106.49,119.94,106.49z"/>
	<circle class="st26" cx="73.4" cy="67.12" r="41.17"/>
	<circle class="st24" cx="26.19" cy="22.37" r="1.79"/>
	<circle class="st24" cx="29.77" cy="108.29" r="1.79"/>
	<circle class="st24" cx="59.31" cy="115.89" r="1.79"/>
	<circle class="st24" cx="48.57" cy="72.49" r="1.79"/>
	<circle class="st24" cx="102.77" cy="19.46" r="1.79"/>
	<circle class="st24" cx="119.04" cy="94.64" r="1.79"/>
	<path class="st27" d="M75.87,63.74c0.26,0.13,0.65,0.43,0.81,0.67c1.25,1.83,0.53,4.5,1.77,5.16c0.98,0.52,1.54,1.58,1.12,2.6
		c-1.71,4.19-0.23,8.99,3.74,12.28c2.8,2.32,0.47,7.69-1.88,11.9c-0.84,1.51,0.66,3.25,2.29,2.67c2.57-0.91,4.7-2.24,7.17-4.36
		c3.57-3.07,4.35-6.42,7.89-9.03c0.04-0.03,0.07-0.06,0.08-0.11c0.91-2.65,3.72-8.45,0.88-9.93c-2.65-1.38-3.64-5.36-6.23-8.08
		c-0.3-0.31-0.72-0.47-1.15-0.52c-3.17-0.41-4.6-2.82-6.73-1.22c-1.6,1.2-3.39,0.47-3.95-1.45c-0.18-0.63-0.5-1.18-1.65-1.54
		c-0.87-0.27-1.3-1.26-0.98-2.12c0.01-0.01,0.01-0.03,0.01-0.04c0.42-1.15-1.95-0.97-3.16-0.77c-0.34,0.06,0.81-1.31,0.43-1.08
		c-1.48,0.88-3.32-0.64-3.24-2.35c0.08-1.74,0.41-1.66,3.4-2c3.22-1.5,4.78-0.41,4.67,3.27c1.99,0.29,2.68-0.59,2.09-2.64
		c-0.18-0.6-0.03-1.27,0.35-1.76c3.67-4.77,6.73-6.85,12.34-8.77c0.91-0.31,1.43-1.29,1.17-2.22c-0.9-3.3-2.3-8.51-4.68-8.88
		c-0.61-0.1-1.3-0.67-1.55-1.24c-0.84-1.92-1.4-2.73-2.98-3.2c-1.21-0.35-2.43,0.54-2.43,1.79c-0.02,3.85-0.01,7.16-4.41,2.77
		c-3.64-3.63-4.7-5.61-2.69-6.56c-0.09-0.78,0,0.04-0.09-0.74c-8.52-1.02-16.75,0.66-23.85,4.36c-0.13,0.07-0.18,0.24-0.11,0.37
		c2.79,5.14,3.36,7.84,3.05,13.83c-0.02,0.33,0.04,0.66,0.18,0.96c2.43,5.23,5.55,14.11,10.88,16.15
		C71.02,62.9,73.42,62.53,75.87,63.74z"/>
</g>
<text transform="matrix(1 0 0 1 52.9296 93.8067)" class="st25 st8 st9">5</text>
<g class="st0">
	<g class="st1">
		<path class="st28" d="M114.02,58.27l-20.96,5.62l-0.78-2.92l20.99-5.62c-1.39-4.56-3.45-8.73-6.06-12.44l-33.37,8.94l-0.78-2.92
			l32.16-8.62c-4.07-4.94-9.16-8.9-14.87-11.64L35.33,43.41c-3.58,5.23-6.01,11.2-7.07,17.52l6.31-1.69l0.78,2.92l-7.51,2.01
			c-0.41,4.52-0.12,9.16,0.96,13.81l54.05-14.48l0.78,2.92L29.59,80.89c0.59,1.91,1.26,3.77,2.07,5.54c4.17-0.68,6.29,4.4,4.18,7.2
			c0.25,0.35,0.52,0.67,0.78,1l23.01-6.17l0.78,2.92l-21.68,5.81c3.88,4.35,8.57,7.87,13.78,10.37l33.55-8.99l0.78,2.92l-29.74,7.97
			c7.99,2.78,16.86,3.29,25.65,0.94c8.8-2.36,16.24-7.24,21.78-13.65l-9.72,2.6l-0.78-2.92l13.51-3.62c0.23-0.33,0.46-0.66,0.68-1
			c-1.27-2.31-0.75-5.69,2.55-6.58c0.34-0.09,0.67-0.14,0.99-0.16c1.1-2.6,1.91-5.33,2.49-8.11l-9.45,2.53l-0.78-2.92l10.79-2.89
			C115.45,68.67,115.23,63.46,114.02,58.27z"/>
		<path class="st28" d="M60.09,25.84c-2.81,0.75-5.48,1.77-8,3.01c0.09,1.86-0.85,3.74-3.18,4.36c-1.31,0.35-2.44,0.13-3.33-0.42
			c-2.68,1.96-5.11,4.22-7.25,6.7l47.45-12.72C77.78,23.99,68.89,23.49,60.09,25.84z"/>
	</g>
	<circle class="st29" cx="64.61" cy="65.85" r="30.94"/>
	<circle class="st30" cx="58.58" cy="64.34" r="17.36"/>
	<circle class="st24" cx="30.67" cy="28.2" r="1.51"/>
	<circle class="st24" cx="42.75" cy="109.7" r="1.51"/>
	<circle class="st24" cx="110.66" cy="102.16" r="1.51"/>
	<circle class="st24" cx="30.67" cy="106.68" r="1.51"/>
	<circle class="st24" cx="37.15" cy="33.55" r="1.51"/>
	<circle class="st24" cx="106.14" cy="29.71" r="1.51"/>
	<g class="st1">
		<path class="st31" d="M105.42,76.2c-0.01-0.09,0-0.18-0.02-0.27c-0.35-2.66-2.42-5.35-5.71-5.35c-0.54,0-1.09,0.08-1.65,0.22
			c-3.41,0.91-4.6,3.89-4.26,6.44c0.09,0.65,0.28,1.31,0.56,1.92l-24.33,6.52c-0.91-1.79-2.65-3.2-5.02-3.2
			c-0.54,0-1.09,0.08-1.65,0.22c-3.18,0.85-4.41,3.5-4.29,5.91l-22.43,6.01c0.67,0.88,1.38,1.74,2.11,2.56l21.17-5.67
			c0.94,1.68,2.62,2.98,4.89,2.98c0.54,0,1.09-0.08,1.65-0.22c3.07-0.82,4.33-3.31,4.3-5.66l25.77-6.91
			c0.83,0.54,1.82,0.89,2.97,0.89c0.54,0,1.09-0.08,1.65-0.22c1.83-0.49,3.01-1.58,3.66-2.88l9.44-2.53
			c0.22-1.08,0.41-2.17,0.55-3.27L105.42,76.2z M65.66,91.36c-2.07,0.55-3.38-1.07-3.59-2.61c-0.08-0.58-0.16-2.53,2.05-3.13
			c0.3-0.08,0.59-0.12,0.87-0.12c1.62,0,2.55,1.41,2.72,2.73C67.79,88.81,67.87,90.76,65.66,91.36z M100.36,79.45
			c-2.07,0.55-3.38-1.07-3.59-2.61c-0.08-0.58-0.16-2.53,2.05-3.13c0.3-0.08,0.59-0.12,0.87-0.12c1.62,0,2.55,1.41,2.72,2.73
			C102.49,76.91,102.57,78.86,100.36,79.45z"/>
		<path class="st31" d="M85.77,26.77L38.33,39.49c-1.08,1.25-2.06,2.57-2.99,3.93l55.02-14.74C88.86,27.96,87.34,27.32,85.77,26.77z
			"/>
		<path class="st31" d="M39.77,65.26c0.54,0,1.09-0.08,1.65-0.22c3.07-0.82,4.33-3.31,4.3-5.66l17.7-4.74
			c0.88,1.9,2.67,3.43,5.15,3.43c0.54,0,1.09-0.08,1.65-0.22c3.29-0.88,4.5-3.69,4.28-6.17l32.71-8.76
			c-0.63-0.89-1.3-1.75-1.99-2.59L73.54,48.8c-0.97-1.57-2.59-2.75-4.76-2.75c-0.54,0-1.09,0.08-1.65,0.22
			c-2.95,0.79-4.24,3.13-4.31,5.4L45,56.45c-0.91-1.79-2.65-3.2-5.02-3.2c-0.54,0-1.09,0.08-1.65,0.22
			c-3.18,0.85-4.41,3.5-4.29,5.91l-5.77,1.55c-0.18,1.07-0.32,2.15-0.42,3.24l7.03-1.89C35.82,63.96,37.5,65.26,39.77,65.26z
			 M67.91,49.19c0.3-0.08,0.59-0.12,0.87-0.12c1.62,0,2.55,1.42,2.72,2.73c0.08,0.58,0.16,2.53-2.05,3.13
			c-2.07,0.55-3.38-1.07-3.59-2.61C65.78,51.73,65.7,49.78,67.91,49.19z M39.1,56.39c0.3-0.08,0.59-0.12,0.87-0.12
			c1.62,0,2.55,1.41,2.72,2.73c0.08,0.58,0.16,2.53-2.05,3.13c-2.08,0.56-3.38-1.07-3.59-2.61C36.98,58.93,36.9,56.98,39.1,56.39z"
			/>
		<path class="st31" d="M95.49,95.78c-0.35-2.66-2.42-5.36-5.71-5.36c-0.54,0-1.09,0.08-1.65,0.22c-3.41,0.91-4.6,3.89-4.26,6.44
			c0.09,0.65,0.28,1.31,0.56,1.92l-31.92,8.55c1.49,0.72,3.02,1.35,4.59,1.9l29.51-7.91c0.83,0.54,1.82,0.89,2.97,0.89
			c0.54,0,1.09-0.08,1.65-0.22c1.83-0.49,3.01-1.59,3.66-2.88l9.63-2.58c1.08-1.25,2.09-2.57,3.02-3.93L95.5,96.04
			C95.5,95.95,95.5,95.87,95.49,95.78z M90.45,99.3c-2.07,0.55-3.38-1.07-3.59-2.61c-0.08-0.58-0.16-2.53,2.05-3.13
			c0.3-0.08,0.59-0.12,0.87-0.12c1.62,0,2.55,1.42,2.72,2.73C92.57,96.76,92.65,98.71,90.45,99.3z"/>
		<path class="st31" d="M87.68,69.61c0.54,0,1.09-0.08,1.65-0.22c3.07-0.82,4.33-3.31,4.3-5.66l20.38-5.46
			c-0.11-0.49-0.2-0.98-0.33-1.47c-0.13-0.49-0.28-0.97-0.43-1.45L92.91,60.8c-0.91-1.79-2.65-3.2-5.02-3.2
			c-0.54,0-1.09,0.08-1.65,0.22c-3.18,0.85-4.41,3.5-4.29,5.91L28.8,77.98c0.11,0.49,0.2,0.98,0.33,1.47
			c0.13,0.49,0.31,0.96,0.45,1.44l53.2-14.25C83.73,68.31,85.41,69.61,87.68,69.61z M87.02,60.74c0.3-0.08,0.59-0.12,0.87-0.12
			c1.62,0,2.55,1.42,2.72,2.73c0.08,0.58,0.16,2.53-2.05,3.13c-2.07,0.55-3.38-1.07-3.59-2.61C84.89,63.28,84.81,61.33,87.02,60.74z
			"/>
	</g>
</g>
<text transform="matrix(1 0 0 1 49.8034 93.4247)" class="st25 st8 st9">6</text>
<path class="st32" d="M27.76,102.51c-0.16-4.35,0.84-9.41,2.95-15.04c4.42-11.79,13.19-24.62,24.7-36.13l-2.31-2.31
	C41.26,60.86,32.22,74.1,27.64,86.32c-4.74,12.64-4.16,22.78,1.62,28.57c0.32,0.32,0.74,0.48,1.16,0.48s0.84-0.16,1.16-0.48
	c0.64-0.64,0.64-1.68,0-2.31C29.19,110.19,27.91,106.81,27.76,102.51z"/>
<circle class="st33" cx="74.11" cy="70.04" r="41.46"/>
<path class="st32" d="M118.95,25.2c-4.91-4.91-12.98-6.07-23.04-3.4l1.38-1.63c0.58-0.69,0.5-1.72-0.19-2.31
	c-0.69-0.58-1.72-0.5-2.31,0.19l-5.09,6c-0.35,0.42-0.48,0.98-0.33,1.51c0.15,0.53,0.55,0.94,1.08,1.11l7.5,2.39
	c0.17,0.05,0.33,0.08,0.5,0.08c0.69,0,1.34-0.44,1.56-1.14c0.27-0.86-0.2-1.78-1.06-2.06l-2.67-0.85c3.76-1.04,7.21-1.51,10.29-1.4
	c4.3,0.15,7.69,1.44,10.06,3.82c2.38,2.38,3.66,5.77,3.82,10.06c0.16,4.35-0.84,9.41-2.95,15.04c-4.42,11.79-13.19,24.62-24.7,36.13
	c-11.51,11.51-24.34,20.28-36.13,24.7c-5.63,2.11-10.69,3.1-15.04,2.95c-4.3-0.15-7.69-1.44-10.06-3.82c-0.64-0.64-1.67-0.64-2.31,0
	c-0.64,0.64-0.64,1.68,0,2.31c3.19,3.19,7.72,4.8,13.26,4.8c4.49,0,9.65-1.06,15.31-3.18c12.22-4.58,25.46-13.62,37.29-25.45
	s20.87-25.07,25.45-37.29C125.31,41.13,124.73,30.98,118.95,25.2z"/>
<text transform="matrix(1 0 0 1 55.1531 98.4249)" class="st25 st8 st9">7</text>
<path class="st34" d="M122.27,66.34c0,1-0.06,1.93-0.18,2.93l-40.87,40.87c-1,0.12-1.94,0.18-2.93,0.18c-8.97,0-17.3-2.7-24.28-7.33
	L35.49,56.31c2.17-9.56,7.97-18.7,16.07-24.74c0.76-0.59-1.35-4.11-0.53-4.69c0.94-0.59,4.81,1.76,5.75,1.29
	c0.88-0.59,1.76-1.06,2.7-1.52l18.82,5.34l36.82,10.44C119.64,49.28,122.27,57.49,122.27,66.34z"/>
<path class="st35" d="M122.27,66.34c0,1-0.06,1.93-0.18,2.93l-40.87,40.87c-1,0.12-1.94,0.18-2.93,0.18V31.98l36.82,10.44
	C119.64,49.28,122.27,57.49,122.27,66.34z"/>
<path class="st36" d="M115.12,42.42l-13.13,16.59l-7.33-7.33H81.23v-5.86H64.28l-4.81-19.17c5.75-2.7,12.08-4.28,18.82-4.28
	C93.72,22.36,107.26,30.34,115.12,42.42z"/>
<path class="st36" d="M51.91,76.85V64.53l-16.4-8.2c-0.75,3.22-1.19,6.56-1.19,10.01c0,15.28,7.84,28.75,19.7,36.64l4-20.01
	L51.91,76.85z"/>
<path class="st37" d="M122.1,69.27c-0.41,6.74-2.4,13.08-5.57,18.65c-0.44,0.8,2.03,4.5,1.54,5.26c-0.63,0.97-4.24-1.02-5-0.1
	c-7.37,9.82-19.19,16.29-31.84,17.06V70.97l7.56-7.56h15.89v5.86H122.1z"/>
<path class="st37" d="M81.23,45.82H78.3V22.36c15.42,0,28.97,7.97,36.82,20.05l-13.13,16.59l-7.33-7.33H81.23V45.82z"/>
<path class="st38" d="M126.98,114.89c-7.92,7.92-37.43-18.18-45.76-25.57c-1-0.94-1.99-1.82-2.93-2.64
	c-4.63-4.28-7.97-7.62-9.15-8.8l4.1-4.16c1.7,1.7,3.4,3.34,5.04,4.93c1,0.94,1.99,1.88,2.93,2.76c4.98,4.69,35.26,31.49,41.83,29.2
	c0-0.64-2.07-6.33-9.99-17.53c1.35-1.64,2.46-3.34,3.46-5.16C130.01,106.27,129.45,112.49,126.98,114.89z"/>
<path class="st38" d="M33.73,21.97c1-0.35,6.68,1.68,17.83,9.6c1.64-1.29,3.4-2.46,5.22-3.4C38.37,14.62,32.21,15.23,29.81,17.69
	c-8.58,8.58,22.7,42.94,31.14,51.81l4.28-4.05C60.52,60.51,32.08,28.6,33.73,21.97z"/>
<path class="st39" d="M126.98,114.89c-7.92,7.92-37.43-18.18-45.76-25.57c-1-0.94-1.99-1.82-2.93-2.64v-8.03
	c1,0.94,1.99,1.88,2.93,2.76c4.98,4.69,35.26,31.49,41.83,29.2c0-0.64-2.07-6.33-9.99-17.53c1.35-1.64,2.46-3.34,3.46-5.16
	C130.01,106.27,129.45,112.49,126.98,114.89z"/>
<text transform="matrix(1 0 0 1 56.1288 89.8949)" class="st25 st8 st9">8</text>
<path class="st40" d="M116.68,67.47c0,23.89-19.37,43.27-43.27,43.27S30.14,91.36,30.14,67.47S49.52,24.2,73.41,24.2
	S116.68,43.57,116.68,67.47z"/>
<path class="st41" d="M93.71,29.26l-3.89,3.89h-5.97l-4.48,2.98l2.98,4.48l-2.98,4.48l4.48,4.48l4.48-1.49l1.49-5.97l5.97-2.98
	l5.97,1.49l2.98-2.98C101.53,34.27,97.81,31.44,93.71,29.26z"/>
<path class="st41" d="M111.63,47.2l-5.4,3.86l-5.97,1.49l-7.46,1.49l-4.48,5.97l-5.97,1.49l-1.49,4.48l7.46,5.97l5.97-1.49
	l5.97-4.48l4.48,1.49l2.98,2.98l-5.97,7.46l4.48,5.97l6.29,2.1C118.36,73.63,118.03,59.26,111.63,47.2z"/>
<path class="st41" d="M70.43,77.91l-5.97-5.97H57l-5.97,4.48l-4.48-1.49l1.49-5.97l7.46-2.98l5.97-4.48l4.48-2.98v-2.98h-5.97
	l-5.97,2.98h-4.48v-4.48l5.97-1.49l2.98-5.97L57,43.59l-7.46,1.49l-4.48,4.48l-4.48,1.49l-1.49-2.98l-2.82-2.82
	c-7.36,12.31-8.15,27.46-2.1,40.47l3.42,1.14l8.95,2.98l8.95-1.49l4.48,2.98v7.46l4.48,4.48l10.44-1.49l-2.98-4.48l1.49-7.46
	l7.46-4.48l2.98-4.48l-4.48-4.48L70.43,77.91z"/>
<g>
	<path class="st42" d="M70.43,28.68h2.98v2.98h-2.98V28.68z"/>
	<path class="st42" d="M64.46,33.15h2.98v2.98h-2.98V33.15z"/>
	<path class="st42" d="M100.26,89.84h2.98v2.98h-2.98V89.84z"/>
	<path class="st42" d="M94.3,86.86h2.98v2.98H94.3V86.86z"/>
</g>
<text transform="matrix(1 0 0 1 49.5353 92.8282)" class="st43 st8 st9">9</text>
</svg>
