<?xml version="1.0" encoding="utf-8"?>
<!-- Generator: Adobe Illustrator 23.0.3, SVG Export Plug-In . SVG Version: 6.00 Build 0)  -->
<svg version="1.1" id="Capa_1" xmlns="http://www.w3.org/2000/svg" xmlns:xlink="http://www.w3.org/1999/xlink" x="0px" y="0px"
	 viewBox="0 0 841.89 595.28" style="enable-background:new 0 0 841.89 595.28;" xml:space="preserve">
<style type="text/css">
	.st0{fill:#F7F5E2;stroke:#000000;stroke-miterlimit:10;}
	.st1{fill:#ED6D46;stroke:#000000;stroke-miterlimit:10;}
	.st2{fill:#677AB7;}
	.st3{font-family:'moonhouse';}
	.st4{font-size:51.5427px;}
	.st5{fill:#ED6D46;stroke:#FFFFFF;stroke-miterlimit:10;}
	.st6{fill:#677CBC;}
	.st7{font-size:61.9342px;}
	.st8{fill:#ED6E48;}
	.st9{fill:#54BAA4;}
	.st10{fill:#C5E4DF;}
	.st11{fill:#212114;}
	.st12{fill:#E74C3D;}
	.st13{fill:#C03B2B;}
</style>
<rect class="st0" width="841.89" height="595.28"/>
<polygon class="st1" points="279.83,369.07 26.34,369.07 26.34,274.24 239.31,199.24 "/>
<ellipse class="st1" cx="721.64" cy="203.12" rx="91.81" ry="87.5"/>
<text transform="matrix(1 0 0 1 40.7439 43.9146)" class="st2 st3 st4">Maths</text>
<text transform="matrix(1 0 0 1 34.7888 99.4214)" class="st5 st3 st4">Attack</text>
<text transform="matrix(1 0 0 1 29.9203 52.3702)" class="st6 st3 st7">Maths</text>
<text transform="matrix(1 0 0 1 18.7639 93.6552)" class="st8 st3 st7">Attack</text>
<g>
	<path class="st9" d="M53.92,135.97c-11.87,0-24,15.25-24,28.44c0,1.37,1.03,2.56,2.4,2.56h2.67c0.07-0.38,0.16-0.76,0.28-1.14
		c0.42-1.35,1.46-2.47,2.84-2.78c1.04-0.23,2.24-0.03,3.06,1.53c0.39,0.74,0.45,1.61,0.21,2.39h25.11
		c-0.24-0.78-0.18-1.65,0.21-2.39c0.82-1.56,2.02-1.76,3.06-1.53c1.38,0.31,2.42,1.43,2.84,2.78c0.12,0.38,0.2,0.76,0.28,1.14h2.8
		c1.32,0,2.26-1.12,2.26-2.45C77.92,152.14,65.83,135.97,53.92,135.97z"/>
	<path class="st10" d="M44.15,163.97c-0.1-0.27-0.21-0.53-0.34-0.78c-1.07-2.05-2.9-3.22-5.02-3.22c-0.44,0-0.89,0.05-1.35,0.15
		c-1.92,0.43-3.56,1.73-4.51,3.51c0.47-11.69,11.39-24.66,20.99-24.66c9.85,0,20.39,14.16,20.97,24.65
		c-0.95-1.78-2.59-3.07-4.5-3.49c-0.45-0.1-0.9-0.15-1.34-0.15c-2.12,0-3.95,1.17-5.02,3.22c-0.13,0.25-0.25,0.51-0.34,0.78H44.15z"
		/>
	<path class="st11" d="M38.92,178.97c0,0-5.8-6.23-3.66-13.14c0.42-1.35,1.46-2.47,2.84-2.78c1.04-0.23,2.24-0.03,3.06,1.53
		c0.61,1.17,0.42,2.67-0.52,3.61C38.6,170.23,38.92,173.97,38.92,178.97z"/>
	<path class="st11" d="M50.92,166.97c-2.84,1.78-3,10-3,10c-4.31-4.25-3-10-3-10H50.92z"/>
	<path class="st11" d="M68.92,178.97c0,0,5.8-6.23,3.66-13.14c-0.42-1.35-1.46-2.47-2.84-2.78c-1.04-0.23-2.24-0.03-3.06,1.53
		c-0.61,1.17-0.42,2.67,0.52,3.61C69.24,170.23,68.92,173.97,68.92,178.97z"/>
	<path class="st11" d="M56.92,166.97c2.84,1.78,3,10,3,10c4.31-4.25,3-10,3-10H56.92z"/>
	<ellipse class="st12" cx="53.92" cy="145.47" rx="5" ry="5.5"/>
	<ellipse class="st12" cx="60.92" cy="157.47" rx="5" ry="5.5"/>
	<ellipse class="st12" cx="46.92" cy="157.47" rx="5" ry="5.5"/>
	<path class="st13" d="M58.91,145.32c0,0.05,0.01,0.1,0.01,0.15c0,3.04-2.24,5.5-5,5.5s-5-2.46-5-5.5c0-0.05,0.01-0.1,0.01-0.15
		c-2.42,1.43-4.01,3.88-4.01,6.65c0,0.15,0.02,0.3,0.03,0.45c0.61-0.29,1.27-0.45,1.97-0.45c2.76,0,5,2.46,5,5.5
		c0,0.78-0.15,1.53-0.42,2.2c0.77,0.19,1.58,0.3,2.42,0.3s1.65-0.11,2.42-0.3c-0.27-0.67-0.42-1.42-0.42-2.2c0-3.04,2.24-5.5,5-5.5
		c0.7,0,1.37,0.16,1.97,0.45c0.01-0.15,0.03-0.3,0.03-0.45C62.92,149.2,61.33,146.75,58.91,145.32z"/>
</g>
</svg>
