<?xml version="1.0" encoding="utf-8"?>
<!-- Generator: Adobe Illustrator 23.0.3, SVG Export Plug-In . SVG Version: 6.00 Build 0)  -->
<svg version="1.1" id="Capa_1" xmlns="http://www.w3.org/2000/svg" xmlns:xlink="http://www.w3.org/1999/xlink" x="0px" y="0px"
	 viewBox="0 0 463 464" style="enable-background:new 0 0 463 464;" xml:space="preserve">
<style type="text/css">
	.st0{fill:#F98C96;}
	.st1{fill:#2E3131;}
	.st2{fill:#DD3E46;}
</style>
<g id="flat">
	<path class="st0" d="M399,32c-35.3,0-64,28.7-64,64c0.8,14.7,6.4,28.8,16,40c-21.4,15.8-40.2,34.6-56,56c-15-7.7-31.3-12.7-48-14.8
		V128c28.5-8.2,48.1-34.3,48-64c0-35.3-28.7-64-64-64s-64,28.7-64,64c-0.1,29.7,19.5,55.8,48,64v48c-13.8-0.9-27.6,1.8-40,8
		c-16-24-32.8-31.5-48-32v-16c0-35.3-28.7-64-64-64s-64,28.7-64,64s28.7,64,64,64c14.9-0.1,29.2-5.8,40-16c14.3,1.6,31.6,5.6,40,24
		c-18,19.9-24,49.1-24,80v144h-15.1c-8-0.2-15,5.4-16.6,13.3c-1.5,8.7,4.4,17,13.1,18.5c0.9,0.2,1.8,0.2,2.7,0.2h96v-16
		c0-8.8,7.2-16,16-16h32c8.8,0,16,7.2,16,16v16h96c8.8,0,16-7.2,16-16c0-0.9-0.1-1.8-0.2-2.7c-1.6-7.9-8.6-13.5-16.6-13.3H343V288
		c0-24.9,0-48-16-72c11.7-22,28.1-41.1,48-56h24c35.3,0,64-28.7,64-64S434.3,32,399,32z"/>
	<circle class="st1" cx="231" cy="80" r="16"/>
	<path class="st2" d="M286.4,32C268.7,1.4,229.7-9.1,199.1,8.5c-9.7,5.6-17.8,13.7-23.5,23.5H286.4z"/>
	<circle class="st1" cx="47" cy="152" r="16"/>
	<path class="st2" d="M118.4,104c-17.6-30.6-56.7-41.1-87.3-23.5C21.3,86.2,13.3,94.3,7.6,104H118.4z"/>
	<circle class="st1" cx="415" cy="112" r="16"/>
	<path class="st2" d="M454.4,64c-17.6-30.6-56.7-41.1-87.3-23.5c-9.7,5.6-17.8,13.7-23.5,23.5H454.4z"/>
	<rect x="119" y="424" class="st2" width="40" height="16"/>
	<rect x="303" y="424" class="st2" width="40" height="16"/>
	<path class="st2" d="M271,344c-1,0-2-0.2-3-0.6c-24-8.5-50.1-8.5-74.1,0c-4.1,1.6-8.8-0.4-10.4-4.5c-1.6-4.1,0.4-8.8,4.5-10.4
		c27.8-10.1,58.2-10.1,85.9,0c4.1,1.6,6.1,6.3,4.5,10.4C277.2,342,274.3,344,271,344z"/>
	<path class="st2" d="M239,368h-16c-4.4,0-8-3.6-8-8s3.6-8,8-8h16c4.4,0,8,3.6,8,8S243.4,368,239,368z"/>
	<rect x="143" y="376" class="st2" width="16" height="16"/>
	<rect x="175" y="392" class="st2" width="16" height="16"/>
</g>
</svg>
