<?xml version="1.0" encoding="utf-8"?>
<!-- Generator: Adobe Illustrator 23.0.3, SVG Export Plug-In . SVG Version: 6.00 Build 0)  -->
<svg version="1.1" id="Capa_1" xmlns="http://www.w3.org/2000/svg" xmlns:xlink="http://www.w3.org/1999/xlink" x="0px" y="0px"
	 viewBox="0 0 320 464" style="enable-background:new 0 0 320 464;" xml:space="preserve">
<style type="text/css">
	.st0{fill:#4F97D5;}
	.st1{fill:#7CB8EB;}
	.st2{fill:#FCF05A;}
	.st3{fill:#E4544F;}
	.st4{fill:#394D5C;}
</style>
<g id="flat">
	<path class="st0" d="M64,112c0,0,0,72,72,72v-32c0,0-40,0-40-40H64z"/>
	<path class="st0" d="M0,272c0-24,24-48,80-48v32c0,0-48,0-48,24c-0.6,8.7-7.6,15.5-16.3,16l0,0C0,296,0,282.4,0,272z"/>
	<path class="st0" d="M320,272c0-24-24-48-80-48v32c0,0,48,0,48,24c0.6,8.7,7.6,15.5,16.3,16l0,0C320,296,320,282.4,320,272z"/>
	<path class="st0" d="M256,112c0,0,0,72-72,72v-32c0,0,40,0,40-40H256z"/>
	<rect x="104" y="320" class="st0" width="32" height="112"/>
	<rect x="184" y="320" class="st0" width="32" height="112"/>
	<circle class="st1" cx="160" cy="248" r="104"/>
	<path class="st2" d="M80,128c35.3,0,64-28.7,64-64H16C16,99.3,44.7,128,80,128z"/>
	<path class="st3" d="M57.5,64c-0.9,2.6-1.4,5.3-1.5,8c0,13.3,10.7,24,24,24s24-10.7,24-24c0-2.7-0.5-5.4-1.5-8H57.5z"/>
	<path class="st4" d="M80,0L80,0c35.3,0,64,28.7,64,64l0,0l0,0H16l0,0l0,0C16,28.7,44.7,0,80,0z"/>
	<path class="st2" d="M240,128c35.3,0,64-28.7,64-64H176C176,99.3,204.7,128,240,128z"/>
	<path class="st3" d="M217.5,64c-0.9,2.6-1.4,5.3-1.5,8c0,13.3,10.7,24,24,24s24-10.7,24-24c0-2.7-0.5-5.4-1.5-8H217.5z"/>
	<path class="st4" d="M240,0L240,0c35.3,0,64,28.7,64,64l0,0l0,0H176l0,0l0,0C176,28.7,204.7,0,240,0z"/>
	<path class="st4" d="M157.6,317.7l-11.3-11.3c17.6-16.6,43.7-20.5,65.3-9.5l-7.2,14.3C189,303.3,170.3,305.9,157.6,317.7z"/>
	<path class="st1" d="M72,432h64l0,0v32l0,0H56l0,0v-16C56,439.2,63.2,432,72,432z"/>
	<path class="st1" d="M264,464h-80l0,0v-32l0,0h64c8.8,0,16,7.2,16,16V464L264,464z"/>
</g>
</svg>
