<svg id="Capa_1" data-name="Capa 1" xmlns="http://www.w3.org/2000/svg" viewBox="0 0 484.15 608.04"><defs><style>.cls-1{fill:#243a3d;}.cls-2{fill:#6e888a;}.cls-3{fill:#749191;}.cls-4{fill:#f3d65c;}.cls-5{fill:#9c9fa0;}.cls-6{font-size:72px;fill:#f9fae9;font-family:Roboto-Black, Roboto Black;font-weight:800;}.cls-7{fill:#d85b4b;}.cls-8{fill:#e57e25;}.cls-9{fill:#e8d06b;}.cls-10{fill:#e0ab00;}.cls-11{fill:#c9840f;}.cls-12{fill:#556180;}.cls-13{fill:#8898cc;}.cls-14{fill:none;stroke:#8898cc;stroke-linecap:round;stroke-miterlimit:10;stroke-width:2px;}.cls-15{fill:#1b68b0;}.cls-16{fill:#5c7d2b;}.cls-17{fill:#5f6063;}.cls-18{fill:#787a80;}.cls-19{fill:#868c9b;}.cls-20{fill:#7884a3;}.cls-21{fill:#b7dfe6;}.cls-22{fill:#62939a;}.cls-23{fill:#a1d4cc;}.cls-24{fill:#85cac4;}.cls-25{fill:#70c3b6;}.cls-26{fill:#48b3a2;}.cls-27{fill:#fdd296;}.cls-28{fill:#f9b550;}.cls-29{fill:#3c74a6;}.cls-30{fill:#34b1cd;}.cls-31{fill:#f1ec8c;}.cls-32{fill:#9662a6;}.cls-33{fill:#5b4193;}.cls-34{fill:#8a468d;}.cls-35{fill:#6c2472;}.cls-36{fill:#49388d;}.cls-37{fill:#5c3d8e;}.cls-38{fill:#c291c1;}.cls-39{fill:#ce93c1;}.cls-40{fill:#9e70ae;}.cls-41{fill:#ddb301;}.cls-42{fill:#edc211;}.cls-43{fill:#efc92a;}.cls-44{fill:#ce3789;}.cls-45{fill:#cc4b8a;}.cls-46{fill:#ca4b90;}.cls-47{fill:#b3496c;}.cls-48{fill:#878787;}.cls-49{fill:#c4c4c4;}.cls-50{fill:#6eb26f;}.cls-51{fill:#549360;}</style></defs><title>8</title><circle class="cls-1" cx="50.55" cy="53.37" r="41.53"/><circle class="cls-2" cx="42.89" cy="50.2" r="32.94"/><circle class="cls-3" cx="37.5" cy="47.49" r="26.61"/><path class="cls-4" d="M101,103.52H95.56l-1.81-1.8V96.3a1.81,1.81,0,0,0-3.61,0v5.42l-1.8,1.8H82.92a1.81,1.81,0,0,0,0,3.61h5.42l1.8,1.81v5.42a1.81,1.81,0,0,0,3.61,0v-5.42l1.81-1.81H101a1.81,1.81,0,0,0,0-3.61Z" transform="translate(-8.9 -10.43)"/><circle class="cls-4" cx="5.42" cy="8.23" r="1.81"/><circle class="cls-4" cx="10.83" cy="100.31" r="1.81"/><circle class="cls-5" cx="1.81" cy="87.67" r="1.81"/><circle class="cls-4" cx="21.67" cy="2.82" r="1.81"/><circle class="cls-4" cx="93.89" cy="8.23" r="1.81"/><circle class="cls-4" cx="97.5" cy="94.9" r="1.81"/><circle class="cls-4" cx="76.73" cy="72.1" r="1.81"/><circle class="cls-4" cx="21.67" cy="47.5" r="1.81"/><path class="cls-5" d="M58.59,105.31c-3.2,7.33-5.72,9.1-6.72,9-1.17-.15-3.64-3.42-4.64-14.66-.87-10-.35-23,1.48-36.76,4.08-30.58,12.49-49.28,16.52-48.8.94.13,2.79,2.27,4,9.39q1.85.45,3.6,1a1.84,1.84,0,0,0,.1-.84c-1.29-8.39-3.64-12.7-7.2-13.18C55.86,9.17,48,40.79,45.13,62.37c-1.87,14-2.39,27.33-1.49,37.55,1,11.35,3.61,17.38,7.75,17.93a4.64,4.64,0,0,0,.63,0c3.47,0,6.79-3.84,10.14-11.71a1.72,1.72,0,0,0,.09-1C61,105.31,59.82,105.34,58.59,105.31Z" transform="translate(-8.9 -10.43)"/><text class="cls-6" transform="translate(26.03 77.11)">1</text><circle class="cls-7" cx="167.88" cy="54.59" r="42.2"/><path class="cls-4" d="M226,21.07h-2.78L219,16.82V14a1.76,1.76,0,1,0-3.52,0v2.78l-4.24,4.25h-2.79a1.76,1.76,0,1,0,0,3.52h2.79l4.24,4.24v2.79a1.76,1.76,0,1,0,3.52,0V28.83l4.25-4.24H226a1.76,1.76,0,0,0,0-3.52Z" transform="translate(-8.9 -10.43)"/><circle class="cls-4" cx="130.95" cy="17.67" r="1.76"/><circle class="cls-4" cx="164.36" cy="22.94" r="1.76"/><circle class="cls-4" cx="213.59" cy="31.74" r="1.76"/><circle class="cls-4" cx="183.7" cy="10.64" r="1.76"/><circle class="cls-4" cx="181.94" cy="80.97" r="1.76"/><circle class="cls-4" cx="125.68" cy="96.79" r="1.76"/><circle class="cls-4" cx="122.16" cy="77.45" r="1.76"/><path class="cls-8" d="M215.4,48a42.15,42.15,0,0,0-6.32-10.15c-12.2,1.94-37.58,6-37.58,6Z" transform="translate(-8.9 -10.43)"/><path class="cls-8" d="M214,84.91a42.11,42.11,0,0,0,3.89-10.39L161,80.85S194.44,83.35,214,84.91Z" transform="translate(-8.9 -10.43)"/><path class="cls-8" d="M135.21,57.77a42.34,42.34,0,0,0-.64,7.26c0,1,.05,1.9.11,2.84l36.82-4.6S149.29,59.84,135.21,57.77Z" transform="translate(-8.9 -10.43)"/><circle class="cls-4" cx="197.77" cy="96.79" r="1.76"/><circle class="cls-4" cx="213.59" cy="75.69" r="1.76"/><circle class="cls-4" cx="122.16" cy="8.88" r="1.76"/><circle class="cls-4" cx="141.5" cy="5.36" r="1.76"/><text class="cls-6" transform="translate(147.44 79.69)">2</text><circle class="cls-9" cx="301.11" cy="57.56" r="41.98"/><circle class="cls-10" cx="301.11" cy="57.56" r="32.48"/><circle class="cls-11" cx="301.11" cy="57.56" r="19"/><path class="cls-10" d="M310,26.2a1.91,1.91,0,0,0-1.9,1.9v3.8a1.9,1.9,0,1,0,3.8,0V28.1A1.91,1.91,0,0,0,310,26.2Z" transform="translate(-8.9 -10.43)"/><path class="cls-10" d="M310,102.18a1.91,1.91,0,0,0-1.9,1.9v3.8a1.9,1.9,0,0,0,3.8,0v-3.8A1.91,1.91,0,0,0,310,102.18Z" transform="translate(-8.9 -10.43)"/><path class="cls-10" d="M349.89,66.09h-3.8a1.9,1.9,0,0,0,0,3.8h3.8a1.9,1.9,0,1,0,0-3.8Z" transform="translate(-8.9 -10.43)"/><path class="cls-10" d="M275.81,68a1.9,1.9,0,0,0-1.9-1.9h-3.8a1.9,1.9,0,0,0,0,3.8h3.8A1.9,1.9,0,0,0,275.81,68Z" transform="translate(-8.9 -10.43)"/><path class="cls-10" d="M336.87,38.44l-2.69,2.69a1.9,1.9,0,0,0,2.69,2.69l2.68-2.69a1.9,1.9,0,1,0-2.68-2.69Z" transform="translate(-8.9 -10.43)"/><path class="cls-10" d="M283.14,92.17l-2.69,2.69a1.9,1.9,0,0,0,1.35,3.24,1.94,1.94,0,0,0,1.34-.55l2.69-2.69a1.9,1.9,0,1,0-2.69-2.69Z" transform="translate(-8.9 -10.43)"/><path class="cls-10" d="M336.87,92.17a1.9,1.9,0,1,0-2.69,2.69l2.69,2.68a1.9,1.9,0,1,0,2.68-2.69Z" transform="translate(-8.9 -10.43)"/><path class="cls-10" d="M283.14,38.44a1.9,1.9,0,1,0-2.69,2.69l2.69,2.69a1.9,1.9,0,0,0,2.69-2.69Z" transform="translate(-8.9 -10.43)"/><path class="cls-10" d="M326.33,29.53a1.9,1.9,0,0,0-2.49,1L322.36,34a1.9,1.9,0,0,0,1,2.49,2,2,0,0,0,.75.15,1.9,1.9,0,0,0,1.75-1.16L327.34,32A1.9,1.9,0,0,0,326.33,29.53Z" transform="translate(-8.9 -10.43)"/><path class="cls-10" d="M296.65,99.47a1.91,1.91,0,0,0-2.5,1l-1.48,3.5a1.9,1.9,0,0,0,1,2.49,1.92,1.92,0,0,0,.74.15,1.9,1.9,0,0,0,1.75-1.16l1.48-3.49A1.9,1.9,0,0,0,296.65,99.47Z" transform="translate(-8.9 -10.43)"/><path class="cls-10" d="M347.47,81.83,344,80.35a1.9,1.9,0,1,0-1.49,3.49l3.5,1.49a1.92,1.92,0,0,0,.74.15,1.9,1.9,0,0,0,.75-3.65Z" transform="translate(-8.9 -10.43)"/><path class="cls-10" d="M277.52,52.14,274,50.66a1.9,1.9,0,1,0-1.49,3.5l3.5,1.48a1.92,1.92,0,0,0,.74.15,1.9,1.9,0,0,0,.74-3.65Z" transform="translate(-8.9 -10.43)"/><path class="cls-10" d="M343.47,56.07a2,2,0,0,0,.71-.14l3.52-1.42A1.9,1.9,0,0,0,346.28,51l-3.53,1.43a1.9,1.9,0,0,0,.72,3.66Z" transform="translate(-8.9 -10.43)"/><path class="cls-10" d="M275.83,79.45l-3.52,1.42a1.91,1.91,0,0,0-1.05,2.48A1.89,1.89,0,0,0,273,84.53a1.94,1.94,0,0,0,.71-.13L277.25,83a1.9,1.9,0,1,0-1.42-3.52Z" transform="translate(-8.9 -10.43)"/><path class="cls-10" d="M325.28,100.44a1.9,1.9,0,1,0-3.52,1.42l1.43,3.52a1.89,1.89,0,0,0,1.76,1.19,1.76,1.76,0,0,0,.71-.14,1.9,1.9,0,0,0,1-2.47Z" transform="translate(-8.9 -10.43)"/><path class="cls-10" d="M296.82,30a1.9,1.9,0,1,0-3.52,1.43l1.42,3.52a1.9,1.9,0,0,0,1.77,1.19,2,2,0,0,0,.71-.14,1.91,1.91,0,0,0,1.05-2.48Z" transform="translate(-8.9 -10.43)"/><path class="cls-11" d="M310,37.6a1.79,1.79,0,0,0-1.78,1.79V43a1.79,1.79,0,1,0,3.57,0V39.39A1.79,1.79,0,0,0,310,37.6Z" transform="translate(-8.9 -10.43)"/><path class="cls-11" d="M310,91.23A1.79,1.79,0,0,0,308.22,93V96.6a1.79,1.79,0,1,0,3.57,0V93A1.79,1.79,0,0,0,310,91.23Z" transform="translate(-8.9 -10.43)"/><path class="cls-11" d="M338.61,66.21H335a1.79,1.79,0,0,0,0,3.57h3.58a1.79,1.79,0,1,0,0-3.57Z" transform="translate(-8.9 -10.43)"/><path class="cls-11" d="M286.76,68A1.78,1.78,0,0,0,285,66.21H281.4a1.79,1.79,0,1,0,0,3.57H285A1.79,1.79,0,0,0,286.76,68Z" transform="translate(-8.9 -10.43)"/><path class="cls-11" d="M327.7,52.08a1.79,1.79,0,0,0,1.27-.52L331.49,49A1.79,1.79,0,0,0,329,46.5L326.44,49a1.79,1.79,0,0,0,0,2.53A1.76,1.76,0,0,0,327.7,52.08Z" transform="translate(-8.9 -10.43)"/><path class="cls-11" d="M291,84.43,288.51,87a1.77,1.77,0,0,0,0,2.52,1.77,1.77,0,0,0,2.53,0L293.57,87A1.79,1.79,0,1,0,291,84.43Z" transform="translate(-8.9 -10.43)"/><path class="cls-11" d="M329,84.43A1.79,1.79,0,0,0,326.44,87L329,89.48A1.78,1.78,0,1,0,331.49,87Z" transform="translate(-8.9 -10.43)"/><path class="cls-11" d="M291,46.5a1.8,1.8,0,0,0-2.53,0,1.79,1.79,0,0,0,0,2.53L291,51.56A1.79,1.79,0,1,0,293.57,49Z" transform="translate(-8.9 -10.43)"/><path class="cls-11" d="M321.88,40a1.78,1.78,0,0,0-2.34.95l-1.4,3.29a1.78,1.78,0,0,0,.95,2.34,1.72,1.72,0,0,0,.7.14,1.79,1.79,0,0,0,1.64-1.09l1.4-3.29A1.79,1.79,0,0,0,321.88,40Z" transform="translate(-8.9 -10.43)"/><path class="cls-11" d="M300.92,89.39a1.77,1.77,0,0,0-2.34,1l-1.4,3.29a1.79,1.79,0,0,0,.95,2.34,1.72,1.72,0,0,0,.7.14A1.8,1.8,0,0,0,300.48,95l1.39-3.29A1.78,1.78,0,0,0,300.92,89.39Z" transform="translate(-8.9 -10.43)"/><path class="cls-11" d="M337,77.52l-3.29-1.39a1.79,1.79,0,1,0-1.39,3.29l3.29,1.39a1.73,1.73,0,0,0,.7.15,1.79,1.79,0,0,0,.69-3.44Z" transform="translate(-8.9 -10.43)"/><path class="cls-11" d="M283,58.46l3.3,1.4a1.68,1.68,0,0,0,.7.14,1.79,1.79,0,0,0,.69-3.43l-3.29-1.4a1.79,1.79,0,0,0-1.4,3.29Z" transform="translate(-8.9 -10.43)"/><path class="cls-11" d="M331.55,59a1.79,1.79,0,0,0,1.66,1.12,1.77,1.77,0,0,0,.67-.13l3.32-1.34a1.79,1.79,0,0,0-1.35-3.31l-3.31,1.33A1.79,1.79,0,0,0,331.55,59Z" transform="translate(-8.9 -10.43)"/><path class="cls-11" d="M288.45,76.41a1.79,1.79,0,0,0-2.32-1l-3.32,1.34a1.79,1.79,0,0,0,.67,3.45,1.74,1.74,0,0,0,.67-.13l3.32-1.34A1.79,1.79,0,0,0,288.45,76.41Z" transform="translate(-8.9 -10.43)"/><path class="cls-11" d="M321,90.24a1.79,1.79,0,1,0-3.32,1.34l1.34,3.32A1.81,1.81,0,0,0,320.72,96a2,2,0,0,0,.67-.13,1.79,1.79,0,0,0,1-2.33Z" transform="translate(-8.9 -10.43)"/><path class="cls-11" d="M301,40.52a1.79,1.79,0,0,0-3.32,1.34L299,45.17a1.79,1.79,0,1,0,3.32-1.34Z" transform="translate(-8.9 -10.43)"/><path class="cls-9" d="M310,11a1.9,1.9,0,0,0-1.9,1.9v9.5a1.9,1.9,0,0,0,3.8,0v-9.5A1.9,1.9,0,0,0,310,11Z" transform="translate(-8.9 -10.43)"/><path class="cls-9" d="M310,111.68a1.9,1.9,0,0,0-1.9,1.9v9.5a1.9,1.9,0,0,0,3.8,0v-9.5A1.9,1.9,0,0,0,310,111.68Z" transform="translate(-8.9 -10.43)"/><path class="cls-9" d="M365.09,66.09h-9.5a1.9,1.9,0,1,0,0,3.8h9.5a1.9,1.9,0,1,0,0-3.8Z" transform="translate(-8.9 -10.43)"/><path class="cls-9" d="M266.32,68a1.9,1.9,0,0,0-1.9-1.9h-9.5a1.9,1.9,0,1,0,0,3.8h9.5A1.9,1.9,0,0,0,266.32,68Z" transform="translate(-8.9 -10.43)"/><path class="cls-9" d="M342.24,37.66a1.89,1.89,0,0,0,1.34-.56l6.72-6.71a1.9,1.9,0,1,0-2.69-2.69l-6.71,6.71a1.91,1.91,0,0,0,0,2.69A1.89,1.89,0,0,0,342.24,37.66Z" transform="translate(-8.9 -10.43)"/><path class="cls-9" d="M276.42,98.89l-6.71,6.71a1.9,1.9,0,0,0,2.69,2.69l6.71-6.72a1.9,1.9,0,0,0-2.69-2.68Z" transform="translate(-8.9 -10.43)"/><path class="cls-9" d="M343.58,98.89a1.9,1.9,0,0,0-2.68,2.68l6.71,6.72a1.9,1.9,0,1,0,2.69-2.69Z" transform="translate(-8.9 -10.43)"/><path class="cls-9" d="M272.4,27.7a1.9,1.9,0,1,0-2.69,2.69l6.71,6.71a1.93,1.93,0,0,0,1.35.56,1.91,1.91,0,0,0,1.34-3.25Z" transform="translate(-8.9 -10.43)"/><path class="cls-9" d="M332.27,15.54a1.9,1.9,0,0,0-2.49,1l-3.71,8.74a1.9,1.9,0,0,0,1,2.49,1.92,1.92,0,0,0,.74.15,1.9,1.9,0,0,0,1.75-1.16L333.28,18A1.9,1.9,0,0,0,332.27,15.54Z" transform="translate(-8.9 -10.43)"/><path class="cls-9" d="M292.93,108.21a1.9,1.9,0,0,0-2.49,1L286.73,118a1.9,1.9,0,0,0,1,2.49,1.92,1.92,0,0,0,.74.15,1.9,1.9,0,0,0,1.75-1.16l3.71-8.74A1.9,1.9,0,0,0,292.93,108.21Z" transform="translate(-8.9 -10.43)"/><path class="cls-9" d="M361.45,87.77l-8.74-3.71a1.9,1.9,0,1,0-1.49,3.49L360,91.27a1.9,1.9,0,0,0,2.49-1A1.9,1.9,0,0,0,361.45,87.77Z" transform="translate(-8.9 -10.43)"/><path class="cls-9" d="M258.56,48.22l8.74,3.71a1.92,1.92,0,0,0,.74.15,1.9,1.9,0,0,0,.75-3.65L260,44.72a1.9,1.9,0,0,0-1.48,3.5Z" transform="translate(-8.9 -10.43)"/><path class="cls-9" d="M350.51,51.32a1.9,1.9,0,0,0,1.76,1.19,1.76,1.76,0,0,0,.71-.14l8.81-3.55a1.9,1.9,0,0,0-1.42-3.53l-8.81,3.56A1.9,1.9,0,0,0,350.51,51.32Z" transform="translate(-8.9 -10.43)"/><path class="cls-9" d="M269.5,84.06A1.9,1.9,0,0,0,267,83l-8.8,3.55a1.9,1.9,0,0,0,.71,3.67,2,2,0,0,0,.71-.14l8.81-3.56A1.9,1.9,0,0,0,269.5,84.06Z" transform="translate(-8.9 -10.43)"/><path class="cls-9" d="M328.84,109.24a1.9,1.9,0,1,0-3.52,1.43l3.56,8.8a1.9,1.9,0,0,0,1.76,1.19,1.76,1.76,0,0,0,.71-.14,1.9,1.9,0,0,0,1-2.47Z" transform="translate(-8.9 -10.43)"/><path class="cls-9" d="M291.13,15.9a1.9,1.9,0,1,0-3.52,1.43l3.55,8.8a1.9,1.9,0,0,0,1.77,1.19,1.83,1.83,0,0,0,.71-.14,1.9,1.9,0,0,0,1.05-2.47Z" transform="translate(-8.9 -10.43)"/><text class="cls-6" transform="translate(280.26 82.25)">3</text><ellipse class="cls-12" cx="420.76" cy="53.37" rx="43.08" ry="42.3"/><ellipse class="cls-4" cx="393.47" cy="87.21" rx="1.44" ry="1.41"/><ellipse class="cls-4" cx="386.29" cy="47.73" rx="1.44" ry="1.41"/><ellipse class="cls-4" cx="415.02" cy="46.32" rx="1.44" ry="1.41"/><ellipse class="cls-4" cx="446.61" cy="19.53" rx="1.44" ry="1.41"/><ellipse class="cls-4" cx="453.79" cy="47.73" rx="1.44" ry="1.41"/><ellipse class="cls-13" cx="453.79" cy="70.29" rx="5.74" ry="5.64"/><ellipse class="cls-13" cx="435.51" cy="88.62" rx="5.74" ry="5.64"/><ellipse class="cls-13" cx="413.58" cy="66.06" rx="5.74" ry="5.64"/><ellipse class="cls-13" cx="431.45" cy="47.73" rx="7.18" ry="7.05"/><line class="cls-14" x1="426.94" y1="53.17" x2="417.74" y2="62.19"/><line class="cls-14" x1="449.55" y1="66.51" x2="435.96" y2="53.17"/><line class="cls-14" x1="439.57" y1="84.63" x2="449.94" y2="74.45"/><polyline class="cls-14" points="417.07 70.51 431.45 84.63 431.45 84.63"/><ellipse class="cls-13" cx="413.58" cy="25.17" rx="4.31" ry="4.23"/><ellipse class="cls-13" cx="386.29" cy="19.53" rx="4.31" ry="4.23"/><line class="cls-14" x1="430.81" y1="43.5" x2="416.45" y2="27.99"/><line class="cls-14" x1="409.27" y1="23.76" x2="390.6" y2="19.53"/><ellipse class="cls-4" cx="413.58" cy="66.06" rx="3.71" ry="3.65"/><ellipse class="cls-4" cx="435.51" cy="88.62" rx="3.71" ry="3.65"/><ellipse class="cls-4" cx="453.79" cy="70.29" rx="2.7" ry="2.65"/><ellipse class="cls-4" cx="431.45" cy="47.73" rx="4.13" ry="4.06"/><ellipse class="cls-4" cx="413.58" cy="25.17" rx="1.44" ry="1.41"/><ellipse class="cls-4" cx="386.29" cy="19.53" rx="1.44" ry="1.41"/><text class="cls-6" transform="translate(398.68 79.05)">4</text><path class="cls-4" d="M105.94,224.49H103.1l-4.32-4.32v-2.84a1.79,1.79,0,1,0-3.58,0v2.84l-4.32,4.32H88a1.79,1.79,0,0,0,0,3.58h2.84l4.32,4.32v2.84a1.79,1.79,0,0,0,3.58,0v-2.84l4.32-4.32h2.84a1.79,1.79,0,1,0,0-3.58Z" transform="translate(-8.9 -10.43)"/><circle class="cls-15" cx="50.5" cy="174.68" r="41.17"/><circle class="cls-4" cx="3.3" cy="129.94" r="1.79"/><circle class="cls-4" cx="6.88" cy="215.86" r="1.79"/><circle class="cls-4" cx="36.41" cy="223.46" r="1.79"/><circle class="cls-4" cx="25.67" cy="180.05" r="1.79"/><circle class="cls-4" cx="79.87" cy="127.03" r="1.79"/><circle class="cls-4" cx="96.14" cy="202.2" r="1.79"/><path class="cls-16" d="M61.87,181.74a2.39,2.39,0,0,1,.82.66c1.24,1.83.53,4.51,1.76,5.16a2.09,2.09,0,0,1,1.12,2.61c-1.71,4.19-.23,9,3.75,12.28,2.79,2.32.47,7.69-1.89,11.9A1.88,1.88,0,0,0,69.72,217a21.63,21.63,0,0,0,7.16-4.36c3.58-3.07,4.35-6.42,7.9-9a.44.44,0,0,0,.08-.11c.91-2.66,3.72-8.45.88-9.93-2.65-1.38-3.64-5.37-6.23-8.08a1.88,1.88,0,0,0-1.15-.52c-3.17-.41-4.59-2.83-6.73-1.22-1.59,1.2-3.39.47-3.95-1.45A2.07,2.07,0,0,0,66,180.78a1.62,1.62,0,0,1-1-2.12s0,0,0,0c.42-1.14-2-1-3.15-.77-.34.06.8-1.31.43-1.08-1.49.87-3.33-.64-3.25-2.36s.41-1.66,3.4-2q4.83-2.25,4.67,3.27c2,.3,2.68-.58,2.09-2.63a2,2,0,0,1,.34-1.77c3.67-4.77,6.73-6.84,12.34-8.77a1.84,1.84,0,0,0,1.17-2.22c-.9-3.3-2.3-8.5-4.68-8.88a2.33,2.33,0,0,1-1.55-1.24c-.84-1.92-1.4-2.73-3-3.2a1.9,1.9,0,0,0-2.44,1.79c0,3.85,0,7.17-4.41,2.78-3.64-3.64-4.7-5.62-2.69-6.56-.09-.78,0,0-.09-.75a41.07,41.07,0,0,0-23.85,4.36.27.27,0,0,0-.1.37c2.79,5.14,3.36,7.84,3,13.83a2,2,0,0,0,.18,1C46,169,49.09,177.86,54.42,179.9,57,180.9,59.42,180.53,61.87,181.74Z" transform="translate(-8.9 -10.43)"/><text class="cls-6" transform="translate(30.03 201.37)">5</text><path class="cls-17" d="M226,175.27l-21,5.61-.78-2.91,21-5.63a43.61,43.61,0,0,0-6.07-12.44l-33.37,8.95-.78-2.92,32.16-8.62a43.91,43.91,0,0,0-14.86-11.64l-55,14.74a44,44,0,0,0-7.07,17.52l6.31-1.69.78,2.92-7.5,2a43.5,43.5,0,0,0,1,13.81l54.06-14.49.78,2.92-54,14.48a45.75,45.75,0,0,0,2.07,5.54c4.17-.68,6.29,4.4,4.18,7.2.25.35.52.67.78,1l23-6.16.79,2.91-21.69,5.81a43.8,43.8,0,0,0,13.78,10.37l33.55-9,.78,2.91-29.74,8a43.69,43.69,0,0,0,47.42-12.71l-9.71,2.6-.79-2.91,13.52-3.62c.23-.34.46-.67.68-1-1.28-2.31-.76-5.69,2.55-6.58a5.1,5.1,0,0,1,1-.16,44.5,44.5,0,0,0,2.49-8.11l-9.46,2.53-.78-2.91,10.79-2.89A43.31,43.31,0,0,0,226,175.27Z" transform="translate(-8.9 -10.43)"/><path class="cls-17" d="M172.09,142.84a44.27,44.27,0,0,0-8,3,4.35,4.35,0,0,1-6.51,3.94,44,44,0,0,0-7.25,6.7l47.44-12.72A43.64,43.64,0,0,0,172.09,142.84Z" transform="translate(-8.9 -10.43)"/><circle class="cls-18" cx="167.72" cy="172.41" r="30.94"/><circle class="cls-19" cx="161.68" cy="170.9" r="17.36"/><circle class="cls-4" cx="133.77" cy="134.77" r="1.51"/><circle class="cls-4" cx="145.85" cy="216.27" r="1.51"/><circle class="cls-4" cx="213.77" cy="208.72" r="1.51"/><circle class="cls-4" cx="133.77" cy="213.25" r="1.51"/><circle class="cls-4" cx="140.25" cy="140.12" r="1.51"/><circle class="cls-4" cx="209.24" cy="136.28" r="1.51"/><path class="cls-20" d="M217.42,193.2c0-.09,0-.18,0-.27a5.91,5.91,0,0,0-5.72-5.35,6.3,6.3,0,0,0-1.64.23,5.67,5.67,0,0,0-4.27,6.43,6.78,6.78,0,0,0,.57,1.93L182,202.69a5.6,5.6,0,0,0-5-3.21,6.37,6.37,0,0,0-1.65.23,5.6,5.6,0,0,0-4.29,5.91l-22.43,6c.67.89,1.38,1.74,2.11,2.56l21.17-5.67a5.53,5.53,0,0,0,4.89,3,6.31,6.31,0,0,0,1.65-.23,5.6,5.6,0,0,0,4.31-5.66l25.77-6.9a5.4,5.4,0,0,0,3,.88,6.41,6.41,0,0,0,1.65-.22,5.58,5.58,0,0,0,3.66-2.88l9.44-2.53c.22-1.08.41-2.17.55-3.27Zm-39.76,15.16a2.88,2.88,0,0,1-3.59-2.61,2.7,2.7,0,0,1,2.06-3.13,3.36,3.36,0,0,1,.86-.12,2.89,2.89,0,0,1,2.72,2.73A2.69,2.69,0,0,1,177.66,208.36Zm34.7-11.91a2.86,2.86,0,0,1-3.58-2.61,2.68,2.68,0,0,1,2.05-3.12,3.37,3.37,0,0,1,.87-.12,2.88,2.88,0,0,1,2.71,2.72A2.68,2.68,0,0,1,212.36,196.45Z" transform="translate(-8.9 -10.43)"/><path class="cls-20" d="M197.77,143.77l-47.44,12.72a42.33,42.33,0,0,0-3,3.92l55-14.74A46,46,0,0,0,197.77,143.77Z" transform="translate(-8.9 -10.43)"/><path class="cls-20" d="M151.77,182.26a6.29,6.29,0,0,0,1.65-.22,5.6,5.6,0,0,0,4.31-5.66l17.7-4.74a5.63,5.63,0,0,0,5.14,3.43,6.31,6.31,0,0,0,1.65-.23,5.64,5.64,0,0,0,4.28-6.17l32.71-8.76c-.63-.9-1.3-1.76-2-2.6l-31.67,8.49a5.52,5.52,0,0,0-4.76-2.75,6.31,6.31,0,0,0-1.65.23,5.58,5.58,0,0,0-4.31,5.39L157,173.45a5.59,5.59,0,0,0-5-3.2,6.35,6.35,0,0,0-1.65.22,5.63,5.63,0,0,0-4.29,5.92l-5.77,1.54c-.18,1.07-.32,2.15-.41,3.24l7-1.89A5.53,5.53,0,0,0,151.77,182.26Zm28.14-16.07a3.36,3.36,0,0,1,.86-.12,2.9,2.9,0,0,1,2.72,2.73,2.68,2.68,0,0,1-2.05,3.12,2.87,2.87,0,0,1-3.59-2.6A2.7,2.7,0,0,1,179.91,166.19Zm-28.81,7.2a3.43,3.43,0,0,1,.87-.12,2.89,2.89,0,0,1,2.72,2.73,2.68,2.68,0,0,1-2.05,3.12,2.87,2.87,0,0,1-3.59-2.61A2.7,2.7,0,0,1,151.1,173.39Z" transform="translate(-8.9 -10.43)"/><path class="cls-20" d="M207.49,212.78a5.91,5.91,0,0,0-5.71-5.36,6.31,6.31,0,0,0-1.65.23,5.67,5.67,0,0,0-4.26,6.44,6.39,6.39,0,0,0,.56,1.92l-31.92,8.55a42.48,42.48,0,0,0,4.58,1.9l29.51-7.91a5.35,5.35,0,0,0,3,.89,6.37,6.37,0,0,0,1.65-.23,5.55,5.55,0,0,0,3.66-2.88l9.63-2.58a44.07,44.07,0,0,0,3-3.93l-12,3.22A2.26,2.26,0,0,0,207.49,212.78Zm-5,3.52a2.87,2.87,0,0,1-3.59-2.61,2.69,2.69,0,0,1,2-3.13,3.37,3.37,0,0,1,.87-.12,2.9,2.9,0,0,1,2.72,2.73A2.7,2.7,0,0,1,202.45,216.3Z" transform="translate(-8.9 -10.43)"/><path class="cls-20" d="M199.68,186.61a6.29,6.29,0,0,0,1.65-.22,5.61,5.61,0,0,0,4.31-5.66L226,175.27c-.11-.5-.19-1-.33-1.48s-.28-1-.42-1.45l-20.36,5.46a5.59,5.59,0,0,0-5-3.2,6.28,6.28,0,0,0-1.64.22,5.63,5.63,0,0,0-4.3,5.92L140.8,195c.12.49.21,1,.34,1.47s.3,1,.45,1.44l53.2-14.25A5.54,5.54,0,0,0,199.68,186.61Zm-.66-8.87a3.36,3.36,0,0,1,.86-.12,2.89,2.89,0,0,1,2.72,2.72,2.68,2.68,0,0,1-2,3.13,2.88,2.88,0,0,1-3.59-2.61A2.7,2.7,0,0,1,199,177.74Z" transform="translate(-8.9 -10.43)"/><text class="cls-6" transform="translate(152.91 199.99)">6</text><path class="cls-21" d="M261.76,217.51a39.6,39.6,0,0,1,2.94-15c4.42-11.79,13.2-24.62,24.7-36.13L287.09,164c-11.83,11.83-20.87,25.07-25.45,37.29-4.74,12.64-4.17,22.78,1.62,28.57a1.64,1.64,0,0,0,1.16.48,1.61,1.61,0,0,0,1.15-.48,1.64,1.64,0,0,0,0-2.32C263.19,225.19,261.91,221.81,261.76,217.51Z" transform="translate(-8.9 -10.43)"/><circle class="cls-22" cx="299.21" cy="174.61" r="41.46"/><path class="cls-21" d="M353,140.2c-4.91-4.92-13-6.07-23-3.4l1.38-1.63a1.64,1.64,0,1,0-2.49-2.12l-5.09,6a1.62,1.62,0,0,0-.33,1.51,1.65,1.65,0,0,0,1.08,1.11l7.49,2.39a1.8,1.8,0,0,0,.5.08,1.64,1.64,0,0,0,.5-3.2l-2.67-.85a34.38,34.38,0,0,1,10.29-1.4c4.3.16,7.69,1.44,10.07,3.82s3.66,5.77,3.81,10.07a39.63,39.63,0,0,1-2.94,15c-4.42,11.79-13.2,24.62-24.7,36.12s-24.34,20.28-36.13,24.7a39.44,39.44,0,0,1-15,2.95c-4.3-.15-7.69-1.44-10.07-3.82a1.64,1.64,0,1,0-2.31,2.32c3.19,3.19,7.72,4.8,13.26,4.8a44.44,44.44,0,0,0,15.31-3.18c12.22-4.58,25.46-13.62,37.29-25.45S350,181,354.57,168.77C359.31,156.13,358.73,146,353,140.2Z" transform="translate(-8.9 -10.43)"/><path class="cls-23" d="M469.27,181.34a23.87,23.87,0,0,1-.17,2.93l-40.87,40.87a24.13,24.13,0,0,1-2.93.18A43.75,43.75,0,0,1,401,218l-18.53-46.68a43.47,43.47,0,0,1,16.07-24.74c.76-.59-1.35-4.1-.53-4.69s4.81,1.76,5.75,1.29a24.77,24.77,0,0,1,2.69-1.53L425.3,147l36.82,10.44A43.3,43.3,0,0,1,469.27,181.34Z" transform="translate(-8.9 -10.43)"/><path class="cls-24" d="M469.27,181.34a23.87,23.87,0,0,1-.17,2.93l-40.87,40.87a24.13,24.13,0,0,1-2.93.18V147l36.82,10.44A43.3,43.3,0,0,1,469.27,181.34Z" transform="translate(-8.9 -10.43)"/><path class="cls-25" d="M462.12,157.42,449,174l-7.33-7.33H428.23v-5.86h-17l-4.81-19.18a43.74,43.74,0,0,1,55.65,15.78Z" transform="translate(-8.9 -10.43)"/><path class="cls-25" d="M398.91,191.85V179.53l-16.4-8.2A43.7,43.7,0,0,0,401,218l4-20Z" transform="translate(-8.9 -10.43)"/><path class="cls-26" d="M469.1,184.27a43,43,0,0,1-5.57,18.65c-.44.8,2,4.5,1.54,5.26-.63,1-4.24-1-5-.1a43.5,43.5,0,0,1-31.84,17.06V186l7.56-7.56h15.89v5.86Z" transform="translate(-8.9 -10.43)"/><path class="cls-26" d="M428.23,160.82H425.3V137.36a43.86,43.86,0,0,1,36.82,20.06L449,174l-7.33-7.33H428.23Z" transform="translate(-8.9 -10.43)"/><path class="cls-27" d="M474,229.89c-7.91,7.92-37.42-18.17-45.75-25.56-1-.94-2-1.82-2.93-2.64-4.63-4.28-8-7.62-9.15-8.8l4.1-4.16c1.7,1.7,3.41,3.34,5.05,4.93l2.93,2.75c5,4.69,35.26,31.49,41.83,29.2,0-.64-2.08-6.33-10-17.53a33,33,0,0,0,3.46-5.16C477,221.27,476.45,227.49,474,229.89Z" transform="translate(-8.9 -10.43)"/><path class="cls-27" d="M380.73,137c1-.35,6.69,1.68,17.83,9.6a33.11,33.11,0,0,1,5.22-3.4c-18.41-13.55-24.57-12.94-27-10.48-8.59,8.58,22.7,42.94,31.13,51.82l4.28-4C407.52,175.51,379.08,143.6,380.73,137Z" transform="translate(-8.9 -10.43)"/><path class="cls-28" d="M474,229.89c-7.91,7.92-37.42-18.17-45.75-25.56-1-.94-2-1.82-2.93-2.64v-8l2.93,2.75c5,4.69,35.26,31.49,41.83,29.2,0-.64-2.08-6.33-10-17.53a33,33,0,0,0,3.46-5.16C477,221.27,476.45,227.49,474,229.89Z" transform="translate(-8.9 -10.43)"/><path class="cls-29" d="M108.68,320.47A43.27,43.27,0,1,1,65.41,277.2,43.27,43.27,0,0,1,108.68,320.47Z" transform="translate(-8.9 -10.43)"/><path class="cls-30" d="M85.71,282.26l-3.89,3.89h-6l-4.47,3,3,4.47-3,4.48,4.47,4.47,4.48-1.49,1.49-6,6-3,6,1.49,3-3A43.1,43.1,0,0,0,85.71,282.26Z" transform="translate(-8.9 -10.43)"/><path class="cls-30" d="M103.63,300.2l-5.4,3.85-6,1.5L84.8,307l-4.47,6-6,1.49L72.87,319l7.46,6,6-1.49,6-4.48,4.48,1.5,3,3-6,7.46,4.47,6,6.29,2.09A43.24,43.24,0,0,0,103.63,300.2Z" transform="translate(-8.9 -10.43)"/><path class="cls-30" d="M62.43,330.91l-6-6H49l-6,4.48-4.47-1.49,1.49-6,7.46-3,6-4.47,4.48-3v-3H52l-6,3H41.54V307l6-1.49,3-6-1.49-3-7.46,1.5-4.48,4.47-4.47,1.49-1.49-3-2.82-2.82a43.28,43.28,0,0,0-2.1,40.47l3.42,1.14,9,3,8.95-1.49,4.47,3v7.46l4.48,4.47,10.44-1.49-3-4.48,1.49-7.46,7.46-4.47,3-4.48-4.47-4.47Z" transform="translate(-8.9 -10.43)"/><path class="cls-31" d="M62.43,281.68h3v3h-3Z" transform="translate(-8.9 -10.43)"/><path class="cls-31" d="M56.46,286.15h3v3h-3Z" transform="translate(-8.9 -10.43)"/><path class="cls-31" d="M92.26,342.84h3v3h-3Z" transform="translate(-8.9 -10.43)"/><path class="cls-31" d="M86.3,339.86h3v3h-3Z" transform="translate(-8.9 -10.43)"/><path class="cls-32" d="M217.83,283.21a13.4,13.4,0,1,1-13.4-13.4A13.4,13.4,0,0,1,217.83,283.21Z" transform="translate(-8.9 -10.43)"/><path class="cls-33" d="M217.83,283.21a13.42,13.42,0,0,1-16.46,13.05,13.41,13.41,0,0,0,0-26.1,13.42,13.42,0,0,1,16.46,13Z" transform="translate(-8.9 -10.43)"/><path class="cls-34" d="M225.43,323.51a43.53,43.53,0,0,1-86.37,7.73c-.2-1.1-.36-2.22-.47-3.34-.14-1.44-.22-2.91-.22-4.39a43.7,43.7,0,0,1,.58-7.1c.18-1.08.39-2.14.65-3.19a43.57,43.57,0,0,1,59.46-29.73,44.68,44.68,0,0,1,4.59,2.3,43.8,43.8,0,0,1,9,6.87c.85.85,1.67,1.73,2.45,2.64a43.38,43.38,0,0,1,9.65,20.27A44.24,44.24,0,0,1,225.43,323.51Z" transform="translate(-8.9 -10.43)"/><path class="cls-35" d="M215.06,295.3a1.58,1.58,0,0,1-1,.43,30.92,30.92,0,0,0-8.12,2.35C201.3,300,194,303.92,185.6,311.67a1.62,1.62,0,1,1-2.2-2.38c14.21-13.1,25.57-16,29.21-16.63C213.46,293.51,214.28,294.39,215.06,295.3Z" transform="translate(-8.9 -10.43)"/><path class="cls-35" d="M177,319.75a1.62,1.62,0,0,1-1.21-2.69c1.05-1.18,2.12-2.34,3.19-3.44a1.62,1.62,0,1,1,2.33,2.25c-1,1.07-2.08,2.2-3.1,3.34A1.6,1.6,0,0,1,177,319.75Z" transform="translate(-8.9 -10.43)"/><path class="cls-35" d="M225.43,323.51A43.53,43.53,0,0,1,181.9,367c-1.28,0-2.55-.06-3.8-.16a43.54,43.54,0,0,0,39.73-43.37,44.24,44.24,0,0,0-.72-7.94,43.57,43.57,0,0,0-39-35.43c1.25-.1,2.52-.16,3.8-.16a43.54,43.54,0,0,1,42.81,35.59A44.24,44.24,0,0,1,225.43,323.51Z" transform="translate(-8.9 -10.43)"/><path class="cls-35" d="M160.2,329.7a51.9,51.9,0,0,1-14.36,1.94,55.79,55.79,0,0,1-6.78-.4c-.2-1.1-.36-2.22-.47-3.34a52.51,52.51,0,0,0,7.26.49,49.08,49.08,0,0,0,13.45-1.8,1.62,1.62,0,1,1,.9,3.11Z" transform="translate(-8.9 -10.43)"/><path class="cls-32" d="M225.43,323.51A43.5,43.5,0,0,1,181.9,367c-1.28,0-2.55-.05-3.8-.16a43.53,43.53,0,0,1-29.52-15.36c9.82-13.06,24.46-24.1,45.59-24.48a47.06,47.06,0,0,0,23.56-6.37,44.54,44.54,0,0,0,7-5.1A44.24,44.24,0,0,1,225.43,323.51Z" transform="translate(-8.9 -10.43)"/><path class="cls-33" d="M225.43,323.51A43.5,43.5,0,0,1,181.9,367c-1.28,0-2.55-.05-3.8-.16a43.54,43.54,0,0,0,39.73-43.37c0-1,0-1.9-.1-2.84a44.54,44.54,0,0,0,7-5.1A44.24,44.24,0,0,1,225.43,323.51Z" transform="translate(-8.9 -10.43)"/><path class="cls-36" d="M223.85,335.16a43.27,43.27,0,0,1-1.58,4.66c-.43,1.07-.91,2.13-1.43,3.16A43.53,43.53,0,0,1,181.9,367c-1.28,0-2.55-.05-3.8-.16a43.2,43.2,0,0,1-9-1.76,26.65,26.65,0,0,0,12.8-11.26c6.47-11.15,19-17.69,34.34-18.66A66.46,66.46,0,0,1,223.85,335.16Z" transform="translate(-8.9 -10.43)"/><path class="cls-37" d="M223.85,335.16A43.54,43.54,0,0,1,181.9,367c-1.28,0-2.55-.05-3.8-.16a43.58,43.58,0,0,0,38.14-31.68A66.46,66.46,0,0,1,223.85,335.16Z" transform="translate(-8.9 -10.43)"/><path class="cls-38" d="M228.37,285.34A70.86,70.86,0,0,1,221,297.91c-7.14,10.16-17.79,22.48-30,34.68s-24.52,22.86-34.68,30A70,70,0,0,1,143.73,370a14.24,14.24,0,0,1-5.25,1.31,4.26,4.26,0,0,1-3.17-1.17c-3-3-.12-10.53,8.89-22.93a1.63,1.63,0,0,1,.8-.58c.55.89,1.14,1.75,1.75,2.59-9.58,13.2-9.86,17.92-9.16,18.62s4.94.5,16.85-7.88c10-7,22.17-17.55,34.25-29.63s22.6-24.24,29.64-34.25c8.37-11.91,8.52-16.2,7.88-16.85s-5.44-.41-18.63,9.16c-.9-.66-1.82-1.28-2.76-1.87a1.59,1.59,0,0,1,.4-.42c12.61-9.22,20.22-12.21,23.28-9.16C230.1,278.52,230.06,281.27,228.37,285.34Z" transform="translate(-8.9 -10.43)"/><path class="cls-39" d="M228.5,370.11a4.28,4.28,0,0,1-3.18,1.17,14.24,14.24,0,0,1-5.25-1.31,70.7,70.7,0,0,1-12.57-7.38c-10.16-7.14-22.47-17.79-34.68-30s-22.86-24.52-30-34.68a70.24,70.24,0,0,1-7.39-12.57c-1.7-4.07-1.74-6.82-.13-8.43,3-3,10.48-.13,22.83,8.83a1.63,1.63,0,0,1,.61.9c-.86.54-1.71,1.12-2.53,1.72-13.2-9.59-17.92-9.86-18.63-9.16s-.48,4.94,7.89,16.85c7,10,17.56,22.17,29.63,34.25s24.24,22.6,34.25,29.63c11.91,8.38,16.2,8.53,16.85,7.88s.42-5.43-9.16-18.62c.66-.9,1.28-1.82,1.87-2.76a1.62,1.62,0,0,1,.43.4C228.56,359.44,231.56,367.05,228.5,370.11Z" transform="translate(-8.9 -10.43)"/><path class="cls-40" d="M147.22,329.36a7.48,7.48,0,1,1-7.47-7.48A7.46,7.46,0,0,1,147.22,329.36Z" transform="translate(-8.9 -10.43)"/><path class="cls-32" d="M147.22,329.36a7.47,7.47,0,0,1-9.7,7.13,7.48,7.48,0,0,0,0-14.27,7.47,7.47,0,0,1,9.7,7.14Z" transform="translate(-8.9 -10.43)"/><path class="cls-32" d="M161.91,272.79h0a1.63,1.63,0,0,1-1.62-1.63v-.57a1.61,1.61,0,0,1,1.62-1.61,1.63,1.63,0,0,1,1.62,1.63v.56A1.63,1.63,0,0,1,161.91,272.79Z" transform="translate(-8.9 -10.43)"/><path class="cls-32" d="M161.9,278.54h0a1.6,1.6,0,0,1-1.61-1.62v-.57a1.6,1.6,0,0,1,1.63-1.61,1.62,1.62,0,0,1,1.61,1.63v.56A1.62,1.62,0,0,1,161.9,278.54Z" transform="translate(-8.9 -10.43)"/><path class="cls-32" d="M165.07,275.39h-.58a1.62,1.62,0,0,1,0-3.24h.57a1.62,1.62,0,1,1,0,3.24Z" transform="translate(-8.9 -10.43)"/><path class="cls-32" d="M159.31,275.38h-.57a1.62,1.62,0,0,1,0-3.24h.57a1.63,1.63,0,0,1,0,3.25Z" transform="translate(-8.9 -10.43)"/><path class="cls-32" d="M130.15,342.18h0a1.61,1.61,0,0,1-1.61-1.63V340a1.62,1.62,0,0,1,1.62-1.61h0a1.63,1.63,0,0,1,1.61,1.63v.57A1.62,1.62,0,0,1,130.15,342.18Z" transform="translate(-8.9 -10.43)"/><path class="cls-32" d="M130.13,347.93h0a1.62,1.62,0,0,1-1.61-1.62v-.57a1.62,1.62,0,0,1,1.62-1.61h0a1.61,1.61,0,0,1,1.61,1.63v.56A1.62,1.62,0,0,1,130.13,347.93Z" transform="translate(-8.9 -10.43)"/><path class="cls-32" d="M133.3,344.78h-.57a1.62,1.62,0,1,1,0-3.24h.57a1.62,1.62,0,0,1,0,3.24Z" transform="translate(-8.9 -10.43)"/><path class="cls-32" d="M127.54,344.77H127a1.62,1.62,0,0,1,0-3.24h.57a1.62,1.62,0,1,1,0,3.24Z" transform="translate(-8.9 -10.43)"/><path class="cls-32" d="M231.22,345.34h0a1.61,1.61,0,0,1-1.61-1.63v-.56a1.62,1.62,0,0,1,1.63-1.62,1.63,1.63,0,0,1,1.61,1.63v.57A1.62,1.62,0,0,1,231.22,345.34Z" transform="translate(-8.9 -10.43)"/><path class="cls-32" d="M231.2,351.1h0a1.63,1.63,0,0,1-1.61-1.63v-.57a1.62,1.62,0,0,1,3.24,0v.56A1.63,1.63,0,0,1,231.2,351.1Z" transform="translate(-8.9 -10.43)"/><path class="cls-32" d="M234.37,348h-.57a1.62,1.62,0,1,1,0-3.24h.58a1.63,1.63,0,0,1,0,3.25Z" transform="translate(-8.9 -10.43)"/><path class="cls-32" d="M228.61,347.93H228a1.62,1.62,0,0,1,0-3.24h.57a1.62,1.62,0,0,1,0,3.24Z" transform="translate(-8.9 -10.43)"/><path class="cls-33" d="M156.21,371.28h0a1.62,1.62,0,0,1,0-3.24h0a1.62,1.62,0,0,1,0,3.24Z" transform="translate(-8.9 -10.43)"/><path class="cls-33" d="M163.93,374.27h0a1.62,1.62,0,1,1,0-3.24h0a1.62,1.62,0,0,1,0,3.24Z" transform="translate(-8.9 -10.43)"/><path class="cls-33" d="M185.47,275.62h0a1.62,1.62,0,0,1,0-3.24h0a1.62,1.62,0,0,1,0,3.24Z" transform="translate(-8.9 -10.43)"/><path class="cls-33" d="M224.61,272.22h0a1.62,1.62,0,1,1,0-3.24h0a1.62,1.62,0,0,1,0,3.24Z" transform="translate(-8.9 -10.43)"/><path class="cls-33" d="M228.63,274.62h0a1.63,1.63,0,0,1,0-3.25h0a1.63,1.63,0,0,1,0,3.25Z" transform="translate(-8.9 -10.43)"/><path class="cls-33" d="M133.72,318.2h0a1.62,1.62,0,0,1,0-3.24h0a1.62,1.62,0,0,1,0,3.24Z" transform="translate(-8.9 -10.43)"/><path class="cls-36" d="M178.44,300c0-3.27-4.18-5.92-9.34-5.92s-9.35,2.65-9.35,5.92,4.19,5.93,9.35,5.93S178.44,303.31,178.44,300Z" transform="translate(-8.9 -10.43)"/><path class="cls-37" d="M159.75,300c0-3.27,4.19-5.92,9.35-5.92s9.23,2.58,9.34,5.8a11.76,11.76,0,0,0-7.47-2.37c-5.16,0-9.35,2.65-9.35,5.92a.53.53,0,0,0,0,.13A4.69,4.69,0,0,1,159.75,300Z" transform="translate(-8.9 -10.43)"/><path class="cls-35" d="M203.65,285.79a1.64,1.64,0,0,1-.89.39,41,41,0,0,0-18.39,7.06,1.62,1.62,0,0,1-2-2.57,43.8,43.8,0,0,1,16.67-7.18A44.68,44.68,0,0,1,203.65,285.79Z" transform="translate(-8.9 -10.43)"/><path class="cls-35" d="M150.29,316.51a1.62,1.62,0,0,1-1.61,1.51h-.11a50.3,50.3,0,0,1-9.62-1.61c.18-1.08.39-2.14.65-3.19.28.08,1.22.35,2.62.64a47.15,47.15,0,0,0,6.56.92A1.62,1.62,0,0,1,150.29,316.51Z" transform="translate(-8.9 -10.43)"/><path class="cls-37" d="M222.27,339.82c-.43,1.07-.91,2.13-1.43,3.16-2.49.16-9.64.75-12.93,2.22a1.54,1.54,0,0,1-.66.14,1.62,1.62,0,0,1-.66-3.1c4.55-2,14.54-2.53,15-2.55A1.55,1.55,0,0,1,222.27,339.82Z" transform="translate(-8.9 -10.43)"/><text class="cls-6" transform="translate(280.26 202.99)">7</text><text class="cls-6" transform="translate(394.23 194.46)">8</text><text class="cls-6" transform="translate(32.64 335.39)">9</text><text class="cls-6" transform="translate(129.42 340.62)">10</text><path class="cls-41" d="M341,316.67l-21,5.62-.78-2.92,21-5.62a43.85,43.85,0,0,0-6.06-12.44l-33.37,8.94-.79-2.91,32.17-8.62a44,44,0,0,0-14.87-11.64l-55,14.74a43.84,43.84,0,0,0-7.06,17.52l6.31-1.69.78,2.92-7.51,2a43.43,43.43,0,0,0,1,13.8l54-14.48.78,2.92L256.56,339.3a44.17,44.17,0,0,0,2.08,5.54c4.17-.68,6.29,4.4,4.17,7.2.25.34.53.66.78,1l23-6.17.78,2.92-21.68,5.81A43.65,43.65,0,0,0,279.48,366L313,357l.78,2.92-29.74,8a43.71,43.71,0,0,0,47.43-12.71l-9.72,2.6-.78-2.91,13.51-3.62c.23-.34.46-.67.68-1-1.27-2.31-.75-5.69,2.55-6.58a5.1,5.1,0,0,1,1-.16,43.73,43.73,0,0,0,2.49-8.11l-9.45,2.53L331,335l10.78-2.89A43.55,43.55,0,0,0,341,316.67Z" transform="translate(-8.9 -10.43)"/><path class="cls-41" d="M287.06,284.25a43.53,43.53,0,0,0-8,3,4.35,4.35,0,0,1-6.51,3.94,43.55,43.55,0,0,0-7.25,6.7l47.45-12.72A43.6,43.6,0,0,0,287.06,284.25Z" transform="translate(-8.9 -10.43)"/><circle class="cls-42" cx="282.69" cy="313.82" r="30.94"/><circle class="cls-4" cx="276.65" cy="312.31" r="17.36"/><circle class="cls-4" cx="248.75" cy="276.17" r="1.51"/><circle class="cls-4" cx="260.82" cy="357.68" r="1.51"/><circle class="cls-4" cx="328.74" cy="350.13" r="1.51"/><circle class="cls-4" cx="248.75" cy="354.66" r="1.51"/><circle class="cls-4" cx="255.23" cy="281.53" r="1.51"/><circle class="cls-4" cx="324.21" cy="277.68" r="1.51"/><path class="cls-43" d="M332.39,334.61a2.44,2.44,0,0,0,0-.27,5.91,5.91,0,0,0-5.71-5.35,6.29,6.29,0,0,0-1.65.22,5.67,5.67,0,0,0-4.26,6.44,6.31,6.31,0,0,0,.56,1.92L297,344.09a5.6,5.6,0,0,0-5-3.2,6.31,6.31,0,0,0-1.65.23A5.6,5.6,0,0,0,286,347l-22.44,6c.68.88,1.38,1.74,2.11,2.56l21.17-5.67a5.55,5.55,0,0,0,4.9,3,6.37,6.37,0,0,0,1.65-.23,5.6,5.6,0,0,0,4.3-5.66l25.78-6.9a5.36,5.36,0,0,0,3,.88,6.35,6.35,0,0,0,1.65-.22,5.61,5.61,0,0,0,3.66-2.88l9.44-2.53c.23-1.08.41-2.18.55-3.28Zm-39.76,15.15a2.85,2.85,0,0,1-3.58-2.6A2.68,2.68,0,0,1,291.1,344a3.37,3.37,0,0,1,.87-.12,2.9,2.9,0,0,1,2.72,2.73A2.7,2.7,0,0,1,292.63,349.76Zm34.71-11.9a2.87,2.87,0,0,1-3.59-2.61,2.68,2.68,0,0,1,2.05-3.12,3.4,3.4,0,0,1,.87-.13,2.91,2.91,0,0,1,2.72,2.73A2.7,2.7,0,0,1,327.34,337.86Z" transform="translate(-8.9 -10.43)"/><path class="cls-43" d="M312.75,285.18,265.3,297.89a43.85,43.85,0,0,0-3,3.93l55-14.74A41.5,41.5,0,0,0,312.75,285.18Z" transform="translate(-8.9 -10.43)"/><path class="cls-43" d="M266.75,323.67a6.73,6.73,0,0,0,1.64-.22,5.61,5.61,0,0,0,4.31-5.66L290.4,313a5.63,5.63,0,0,0,5.15,3.43,6.41,6.41,0,0,0,1.65-.22,5.64,5.64,0,0,0,4.27-6.17l32.71-8.77c-.63-.89-1.3-1.75-2-2.59l-31.68,8.49a5.49,5.49,0,0,0-4.76-2.75,6.74,6.74,0,0,0-1.65.22,5.59,5.59,0,0,0-4.31,5.4L272,314.86a5.59,5.59,0,0,0-5-3.2,6.28,6.28,0,0,0-1.64.22A5.61,5.61,0,0,0,261,317.8l-5.77,1.54q-.27,1.61-.42,3.24l7-1.89A5.54,5.54,0,0,0,266.75,323.67Zm28.13-16.07a3.37,3.37,0,0,1,.87-.12,2.9,2.9,0,0,1,2.72,2.73,2.7,2.7,0,0,1-2.05,3.12,2.87,2.87,0,0,1-3.59-2.6A2.68,2.68,0,0,1,294.88,307.6Zm-28.8,7.2a3.36,3.36,0,0,1,.86-.12,2.89,2.89,0,0,1,2.72,2.73,2.68,2.68,0,0,1-2.05,3.12,2.86,2.86,0,0,1-3.58-2.61A2.68,2.68,0,0,1,266.08,314.8Z" transform="translate(-8.9 -10.43)"/><path class="cls-43" d="M322.46,354.19a5.91,5.91,0,0,0-5.71-5.36,6.37,6.37,0,0,0-1.65.23,5.66,5.66,0,0,0-4.26,6.43,7,7,0,0,0,.56,1.93L279.48,366a43.87,43.87,0,0,0,4.59,1.9L313.58,360a5.37,5.37,0,0,0,3,.89,6.37,6.37,0,0,0,1.65-.23,5.53,5.53,0,0,0,3.66-2.88l9.63-2.58a44.07,44.07,0,0,0,3-3.93l-12,3.22C322.47,354.36,322.47,354.27,322.46,354.19Zm-5,3.52a2.88,2.88,0,0,1-3.59-2.61,2.7,2.7,0,0,1,2.05-3.13,3.43,3.43,0,0,1,.87-.12,2.9,2.9,0,0,1,2.72,2.73A2.69,2.69,0,0,1,317.42,357.71Z" transform="translate(-8.9 -10.43)"/><path class="cls-43" d="M314.66,328a6.81,6.81,0,0,0,1.65-.22,5.62,5.62,0,0,0,4.3-5.66L341,316.67c-.12-.49-.2-1-.33-1.47s-.28-1-.43-1.45l-20.36,5.46a5.57,5.57,0,0,0-5-3.2,6.29,6.29,0,0,0-1.65.22,5.61,5.61,0,0,0-4.29,5.92l-53.14,14.23c.11.5.2,1,.33,1.48s.31,1,.45,1.44l53.2-14.25A5.56,5.56,0,0,0,314.66,328Zm-.67-8.87a3.4,3.4,0,0,1,.87-.13,2.91,2.91,0,0,1,2.72,2.73,2.7,2.7,0,0,1-2.06,3.13,2.86,2.86,0,0,1-3.58-2.61A2.68,2.68,0,0,1,314,319.15Z" transform="translate(-8.9 -10.43)"/><text class="cls-6" transform="translate(247.09 340.57)">11</text><path class="cls-44" d="M487,328.45a24.15,24.15,0,0,1-.17,2.94l-40.87,40.86a24.13,24.13,0,0,1-2.93.18,43.75,43.75,0,0,1-24.28-7.33l-18.53-46.67a43.47,43.47,0,0,1,16.07-24.75c.76-.58-1.35-4.1-.53-4.69s4.81,1.76,5.75,1.29a24.68,24.68,0,0,1,2.69-1.52L443,294.09l36.82,10.44A43.38,43.38,0,0,1,487,328.45Z" transform="translate(-8.9 -10.43)"/><path class="cls-45" d="M487,328.45a24.15,24.15,0,0,1-.17,2.94l-40.87,40.86a24.13,24.13,0,0,1-2.93.18V294.09l36.82,10.44A43.38,43.38,0,0,1,487,328.45Z" transform="translate(-8.9 -10.43)"/><path class="cls-46" d="M479.8,304.53l-13.13,16.59-7.33-7.33H445.91v-5.86H429l-4.81-19.17a43.75,43.75,0,0,1,55.65,15.77Z" transform="translate(-8.9 -10.43)"/><path class="cls-46" d="M416.59,339V326.64l-16.4-8.2a43.7,43.7,0,0,0,18.51,46.65l4-20Z" transform="translate(-8.9 -10.43)"/><path class="cls-47" d="M486.78,331.39A43,43,0,0,1,481.21,350c-.44.8,2,4.51,1.54,5.26-.63,1-4.25-1-5-.1a43.5,43.5,0,0,1-31.84,17.06V333.09l7.56-7.57h15.89v5.87Z" transform="translate(-8.9 -10.43)"/><path class="cls-47" d="M445.91,307.93H443V284.48a43.85,43.85,0,0,1,36.82,20l-13.13,16.59-7.33-7.33H445.91Z" transform="translate(-8.9 -10.43)"/><path class="cls-48" d="M491.66,377c-7.91,7.92-37.42-18.17-45.75-25.56-1-.94-2-1.82-2.93-2.64-4.63-4.28-8-7.62-9.15-8.8l4.1-4.16c1.7,1.7,3.4,3.34,5.05,4.93,1,.94,2,1.87,2.93,2.75,5,4.69,35.26,31.49,41.83,29.2,0-.64-2.08-6.33-10-17.53a33,33,0,0,0,3.46-5.16C494.69,368.38,494.13,374.6,491.66,377Z" transform="translate(-8.9 -10.43)"/><path class="cls-48" d="M398.41,284.09c1-.36,6.69,1.68,17.83,9.59a33.11,33.11,0,0,1,5.22-3.4c-18.41-13.54-24.57-12.94-27-10.48-8.58,8.59,22.71,42.94,31.14,51.82l4.28-4.05C425.2,322.62,396.76,290.71,398.41,284.09Z" transform="translate(-8.9 -10.43)"/><path class="cls-49" d="M491.66,377c-7.91,7.92-37.42-18.17-45.75-25.56-1-.94-2-1.82-2.93-2.64v-8c1,.94,2,1.87,2.93,2.75,5,4.69,35.26,31.49,41.83,29.2,0-.64-2.08-6.33-10-17.53a33,33,0,0,0,3.46-5.16C494.69,368.38,494.13,374.6,491.66,377Z" transform="translate(-8.9 -10.43)"/><text class="cls-6" transform="translate(389.91 342.57)">12</text><circle class="cls-1" cx="54.43" cy="440.15" r="41.53"/><circle class="cls-2" cx="46.77" cy="436.97" r="32.94"/><circle class="cls-3" cx="41.38" cy="434.27" r="26.61"/><path class="cls-4" d="M104.85,490.3H99.44l-1.81-1.81v-5.41a1.81,1.81,0,1,0-3.61,0v5.41l-1.8,1.81H86.8a1.81,1.81,0,1,0,0,3.61h5.42l1.8,1.81v5.41a1.81,1.81,0,1,0,3.61,0v-5.41l1.81-1.81h5.41a1.81,1.81,0,1,0,0-3.61Z" transform="translate(-8.9 -10.43)"/><circle class="cls-4" cx="9.29" cy="395.01" r="1.81"/><circle class="cls-4" cx="14.71" cy="487.09" r="1.81"/><circle class="cls-5" cx="5.68" cy="474.45" r="1.81"/><circle class="cls-4" cx="25.54" cy="389.59" r="1.81"/><circle class="cls-4" cx="97.76" cy="395.01" r="1.81"/><circle class="cls-4" cx="101.37" cy="481.68" r="1.81"/><circle class="cls-4" cx="80.61" cy="458.88" r="1.81"/><circle class="cls-4" cx="25.54" cy="434.28" r="1.81"/><path class="cls-5" d="M62.47,492.09c-3.2,7.32-5.72,9.1-6.72,9-1.17-.16-3.65-3.43-4.64-14.67-.88-10-.35-23,1.48-36.75,4.07-30.59,12.48-49.28,16.52-48.8.94.12,2.79,2.27,4,9.39,1.23.29,2.43.64,3.6,1a1.81,1.81,0,0,0,.1-.84c-1.29-8.39-3.64-12.7-7.2-13.17C59.73,396,51.88,427.57,49,449.15c-1.87,14-2.4,27.33-1.5,37.55,1,11.34,3.62,17.38,7.76,17.93a4.44,4.44,0,0,0,.63,0c3.46,0,6.79-3.84,10.13-11.71a1.73,1.73,0,0,0,.1-.95C64.92,492.09,63.7,492.12,62.47,492.09Z" transform="translate(-8.9 -10.43)"/><text class="cls-6" transform="translate(8.91 463.88)">13</text><circle class="cls-7" cx="174.8" cy="440.48" r="42.2"/><path class="cls-4" d="M232.93,407h-2.79l-4.24-4.25v-2.79a1.76,1.76,0,0,0-3.52,0v2.79L218.14,407h-2.79a1.76,1.76,0,1,0,0,3.51h2.79l4.24,4.25v2.79a1.76,1.76,0,0,0,3.52,0v-2.79l4.25-4.25h2.78a1.76,1.76,0,1,0,0-3.51Z" transform="translate(-8.9 -10.43)"/><circle class="cls-4" cx="137.88" cy="403.56" r="1.76"/><circle class="cls-4" cx="171.29" cy="408.83" r="1.76"/><circle class="cls-4" cx="220.52" cy="417.62" r="1.76"/><circle class="cls-4" cx="190.63" cy="396.52" r="1.76"/><circle class="cls-4" cx="188.87" cy="466.85" r="1.76"/><circle class="cls-4" cx="132.61" cy="482.68" r="1.76"/><circle class="cls-4" cx="129.09" cy="463.34" r="1.76"/><path class="cls-8" d="M222.33,433.93A42.21,42.21,0,0,0,216,423.77c-12.2,1.94-37.58,6-37.58,6Z" transform="translate(-8.9 -10.43)"/><path class="cls-8" d="M220.93,470.8a41.84,41.84,0,0,0,3.88-10.39l-56.93,6.33S201.37,469.23,220.93,470.8Z" transform="translate(-8.9 -10.43)"/><path class="cls-8" d="M142.14,443.65a42.43,42.43,0,0,0-.64,7.26c0,1,.05,1.91.11,2.85l36.82-4.61S156.22,445.72,142.14,443.65Z" transform="translate(-8.9 -10.43)"/><circle class="cls-4" cx="204.69" cy="482.68" r="1.76"/><circle class="cls-4" cx="220.52" cy="461.58" r="1.76"/><circle class="cls-4" cx="129.09" cy="394.76" r="1.76"/><circle class="cls-4" cx="148.43" cy="391.25" r="1.76"/><text class="cls-6" transform="translate(129.42 465.58)">14</text><circle class="cls-9" cx="294.01" cy="441.9" r="41.98"/><circle class="cls-10" cx="294.01" cy="441.9" r="32.48"/><circle class="cls-11" cx="294.01" cy="441.9" r="19"/><path class="cls-10" d="M302.91,410.54a1.89,1.89,0,0,0-1.9,1.9v3.8a1.9,1.9,0,1,0,3.79,0v-3.8A1.89,1.89,0,0,0,302.91,410.54Z" transform="translate(-8.9 -10.43)"/><path class="cls-10" d="M302.91,486.52a1.89,1.89,0,0,0-1.9,1.9v3.8a1.9,1.9,0,1,0,3.79,0v-3.8A1.89,1.89,0,0,0,302.91,486.52Z" transform="translate(-8.9 -10.43)"/><path class="cls-10" d="M342.79,450.43H339a1.9,1.9,0,1,0,0,3.8h3.79a1.9,1.9,0,0,0,0-3.8Z" transform="translate(-8.9 -10.43)"/><path class="cls-10" d="M268.71,452.33a1.89,1.89,0,0,0-1.9-1.9H263a1.9,1.9,0,1,0,0,3.8h3.79A1.89,1.89,0,0,0,268.71,452.33Z" transform="translate(-8.9 -10.43)"/><path class="cls-10" d="M329.77,422.78l-2.69,2.69a1.9,1.9,0,0,0,1.34,3.24,1.94,1.94,0,0,0,1.35-.55l2.69-2.69a1.9,1.9,0,1,0-2.69-2.69Z" transform="translate(-8.9 -10.43)"/><path class="cls-10" d="M276,476.51l-2.69,2.68a1.9,1.9,0,1,0,2.69,2.69l2.69-2.68a1.9,1.9,0,0,0-2.69-2.69Z" transform="translate(-8.9 -10.43)"/><path class="cls-10" d="M329.77,476.51a1.9,1.9,0,0,0-2.69,2.68l2.69,2.69a1.9,1.9,0,0,0,2.69-2.69Z" transform="translate(-8.9 -10.43)"/><path class="cls-10" d="M276,422.78a1.9,1.9,0,0,0-2.69,2.69l2.69,2.68a1.9,1.9,0,0,0,2.69-2.69Z" transform="translate(-8.9 -10.43)"/><path class="cls-10" d="M319.23,413.86a1.91,1.91,0,0,0-2.49,1l-1.48,3.5a1.9,1.9,0,0,0,1,2.49,2,2,0,0,0,.75.15,1.91,1.91,0,0,0,1.75-1.16l1.48-3.5A1.9,1.9,0,0,0,319.23,413.86Z" transform="translate(-8.9 -10.43)"/><path class="cls-10" d="M289.55,483.8a1.91,1.91,0,0,0-2.5,1l-1.48,3.5a1.9,1.9,0,0,0,1,2.49,1.9,1.9,0,0,0,2.49-1l1.48-3.5A1.9,1.9,0,0,0,289.55,483.8Z" transform="translate(-8.9 -10.43)"/><path class="cls-10" d="M340.37,466.17l-3.5-1.49a1.9,1.9,0,0,0-1.49,3.5l3.5,1.49a2,2,0,0,0,.74.15,1.9,1.9,0,0,0,.75-3.65Z" transform="translate(-8.9 -10.43)"/><path class="cls-10" d="M270.43,436.48l-3.5-1.48a1.9,1.9,0,1,0-1.49,3.49l3.5,1.49a1.9,1.9,0,0,0,2.49-1A1.9,1.9,0,0,0,270.43,436.48Z" transform="translate(-8.9 -10.43)"/><path class="cls-10" d="M336.37,440.41a2,2,0,0,0,.71-.14l3.52-1.43a1.9,1.9,0,1,0-1.42-3.52l-3.53,1.42a1.91,1.91,0,0,0,.72,3.67Z" transform="translate(-8.9 -10.43)"/><path class="cls-10" d="M268.73,463.78l-3.52,1.43a1.9,1.9,0,0,0,.71,3.66,1.76,1.76,0,0,0,.71-.14l3.53-1.42a1.9,1.9,0,0,0-1.43-3.53Z" transform="translate(-8.9 -10.43)"/><path class="cls-10" d="M318.18,484.78a1.9,1.9,0,0,0-3.52,1.42l1.43,3.52a1.9,1.9,0,0,0,1.76,1.19,2,2,0,0,0,.71-.14,1.9,1.9,0,0,0,1.05-2.47Z" transform="translate(-8.9 -10.43)"/><path class="cls-10" d="M289.72,414.33a1.9,1.9,0,1,0-3.52,1.42l1.43,3.53a1.89,1.89,0,0,0,1.76,1.18,1.8,1.8,0,0,0,.71-.14,1.9,1.9,0,0,0,1-2.47Z" transform="translate(-8.9 -10.43)"/><path class="cls-11" d="M302.91,421.94a1.79,1.79,0,0,0-1.79,1.79v3.57a1.79,1.79,0,1,0,3.57,0v-3.57A1.79,1.79,0,0,0,302.91,421.94Z" transform="translate(-8.9 -10.43)"/><path class="cls-11" d="M302.91,475.57a1.79,1.79,0,0,0-1.79,1.79v3.57a1.79,1.79,0,1,0,3.57,0v-3.57A1.79,1.79,0,0,0,302.91,475.57Z" transform="translate(-8.9 -10.43)"/><path class="cls-11" d="M331.51,450.54h-3.58a1.79,1.79,0,0,0,0,3.58h3.58a1.79,1.79,0,1,0,0-3.58Z" transform="translate(-8.9 -10.43)"/><path class="cls-11" d="M279.66,452.33a1.78,1.78,0,0,0-1.78-1.79H274.3a1.79,1.79,0,0,0,0,3.58h3.58A1.78,1.78,0,0,0,279.66,452.33Z" transform="translate(-8.9 -10.43)"/><path class="cls-11" d="M320.6,436.42a1.79,1.79,0,0,0,1.27-.52l2.52-2.53a1.79,1.79,0,0,0-2.52-2.53l-2.53,2.53a1.79,1.79,0,0,0,0,2.53A1.76,1.76,0,0,0,320.6,436.42Z" transform="translate(-8.9 -10.43)"/><path class="cls-11" d="M283.94,468.76l-2.53,2.53a1.79,1.79,0,1,0,2.53,2.53l2.53-2.53a1.79,1.79,0,0,0,0-2.53A1.8,1.8,0,0,0,283.94,468.76Z" transform="translate(-8.9 -10.43)"/><path class="cls-11" d="M321.87,468.76a1.8,1.8,0,0,0-2.53,0,1.79,1.79,0,0,0,0,2.53l2.53,2.53a1.79,1.79,0,0,0,1.26.53,1.76,1.76,0,0,0,1.26-.53,1.79,1.79,0,0,0,0-2.53Z" transform="translate(-8.9 -10.43)"/><path class="cls-11" d="M283.94,430.84a1.79,1.79,0,0,0-2.53,0,1.8,1.8,0,0,0,0,2.53l2.53,2.53a1.79,1.79,0,1,0,2.53-2.53Z" transform="translate(-8.9 -10.43)"/><path class="cls-11" d="M314.78,424.35a1.79,1.79,0,0,0-2.34.95l-1.4,3.29a1.8,1.8,0,0,0,.95,2.35,1.9,1.9,0,0,0,.7.14,1.79,1.79,0,0,0,1.64-1.09l1.4-3.29A1.8,1.8,0,0,0,314.78,424.35Z" transform="translate(-8.9 -10.43)"/><path class="cls-11" d="M293.82,473.72a1.79,1.79,0,0,0-2.34.95l-1.4,3.29a1.8,1.8,0,0,0,.95,2.35,1.9,1.9,0,0,0,.7.14,1.79,1.79,0,0,0,1.65-1.09l1.39-3.29A1.79,1.79,0,0,0,293.82,473.72Z" transform="translate(-8.9 -10.43)"/><path class="cls-11" d="M329.93,461.86l-3.29-1.4a1.79,1.79,0,0,0-1.39,3.3l3.29,1.39a1.72,1.72,0,0,0,.7.14,1.79,1.79,0,0,0,.69-3.43Z" transform="translate(-8.9 -10.43)"/><path class="cls-11" d="M275.88,442.8l3.29,1.4a1.86,1.86,0,0,0,.7.14,1.79,1.79,0,0,0,.7-3.44l-3.3-1.39a1.79,1.79,0,1,0-1.39,3.29Z" transform="translate(-8.9 -10.43)"/><path class="cls-11" d="M324.45,443.34a1.79,1.79,0,0,0,1.66,1.12,2,2,0,0,0,.67-.13L330.1,443a1.79,1.79,0,0,0-1.34-3.32L325.44,441A1.79,1.79,0,0,0,324.45,443.34Z" transform="translate(-8.9 -10.43)"/><path class="cls-11" d="M281.36,460.75a1.79,1.79,0,0,0-2.33-1l-3.32,1.34a1.79,1.79,0,0,0,.67,3.45,1.75,1.75,0,0,0,.67-.14l3.32-1.33A1.8,1.8,0,0,0,281.36,460.75Z" transform="translate(-8.9 -10.43)"/><path class="cls-11" d="M313.94,474.58a1.79,1.79,0,0,0-3.32,1.34l1.35,3.31a1.78,1.78,0,0,0,1.65,1.12,1.74,1.74,0,0,0,.67-.13,1.79,1.79,0,0,0,1-2.33Z" transform="translate(-8.9 -10.43)"/><path class="cls-11" d="M293.85,424.85a1.79,1.79,0,0,0-3.32,1.34l1.34,3.32a1.81,1.81,0,0,0,1.66,1.12,2,2,0,0,0,.67-.13,1.79,1.79,0,0,0,1-2.33Z" transform="translate(-8.9 -10.43)"/><path class="cls-9" d="M302.91,395.35a1.89,1.89,0,0,0-1.9,1.89v9.5a1.9,1.9,0,1,0,3.79,0v-9.5A1.89,1.89,0,0,0,302.91,395.35Z" transform="translate(-8.9 -10.43)"/><path class="cls-9" d="M302.91,496a1.89,1.89,0,0,0-1.9,1.9v9.5a1.9,1.9,0,1,0,3.79,0v-9.5A1.89,1.89,0,0,0,302.91,496Z" transform="translate(-8.9 -10.43)"/><path class="cls-9" d="M358,450.43h-9.5a1.9,1.9,0,0,0,0,3.8H358a1.9,1.9,0,0,0,0-3.8Z" transform="translate(-8.9 -10.43)"/><path class="cls-9" d="M259.22,452.33a1.9,1.9,0,0,0-1.9-1.9h-9.5a1.9,1.9,0,1,0,0,3.8h9.5A1.9,1.9,0,0,0,259.22,452.33Z" transform="translate(-8.9 -10.43)"/><path class="cls-9" d="M335.14,422a1.88,1.88,0,0,0,1.34-.55l6.72-6.72a1.9,1.9,0,1,0-2.69-2.68l-6.71,6.71a1.9,1.9,0,0,0,1.34,3.24Z" transform="translate(-8.9 -10.43)"/><path class="cls-9" d="M269.33,483.22l-6.72,6.72a1.9,1.9,0,1,0,2.69,2.68l6.71-6.71a1.9,1.9,0,0,0-2.68-2.69Z" transform="translate(-8.9 -10.43)"/><path class="cls-9" d="M336.48,483.22a1.9,1.9,0,1,0-2.68,2.69l6.71,6.71a1.9,1.9,0,1,0,2.69-2.68Z" transform="translate(-8.9 -10.43)"/><path class="cls-9" d="M265.3,412a1.9,1.9,0,0,0-2.69,2.68l6.72,6.72a1.91,1.91,0,0,0,2.68,0,1.91,1.91,0,0,0,0-2.69Z" transform="translate(-8.9 -10.43)"/><path class="cls-9" d="M325.17,399.88a1.9,1.9,0,0,0-2.49,1L319,409.63a1.9,1.9,0,0,0,1,2.49,1.9,1.9,0,0,0,2.49-1l3.71-8.74A1.9,1.9,0,0,0,325.17,399.88Z" transform="translate(-8.9 -10.43)"/><path class="cls-9" d="M285.83,492.55a1.9,1.9,0,0,0-2.49,1l-3.71,8.75a1.9,1.9,0,0,0,1,2.49,1.9,1.9,0,0,0,2.49-1l3.71-8.74A1.9,1.9,0,0,0,285.83,492.55Z" transform="translate(-8.9 -10.43)"/><path class="cls-9" d="M354.35,472.11l-8.74-3.72a1.9,1.9,0,0,0-1.49,3.5l8.75,3.71a1.75,1.75,0,0,0,.74.15,1.89,1.89,0,0,0,.74-3.64Z" transform="translate(-8.9 -10.43)"/><path class="cls-9" d="M251.46,432.55l8.74,3.72a1.9,1.9,0,0,0,2.49-1,1.9,1.9,0,0,0-1-2.49l-8.75-3.71a1.9,1.9,0,1,0-1.48,3.49Z" transform="translate(-8.9 -10.43)"/><path class="cls-9" d="M343.41,435.66a1.9,1.9,0,0,0,1.76,1.19,2,2,0,0,0,.72-.14l8.8-3.56a1.9,1.9,0,0,0-1.42-3.52l-8.81,3.56A1.9,1.9,0,0,0,343.41,435.66Z" transform="translate(-8.9 -10.43)"/><path class="cls-9" d="M262.4,468.39a1.9,1.9,0,0,0-2.47-1.05l-8.81,3.56a1.9,1.9,0,0,0,.71,3.66,1.76,1.76,0,0,0,.71-.14l8.81-3.55A1.92,1.92,0,0,0,262.4,468.39Z" transform="translate(-8.9 -10.43)"/><path class="cls-9" d="M321.74,493.58a1.9,1.9,0,1,0-3.52,1.42l3.56,8.81a1.9,1.9,0,0,0,1.76,1.19,2,2,0,0,0,.71-.14,1.9,1.9,0,0,0,1.05-2.47Z" transform="translate(-8.9 -10.43)"/><path class="cls-9" d="M284,400.24a1.9,1.9,0,0,0-3.52,1.42l3.56,8.81a1.88,1.88,0,0,0,1.76,1.19,2,2,0,0,0,.71-.14,1.9,1.9,0,0,0,1-2.47Z" transform="translate(-8.9 -10.43)"/><text class="cls-6" transform="translate(250.39 466.58)">15</text><ellipse class="cls-12" cx="420.76" cy="436.97" rx="43.08" ry="42.3"/><ellipse class="cls-4" cx="393.47" cy="470.81" rx="1.44" ry="1.41"/><ellipse class="cls-4" cx="386.29" cy="431.33" rx="1.44" ry="1.41"/><ellipse class="cls-4" cx="415.02" cy="429.92" rx="1.44" ry="1.41"/><ellipse class="cls-4" cx="446.61" cy="403.13" rx="1.44" ry="1.41"/><ellipse class="cls-4" cx="453.79" cy="431.33" rx="1.44" ry="1.41"/><ellipse class="cls-13" cx="453.79" cy="453.89" rx="5.74" ry="5.64"/><ellipse class="cls-13" cx="435.51" cy="472.22" rx="5.74" ry="5.64"/><ellipse class="cls-13" cx="413.58" cy="449.66" rx="5.74" ry="5.64"/><ellipse class="cls-13" cx="431.45" cy="431.33" rx="7.18" ry="7.05"/><line class="cls-14" x1="426.94" y1="436.77" x2="417.74" y2="445.8"/><line class="cls-14" x1="449.55" y1="450.12" x2="435.96" y2="436.77"/><line class="cls-14" x1="439.57" y1="468.24" x2="449.94" y2="458.05"/><polyline class="cls-14" points="417.07 454.11 431.45 468.24 431.45 468.24"/><ellipse class="cls-13" cx="413.58" cy="408.77" rx="4.31" ry="4.23"/><ellipse class="cls-13" cx="386.29" cy="403.13" rx="4.31" ry="4.23"/><line class="cls-14" x1="430.81" y1="427.1" x2="416.45" y2="411.59"/><line class="cls-14" x1="409.27" y1="407.36" x2="390.6" y2="403.13"/><ellipse class="cls-4" cx="413.58" cy="449.66" rx="3.71" ry="3.65"/><ellipse class="cls-4" cx="435.51" cy="472.22" rx="3.71" ry="3.65"/><ellipse class="cls-4" cx="453.79" cy="453.89" rx="2.7" ry="2.65"/><ellipse class="cls-4" cx="431.45" cy="431.33" rx="4.13" ry="4.06"/><ellipse class="cls-4" cx="413.58" cy="408.77" rx="1.44" ry="1.41"/><ellipse class="cls-4" cx="386.29" cy="403.13" rx="1.44" ry="1.41"/><text class="cls-6" transform="translate(376.09 462.65)">16</text><path class="cls-4" d="M112.28,605.94h-2.84l-4.32-4.32v-2.84a1.79,1.79,0,0,0-3.58,0v2.84l-4.32,4.32H94.38a1.79,1.79,0,0,0,0,3.58h2.84l4.32,4.32v2.84a1.79,1.79,0,0,0,3.58,0v-2.84l4.32-4.32h2.84a1.79,1.79,0,1,0,0-3.58Z" transform="translate(-8.9 -10.43)"/><circle class="cls-15" cx="56.85" cy="556.13" r="41.17"/><circle class="cls-4" cx="9.64" cy="511.39" r="1.79"/><circle class="cls-4" cx="13.22" cy="597.3" r="1.79"/><circle class="cls-4" cx="42.75" cy="604.9" r="1.79"/><circle class="cls-4" cx="32.01" cy="561.5" r="1.79"/><circle class="cls-4" cx="86.22" cy="508.48" r="1.79"/><circle class="cls-4" cx="102.49" cy="583.65" r="1.79"/><path class="cls-16" d="M68.22,563.18a2.51,2.51,0,0,1,.81.67c1.25,1.83.53,4.51,1.77,5.16a2.08,2.08,0,0,1,1.12,2.6c-1.71,4.2-.23,9,3.74,12.29,2.8,2.31.47,7.68-1.88,11.9a1.88,1.88,0,0,0,2.28,2.67,21.77,21.77,0,0,0,7.17-4.36c3.57-3.08,4.35-6.43,7.89-9a.15.15,0,0,0,.08-.11c.91-2.65,3.72-8.45.88-9.92-2.65-1.38-3.64-5.37-6.22-8.09a1.94,1.94,0,0,0-1.15-.52c-3.17-.41-4.6-2.82-6.73-1.21-1.6,1.2-3.39.46-4-1.45a2.09,2.09,0,0,0-1.66-1.54,1.63,1.63,0,0,1-1-2.12.06.06,0,0,0,0,0c.43-1.15-1.94-1-3.15-.77-.34.06.81-1.31.43-1.08-1.48.87-3.32-.64-3.24-2.36s.4-1.66,3.39-2q4.83-2.25,4.67,3.27c2,.29,2.69-.58,2.09-2.64a2,2,0,0,1,.34-1.76c3.67-4.77,6.73-6.85,12.34-8.77a1.83,1.83,0,0,0,1.17-2.22c-.9-3.3-2.29-8.51-4.67-8.88a2.34,2.34,0,0,1-1.55-1.24c-.84-1.92-1.41-2.74-3-3.2a1.89,1.89,0,0,0-2.43,1.79c0,3.85,0,7.16-4.42,2.77-3.64-3.63-4.7-5.61-2.68-6.56-.1-.78,0,0-.09-.74A41,41,0,0,0,46.76,530a.28.28,0,0,0-.11.37c2.8,5.14,3.36,7.84,3.05,13.83a2.11,2.11,0,0,0,.18,1c2.43,5.23,5.55,14.11,10.89,16.15C63.37,562.35,65.76,562,68.22,563.18Z" transform="translate(-8.9 -10.43)"/><text class="cls-6" transform="translate(12.38 582.82)">17</text><path class="cls-17" d="M230.54,560.29l-21,5.62L208.8,563l21-5.62a43.19,43.19,0,0,0-6.06-12.44l-33.37,8.94-.78-2.91,32.16-8.62a43.91,43.91,0,0,0-14.86-11.64l-55,14.74A43.8,43.8,0,0,0,144.78,563l6.31-1.69.78,2.91-7.5,2a43.44,43.44,0,0,0,.95,13.8l54.06-14.48.78,2.92-54,14.48a45.75,45.75,0,0,0,2.07,5.54c4.17-.68,6.29,4.4,4.18,7.2.25.34.52.66.78,1l23-6.17.79,2.92-21.69,5.81A44,44,0,0,0,169,609.59l33.55-9,.78,2.92-29.74,8A43.69,43.69,0,0,0,221,598.78l-9.71,2.6-.79-2.92,13.52-3.62c.23-.33.46-.66.68-1-1.28-2.31-.76-5.69,2.55-6.58a5.1,5.1,0,0,1,1-.16,44.36,44.36,0,0,0,2.49-8.12l-9.46,2.54-.78-2.92,10.79-2.89A43.33,43.33,0,0,0,230.54,560.29Z" transform="translate(-8.9 -10.43)"/><path class="cls-17" d="M176.61,527.87a44.24,44.24,0,0,0-8,3,4.35,4.35,0,0,1-6.51,4,44,44,0,0,0-7.26,6.69l47.45-12.71A43.48,43.48,0,0,0,176.61,527.87Z" transform="translate(-8.9 -10.43)"/><circle class="cls-18" cx="172.24" cy="557.44" r="30.94"/><circle class="cls-19" cx="166.2" cy="555.93" r="17.36"/><circle class="cls-4" cx="138.29" cy="519.79" r="1.51"/><circle class="cls-4" cx="150.37" cy="601.29" r="1.51"/><circle class="cls-4" cx="218.29" cy="593.75" r="1.51"/><circle class="cls-4" cx="138.29" cy="598.28" r="1.51"/><circle class="cls-4" cx="144.77" cy="525.14" r="1.51"/><circle class="cls-4" cx="213.76" cy="521.3" r="1.51"/><path class="cls-20" d="M221.94,578.22c0-.08,0-.17,0-.26a5.91,5.91,0,0,0-5.72-5.35,6.28,6.28,0,0,0-1.64.22,5.68,5.68,0,0,0-4.27,6.44,6.71,6.71,0,0,0,.57,1.92l-24.33,6.52a5.59,5.59,0,0,0-5-3.2,6.37,6.37,0,0,0-1.65.23,5.6,5.6,0,0,0-4.29,5.91l-22.43,6c.67.88,1.38,1.73,2.11,2.56l21.17-5.67a5.54,5.54,0,0,0,4.89,3,6.29,6.29,0,0,0,1.65-.22,5.6,5.6,0,0,0,4.31-5.66L213,583.73a5.32,5.32,0,0,0,3,.89,6.43,6.43,0,0,0,1.65-.23,5.55,5.55,0,0,0,3.66-2.88l9.44-2.53c.22-1.08.41-2.17.55-3.27Zm-39.76,15.16a2.88,2.88,0,0,1-3.59-2.61,2.7,2.7,0,0,1,2-3.12,3.49,3.49,0,0,1,.87-.12,2.89,2.89,0,0,1,2.72,2.73A2.68,2.68,0,0,1,182.18,593.38Zm34.7-11.9a2.86,2.86,0,0,1-3.58-2.61,2.69,2.69,0,0,1,2-3.13,3.36,3.36,0,0,1,.86-.12,2.89,2.89,0,0,1,2.72,2.73A2.68,2.68,0,0,1,216.88,581.48Z" transform="translate(-8.9 -10.43)"/><path class="cls-20" d="M202.29,528.8l-47.45,12.71a45.69,45.69,0,0,0-3,3.93l55-14.74A41.66,41.66,0,0,0,202.29,528.8Z" transform="translate(-8.9 -10.43)"/><path class="cls-20" d="M156.29,567.29a6.31,6.31,0,0,0,1.65-.23,5.6,5.6,0,0,0,4.31-5.65l17.7-4.75a5.61,5.61,0,0,0,5.14,3.43,6.29,6.29,0,0,0,1.65-.22A5.64,5.64,0,0,0,191,553.7l32.71-8.77c-.63-.89-1.3-1.75-2-2.59l-31.67,8.49a5.5,5.5,0,0,0-4.76-2.75,6.29,6.29,0,0,0-1.65.22,5.58,5.58,0,0,0-4.31,5.4l-17.82,4.78a5.59,5.59,0,0,0-5-3.2,6.35,6.35,0,0,0-1.65.22,5.61,5.61,0,0,0-4.29,5.91L144.78,563c-.18,1.07-.32,2.15-.41,3.24l7-1.89A5.53,5.53,0,0,0,156.29,567.29Zm28.14-16.07a3.36,3.36,0,0,1,.86-.12,2.89,2.89,0,0,1,2.72,2.73,2.68,2.68,0,0,1-2,3.12,2.88,2.88,0,0,1-3.59-2.61A2.7,2.7,0,0,1,184.43,551.22Zm-28.81,7.19a3.43,3.43,0,0,1,.87-.12,2.9,2.9,0,0,1,2.72,2.73,2.68,2.68,0,0,1-2.05,3.13,2.87,2.87,0,0,1-3.59-2.61A2.71,2.71,0,0,1,155.62,558.41Z" transform="translate(-8.9 -10.43)"/><path class="cls-20" d="M212,597.81a5.91,5.91,0,0,0-5.71-5.36,6.31,6.31,0,0,0-1.65.23,5.66,5.66,0,0,0-4.26,6.43A6.36,6.36,0,0,0,201,601L169,609.59a44.61,44.61,0,0,0,4.58,1.9l29.51-7.91a5.43,5.43,0,0,0,3,.89,6.37,6.37,0,0,0,1.65-.23,5.58,5.58,0,0,0,3.66-2.88l9.63-2.58a44.21,44.21,0,0,0,3-3.94l-12,3.23A2.17,2.17,0,0,0,212,597.81Zm-5,3.51a2.87,2.87,0,0,1-3.59-2.6,2.68,2.68,0,0,1,2.05-3.13,3.37,3.37,0,0,1,.87-.12A2.9,2.9,0,0,1,209,598.2,2.7,2.7,0,0,1,207,601.32Z" transform="translate(-8.9 -10.43)"/><path class="cls-20" d="M204.2,571.64a6.31,6.31,0,0,0,1.65-.23,5.6,5.6,0,0,0,4.31-5.66l20.38-5.46c-.11-.49-.2-1-.33-1.47s-.28-1-.42-1.45l-20.36,5.46a5.6,5.6,0,0,0-5-3.21,6.43,6.43,0,0,0-1.65.23,5.62,5.62,0,0,0-4.29,5.91L145.32,580c.12.49.2,1,.34,1.48s.3.95.45,1.44l53.2-14.26A5.53,5.53,0,0,0,204.2,571.64Zm-.66-8.88a3.36,3.36,0,0,1,.86-.12,2.9,2.9,0,0,1,2.72,2.73,2.68,2.68,0,0,1-2.05,3.13,2.88,2.88,0,0,1-3.59-2.61A2.71,2.71,0,0,1,203.54,562.76Z" transform="translate(-8.9 -10.43)"/><text class="cls-6" transform="translate(134.43 585.02)">18</text><path class="cls-50" d="M261.87,598.19a39.6,39.6,0,0,1,2.94-15c4.43-11.79,13.2-24.62,24.71-36.13l-2.32-2.31c-11.83,11.83-20.87,25.07-25.45,37.29-4.74,12.64-4.16,22.78,1.62,28.57a1.64,1.64,0,1,0,2.32-2.32C263.31,605.87,262,602.49,261.87,598.19Z" transform="translate(-8.9 -10.43)"/><circle class="cls-51" cx="299.32" cy="555.29" r="41.46"/><path class="cls-50" d="M353.06,520.88c-4.91-4.92-13-6.07-23-3.4l1.38-1.63a1.64,1.64,0,1,0-2.49-2.12l-5.09,6a1.63,1.63,0,0,0,.75,2.62l7.5,2.39a1.67,1.67,0,0,0,.49.08,1.64,1.64,0,0,0,.5-3.2l-2.67-.85a34.38,34.38,0,0,1,10.29-1.4c4.3.16,7.69,1.44,10.07,3.82s3.66,5.77,3.82,10.07a39.89,39.89,0,0,1-2.95,15c-4.42,11.79-13.19,24.62-24.7,36.12s-24.34,20.28-36.13,24.7a39.44,39.44,0,0,1-15,3c-4.3-.15-7.68-1.44-10.06-3.82a1.64,1.64,0,0,0-2.32,2.32c3.2,3.19,7.72,4.8,13.26,4.8a44.44,44.44,0,0,0,15.31-3.18c12.22-4.58,25.46-13.62,37.29-25.45s20.87-25.08,25.45-37.29C359.42,536.81,358.85,526.66,353.06,520.88Z" transform="translate(-8.9 -10.43)"/><text class="cls-6" transform="translate(255.37 583.67)">19</text><path class="cls-29" d="M477.87,562.64a43.27,43.27,0,1,1-43.27-43.26A43.27,43.27,0,0,1,477.87,562.64Z" transform="translate(-8.9 -10.43)"/><path class="cls-30" d="M454.91,524.44l-3.9,3.89h-6l-4.48,3,3,4.48-3,4.47,4.48,4.48,4.47-1.49,1.49-6,6-3,6,1.49,3-3A43.42,43.42,0,0,0,454.91,524.44Z" transform="translate(-8.9 -10.43)"/><path class="cls-30" d="M472.83,542.37l-5.41,3.86-6,1.49-7.46,1.5-4.48,6-6,1.49-1.49,4.48,7.46,6,6-1.49,6-4.48,4.47,1.49,3,3-6,7.46,4.47,6,6.29,2.1A43.29,43.29,0,0,0,472.83,542.37Z" transform="translate(-8.9 -10.43)"/><path class="cls-30" d="M431.62,573.09l-6-6h-7.46l-6,4.47-4.47-1.49,1.49-6,7.46-3,6-4.48,4.47-3v-3h-6l-6,3h-4.48v-4.47l6-1.5,3-6-1.49-3-7.46,1.49-4.47,4.48-4.48,1.49-1.49-3-2.82-2.82a43.28,43.28,0,0,0-2.09,40.47L398.8,582l8.95,3,8.95-1.49,4.48,3V594l4.47,4.48L436.09,597l-3-4.48L434.6,585l7.46-4.47,3-4.48-4.48-4.48Z" transform="translate(-8.9 -10.43)"/><path class="cls-31" d="M431.62,523.85h3v3h-3Z" transform="translate(-8.9 -10.43)"/><path class="cls-31" d="M425.65,528.33h3v3h-3Z" transform="translate(-8.9 -10.43)"/><path class="cls-31" d="M461.46,585h3v3h-3Z" transform="translate(-8.9 -10.43)"/><path class="cls-31" d="M455.49,582h3v3h-3Z" transform="translate(-8.9 -10.43)"/><text class="cls-6" transform="translate(384.83 577.57)">20</text></svg>