<?xml version="1.0" encoding="utf-8"?>
<!-- Generator: Adobe Illustrator 23.0.3, SVG Export Plug-In . SVG Version: 6.00 Build 0)  -->
<svg version="1.1" id="Layer_1" xmlns="http://www.w3.org/2000/svg" xmlns:xlink="http://www.w3.org/1999/xlink" x="0px" y="0px"
	 viewBox="0 0 503.95 503.95" style="enable-background:new 0 0 503.95 503.95;" xml:space="preserve">
<style type="text/css">
	.st0{fill:#EFC75E;}
	.st1{fill:#DEB957;}
	.st2{fill:#F26C4F;}
	.st3{fill:#F4F0D3;}
	.st4{fill:#E8E4C8;}
	.st5{fill:#8BA0AB;}
	.st6{fill:#324D5B;}
</style>
<path class="st0" d="M257.95,392.29c31.19-0.07,56.87,25.5,56.93,56.69c0.07,31.19-25.41,97.53-56.6,97.59s-56.95-66.16-57.02-97.35
	C201.19,418.03,226.48,392.63,257.95,392.29z"/>
<path class="st1" d="M204.01,431.39l1.67,1.67c29.02,28.9,76.37,28.8,105.27-0.23l1.11-1.12c-7.29-22.82-28.77-39.21-54.39-39.15
	C232.89,392.34,211.48,408.82,204.01,431.39z"/>
<path class="st2" d="M252.02,222.98c95.24-0.2,172.51,57.84,172.7,148.07l0.09,42.89c0.19,90.23-77.25-49.13-172.49-48.92
	c-95.24,0.2-172.09,140.45-172.28,49.66l-0.09-42.89C79.76,281.55,156.78,223.18,252.02,222.98L252.02,222.98z"/>
<path class="st3" d="M251.34-92.27c28.96-0.06,114.67,98.06,115.33,276.02c-0.03,115.57-16.06,172.42-16.06,172.42
	c-12.39,64.92-48.87,65.83-97.89,65.93c-49.01,0.11-85.78-0.37-98.17-65.51c0,0-16.28-57.34-16.8-172.91
	C137.37,6,222.1-92.49,251.34-92.27L251.34-92.27z"/>
<path class="st4" d="M353.34,328.31c-13.22,67.42-51.1,68.62-101.78,68.73c-51.24,0.11-89.12-0.37-102.07-68.29l-2.53-10.86
	c3.95,25.61,7.6,38.69,7.6,38.69c12.39,65.14,49.15,65.62,98.17,65.51c49.01-0.1,85.22-1.3,97.89-65.93c0,0,7.46-27.03,12.36-81.62
	C358.31,310.48,353.34,328.31,353.34,328.31z"/>
<path class="st5" d="M251.74,94.32c27.29-0.06,49.34,21.9,49.4,49.19c0.06,27.29-21.9,49.34-49.19,49.4
	c-27.29,0.06-49.34-21.9-49.4-49.19C202.5,116.42,224.73,94.09,251.74,94.32z"/>
<path class="st2" d="M257.95,261.12c13.92-0.03,25.42,38.1,25.57,106.05s-11.21,97.77-25.41,97.53
	c-13.92,0.03-25.68-29.47-25.83-97.42C232.41,299.05,243.47,261.15,257.95,261.12z"/>
<path class="st6" d="M225.34,116.93c6.95-6.98,16.41-10.9,26.43-10.92c10.03-0.02,19.5,3.86,26.48,10.8
	c6.98,6.95,10.9,16.41,10.92,26.43c0.02,10.03-3.86,19.5-10.8,26.48c-6.95,6.98-16.41,10.9-26.43,10.92
	c-10.03,0.02-19.5-3.86-26.48-10.8c-6.98-6.95-10.9-16.41-10.92-26.43C214.51,133.38,218.39,123.91,225.34,116.93 M216.96,108.59
	c-8.89,8.93-14.44,21.2-14.13,34.84c0.06,27.29,22.11,49.25,49.4,49.19c13.37-0.03,25.89-5.35,34.78-14.28
	c8.89-8.93,14.44-21.2,14.13-34.84c-0.06-27.29-22.11-49.25-49.4-49.19C238.1,94.07,225.86,99.66,216.96,108.59z"/>
<path class="st2" d="M173.29,0.07c21.2,16.11,51.02,25.79,83.88,25.72c28.68-0.34,54.85-7.64,75.15-20.21
	c-27.43-63.99-63.98-97.61-80.97-97.86C234.91-92.52,200.17-60.42,173.29,0.07z"/>
</svg>
