<?xml version="1.0" encoding="utf-8"?>
<!-- Generator: Adobe Illustrator 23.0.3, SVG Export Plug-In . SVG Version: 6.00 Build 0)  -->
<svg version="1.1" id="Capa_1" xmlns="http://www.w3.org/2000/svg" xmlns:xlink="http://www.w3.org/1999/xlink" x="0px" y="0px"
	 viewBox="0 0 364.63 684.96" style="enable-background:new 0 0 364.63 684.96;" xml:space="preserve">
<style type="text/css">
	.st0{fill:#EFC85F;}
	.st1{fill:#DEB858;}
	.st2{fill:#ED6D51;}
	.st3{fill:#F5F0D4;}
	.st4{fill:#E8E4C8;}
	.st5{fill:#8CA1AC;}
	.st6{fill:#334E5C;}
</style>
<path class="st0" d="M186.85,517.36c31.19-0.07,56.87,25.5,56.93,56.69c0.07,31.19-25.41,97.53-56.6,97.59s-56.95-66.16-57.02-97.35
	C130.1,543.1,155.39,517.71,186.85,517.36z"/>
<path class="st1" d="M132.91,556.46l1.67,1.67c29.02,28.9,76.37,28.8,105.27-0.23l1.11-1.12c-7.29-22.82-28.77-39.21-54.39-39.15
	C161.79,517.41,140.38,533.89,132.91,556.46z"/>
<path class="st2" d="M180.92,348.05c95.24-0.2,172.51,57.84,172.7,148.07l0.09,42.89c0.19,90.23-77.25-49.13-172.49-48.92
	C85.98,490.28,9.14,630.53,8.94,539.74l-0.09-42.89C8.66,406.62,85.68,348.25,180.92,348.05L180.92,348.05z"/>
<path class="st3" d="M180.25,32.8c28.96-0.06,114.67,98.06,115.33,276.02c-0.03,115.57-16.06,172.42-16.06,172.42
	c-12.39,64.92-48.87,65.83-97.89,65.93s-85.78-0.37-98.17-65.51c0,0-16.28-57.34-16.8-172.91C66.28,131.07,151.01,32.58,180.25,32.8
	L180.25,32.8z"/>
<path class="st4" d="M282.24,453.38c-13.22,67.42-51.1,68.62-101.78,68.73c-51.24,0.11-89.12-0.37-102.07-68.29l-2.53-10.86
	c3.95,25.61,7.6,38.69,7.6,38.69c12.39,65.14,49.15,65.62,98.17,65.51s85.22-1.3,97.89-65.93c0,0,7.46-27.03,12.36-81.62
	C287.21,435.55,282.24,453.38,282.24,453.38z"/>
<path class="st5" d="M180.65,219.39c27.29-0.06,49.34,21.9,49.4,49.19c0.06,27.29-21.9,49.34-49.19,49.4
	c-27.29,0.06-49.34-21.9-49.4-49.19C131.4,241.49,153.63,219.17,180.65,219.39z"/>
<path class="st2" d="M186.85,386.19c13.92-0.03,25.42,38.1,25.57,106.05s-11.21,97.77-25.41,97.53
	c-13.92,0.03-25.68-29.47-25.83-97.42C161.31,424.12,172.37,386.22,186.85,386.19z"/>
<path class="st6" d="M154.24,242c6.95-6.98,16.41-10.9,26.43-10.92c10.03-0.02,19.5,3.86,26.48,10.8
	c6.98,6.95,10.9,16.41,10.92,26.43c0.02,10.03-3.86,19.5-10.8,26.48c-6.95,6.98-16.41,10.9-26.43,10.92
	c-10.03,0.02-19.5-3.86-26.48-10.8c-6.98-6.95-10.9-16.41-10.92-26.43C143.41,258.46,147.29,248.98,154.24,242 M145.87,233.67
	c-8.89,8.93-14.44,21.2-14.13,34.84c0.06,27.29,22.11,49.25,49.4,49.19c13.37-0.03,25.89-5.35,34.78-14.28
	c8.89-8.93,14.44-21.2,14.13-34.84c-0.06-27.29-22.11-49.25-49.4-49.19C167,219.14,154.76,224.73,145.87,233.67z"/>
<path class="st2" d="M102.19,125.15c21.2,16.11,51.02,25.79,83.88,25.72c28.68-0.34,54.85-7.64,75.15-20.21
	c-27.43-63.99-63.98-97.61-80.97-97.86C163.82,32.56,129.07,64.66,102.19,125.15z"/>
</svg>
