<?xml version="1.0" encoding="utf-8"?>
<!-- Generator: Adobe Illustrator 23.0.3, SVG Export Plug-In . SVG Version: 6.00 Build 0)  -->
<svg version="1.1" id="Capa_1" xmlns="http://www.w3.org/2000/svg" xmlns:xlink="http://www.w3.org/1999/xlink" x="0px" y="0px"
	 viewBox="0 0 595.3 254.2" style="enable-background:new 0 0 595.3 254.2;" xml:space="preserve">
<style type="text/css">
	.st0{fill:#A8B3DC;}
	.st1{font-family:'moonhouse';}
	.st2{font-size:130px;}
	.st3{fill:#ED6D46;}
	.st4{display:none;}
	.st5{display:inline;fill:#54BAA4;}
	.st6{display:inline;fill:#C5E4DF;}
	.st7{display:inline;fill:#212114;}
	.st8{display:inline;fill:#E74C3D;}
	.st9{display:inline;fill:#C03B2B;}
	.st10{display:inline;fill:#334E5C;}
	.st11{display:inline;fill:#E2584D;}
	.st12{display:inline;fill:#CC4E44;}
	.st13{display:inline;fill:#2E4652;}
	.st14{display:inline;fill:#E5E7E7;}
	.st15{display:inline;fill:#D9DCDB;}
	.st16{display:inline;fill:#3CB39F;}
	.st17{display:inline;fill:#3AAB96;}
	.st18{display:inline;fill:#FFFFFF;}
	.st19{display:inline;fill:#F2F2F2;}
	.st20{display:inline;fill:#304A57;}
	.st21{display:inline;fill:#F18C97;}
	.st22{display:inline;fill:#E55550;}
	.st23{display:inline;fill:#FFD782;}
	.st24{display:inline;fill:#3A4E5D;}
	.st25{display:inline;fill:#99A5A6;}
</style>
<text transform="matrix(1 0 0 1 62.389 95.1811)" class="st0 st1 st2">Maths</text>
<text transform="matrix(1 0 0 1 47.369 235.1811)" class="st3 st1 st2">Attack</text>
<g class="st4">
	<path class="st5" d="M197.8,7.1c-11.9,0-24,15.3-24,28.4c0,1.4,1,2.6,2.4,2.6h2.7c0.1-0.4,0.2-0.8,0.3-1.2c0.4-1.3,1.5-2.5,2.8-2.8
		c1-0.2,2.2,0,3.1,1.5c0.4,0.7,0.4,1.6,0.2,2.4h25.1c-0.2-0.8-0.2-1.7,0.2-2.4c0.8-1.6,2-1.8,3.1-1.5c1.4,0.3,2.4,1.4,2.8,2.8
		c0.1,0.4,0.2,0.8,0.3,1.2h2.8c1.3,0,2.3-1.1,2.3-2.5C221.8,23.3,209.7,7.1,197.8,7.1z"/>
	<path class="st6" d="M188.1,35.1c-0.1-0.3-0.2-0.5-0.3-0.8c-1.1-2-2.9-3.2-5-3.2c-0.4,0-0.9,0-1.4,0.1c-1.9,0.4-3.6,1.7-4.5,3.5
		c0.5-11.7,11.4-24.7,21-24.7c9.9,0,20.4,14.2,21,24.6c-0.9-1.8-2.6-3.1-4.5-3.5c-0.4-0.1-0.9-0.1-1.4-0.1c-2.1,0-3.9,1.2-5,3.2
		c-0.1,0.2-0.2,0.5-0.3,0.8L188.1,35.1L188.1,35.1z"/>
	<path class="st7" d="M182.8,50.1c0,0-5.8-6.2-3.7-13.1c0.4-1.3,1.5-2.5,2.8-2.8c1-0.2,2.2,0,3.1,1.5c0.6,1.2,0.4,2.7-0.5,3.6
		C182.5,41.4,182.8,45.1,182.8,50.1z"/>
	<path class="st7" d="M194.8,38.1c-2.8,1.8-3,10-3,10c-4.3-4.2-3-10-3-10H194.8z"/>
	<path class="st7" d="M212.8,50.1c0,0,5.8-6.2,3.7-13.1c-0.4-1.3-1.5-2.5-2.8-2.8c-1-0.2-2.2,0-3.1,1.5c-0.6,1.2-0.4,2.7,0.5,3.6
		C213.2,41.4,212.8,45.1,212.8,50.1z"/>
	<path class="st7" d="M200.8,38.1c2.8,1.8,3,10,3,10c4.3-4.2,3-10,3-10H200.8z"/>
	<ellipse class="st8" cx="197.8" cy="16.6" rx="5" ry="5.5"/>
	<ellipse class="st8" cx="204.8" cy="28.6" rx="5" ry="5.5"/>
	<ellipse class="st8" cx="190.8" cy="28.6" rx="5" ry="5.5"/>
	<path class="st9" d="M202.8,16.5c0,0,0,0.1,0,0.1c0,3-2.2,5.5-5,5.5s-5-2.5-5-5.5c0,0,0-0.1,0-0.1c-2.4,1.4-4,3.9-4,6.6
		c0,0.1,0,0.3,0,0.5c0.6-0.3,1.3-0.5,2-0.5c2.8,0,5,2.5,5,5.5c0,0.8-0.1,1.5-0.4,2.2c0.8,0.2,1.6,0.3,2.4,0.3s1.6-0.1,2.4-0.3
		c-0.3-0.7-0.4-1.4-0.4-2.2c0-3,2.2-5.5,5-5.5c0.7,0,1.4,0.2,2,0.5c0-0.1,0-0.3,0-0.5C206.8,20.3,205.2,17.9,202.8,16.5z"/>
</g>
<g class="st4">
	<path class="st10" d="M407.2,157.7c-2.6,0-4.8,2.1-4.8,4.8s2.1,4.8,4.8,4.8s4.8-2.1,4.8-4.8S409.8,157.7,407.2,157.7z M419.9,154.5
		c-2.6,0-4.8,2.1-4.8,4.8s2.1,4.8,4.8,4.8s4.8-2.1,4.8-4.8S422.5,154.5,419.9,154.5z M394.4,154.5c-2.6,0-4.8,2.1-4.8,4.8
		s2.1,4.8,4.8,4.8s4.8-2.1,4.8-4.8S397,154.5,394.4,154.5z"/>
	<path class="st11" d="M392.5,142.3c8.1-5,21.2-5,29.3,0s8.1,13.1,0,18c-8.1,5-21.2,5-29.3,0C384.4,155.3,384.4,147.3,392.5,142.3z"
		/>
	<path class="st12" d="M394.5,159.1c-7.8-4.8-8.1-12.5-0.8-17.5c-0.4,0.2-0.8,0.4-1.2,0.7c-8.1,5-8.1,13.1,0,18c8.1,5,21.2,5,29.3,0
		c0.3-0.2,0.6-0.4,0.8-0.5C414.5,164.1,402.2,163.8,394.5,159.1z"/>
	<path class="st10" d="M389.1,133.4c10-5.9,26.1-5.9,36,0c10,5.9,10,15.5,0,21.4s-26.1,5.9-36,0
		C379.2,148.9,379.2,139.4,389.1,133.4z"/>
	<path class="st13" d="M426.8,153.3c-10,5.9-26.1,5.9-36,0c-8-4.8-9.6-11.9-4.7-17.6c-6.7,5.9-5.7,14,3.1,19.2c10,5.9,26.1,5.9,36,0
		c1.9-1.1,3.5-2.4,4.7-3.8C428.9,151.8,428,152.5,426.8,153.3z"/>
	<path class="st14" d="M407.2,121c8.8,0,15.9,7.1,15.9,15.9s-7.1,12.7-15.9,12.7s-15.9-3.9-15.9-12.7S398.4,121,407.2,121z"/>
	<path class="st15" d="M391.2,137c0,8.8,7.1,12.7,15.8,12.7h0.1V121C398.4,121,391.2,128.2,391.2,137z"/>
	<path class="st16" d="M407.2,149.7c3.6,0,6.9-0.6,9.6-2V137c0-5.3-4.3-9.6-9.6-9.6s-9.6,4.3-9.6,9.6v10.7
		C400.3,149.1,403.6,149.7,407.2,149.7z"/>
	<path class="st17" d="M397.6,137v10.7c2.6,1.4,5.9,2,9.5,2h0.1v-22.3C401.9,127.4,397.6,131.7,397.6,137z"/>
	<path class="st18" d="M407.2,133.8c2.6,0,4.8,2.1,4.8,4.8s-2.1,4.8-4.8,4.8s-4.8-2.1-4.8-4.8C402.4,135.9,404.5,133.8,407.2,133.8z
		"/>
	<path class="st19" d="M407.2,133.8c-2.6,0-4.8,2.1-4.8,4.8s2.1,4.8,4.8,4.8V133.8z"/>
	<path class="st10" d="M407.2,136.2c1.3,0,2.4,1.1,2.4,2.4s-1.1,2.4-2.4,2.4c-1.3,0-2.4-1.1-2.4-2.4S405.9,136.2,407.2,136.2z"/>
	<path class="st20" d="M407.2,136.2c-1.3,0-2.4,1.1-2.4,2.4s1.1,2.4,2.4,2.4V136.2z"/>
</g>
<g id="flat" class="st4">
	<path class="st21" d="M431.6,0.3c0-8.4-6.8-15.2-15.2-15.2s-15.2,6.8-15.2,15.2v22.8c0,1.7,1.4,3,3,3s3-1.4,3-3v-3.8
		c0,1.7,1.4,3,3,3s3-1.4,3-3v6.9c0,1.7,1.4,3,3,3s3-1.4,3-3v-9.9c0,1.7,1.4,3,3,3s3-1.4,3-3v8.4c0,1.7,1.4,3,3,3s3-1.4,3-3
		L431.6,0.3L431.6,0.3z"/>
	<rect x="406.4" y="16.3" class="st22" width="1.5" height="1.5"/>
	<rect x="424.7" y="13.2" class="st22" width="1.5" height="1.5"/>
	<path class="st18" d="M416.3,10.9c5,0,9.1-4.1,9.1-9.1h-18.3C407.2,6.8,411.3,10.9,416.3,10.9z"/>
	<path class="st23" d="M416.3,7.9c3.4,0,6.1-2.7,6.1-6.1h-12.2C410.2,5.2,413,7.9,416.3,7.9z"/>
	<path class="st22" d="M416.3,4.8c1.7,0,3-1.4,3-3h-6.1C413.3,3.5,414.7,4.8,416.3,4.8z"/>
	<path class="st24" d="M416.3-7.3L416.3-7.3c5,0,9.1,4.1,9.1,9.1l0,0l0,0h-18.3l0,0l0,0C407.2-3.3,411.3-7.3,416.3-7.3z"/>
	<path class="st25" d="M411.8-0.5h-1.5c0-3.6,4-4.6,6.1-4.6v1.5C416.1-3.5,411.8-3.5,411.8-0.5z"/>
	<path class="st22" d="M425.6-6.2c-2.8-4.9-9.2-4.9-9.2-4.9v-1.5c0.3,0,7.3,0.1,10.5,5.7L425.6-6.2z"/>
	<circle class="st21" cx="397.3" cy="-9.6" r="2.3"/>
	<circle class="st21" cx="435.4" cy="-11.9" r="3"/>
	<circle class="st21" cx="436.9" cy="10.9" r="2.3"/>
	<circle class="st21" cx="395.8" cy="3.3" r="1.5"/>
</g>
</svg>
