<?xml version="1.0" encoding="utf-8"?>
<!-- Generator: Adobe Illustrator 23.0.3, SVG Export Plug-In . SVG Version: 6.00 Build 0)  -->
<svg version="1.1" id="Capa_1" xmlns="http://www.w3.org/2000/svg" xmlns:xlink="http://www.w3.org/1999/xlink" x="0px" y="0px"
	 viewBox="0 0 595.28 254.22" style="enable-background:new 0 0 595.28 254.22;" xml:space="preserve">
<style type="text/css">
	.st0{fill:#A8B3DC;}
	.st1{font-family:'moonhouse';}
	.st2{font-size:130px;}
	.st3{fill:#EF7E73;}
	.st4{display:none;}
	.st5{display:inline;fill:#54BAA4;}
	.st6{display:inline;fill:#C5E4DF;}
	.st7{display:inline;fill:#212114;}
	.st8{display:inline;fill:#E74C3D;}
	.st9{display:inline;fill:#C03B2B;}
	.st10{display:inline;fill:#334E5C;}
	.st11{display:inline;fill:#E2584D;}
	.st12{display:inline;fill:#CC4E44;}
	.st13{display:inline;fill:#2E4652;}
	.st14{display:inline;fill:#E5E7E7;}
	.st15{display:inline;fill:#D9DCDB;}
	.st16{display:inline;fill:#3CB39F;}
	.st17{display:inline;fill:#3AAB96;}
	.st18{display:inline;fill:#FFFFFF;}
	.st19{display:inline;fill:#F2F2F2;}
	.st20{display:inline;fill:#304A57;}
	.st21{display:inline;fill:#F18C97;}
	.st22{display:inline;fill:#E55550;}
	.st23{display:inline;fill:#FFD782;}
	.st24{display:inline;fill:#3A4E5D;}
	.st25{display:inline;fill:#99A5A6;}
</style>
<text transform="matrix(1 0 0 1 62.389 95.1811)"><tspan x="0" y="0" class="st0 st1 st2">Maths</tspan><tspan x="-15.02" y="140" class="st3 st1 st2">Attack</tspan></text>
<g class="st4">
	<path class="st5" d="M197.83,7.13c-11.87,0-24,15.25-24,28.44c0,1.37,1.03,2.56,2.4,2.56h2.66c0.07-0.38,0.16-0.76,0.28-1.15
		c0.42-1.35,1.46-2.47,2.84-2.78c1.04-0.23,2.24-0.03,3.06,1.53c0.39,0.74,0.45,1.61,0.21,2.39h25.11
		c-0.24-0.78-0.18-1.65,0.21-2.39c0.82-1.56,2.02-1.76,3.06-1.53c1.38,0.31,2.42,1.43,2.84,2.78c0.12,0.38,0.2,0.76,0.28,1.15h2.8
		c1.32,0,2.26-1.12,2.26-2.45C221.83,23.29,209.74,7.13,197.83,7.13z"/>
	<path class="st6" d="M188.06,35.13c-0.09-0.27-0.21-0.53-0.34-0.78c-1.07-2.05-2.9-3.22-5.02-3.22c-0.44,0-0.89,0.05-1.35,0.15
		c-1.92,0.43-3.56,1.73-4.51,3.51c0.47-11.69,11.39-24.66,20.99-24.66c9.85,0,20.39,14.16,20.97,24.65
		c-0.95-1.78-2.59-3.07-4.5-3.49c-0.45-0.1-0.9-0.15-1.35-0.15c-2.12,0-3.94,1.17-5.02,3.22c-0.13,0.25-0.25,0.51-0.34,0.78H188.06z
		"/>
	<path class="st7" d="M182.83,50.13c0,0-5.8-6.23-3.66-13.15c0.42-1.35,1.46-2.47,2.84-2.78c1.04-0.23,2.24-0.03,3.06,1.53
		c0.62,1.17,0.42,2.67-0.52,3.61C182.51,41.38,182.83,45.13,182.83,50.13z"/>
	<path class="st7" d="M194.83,38.13c-2.84,1.78-3,10-3,10c-4.31-4.25-3-10-3-10H194.83z"/>
	<path class="st7" d="M212.83,50.13c0,0,5.8-6.23,3.66-13.15c-0.42-1.35-1.46-2.47-2.84-2.78c-1.04-0.23-2.24-0.03-3.06,1.53
		c-0.62,1.17-0.42,2.67,0.52,3.61C213.16,41.38,212.83,45.13,212.83,50.13z"/>
	<path class="st7" d="M200.83,38.13c2.84,1.78,3,10,3,10c4.31-4.25,3-10,3-10H200.83z"/>
	<ellipse class="st8" cx="197.83" cy="16.63" rx="5" ry="5.5"/>
	<ellipse class="st8" cx="204.83" cy="28.63" rx="5" ry="5.5"/>
	<ellipse class="st8" cx="190.83" cy="28.63" rx="5" ry="5.5"/>
	<path class="st9" d="M202.82,16.47c0,0.05,0.01,0.1,0.01,0.15c0,3.04-2.24,5.5-5,5.5s-5-2.46-5-5.5c0-0.05,0.01-0.1,0.01-0.15
		c-2.41,1.43-4.01,3.88-4.01,6.65c0,0.15,0.02,0.3,0.02,0.45c0.61-0.29,1.27-0.45,1.98-0.45c2.76,0,5,2.46,5,5.5
		c0,0.78-0.15,1.52-0.42,2.2c0.77,0.19,1.58,0.3,2.42,0.3c0.84,0,1.65-0.11,2.42-0.3c-0.27-0.67-0.42-1.42-0.42-2.2
		c0-3.04,2.24-5.5,5-5.5c0.7,0,1.37,0.16,1.97,0.45c0.01-0.15,0.03-0.3,0.03-0.45C206.83,20.35,205.24,17.91,202.82,16.47z"/>
</g>
<g class="st4">
	<path class="st10" d="M407.16,157.68c-2.63,0-4.78,2.15-4.78,4.78s2.15,4.78,4.78,4.78c2.63,0,4.78-2.15,4.78-4.78
		S409.79,157.68,407.16,157.68z M419.9,154.49c-2.63,0-4.78,2.15-4.78,4.78s2.15,4.78,4.78,4.78c2.63,0,4.78-2.15,4.78-4.78
		S422.53,154.49,419.9,154.49z M394.42,154.49c-2.63,0-4.78,2.15-4.78,4.78s2.15,4.78,4.78,4.78c2.63,0,4.78-2.15,4.78-4.78
		S397.05,154.49,394.42,154.49z"/>
	<path class="st11" d="M392.51,142.31c8.08-4.98,21.19-4.98,29.27,0c8.08,4.98,8.08,13.06,0,18c-8.08,4.98-21.19,4.98-29.27,0
		C384.42,155.33,384.42,147.28,392.51,142.31z"/>
	<path class="st12" d="M394.5,159.11c-7.81-4.82-8.08-12.5-0.8-17.48c-0.4,0.2-0.8,0.44-1.19,0.68c-8.08,4.98-8.08,13.06,0,18
		c8.08,4.98,21.19,4.98,29.27,0c0.28-0.16,0.56-0.36,0.8-0.52C414.45,164.09,402.18,163.85,394.5,159.11z"/>
	<path class="st10" d="M389.12,133.43c9.96-5.89,26.08-5.89,36.04,0c9.96,5.89,9.96,15.49,0,21.38c-9.96,5.89-26.08,5.89-36.04,0
		C379.16,148.92,379.16,139.36,389.12,133.43z"/>
	<path class="st13" d="M426.79,153.26c-9.96,5.89-26.08,5.89-36.04,0c-8.04-4.78-9.6-11.91-4.7-17.6
		c-6.73,5.89-5.69,13.98,3.07,19.19c9.96,5.89,26.08,5.89,36.04,0c1.91-1.15,3.46-2.43,4.66-3.78
		C428.94,151.82,427.95,152.54,426.79,153.26z"/>
	<path class="st14" d="M407.16,121.04c8.8,0,15.93,7.13,15.93,15.93s-7.13,12.74-15.93,12.74c-8.8,0-15.93-3.94-15.93-12.74
		C391.23,128.17,398.36,121.04,407.16,121.04z"/>
	<path class="st15" d="M391.23,136.97c0,8.76,7.09,12.7,15.81,12.74h0.12v-28.67C398.36,121.04,391.23,128.17,391.23,136.97z"/>
	<path class="st16" d="M407.16,149.71c3.58,0,6.89-0.64,9.56-2.03v-10.71c0-5.3-4.26-9.56-9.56-9.56s-9.56,4.26-9.56,9.56v10.71
		C400.27,149.08,403.58,149.71,407.16,149.71z"/>
	<path class="st17" d="M397.6,136.97v10.71c2.63,1.35,5.93,2.03,9.48,2.03h0.08v-22.3C401.86,127.41,397.6,131.71,397.6,136.97z"/>
	<path class="st18" d="M407.16,133.79c2.63,0,4.78,2.15,4.78,4.78c0,2.63-2.15,4.78-4.78,4.78c-2.63,0-4.78-2.15-4.78-4.78
		C402.38,135.94,404.53,133.79,407.16,133.79z"/>
	<path class="st19" d="M407.16,133.79c-2.63,0-4.78,2.15-4.78,4.78c0,2.63,2.15,4.78,4.78,4.78V133.79z"/>
	<path class="st10" d="M407.16,136.17c1.31,0,2.39,1.08,2.39,2.39c0,1.31-1.08,2.39-2.39,2.39c-1.31,0-2.39-1.08-2.39-2.39
		C404.77,137.25,405.85,136.17,407.16,136.17z"/>
	<path class="st20" d="M407.16,136.17c-1.31,0-2.39,1.08-2.39,2.39c0,1.31,1.08,2.39,2.39,2.39V136.17z"/>
</g>
<g id="flat" class="st4">
	<path class="st21" d="M431.56,0.28c0-8.41-6.81-15.22-15.22-15.22s-15.22,6.81-15.22,15.22v22.83c0,1.68,1.36,3.04,3.04,3.04
		s3.04-1.36,3.04-3.04v-3.8c0,1.68,1.36,3.04,3.04,3.04s3.04-1.36,3.04-3.04v6.85c0,1.68,1.36,3.04,3.04,3.04s3.04-1.36,3.04-3.04
		v-9.89c0,1.68,1.36,3.04,3.04,3.04s3.04-1.36,3.04-3.04v8.37c0,1.68,1.36,3.04,3.04,3.04s3.04-1.36,3.04-3.04V0.28z"/>
	<rect x="406.44" y="16.26" class="st22" width="1.52" height="1.52"/>
	<rect x="424.71" y="13.21" class="st22" width="1.52" height="1.52"/>
	<path class="st18" d="M416.34,10.93c5.04,0,9.13-4.09,9.13-9.13h-18.26C407.21,6.84,411.29,10.93,416.34,10.93z"/>
	<path class="st23" d="M416.34,7.89c3.36,0,6.09-2.73,6.09-6.09h-12.18C410.25,5.16,412.97,7.89,416.34,7.89z"/>
	<path class="st22" d="M416.34,4.84c1.68,0,3.04-1.36,3.04-3.04h-6.09C413.29,3.48,414.66,4.84,416.34,4.84z"/>
	<path class="st24" d="M416.34-7.33L416.34-7.33c5.04,0,9.13,4.09,9.13,9.13l0,0l0,0h-18.26l0,0l0,0
		C407.21-3.25,411.29-7.33,416.34-7.33z"/>
	<path class="st25" d="M411.77-0.48h-1.52c0-3.61,3.98-4.57,6.09-4.57v1.52C416.15-3.53,411.77-3.48,411.77-0.48z"/>
	<path class="st22" d="M425.57-6.19c-2.78-4.87-9.17-4.95-9.23-4.95v-1.52c0.3,0,7.33,0.06,10.55,5.71L425.57-6.19z"/>
	<circle class="st21" cx="397.31" cy="-9.62" r="2.28"/>
	<circle class="st21" cx="435.36" cy="-11.9" r="3.04"/>
	<circle class="st21" cx="436.88" cy="10.93" r="2.28"/>
	<circle class="st21" cx="395.79" cy="3.32" r="1.52"/>
</g>
</svg>
