<?xml version="1.0" encoding="utf-8"?>
<!-- Generator: Adobe Illustrator 23.0.3, SVG Export Plug-In . SVG Version: 6.00 Build 0)  -->
<svg version="1.1" id="Layer_1" xmlns="http://www.w3.org/2000/svg" xmlns:xlink="http://www.w3.org/1999/xlink" x="0px" y="0px"
	 viewBox="0 0 504.1 478.4" style="enable-background:new 0 0 504.1 478.4;" xml:space="preserve">
<style type="text/css">
	.st0{fill:#324D5B;}
	.st1{fill:#E2574C;}
	.st2{fill:#CB4E44;}
	.st3{fill:#2D4552;}
	.st4{fill:#E4E7E7;}
	.st5{fill:#D8DBDB;}
	.st6{fill:#3DB39E;}
	.st7{fill:#3AAA96;}
	.st8{fill:#FFFFFF;}
	.st9{fill:#F2F2F2;}
	.st10{fill:#2F4956;}
</style>
<path class="st0" d="M252.3,360.2c-26,0-47.3,21.3-47.3,47.3s21.3,47.3,47.3,47.3s47.3-21.3,47.3-47.3S278.3,360.2,252.3,360.2z
	 M378.3,328.7c-26,0-47.3,21.3-47.3,47.3s21.3,47.3,47.3,47.3s47.3-21.3,47.3-47.3S404.3,328.7,378.3,328.7z M126.2,328.7
	c-26,0-47.3,21.3-47.3,47.3s21.3,47.3,47.3,47.3s47.3-21.3,47.3-47.3S152.2,328.7,126.2,328.7z"/>
<path class="st1" d="M107.3,208.2c80-49.2,209.5-49.2,289.5,0s80,129.2,0,178c-80,49.2-209.5,49.2-289.5,0S27.4,257.4,107.3,208.2z"
	/>
<path class="st2" d="M127,374.4c-77.2-47.7-80-123.7-7.9-172.9c-3.9,2-7.9,4.3-11.8,6.7c-80,49.2-80,129.2,0,178
	c80,49.2,209.5,49.2,289.5,0c2.8-1.6,5.5-3.5,7.9-5.1C324.3,423.6,203,421.3,127,374.4z"/>
<path class="st0" d="M73.8,120.4c98.5-58.3,258-58.3,356.4,0s98.5,153.2,0,211.5s-258,58.3-356.4,0S-24.6,179.1,73.8,120.4z"/>
<path class="st3" d="M446.4,316.5c-98.5,58.3-258,58.3-356.4,0C10.4,269.2-4.9,198.8,43.5,142.4C-23,200.7-12.8,280.7,73.8,332.3
	c98.5,58.3,258,58.3,356.4,0c18.9-11.4,34.3-24,46.1-37.4C467.7,302.3,457.8,309.4,446.4,316.5z"/>
<path class="st4" d="M252.3-2.1c87,0,157.5,70.5,157.5,157.5s-70.5,126-157.5,126s-157.5-39-157.5-126S165.2-2.1,252.3-2.1z"/>
<path class="st5" d="M94.7,155.4c0,86.6,70.1,125.6,156.4,126h1.2V-2.1C165.2-2.1,94.7,68.4,94.7,155.4z"/>
<path class="st6" d="M252.3,281.5c35.4,0,68.1-6.3,94.5-20.1V155.4c0-52.4-42.1-94.5-94.5-94.5s-94.5,42.1-94.5,94.5v105.9
	C184.1,275.2,216.8,281.5,252.3,281.5z"/>
<path class="st7" d="M157.7,155.4v105.9c26,13.4,58.7,20.1,93.7,20.1h0.8V60.9C199.9,60.9,157.7,103.4,157.7,155.4z"/>
<path class="st8" d="M252.3,123.9c26,0,47.3,21.3,47.3,47.3s-21.3,47.3-47.3,47.3S205,197.2,205,171.2S226.3,123.9,252.3,123.9z"/>
<path class="st9" d="M252.3,123.9c-26,0-47.3,21.3-47.3,47.3s21.3,47.3,47.3,47.3V123.9z"/>
<path class="st0" d="M252.3,147.6c13,0,23.6,10.6,23.6,23.6s-10.6,23.6-23.6,23.6s-23.6-10.6-23.6-23.6S239.3,147.6,252.3,147.6z"/>
<path class="st10" d="M252.3,147.6c-13,0-23.6,10.6-23.6,23.6s10.6,23.6,23.6,23.6V147.6z"/>
</svg>
