<?xml version="1.0" encoding="utf-8"?>
<!-- Generator: Adobe Illustrator 23.0.3, SVG Export Plug-In . SVG Version: 6.00 Build 0)  -->
<svg version="1.1" id="Capa_1" xmlns="http://www.w3.org/2000/svg" xmlns:xlink="http://www.w3.org/1999/xlink" x="0px" y="0px"
	 viewBox="0 0 595.3 841.9" style="enable-background:new 0 0 595.3 841.9;" xml:space="preserve">
<style type="text/css">
	.st0{fill:#0D0F1F;enable-background:new    ;}
	.st1{fill:#F2E7C4;enable-background:new    ;}
</style>
<rect class="st0" width="595.3" height="841.9"/>
<image style="display:none;overflow:visible;enable-background:new    ;" width="564" height="480" xlink:href="1027BB20F584D2FF.jpg"  transform="matrix(0.4492 0 0 0.4492 171.0394 314.3173)">
</image>
<polygon class="st1" points="75.7,98.2 74.3,97.7 73.1,98.6 73.1,97.2 71.9,96.3 73.3,95.9 73.8,94.5 74.6,95.7 76.1,95.6 
	75.2,96.8 "/>
<polygon class="st1" points="139.7,91.2 138.3,90.7 137.1,91.6 137.1,90.2 135.9,89.3 137.3,88.9 137.8,87.5 138.6,88.7 140.1,88.6 
	139.2,89.8 "/>
<polygon class="st1" points="174.5,126.5 173.1,126.1 171.9,126.9 172,125.5 170.8,124.6 172.2,124.2 172.6,122.8 173.5,124 
	174.9,124 174,125.1 "/>
<polygon class="st1" points="92.1,195.6 90.7,195.1 89.6,196 89.6,194.5 88.4,193.7 89.8,193.3 90.2,191.9 91.1,193.1 92.5,193 
	91.7,194.2 "/>
<polygon class="st1" points="181.1,193.5 179.7,193.1 178.5,193.9 178.5,192.5 177.3,191.6 178.8,191.2 179.2,189.8 180,191 
	181.5,191 180.6,192.1 "/>
<polygon class="st1" points="277.4,78.9 276,78.4 274.8,79.3 274.8,77.8 273.6,76.9 275,76.5 275.5,75.1 276.3,76.3 277.8,76.3 
	276.9,77.5 "/>
<polygon class="st1" points="295.6,205.7 294.2,205.3 293,206.2 293.1,204.7 291.8,203.8 293.3,203.4 293.7,202 294.5,203.2 
	296,203.2 295.1,204.4 "/>
<polygon class="st1" points="256.7,229.2 255.3,228.7 254.1,229.6 254.1,228.2 252.9,227.3 254.3,226.9 254.8,225.5 255.6,226.7 
	257.1,226.6 256.2,227.8 "/>
<polygon class="st1" points="208.7,373.2 207.3,372.7 206.1,373.6 206.1,372.2 204.9,371.3 206.3,370.9 206.8,369.5 207.6,370.7 
	209.1,370.6 208.2,371.8 "/>
<polygon class="st1" points="364.7,395.2 363.3,394.7 362.1,395.6 362.1,394.2 360.9,393.3 362.3,392.9 362.8,391.5 363.6,392.7 
	365.1,392.6 364.2,393.8 "/>
<polygon class="st1" points="349.7,271.2 348.3,270.7 347.1,271.6 347.1,270.2 345.9,269.3 347.3,268.9 347.8,267.5 348.6,268.7 
	350.1,268.6 349.2,269.8 "/>
<polygon class="st1" points="461.7,281.2 460.3,280.7 459.1,281.6 459.1,280.2 457.9,279.3 459.3,278.9 459.8,277.5 460.6,278.7 
	462.1,278.6 461.2,279.8 "/>
<polygon class="st1" points="445.7,149.2 444.3,148.7 443.1,149.6 443.1,148.2 441.9,147.3 443.3,146.9 443.8,145.5 444.6,146.7 
	446.1,146.6 445.2,147.8 "/>
<polygon class="st1" points="445.7,58.2 444.3,57.7 443.1,58.6 443.1,57.2 441.9,56.3 443.3,55.9 443.8,54.5 444.6,55.7 446.1,55.6 
	445.2,56.8 "/>
<polygon class="st1" points="512.7,70.2 511.3,69.7 510.1,70.6 510.1,69.2 508.9,68.3 510.3,67.9 510.8,66.5 511.6,67.7 513.1,67.6 
	512.2,68.8 "/>
<polygon class="st1" points="536.7,217.2 535.3,216.7 534.1,217.6 534.1,216.2 532.9,215.3 534.3,214.9 534.8,213.5 535.6,214.7 
	537.1,214.6 536.2,215.8 "/>
<polygon class="st1" points="381.7,148.2 380.3,147.7 379.1,148.6 379.1,147.2 377.9,146.3 379.3,145.9 379.8,144.5 380.6,145.7 
	382.1,145.6 381.2,146.8 "/>
<polygon class="st1" points="251.7,79.2 250.3,78.7 249.1,79.6 249.1,78.2 247.9,77.3 249.3,76.9 249.8,75.5 250.6,76.7 252.1,76.6 
	251.2,77.8 "/>
<polygon class="st1" points="158.7,20.2 157.3,19.7 156.1,20.6 156.1,19.2 154.9,18.3 156.3,17.9 156.8,16.5 157.6,17.7 159.1,17.6 
	158.2,18.8 "/>
<polygon class="st1" points="67.7,15.2 66.3,14.7 65.1,15.6 65.1,14.2 63.9,13.3 65.3,12.9 65.8,11.5 66.6,12.7 68.1,12.6 
	67.2,13.8 "/>
<polygon class="st1" points="27.7,55.2 26.3,54.7 25.1,55.6 25.1,54.2 23.9,53.3 25.3,52.9 25.8,51.5 26.6,52.7 28.1,52.6 
	27.2,53.8 "/>
<polygon class="st1" points="36.7,237.2 35.3,236.7 34.1,237.6 34.1,236.2 32.9,235.3 34.3,234.9 34.8,233.5 35.6,234.7 37.1,234.6 
	36.2,235.8 "/>
<polygon class="st1" points="38.7,192.2 37.3,191.7 36.1,192.6 36.1,191.2 34.9,190.3 36.3,189.9 36.8,188.5 37.6,189.7 39.1,189.6 
	38.2,190.8 "/>
<polygon class="st1" points="3.7,138.2 2.3,137.7 1.1,138.6 1.1,137.2 -0.1,136.3 1.3,135.9 1.8,134.5 2.6,135.7 4.1,135.6 
	3.2,136.8 "/>
<polygon class="st1" points="302.7,110.2 301.3,109.7 300.1,110.6 300.1,109.2 298.9,108.3 300.3,107.9 300.8,106.5 301.6,107.7 
	303.1,107.6 302.2,108.8 "/>
<polygon class="st1" points="222.7,135.2 221.3,134.7 220.1,135.6 220.1,134.2 218.9,133.3 220.3,132.9 220.8,131.5 221.6,132.7 
	223.1,132.6 222.2,133.8 "/>
<polygon class="st1" points="344.7,66.2 343.3,65.7 342.1,66.6 342.1,65.2 340.9,64.3 342.3,63.9 342.8,62.5 343.6,63.7 345.1,63.6 
	344.2,64.8 "/>
<polygon class="st1" points="336.7,23.2 335.3,22.7 334.1,23.6 334.1,22.2 332.9,21.3 334.3,20.9 334.8,19.5 335.6,20.7 337.1,20.6 
	336.2,21.8 "/>
<polygon class="st1" points="254.7,10.2 253.3,9.7 252.1,10.6 252.1,9.2 250.9,8.3 252.3,7.9 252.8,6.5 253.6,7.7 255.1,7.6 
	254.2,8.8 "/>
<polygon class="st1" points="182.7,23.2 181.3,22.7 180.1,23.6 180.1,22.2 178.9,21.3 180.3,20.9 180.8,19.5 181.6,20.7 183.1,20.6 
	182.2,21.8 "/>
<polygon class="st1" points="181.7,59.2 180.3,58.7 179.1,59.6 179.1,58.2 177.9,57.3 179.3,56.9 179.8,55.5 180.6,56.7 182.1,56.6 
	181.2,57.8 "/>
<polygon class="st1" points="100.7,71.2 99.3,70.7 98.1,71.6 98.1,70.2 96.9,69.3 98.3,68.9 98.8,67.5 99.6,68.7 101.1,68.6 
	100.2,69.8 "/>
<polygon class="st1" points="86.7,155.2 85.3,154.7 84.1,155.6 84.1,154.2 82.9,153.3 84.3,152.9 84.8,151.5 85.6,152.7 87.1,152.6 
	86.2,153.8 "/>
<polygon class="st1" points="140.7,242.2 139.3,241.7 138.1,242.6 138.1,241.2 136.9,240.3 138.3,239.9 138.8,238.5 139.6,239.7 
	141.1,239.6 140.2,240.8 "/>
<polygon class="st1" points="236.7,168.2 235.3,167.7 234.1,168.6 234.1,167.2 232.9,166.3 234.3,165.9 234.8,164.5 235.6,165.7 
	237.1,165.6 236.2,166.8 "/>
<polygon class="st1" points="317.7,164.2 316.3,163.7 315.1,164.6 315.1,163.2 313.9,162.3 315.3,161.9 315.8,160.5 316.6,161.7 
	318.1,161.6 317.2,162.8 "/>
<polygon class="st1" points="372.7,124.2 371.3,123.7 370.1,124.6 370.1,123.2 368.9,122.3 370.3,121.9 370.8,120.5 371.6,121.7 
	373.1,121.6 372.2,122.8 "/>
<polygon class="st1" points="449.7,112.2 448.3,111.7 447.1,112.6 447.1,111.2 445.9,110.3 447.3,109.9 447.8,108.5 448.6,109.7 
	450.1,109.6 449.2,110.8 "/>
<polygon class="st1" points="511.7,115.2 510.3,114.7 509.1,115.6 509.1,114.2 507.9,113.3 509.3,112.9 509.8,111.5 510.6,112.7 
	512.1,112.6 511.2,113.8 "/>
<polygon class="st1" points="541.7,124.2 540.3,123.7 539.1,124.6 539.1,123.2 537.9,122.3 539.3,121.9 539.8,120.5 540.6,121.7 
	542.1,121.6 541.2,122.8 "/>
<polygon class="st1" points="552.7,73.2 551.3,72.7 550.1,73.6 550.1,72.2 548.9,71.3 550.3,70.9 550.8,69.5 551.6,70.7 553.1,70.6 
	552.2,71.8 "/>
<polygon class="st1" points="539.7,32.2 538.3,31.7 537.1,32.6 537.1,31.2 535.9,30.3 537.3,29.9 537.8,28.5 538.6,29.7 540.1,29.6 
	539.2,30.8 "/>
<polygon class="st1" points="416.7,33.2 415.3,32.7 414.1,33.6 414.1,32.2 412.9,31.3 414.3,30.9 414.8,29.5 415.6,30.7 417.1,30.6 
	416.2,31.8 "/>
<polygon class="st1" points="502.7,205.2 501.3,204.7 500.1,205.6 500.1,204.2 498.9,203.3 500.3,202.9 500.8,201.5 501.6,202.7 
	503.1,202.6 502.2,203.8 "/>
<polygon class="st1" points="495.7,164.2 494.3,163.7 493.1,164.6 493.1,163.2 491.9,162.3 493.3,161.9 493.8,160.5 494.6,161.7 
	496.1,161.6 495.2,162.8 "/>
<polygon class="st1" points="379.7,200.2 378.3,199.7 377.1,200.6 377.1,199.2 375.9,198.3 377.3,197.9 377.8,196.5 378.6,197.7 
	380.1,197.6 379.2,198.8 "/>
<polygon class="st1" points="422.7,228.2 421.3,227.7 420.1,228.6 420.1,227.2 418.9,226.3 420.3,225.9 420.8,224.5 421.6,225.7 
	423.1,225.6 422.2,226.8 "/>
<polygon class="st1" points="473.7,268.2 472.3,267.7 471.1,268.6 471.1,267.2 469.9,266.3 471.3,265.9 471.8,264.5 472.6,265.7 
	474.1,265.6 473.2,266.8 "/>
<polygon class="st1" points="518.7,272.2 517.3,271.7 516.1,272.6 516.1,271.2 514.9,270.3 516.3,269.9 516.8,268.5 517.6,269.7 
	519.1,269.6 518.2,270.8 "/>
<polygon class="st1" points="537.7,253.2 536.3,252.7 535.1,253.6 535.1,252.2 533.9,251.3 535.3,250.9 535.8,249.5 536.6,250.7 
	538.1,250.6 537.2,251.8 "/>
<polygon class="st1" points="540.7,303.2 539.3,302.7 538.1,303.6 538.1,302.2 536.9,301.3 538.3,300.9 538.8,299.5 539.6,300.7 
	541.1,300.6 540.2,301.8 "/>
<polygon class="st1" points="578.7,287.2 577.3,286.7 576.1,287.6 576.1,286.2 574.9,285.3 576.3,284.9 576.8,283.5 577.6,284.7 
	579.1,284.6 578.2,285.8 "/>
<polygon class="st1" points="563.7,169.2 562.3,168.7 561.1,169.6 561.1,168.2 559.9,167.3 561.3,166.9 561.8,165.5 562.6,166.7 
	564.1,166.6 563.2,167.8 "/>
<polygon class="st1" points="411.7,269.2 410.3,268.7 409.1,269.6 409.1,268.2 407.9,267.3 409.3,266.9 409.8,265.5 410.6,266.7 
	412.1,266.6 411.2,267.8 "/>
<polygon class="st1" points="299.7,263.2 298.3,262.7 297.1,263.6 297.1,262.2 295.9,261.3 297.3,260.9 297.8,259.5 298.6,260.7 
	300.1,260.6 299.2,261.8 "/>
<polygon class="st1" points="227.7,260.2 226.3,259.7 225.1,260.6 225.1,259.2 223.9,258.3 225.3,257.9 225.8,256.5 226.6,257.7 
	228.1,257.6 227.2,258.8 "/>
<polygon class="st1" points="89.7,253.2 88.3,252.7 87.1,253.6 87.1,252.2 85.9,251.3 87.3,250.9 87.8,249.5 88.6,250.7 90.1,250.6 
	89.2,251.8 "/>
<polygon class="st1" points="66.7,297.2 65.3,296.7 64.1,297.6 64.1,296.2 62.9,295.3 64.3,294.9 64.8,293.5 65.6,294.7 67.1,294.6 
	66.2,295.8 "/>
<polygon class="st1" points="22.7,298.2 21.3,297.7 20.1,298.6 20.1,297.2 18.9,296.3 20.3,295.9 20.8,294.5 21.6,295.7 23.1,295.6 
	22.2,296.8 "/>
<polygon class="st1" points="98.7,346.2 97.3,345.7 96.1,346.6 96.1,345.2 94.9,344.3 96.3,343.9 96.8,342.5 97.6,343.7 99.1,343.6 
	98.2,344.8 "/>
<polygon class="st1" points="272.7,352.2 271.3,351.7 270.1,352.6 270.1,351.2 268.9,350.3 270.3,349.9 270.8,348.5 271.6,349.7 
	273.1,349.6 272.2,350.8 "/>
<polygon class="st1" points="344.7,324.2 343.3,323.7 342.1,324.6 342.1,323.2 340.9,322.3 342.3,321.9 342.8,320.5 343.6,321.7 
	345.1,321.6 344.2,322.8 "/>
<polygon class="st1" points="385.7,328.2 384.3,327.7 383.1,328.6 383.1,327.2 381.9,326.3 383.3,325.9 383.8,324.5 384.6,325.7 
	386.1,325.6 385.2,326.8 "/>
<polygon class="st1" points="433.7,319.2 432.3,318.7 431.1,319.6 431.1,318.2 429.9,317.3 431.3,316.9 431.8,315.5 432.6,316.7 
	434.1,316.6 433.2,317.8 "/>
<polygon class="st1" points="448.7,350.2 447.3,349.7 446.1,350.6 446.1,349.2 444.9,348.3 446.3,347.9 446.8,346.5 447.6,347.7 
	449.1,347.6 448.2,348.8 "/>
<polygon class="st1" points="500.7,336.2 499.3,335.7 498.1,336.6 498.1,335.2 496.9,334.3 498.3,333.9 498.8,332.5 499.6,333.7 
	501.1,333.6 500.2,334.8 "/>
<polygon class="st1" points="529.7,361.2 528.3,360.7 527.1,361.6 527.1,360.2 525.9,359.3 527.3,358.9 527.8,357.5 528.6,358.7 
	530.1,358.6 529.2,359.8 "/>
<polygon class="st1" points="581.7,371.2 580.3,370.7 579.1,371.6 579.1,370.2 577.9,369.3 579.3,368.9 579.8,367.5 580.6,368.7 
	582.1,368.6 581.2,369.8 "/>
<polygon class="st1" points="560.7,423.2 559.3,422.7 558.1,423.6 558.1,422.2 556.9,421.3 558.3,420.9 558.8,419.5 559.6,420.7 
	561.1,420.6 560.2,421.8 "/>
<polygon class="st1" points="509.7,409.2 508.3,408.7 507.1,409.6 507.1,408.2 505.9,407.3 507.3,406.9 507.8,405.5 508.6,406.7 
	510.1,406.6 509.2,407.8 "/>
<polygon class="st1" points="457.7,373.2 456.3,372.7 455.1,373.6 455.1,372.2 453.9,371.3 455.3,370.9 455.8,369.5 456.6,370.7 
	458.1,370.6 457.2,371.8 "/>
<polygon class="st1" points="365.7,368.2 364.3,367.7 363.1,368.6 363.1,367.2 361.9,366.3 363.3,365.9 363.8,364.5 364.6,365.7 
	366.1,365.6 365.2,366.8 "/>
<polygon class="st1" points="252.7,368.2 251.3,367.7 250.1,368.6 250.1,367.2 248.9,366.3 250.3,365.9 250.8,364.5 251.6,365.7 
	253.1,365.6 252.2,366.8 "/>
<polygon class="st1" points="258.7,312.2 257.3,311.7 256.1,312.6 256.1,311.2 254.9,310.3 256.3,309.9 256.8,308.5 257.6,309.7 
	259.1,309.6 258.2,310.8 "/>
<polygon class="st1" points="130.7,261.2 129.3,260.7 128.1,261.6 128.1,260.2 126.9,259.3 128.3,258.9 128.8,257.5 129.6,258.7 
	131.1,258.6 130.2,259.8 "/>
<polygon class="st1" points="131.7,305.2 130.3,304.7 129.1,305.6 129.1,304.2 127.9,303.3 129.3,302.9 129.8,301.5 130.6,302.7 
	132.1,302.6 131.2,303.8 "/>
<polygon class="st1" points="181.7,299.2 180.3,298.7 179.1,299.6 179.1,298.2 177.9,297.3 179.3,296.9 179.8,295.5 180.6,296.7 
	182.1,296.6 181.2,297.8 "/>
<polygon class="st1" points="208.7,327.2 207.3,326.7 206.1,327.6 206.1,326.2 204.9,325.3 206.3,324.9 206.8,323.5 207.6,324.7 
	209.1,324.6 208.2,325.8 "/>
<polygon class="st1" points="112.7,345.2 111.3,344.7 110.1,345.6 110.1,344.2 108.9,343.3 110.3,342.9 110.8,341.5 111.6,342.7 
	113.1,342.6 112.2,343.8 "/>
<polygon class="st1" points="149.7,364.2 148.3,363.7 147.1,364.6 147.1,363.2 145.9,362.3 147.3,361.9 147.8,360.5 148.6,361.7 
	150.1,361.6 149.2,362.8 "/>
<polygon class="st1" points="59.7,368.2 58.3,367.7 57.1,368.6 57.1,367.2 55.9,366.3 57.3,365.9 57.8,364.5 58.6,365.7 60.1,365.6 
	59.2,366.8 "/>
<polygon class="st1" points="48.7,343.2 47.3,342.7 46.1,343.6 46.1,342.2 44.9,341.3 46.3,340.9 46.8,339.5 47.6,340.7 49.1,340.6 
	48.2,341.8 "/>
<polygon class="st1" points="20.7,431.2 19.3,430.7 18.1,431.6 18.1,430.2 16.9,429.3 18.3,428.9 18.8,427.5 19.6,428.7 21.1,428.6 
	20.2,429.8 "/>
<polygon class="st1" points="97.7,415.2 96.3,414.7 95.1,415.6 95.1,414.2 93.9,413.3 95.3,412.9 95.8,411.5 96.6,412.7 98.1,412.6 
	97.2,413.8 "/>
<polygon class="st1" points="199.7,408.2 198.3,407.7 197.1,408.6 197.1,407.2 195.9,406.3 197.3,405.9 197.8,404.5 198.6,405.7 
	200.1,405.6 199.2,406.8 "/>
<polygon class="st1" points="157.7,463.2 156.3,462.7 155.1,463.6 155.1,462.2 153.9,461.3 155.3,460.9 155.8,459.5 156.6,460.7 
	158.1,460.6 157.2,461.8 "/>
<polygon class="st1" points="282.7,448.2 281.3,447.7 280.1,448.6 280.1,447.2 278.9,446.3 280.3,445.9 280.8,444.5 281.6,445.7 
	283.1,445.6 282.2,446.8 "/>
<polygon class="st1" points="382.7,395.2 381.3,394.7 380.1,395.6 380.1,394.2 378.9,393.3 380.3,392.9 380.8,391.5 381.6,392.7 
	383.1,392.6 382.2,393.8 "/>
<polygon class="st1" points="325.7,372.2 324.3,371.7 323.1,372.6 323.1,371.2 321.9,370.3 323.3,369.9 323.8,368.5 324.6,369.7 
	326.1,369.6 325.2,370.8 "/>
<polygon class="st1" points="462.7,379.2 461.3,378.7 460.1,379.6 460.1,378.2 458.9,377.3 460.3,376.9 460.8,375.5 461.6,376.7 
	463.1,376.6 462.2,377.8 "/>
<polygon class="st1" points="477.7,445.2 476.3,444.7 475.1,445.6 475.1,444.2 473.9,443.3 475.3,442.9 475.8,441.5 476.6,442.7 
	478.1,442.6 477.2,443.8 "/>
<polygon class="st1" points="403.7,451.2 402.3,450.7 401.1,451.6 401.1,450.2 399.9,449.3 401.3,448.9 401.8,447.5 402.6,448.7 
	404.1,448.6 403.2,449.8 "/>
<polygon class="st1" points="313.7,437.2 312.3,436.7 311.1,437.6 311.1,436.2 309.9,435.3 311.3,434.9 311.8,433.5 312.6,434.7 
	314.1,434.6 313.2,435.8 "/>
<polygon class="st1" points="447.7,536.2 446.3,535.7 445.1,536.6 445.1,535.2 443.9,534.3 445.3,533.9 445.8,532.5 446.6,533.7 
	448.1,533.6 447.2,534.8 "/>
<polygon class="st1" points="508.7,545.2 507.3,544.7 506.1,545.6 506.1,544.2 504.9,543.3 506.3,542.9 506.8,541.5 507.6,542.7 
	509.1,542.6 508.2,543.8 "/>
<polygon class="st1" points="564.7,485.2 563.3,484.7 562.1,485.6 562.1,484.2 560.9,483.3 562.3,482.9 562.8,481.5 563.6,482.7 
	565.1,482.6 564.2,483.8 "/>
<polygon class="st1" points="476.7,484.2 475.3,483.7 474.1,484.6 474.1,483.2 472.9,482.3 474.3,481.9 474.8,480.5 475.6,481.7 
	477.1,481.6 476.2,482.8 "/>
<polygon class="st1" points="328.7,475.2 327.3,474.7 326.1,475.6 326.1,474.2 324.9,473.3 326.3,472.9 326.8,471.5 327.6,472.7 
	329.1,472.6 328.2,473.8 "/>
<polygon class="st1" points="288.7,564.2 287.3,563.7 286.1,564.6 286.1,563.2 284.9,562.3 286.3,561.9 286.8,560.5 287.6,561.7 
	289.1,561.6 288.2,562.8 "/>
<polygon class="st1" points="147.7,540.2 146.3,539.7 145.1,540.6 145.1,539.2 143.9,538.3 145.3,537.9 145.8,536.5 146.6,537.7 
	148.1,537.6 147.2,538.8 "/>
<polygon class="st1" points="63.7,487.2 62.3,486.7 61.1,487.6 61.1,486.2 59.9,485.3 61.3,484.9 61.8,483.5 62.6,484.7 64.1,484.6 
	63.2,485.8 "/>
<polygon class="st1" points="211.7,487.2 210.3,486.7 209.1,487.6 209.1,486.2 207.9,485.3 209.3,484.9 209.8,483.5 210.6,484.7 
	212.1,484.6 211.2,485.8 "/>
<polygon class="st1" points="279.7,496.2 278.3,495.7 277.1,496.6 277.1,495.2 275.9,494.3 277.3,493.9 277.8,492.5 278.6,493.7 
	280.1,493.6 279.2,494.8 "/>
<polygon class="st1" points="354.7,515.2 353.3,514.7 352.1,515.6 352.1,514.2 350.9,513.3 352.3,512.9 352.8,511.5 353.6,512.7 
	355.1,512.6 354.2,513.8 "/>
<polygon class="st1" points="424.7,575.2 423.3,574.7 422.1,575.6 422.1,574.2 420.9,573.3 422.3,572.9 422.8,571.5 423.6,572.7 
	425.1,572.6 424.2,573.8 "/>
<polygon class="st1" points="395.7,638.2 394.3,637.7 393.1,638.6 393.1,637.2 391.9,636.3 393.3,635.9 393.8,634.5 394.6,635.7 
	396.1,635.6 395.2,636.8 "/>
<polygon class="st1" points="216.7,564.2 215.3,563.7 214.1,564.6 214.1,563.2 212.9,562.3 214.3,561.9 214.8,560.5 215.6,561.7 
	217.1,561.6 216.2,562.8 "/>
<polygon class="st1" points="140.7,599.2 139.3,598.7 138.1,599.6 138.1,598.2 136.9,597.3 138.3,596.9 138.8,595.5 139.6,596.7 
	141.1,596.6 140.2,597.8 "/>
<polygon class="st1" points="52.7,635.2 51.3,634.7 50.1,635.6 50.1,634.2 48.9,633.3 50.3,632.9 50.8,631.5 51.6,632.7 53.1,632.6 
	52.2,633.8 "/>
<polygon class="st1" points="52.7,580.2 51.3,579.7 50.1,580.6 50.1,579.2 48.9,578.3 50.3,577.9 50.8,576.5 51.6,577.7 53.1,577.6 
	52.2,578.8 "/>
<polygon class="st1" points="80.7,547.2 79.3,546.7 78.1,547.6 78.1,546.2 76.9,545.3 78.3,544.9 78.8,543.5 79.6,544.7 81.1,544.6 
	80.2,545.8 "/>
<polygon class="st1" points="195.7,620.2 194.3,619.7 193.1,620.6 193.1,619.2 191.9,618.3 193.3,617.9 193.8,616.5 194.6,617.7 
	196.1,617.6 195.2,618.8 "/>
<polygon class="st1" points="301.7,617.2 300.3,616.7 299.1,617.6 299.1,616.2 297.9,615.3 299.3,614.9 299.8,613.5 300.6,614.7 
	302.1,614.6 301.2,615.8 "/>
<polygon class="st1" points="271.7,666.2 270.3,665.7 269.1,666.6 269.1,665.2 267.9,664.3 269.3,663.9 269.8,662.5 270.6,663.7 
	272.1,663.6 271.2,664.8 "/>
<polygon class="st1" points="360.7,588.2 359.3,587.7 358.1,588.6 358.1,587.2 356.9,586.3 358.3,585.9 358.8,584.5 359.6,585.7 
	361.1,585.6 360.2,586.8 "/>
<polygon class="st1" points="454.7,641.2 453.3,640.7 452.1,641.6 452.1,640.2 450.9,639.3 452.3,638.9 452.8,637.5 453.6,638.7 
	455.1,638.6 454.2,639.8 "/>
<polygon class="st1" points="542.7,655.2 541.3,654.7 540.1,655.6 540.1,654.2 538.9,653.3 540.3,652.9 540.8,651.5 541.6,652.7 
	543.1,652.6 542.2,653.8 "/>
<polygon class="st1" points="461.7,698.2 460.3,697.7 459.1,698.6 459.1,697.2 457.9,696.3 459.3,695.9 459.8,694.5 460.6,695.7 
	462.1,695.6 461.2,696.8 "/>
<polygon class="st1" points="393.7,699.2 392.3,698.7 391.1,699.6 391.1,698.2 389.9,697.3 391.3,696.9 391.8,695.5 392.6,696.7 
	394.1,696.6 393.2,697.8 "/>
<polygon class="st1" points="280.7,725.2 279.3,724.7 278.1,725.6 278.1,724.2 276.9,723.3 278.3,722.9 278.8,721.5 279.6,722.7 
	281.1,722.6 280.2,723.8 "/>
<polygon class="st1" points="311.7,701.2 310.3,700.7 309.1,701.6 309.1,700.2 307.9,699.3 309.3,698.9 309.8,697.5 310.6,698.7 
	312.1,698.6 311.2,699.8 "/>
<polygon class="st1" points="197.7,682.2 196.3,681.7 195.1,682.6 195.1,681.2 193.9,680.3 195.3,679.9 195.8,678.5 196.6,679.7 
	198.1,679.6 197.2,680.8 "/>
<polygon class="st1" points="154.7,663.2 153.3,662.7 152.1,663.6 152.1,662.2 150.9,661.3 152.3,660.9 152.8,659.5 153.6,660.7 
	155.1,660.6 154.2,661.8 "/>
<polygon class="st1" points="73.7,675.2 72.3,674.7 71.1,675.6 71.1,674.2 69.9,673.3 71.3,672.9 71.8,671.5 72.6,672.7 74.1,672.6 
	73.2,673.8 "/>
<polygon class="st1" points="132.7,752.2 131.3,751.7 130.1,752.6 130.1,751.2 128.9,750.3 130.3,749.9 130.8,748.5 131.6,749.7 
	133.1,749.6 132.2,750.8 "/>
<polygon class="st1" points="56.7,815.2 55.3,814.7 54.1,815.6 54.1,814.2 52.9,813.3 54.3,812.9 54.8,811.5 55.6,812.7 57.1,812.6 
	56.2,813.8 "/>
<polygon class="st1" points="7.7,747.2 6.3,746.7 5.1,747.6 5.1,746.2 3.9,745.3 5.3,744.9 5.8,743.5 6.6,744.7 8.1,744.6 
	7.2,745.8 "/>
<polygon class="st1" points="76.7,744.2 75.3,743.7 74.1,744.6 74.1,743.2 72.9,742.3 74.3,741.9 74.8,740.5 75.6,741.7 77.1,741.6 
	76.2,742.8 "/>
<polygon class="st1" points="218.7,794.2 217.3,793.7 216.1,794.6 216.1,793.2 214.9,792.3 216.3,791.9 216.8,790.5 217.6,791.7 
	219.1,791.6 218.2,792.8 "/>
<polygon class="st1" points="326.7,761.2 325.3,760.7 324.1,761.6 324.1,760.2 322.9,759.3 324.3,758.9 324.8,757.5 325.6,758.7 
	327.1,758.6 326.2,759.8 "/>
<polygon class="st1" points="455.7,781.2 454.3,780.7 453.1,781.6 453.1,780.2 451.9,779.3 453.3,778.9 453.8,777.5 454.6,778.7 
	456.1,778.6 455.2,779.8 "/>
<polygon class="st1" points="562.7,741.2 561.3,740.7 560.1,741.6 560.1,740.2 558.9,739.3 560.3,738.9 560.8,737.5 561.6,738.7 
	563.1,738.6 562.2,739.8 "/>
<polygon class="st1" points="480.7,742.2 479.3,741.7 478.1,742.6 478.1,741.2 476.9,740.3 478.3,739.9 478.8,738.5 479.6,739.7 
	481.1,739.6 480.2,740.8 "/>
<polygon class="st1" points="394.7,769.2 393.3,768.7 392.1,769.6 392.1,768.2 390.9,767.3 392.3,766.9 392.8,765.5 393.6,766.7 
	395.1,766.6 394.2,767.8 "/>
<polygon class="st1" points="488.7,816.2 487.3,815.7 486.1,816.6 486.1,815.2 484.9,814.3 486.3,813.9 486.8,812.5 487.6,813.7 
	489.1,813.6 488.2,814.8 "/>
<polygon class="st1" points="355.7,819.2 354.3,818.7 353.1,819.6 353.1,818.2 351.9,817.3 353.3,816.9 353.8,815.5 354.6,816.7 
	356.1,816.6 355.2,817.8 "/>
<polygon class="st1" points="179.7,782.2 178.3,781.7 177.1,782.6 177.1,781.2 175.9,780.3 177.3,779.9 177.8,778.5 178.6,779.7 
	180.1,779.6 179.2,780.8 "/>
<polygon class="st1" points="176.7,730.2 175.3,729.7 174.1,730.6 174.1,729.2 172.9,728.3 174.3,727.9 174.8,726.5 175.6,727.7 
	177.1,727.6 176.2,728.8 "/>
<polygon class="st1" points="476.7,614.2 475.3,613.7 474.1,614.6 474.1,613.2 472.9,612.3 474.3,611.9 474.8,610.5 475.6,611.7 
	477.1,611.6 476.2,612.8 "/>
<polygon class="st1" points="545.7,611.2 544.3,610.7 543.1,611.6 543.1,610.2 541.9,609.3 543.3,608.9 543.8,607.5 544.6,608.7 
	546.1,608.6 545.2,609.8 "/>
<polygon class="st1" points="259.7,811.2 258.3,810.7 257.1,811.6 257.1,810.2 255.9,809.3 257.3,808.9 257.8,807.5 258.6,808.7 
	260.1,808.6 259.2,809.8 "/>
</svg>
