<?xml version="1.0" encoding="utf-8"?>
<!-- Generator: Adobe Illustrator 23.0.3, SVG Export Plug-In . SVG Version: 6.00 Build 0)  -->
<svg version="1.1" id="Capa_1" xmlns="http://www.w3.org/2000/svg" xmlns:xlink="http://www.w3.org/1999/xlink" x="0px" y="0px"
	 viewBox="0 0 841.9 595.3" style="enable-background:new 0 0 841.9 595.3;" xml:space="preserve">
<style type="text/css">
	.st0{fill:#F2E7C2;}
	.st1{fill:none;}
	.st2{display:none;fill:#E99D2C;}
	.st3{fill:#F2E6C4;}
	.st4{font-family:'moonhouse';}
	.st5{font-size:50px;}
	.st6{fill:#0C0C3A;}
	.st7{font-size:46.0654px;}
	.st8{fill:#DB3A2E;}
	.st9{fill:#606060;}
	.st10{fill:#58AF92;}
	.st11{fill:#7AC4A6;}
	.st12{fill:#F09C21;}
	.st13{fill:#84C39F;}
</style>
<rect y="0" class="st0" width="841.9" height="600.3"/>
<image style="overflow:visible;" width="563" height="479" xlink:href="A9B0428EB87F2C1F.jpg"  transform="matrix(0.4501 0 0 0.4501 577 6.5973)">
</image>
<rect x="302" y="447.3" class="st1" width="617.9" height="489.3"/>
<polygon class="st2" points="119,332 229.5,377.4 340,425.3 119,507.3 "/>
<g>
	<text transform="matrix(1 0 0 1 127 436.28)" class="st3 st4 st5">PLAY</text>
</g>
<text transform="matrix(1 0 0 1 32.0146 92.155)" class="st6 st4 st7">Maths</text>
<text transform="matrix(1 0 0 1 32.0146 126.445)" class="st8 st4 st7">Attacks</text>
<g>
	<rect x="16.1" y="268.5" class="st9" width="251.8" height="120.6"/>
	<rect x="20.6" y="273.8" class="st10" width="242.8" height="110.8"/>
	<rect x="25.9" y="277.5" class="st11" width="231.5" height="103.3"/>
	<rect x="35.7" y="287.3" class="st3" width="211.1" height="85.2"/>
</g>
<g>
	<path class="st12" d="M803.2,423.2c0,46-37.3,5.4-83.3,5.4s-83.3,40.6-83.3-5.4S673.8,262,719.9,262S803.2,377.2,803.2,423.2z"/>
	<path class="st3" d="M791.5,422.8c0,39.8-32.2,72-72,72s-72-32.2-72-72s32.2-149.9,72-149.9S791.5,383,791.5,422.8z"/>
	<path class="st13" d="M785.6,423.3c0,36.4-29.5,65.9-65.9,65.9c-36.4,0-65.9-29.5-65.9-65.9s29.5-143.8,65.9-143.8
		C756.1,279.5,785.6,386.9,785.6,423.3z"/>
</g>
</svg>
