<?xml version="1.0" encoding="utf-8"?>
<!-- Generator: Adobe Illustrator 23.0.3, SVG Export Plug-In . SVG Version: 6.00 Build 0)  -->
<svg version="1.1" id="Capa_1" xmlns="http://www.w3.org/2000/svg" xmlns:xlink="http://www.w3.org/1999/xlink" x="0px" y="0px"
	 viewBox="0 0 214 228" style="enable-background:new 0 0 214 228;" xml:space="preserve">
<style type="text/css">
	.st0{display:none;fill:#F2E7C2;}
	.st1{display:none;fill:none;}
	.st2{display:none;fill:#E99D2C;}
	.st3{display:none;}
	.st4{display:none;fill:#606060;}
	.st5{display:none;fill:#58AF92;}
	.st6{display:none;fill:#7AC4A6;}
	.st7{display:none;fill:#F2E6C4;}
	.st8{fill:#F09C21;}
	.st9{fill:#449A86;}
	.st10{fill:#84C39F;}
	.st11{fill:#F2E7C0;enable-background:new    ;}
	.st12{font-family:'moonhouse';}
	.st13{font-size:41px;}
</style>
<rect x="-618" y="-299.8" class="st0" width="841.9" height="600.3"/>
<image style="display:none;overflow:visible;enable-background:new    ;" width="565" height="480" xlink:href="231CE24537C0AE87.jpeg"  transform="matrix(0.5236 0 0 0.5236 -48.9069 -307.8466)">
</image>
<text transform="matrix(1 0 0 1 -591.9854 -222.2129)" class="st12" style="display:none;fill:#0C0C3A;enable-background:new    ; font-size:56.2214px;">Maths</text>
<text transform="matrix(1 0 0 1 -591.9854 -180.3629)" class="st12" style="display:none;fill:#DB3A2E;enable-background:new    ; font-size:56.2214px;">Attacks</text>
<rect x="-316" y="150" class="st1" width="617.9" height="489.3"/>
<polygon class="st2" points="-499,34.8 -388.5,80.1 -278,128 -499,210 "/>
<g class="st3">
	<text transform="matrix(1 0 0 1 -491 139)" class="st12" style="display:inline;fill:#F2E6C4; font-size:50px;">PLAY</text>
</g>
<rect x="-605" y="-58" class="st4" width="334" height="160"/>
<rect x="-599" y="-51" class="st5" width="322" height="147"/>
<rect x="-592" y="-46" class="st6" width="307" height="137"/>
<rect x="-579" y="-33" class="st7" width="280" height="113"/>
<g>
	<path class="st8" d="M204,132.5c0,54.9,13.9,85.5-41,85.5S5,187.5,5,132.5S16.3-13.7,104.5,0C158.8,8.5,204,77.6,204,132.5z"/>
	<path class="st9" d="M190,132c0,47.5-38.9,79.7-86,86c-75,10-86-38.5-86-86S57.2,20.8,104,13C234-8.7,190,84.5,190,132z"/>
	<path class="st10" d="M183,132.6c0,43.4-35.2,78.7-78.7,78.7S-9,237.3,25.7,132.6C39.3,91.3,60.9,20.9,104.3,20.9
		S183,89.1,183,132.6z"/>
</g>
<text transform="matrix(1 0 0 1 20 190.2813)" class="st11 st12 st13">Score</text>
</svg>
