<?xml version="1.0" encoding="utf-8"?>
<!-- Generator: Adobe Illustrator 23.0.3, SVG Export Plug-In . SVG Version: 6.00 Build 0)  -->
<svg version="1.1" id="Capa_1" xmlns="http://www.w3.org/2000/svg" xmlns:xlink="http://www.w3.org/1999/xlink" x="0px" y="0px"
	 viewBox="0 0 420.9 335.3" style="enable-background:new 0 0 420.9 335.3;" xml:space="preserve">
<style type="text/css">
	.st0{display:none;fill:#F3E8C0;}
	.st1{display:none;}
	.st2{display:inline;fill:#141227;}
	.st3{display:inline;fill:#EBA623;}
	.st4{display:inline;fill:#EC6427;}
	.st5{display:inline;fill:#DC3A29;}
	.st6{display:none;fill:#F09F28;}
	.st7{fill:#409B8B;}
	.st8{display:none;fill:#77C3A5;}
	.st9{fill:#F09F28;}
	.st10{fill:#76C2A7;}
	.st11{fill:#F2E7C4;}
	.st12{font-family:'moonhouse';}
	.st13{font-size:24px;}
	.st14{fill:#F3E8C0;}
</style>
<rect x="450" y="-261.3" class="st0" width="841.9" height="595.3"/>
<image style="display:none;overflow:visible;enable-background:new    ;" width="564" height="480" xlink:href="6996582C8A6C6CD9.jpeg"  transform="matrix(0.4492 0 0 0.4492 575.2118 -165.8206)">
</image>
<g class="st1">
	<ellipse class="st2" cx="159.1" cy="-97.4" rx="137.2" ry="86.8"/>
	<ellipse class="st3" cx="159.1" cy="-97.4" rx="126.7" ry="80.2"/>
	<ellipse class="st4" cx="160" cy="-97.2" rx="119.8" ry="75.8"/>
	<ellipse class="st5" cx="159.9" cy="-97.4" rx="114.7" ry="72.6"/>
	<text transform="matrix(1 0 0 1 90.0905 -124.6556)" class="st12" style="display:inline;fill:#F2E7C4; font-size:36px;">LEVEL</text>
</g>
<rect y="121.6" class="st6" width="374.7" height="53.4"/>
<ellipse class="st6" cx="380.2" cy="148.3" rx="35.3" ry="26.7"/>
<polyline class="st7" points="-118.1,140.5 365.4,140.5 365.4,209.5 -118.1,209.5 "/>
<path class="st7" d="M415.1,175c0,19-20.4,34.5-45.6,34.5S323.9,194,323.9,175s20.4-34.5,45.6-34.5S415.1,156,415.1,175"/>
<polyline class="st8" points="0,281.9 374.7,281.9 374.7,335.3 0,335.3 "/>
<path class="st8" d="M415.5,308.6c0,14.8-15.8,26.7-35.3,26.7s-35.3-12-35.3-26.7s15.8-26.7,35.3-26.7
	C399.7,281.9,415.5,293.9,415.5,308.6"/>
<polyline class="st9" points="-118.1,22.2 365.4,22.2 365.4,91.2 -118.1,91.2 "/>
<path class="st9" d="M415.1,56.7c0,19-20.4,34.5-45.6,34.5s-45.6-15.4-45.6-34.5s20.4-34.5,45.6-34.5S415.1,37.7,415.1,56.7"/>
<polyline class="st10" points="-113.1,256.7 370.4,256.7 370.4,325.7 -113.1,325.7 "/>
<path class="st10" d="M420.1,291.2c0,19-20.4,34.5-45.6,34.5s-45.6-15.4-45.6-34.5s20.4-34.5,45.6-34.5S420.1,272.2,420.1,291.2"/>
<text transform="matrix(1 0 0 1 7.68 49.7823)" class="st11 st12 st13">RESUELVE LA OPERACIÓN</text>
<text transform="matrix(1 0 0 1 126.82 75.7823)" class="st11 st12 st13">5 PUNTOS</text>
<text transform="matrix(1 0 0 1 7.3184 167.6724)" class="st11 st12 st13">ELIMINA LOS MARCIANITOS</text>
<text transform="matrix(1 0 0 1 142.5784 193.6724)" class="st11 st12 st13">1 PUNTO</text>
<text transform="matrix(1 0 0 1 13.6444 286.0345)" class="st14 st12 st13">SI FALLAS LA OPERACIÓN</text>
<text transform="matrix(1 0 0 1 138.4144 316.0345)" class="st14 st12 st13">-1 PUNTO</text>
</svg>
