<?xml version="1.0" encoding="utf-8"?>
<!-- Generator: Adobe Illustrator 23.0.3, SVG Export Plug-In . SVG Version: 6.00 Build 0)  -->
<svg version="1.1" id="Capa_1" xmlns="http://www.w3.org/2000/svg" xmlns:xlink="http://www.w3.org/1999/xlink" x="0px" y="0px"
	 viewBox="0 0 420.9 335.3" style="enable-background:new 0 0 420.9 335.3;" xml:space="preserve">
<style type="text/css">
	.st0{display:none;fill:#F3E8C0;}
	.st1{display:none;}
	.st2{display:inline;fill:#141227;}
	.st3{display:inline;fill:#EBA623;}
	.st4{display:inline;fill:#EC6427;}
	.st5{display:inline;fill:#DC3A29;}
	.st6{display:none;fill:#F09F28;}
	.st7{display:none;fill:#409B8B;}
	.st8{display:none;fill:#77C3A5;}
	.st9{fill:#F09F28;}
	.st10{display:none;fill:#76C2A7;}
	.st11{fill:#69BD9D;enable-background:new    ;}
	.st12{fill:#EB6528;enable-background:new    ;}
	.st13{fill:#F2E7C4;}
	.st14{font-family:'moonhouse';}
	.st15{font-size:28px;}
	.st16{fill:#F2E7C1;}
	.st17{enable-background:new    ;}
	.st18{fill:#F2E8BF;}
</style>
<rect x="450" y="-261.3" class="st0" width="841.9" height="595.3"/>
<image style="display:none;overflow:visible;enable-background:new    ;" width="564" height="480" xlink:href="3EE9E13C5571DC33.jpeg"  transform="matrix(0.4492 0 0 0.4492 575.2118 -165.8206)">
</image>
<g class="st1">
	<ellipse class="st2" cx="159.1" cy="-97.4" rx="137.2" ry="86.8"/>
	<ellipse class="st3" cx="159.1" cy="-97.4" rx="126.7" ry="80.2"/>
	<ellipse class="st4" cx="160" cy="-97.2" rx="119.8" ry="75.8"/>
	<ellipse class="st5" cx="159.9" cy="-97.4" rx="114.7" ry="72.6"/>
	<text transform="matrix(1 0 0 1 90.0905 -124.6556)" class="st14" style="display:inline;fill:#F2E7C4; font-size:36px;">LEVEL</text>
</g>
<rect y="121.6" class="st6" width="374.7" height="53.4"/>
<ellipse class="st6" cx="380.2" cy="148.3" rx="35.3" ry="26.7"/>
<polyline class="st7" points="-118.1,140.5 365.4,140.5 365.4,209.5 -118.1,209.5 "/>
<path class="st7" d="M415.1,175c0,19-20.4,34.5-45.6,34.5S323.9,194,323.9,175s20.4-34.5,45.6-34.5S415.1,156,415.1,175"/>
<polyline class="st8" points="0,281.9 374.7,281.9 374.7,335.3 0,335.3 "/>
<path class="st8" d="M415.5,308.6c0,14.8-15.8,26.7-35.3,26.7s-35.3-12-35.3-26.7s15.8-26.7,35.3-26.7
	C399.7,281.9,415.5,293.9,415.5,308.6"/>
<polyline class="st9" points="40.9,22.2 524.4,22.2 524.4,91.2 40.9,91.2 "/>
<path class="st9" d="M92.5,56.7c0,19-20.4,34.5-45.6,34.5S1.3,75.8,1.3,56.7s20.4-34.5,45.6-34.5S92.5,37.7,92.5,56.7"/>
<polyline class="st10" points="-113.1,256.7 370.4,256.7 370.4,325.7 -113.1,325.7 "/>
<path class="st10" d="M420.1,291.2c0,19-20.4,34.5-45.6,34.5s-45.6-15.4-45.6-34.5s20.4-34.5,45.6-34.5S420.1,272.2,420.1,291.2"/>
<polyline class="st11" points="39.6,141.2 523,141.2 523,210.2 39.6,210.2 "/>
<path class="st11" d="M91.2,175.7c0,19-20.4,34.5-45.6,34.5S0,194.8,0,175.7s20.4-34.5,45.6-34.5S91.2,156.7,91.2,175.7"/>
<polyline class="st12" points="40.9,255.3 524.4,255.3 524.4,324.2 40.9,324.2 "/>
<path class="st12" d="M92.5,289.7c0,19-20.4,34.5-45.6,34.5S1.3,308.8,1.3,289.7s20.4-34.5,45.6-34.5S92.5,270.7,92.5,289.7"/>
<text transform="matrix(1 0 0 1 8.65 64.7824)" class="st13 st14 st15">IR A LA IZQUIERDA</text>
<g>
	<g>
		<path class="st16" d="M411.2,52.2l0.1,0h-56.2l17.7-14.3c0.9-0.7,1.3-1.6,1.3-2.6s-0.5-1.9-1.3-2.6l-2.7-2.2
			c-0.9-0.7-2-1.1-3.2-1.1c-1.2,0-2.4,0.4-3.2,1.1l-30.3,24.5c-0.9,0.7-1.3,1.6-1.3,2.6c0,1,0.5,1.9,1.3,2.6l30.3,24.5
			c0.9,0.7,2,1.1,3.2,1.1c1.2,0,2.4-0.4,3.2-1.1l2.7-2.2c0.9-0.7,1.3-1.6,1.3-2.6c0-1-0.5-1.9-1.3-2.6L355,62.9h56.3
			c2.5,0,4.7-1.8,4.7-3.8v-3.2C416,53.8,413.8,52.2,411.2,52.2z"/>
	</g>
</g>
<text transform="matrix(1 0 0 1 11.65 185.6725)" class="st13 st14 st15">IR A LA DERECHA</text>
<g>
	<g>
		<path class="st16" d="M414.6,174.4l-29.6-29.6c-0.8-0.8-2-1.3-3.2-1.3c-1.2,0-2.3,0.5-3.2,1.3l-2.7,2.7c-0.8,0.8-1.3,2-1.3,3.2
			c0,1.2,0.5,2.4,1.3,3.2l17.3,17.3h-54.8c-2.5,0-4.4,1.9-4.4,4.4v3.8c0,2.5,2,4.6,4.4,4.6h55L376,201.4c-0.8,0.8-1.3,1.9-1.3,3.1
			c0,1.2,0.5,2.3,1.3,3.2l2.7,2.7c0.8,0.8,2,1.3,3.2,1.3c1.2,0,2.3-0.5,3.2-1.3l29.6-29.6c0.8-0.8,1.3-2,1.3-3.2
			C416,176.4,415.5,175.3,414.6,174.4z"/>
	</g>
</g>
<text transform="matrix(1 0 0 1 12.6445 296.0346)" class="st13 st14 st15">PARA DISPARAR</text>
<g class="st17">
	<g>
		<path class="st18" d="M396.5,281.4L372,256.8c-0.7-0.7-1.6-1.1-2.7-1.1c-1,0-1.9,0.4-2.6,1.1l-24.6,24.6c-1.5,1.5-1.5,3.8,0,5.3
			l2.2,2.2c0.7,0.7,1.6,1.1,2.6,1.1c1,0,2-0.4,2.7-1.1l14.4-14.3V320c0,2.1,1.6,3.7,3.7,3.7h3.2c2.1,0,3.8-1.7,3.8-3.7v-45.7
			l14.4,14.5c0.7,0.7,1.6,1.1,2.6,1.1s1.9-0.4,2.6-1.1l2.2-2.2C398,285.2,398,282.8,396.5,281.4z"/>
	</g>
</g>
</svg>
