<?xml version="1.0" encoding="utf-8"?>
<!-- Generator: Adobe Illustrator 23.0.3, SVG Export Plug-In . SVG Version: 6.00 Build 0)  -->
<svg version="1.1" id="Capa_1" xmlns="http://www.w3.org/2000/svg" xmlns:xlink="http://www.w3.org/1999/xlink" x="0px" y="0px"
	 viewBox="0 0 288 191.7" style="enable-background:new 0 0 288 191.7;" xml:space="preserve">
<style type="text/css">
	.st0{display:none;fill:#F3E8C0;}
	.st1{fill:#EB6528;}
	.st2{fill:#EBA623;}
	.st3{fill:#F2E7C1;}
	.st4{fill:#7CC4A7;}
	.st5{fill:#F2E7C4;}
	.st6{font-family:'moonhouse';}
	.st7{font-size:36px;}
	.st8{display:none;}
	.st9{display:inline;fill:#78C3A5;}
	.st10{display:inline;fill:#F2E6C6;}
	.st11{display:none;fill:#ED7D21;}
	.st12{display:none;fill:#F1E6C0;enable-background:new    ;}
	.st13{font-size:60px;}
	.st14{display:none;fill:#78C3A6;}
	.st15{display:inline;fill:#F2E6C4;}
	.st16{font-size:44px;}
</style>
<rect x="-110.1" y="-321.1" class="st0" width="841.9" height="595.3"/>
<image style="display:none;overflow:visible;enable-background:new    ;" width="567" height="482" xlink:href="1B5E4C74ADCCDEA6.jpeg"  transform="matrix(0.4468 0 0 0.4468 475.1234 -250.9779)">
</image>
<ellipse class="st1" cx="144.8" cy="96.1" rx="137.2" ry="86.8"/>
<ellipse class="st2" cx="144.8" cy="96.1" rx="126.7" ry="80.2"/>
<ellipse class="st3" cx="145.8" cy="96.3" rx="119.8" ry="75.8"/>
<ellipse class="st4" cx="145.6" cy="96.1" rx="114.7" ry="72.6"/>
<text transform="matrix(1 0 0 1 79.8632 59.8556)" class="st5 st6 st7">LEVEL</text>
<g class="st8">
	<rect x="-14.2" y="-35.9" class="st9" width="445" height="93.2"/>
	<ellipse class="st9" cx="433" cy="10.7" rx="36.1" ry="46.6"/>
	<ellipse class="st9" cx="-9.4" cy="10.7" rx="36.1" ry="46.6"/>
</g>
<g class="st8">
	<rect x="-13.1" y="-28.6" class="st10" width="440.9" height="92.4"/>
	<ellipse class="st10" cx="430" cy="17.6" rx="35.8" ry="46.2"/>
	<ellipse class="st10" cx="-8.3" cy="17.6" rx="35.8" ry="46.2"/>
</g>
<rect x="-3.4" y="-22" class="st11" width="424.9" height="85.3"/>
<ellipse class="st11" cx="423.6" cy="20.7" rx="34.5" ry="42.7"/>
<ellipse class="st11" cx="1.2" cy="20.7" rx="34.5" ry="42.7"/>
<text transform="matrix(1 0 0 1 18.583 36.7871)" class="st12 st6 st13">YOU LOST</text>
<polygon class="st14" points="132.2,63.4 225.7,101.7 319.3,142.1 132.2,211.3 "/>
<g class="st8">
	<text transform="matrix(1 0 0 1 139.4127 153.4674)" class="st15 st6 st16">PLAY</text>
</g>
</svg>
