<?xml version="1.0" encoding="utf-8"?>
<!-- Generator: Adobe Illustrator 23.0.3, SVG Export Plug-In . SVG Version: 6.00 Build 0)  -->
<svg version="1.1" id="Capa_1" xmlns="http://www.w3.org/2000/svg" xmlns:xlink="http://www.w3.org/1999/xlink" x="0px" y="0px"
	 viewBox="0 0 275 90.5" style="enable-background:new 0 0 275 90.5;" xml:space="preserve">
<style type="text/css">
	.st0{display:none;fill:#F2E7C2;}
	.st1{fill:#0C0C3A;}
	.st2{font-family:'moonhouse';}
	.st3{font-size:56.2214px;}
	.st4{fill:#EE6329;enable-background:new    ;}
	.st5{display:none;fill:none;}
	.st6{display:none;fill:#E99D2C;}
	.st7{display:none;}
	.st8{display:none;fill:#606060;}
	.st9{display:none;fill:#58AF92;}
	.st10{display:none;fill:#7AC4A6;}
	.st11{display:none;fill:#F2E6C4;}
	.st12{display:inline;fill:#F09C21;}
	.st13{display:inline;fill:#F2E6C4;}
	.st14{display:inline;fill:#84C39F;}
</style>
<rect x="-19" y="-36.8" class="st0" width="841.9" height="600.3"/>
<image style="display:none;overflow:visible;enable-background:new    ;" width="563" height="478" xlink:href="E63ED869EC9D83BF.jpg"  transform="matrix(0.5258 0 0 0.5258 275 -35.1662)">
</image>
<text transform="matrix(1 0 0 1 7.0146 40.7871)" class="st1 st2 st3">Maths</text>
<text transform="matrix(1 0 0 1 7.0146 82.6371)" class="st4 st2 st3">Attacks</text>
<rect x="283" y="413" class="st5" width="617.9" height="489.3"/>
<polygon class="st6" points="100,297.8 210.5,343.1 321,391 100,473 "/>
<g class="st7">
	<text transform="matrix(1 0 0 1 108 402)" class="st13 st2" style="font-size:50px;">PLAY</text>
</g>
<rect x="-6" y="205" class="st8" width="334" height="160"/>
<rect y="212" class="st9" width="322" height="147"/>
<rect x="7" y="217" class="st10" width="307" height="137"/>
<rect x="20" y="230" class="st11" width="280" height="113"/>
<g class="st7">
	<path class="st12" d="M803,395.5c0,55-44.5,6.5-99.5,6.5s-99.5,48.5-99.5-6.5S648.5,203,703.5,203S803,340.5,803,395.5z"/>
	<path class="st13" d="M789,395c0,47.5-38.5,86-86,86s-86-38.5-86-86s38.5-179,86-179S789,347.5,789,395z"/>
	<path class="st14" d="M782,395.5c0,43.4-35.2,78.7-78.7,78.7s-78.7-35.2-78.7-78.7s35.2-171.7,78.7-171.7S782,352.1,782,395.5z"/>
</g>
</svg>
