<?xml version="1.0" encoding="utf-8"?>
<!-- Generator: Adobe Illustrator 23.0.3, SVG Export Plug-In . SVG Version: 6.00 Build 0)  -->
<svg version="1.1" id="Capa_1" xmlns="http://www.w3.org/2000/svg" xmlns:xlink="http://www.w3.org/1999/xlink" x="0px" y="0px"
	 viewBox="0 0 163 159" style="enable-background:new 0 0 163 159;" xml:space="preserve">
<style type="text/css">
	.st0{display:none;}
	.st1{display:inline;}
	.st2{fill:#77C6A7;}
	.st3{fill:#E99D2C;}
	.st4{fill:#F2E7C2;}
	.st5{fill:#79C6A6;}
	.st6{fill:#FF4F19;}
	.st7{fill:#F8E7CD;}
	.st8{fill:#419B8A;}
	.st9{display:none;fill:#040424;}
</style>
<image style="overflow:visible;enable-background:new    ;" width="564" height="479" xlink:href="1A885FDA9D3774DD.jpeg"  transform="matrix(0.477 0 0 0.477 -54 -31.031)">
</image>
<g class="st0">
	<g class="st1">
		<g>
			<g>
				<path class="st2" d="M-25.8,285.2c0.4-3.4,2.8-6.2,6.1-7s6.8,0.6,8.6,3.5l49,76.6c7.4,11.6,11.3,24.9,11.3,38.7v85.4
					c0,3.4-2.1,6.4-5.3,7.5c-0.9,0.3-1.8,0.5-2.7,0.5c-2.3,0-4.6-1-6.2-2.9l-70.3-86c-1.3-1.6-2-3.8-1.8-5.9L-25.8,285.2z"/>
			</g>
		</g>
		<g>
			<g>
				<path class="st3" d="M-147.9,285.2c-0.4-3.4-2.8-6.2-6.1-7s-6.8,0.6-8.6,3.5l-49,76.6c-7.4,11.6-11.3,24.9-11.3,38.7v85.4
					c0,3.4,2.1,6.4,5.3,7.5c0.9,0.3,1.8,0.5,2.7,0.5c2.4,0,4.6-1,6.2-2.9l70.3-86c1.3-1.6,2-3.8,1.8-5.9L-147.9,285.2z"/>
			</g>
		</g>
		<g>
			<g>
				<path class="st4" d="M-82.7-20.5c-2.5-1.5-5.7-1.5-8.2,0c-3.4,2.1-83.9,51.6-83.9,158.9c0,43.3,10.8,158.6,25.1,268.1
					c2.1,15.9,15.7,27.9,31.7,27.9h62.5c16,0,29.6-12,31.7-27.9c14.3-109.5,25-224.8,25-268.1C1.2,31.1-79.3-18.4-82.7-20.5z"/>
			</g>
		</g>
		<g>
			<g>
				<path class="st4" d="M-86.8,434.4h-31.3c-16,0-29.6-12-31.7-27.9c-14.3-109.5-25.1-224.8-25.1-268.1
					c0-107.3,80.5-156.8,83.9-158.9c1.3-0.8,2.7-1.1,4.1-1.1l0,0L-86.8,434.4L-86.8,434.4z"/>
			</g>
		</g>
		<g>
			<g>
				<circle class="st5" cx="-86.8" cy="146.4" r="48"/>
			</g>
		</g>
		<g>
			<g>
				<path class="st6" d="M-86.8,490.4c-4.4,0-8-3.6-8-8v-192c0-4.4,3.6-8,8-8s8,3.6,8,8v192C-78.8,486.8-82.4,490.4-86.8,490.4z"/>
			</g>
		</g>
		<g>
			<g>
				<path class="st7" d="M-91-20.5c-2.3,1.4-39,24-63.1,70.9h134.4c-24-46.9-60.7-69.5-63-70.9C-85.2-22-88.4-22-91-20.5z"/>
			</g>
		</g>
		<g>
			<g>
				<path class="st7" d="M-86.8-21.6c-1.4,0-2.8,0.4-4.1,1.1c-2.3,1.4-39,24-63.1,70.9h67.2V-21.6z"/>
			</g>
		</g>
		<g>
			<g>
				<path class="st5" d="M-38.8,146.4c0-26.5-21.5-48-48-48v96C-60.3,194.4-38.8,172.9-38.8,146.4z"/>
			</g>
		</g>
	</g>
	<g class="st1">
		<g>
			<g>
				<path class="st8" d="M-86.8,202.4c-30.9,0-56-25.1-56-56s25.1-56,56-56s56,25.1,56,56S-56,202.4-86.8,202.4z M-86.8,106.4
					c-22.1,0-40,17.9-40,40s17.9,40,40,40s40-17.9,40-40S-64.8,106.4-86.8,106.4z"/>
			</g>
		</g>
	</g>
</g>
<rect x="-154" y="46.8" class="st9" width="132.4" height="3.6"/>
<rect x="-165.7" y="268" class="st9" width="157.3" height="4.3"/>
<image style="display:none;overflow:visible;enable-background:new    ;" width="564" height="480" xlink:href="1A885FDA9D3774DF.jpeg"  transform="matrix(0.4492 0 0 0.4492 -44.9606 -25.6827)">
</image>
</svg>
