<?xml version="1.0" encoding="utf-8"?>
<!-- Generator: Adobe Illustrator 23.0.3, SVG Export Plug-In . SVG Version: 6.00 Build 0)  -->
<svg version="1.1" id="Capa_1" xmlns="http://www.w3.org/2000/svg" xmlns:xlink="http://www.w3.org/1999/xlink" x="0px" y="0px"
	 viewBox="0 0 165 159" style="enable-background:new 0 0 165 159;" xml:space="preserve">
<style type="text/css">
	.st0{display:none;fill:#F2E7C2;}
	.st1{display:none;fill:none;}
	.st2{display:none;fill:#E99D2C;}
	.st3{display:none;}
	.st4{display:inline;fill:#606060;}
	.st5{display:inline;fill:#58AF92;}
	.st6{display:inline;fill:#7AC4A6;}
	.st7{display:inline;fill:#F2E6C4;}
	.st8{display:inline;fill:#F09C21;}
	.st9{display:inline;fill:#84C39F;}
</style>
<rect x="-570" y="-23.3" class="st0" width="841.9" height="600.3"/>
<image style="overflow:visible;" width="563" height="479" xlink:href="A48AA1654B74EF37.jpg"  transform="matrix(0.4501 0 0 0.4501 -42 -24.6827)">
</image>
<rect x="-268" y="424" class="st1" width="617.9" height="489.3"/>
<polygon class="st2" points="-451,308.8 -340.5,354.1 -230,402 -451,484 "/>
<g class="st3">
	<text transform="matrix(1 0 0 1 -443 413)" class="st7" style="font-family:'moonhouse'; font-size:50px;">PLAY</text>
</g>
<text transform="matrix(1 0 0 1 -537.9854 68.875)" style="fill:#0C0C3A; font-family:'moonhouse'; font-size:46.0654px;">Maths</text>
<text transform="matrix(1 0 0 1 -537.9854 103.165)" style="fill:#DB3A2E; font-family:'moonhouse'; font-size:46.0654px;">Attacks</text>
<g class="st3">
	<polygon class="st4" points="-561,229 -504,182 -315.4,223.6 -277,295.2 -303.4,394 -425.1,413 -554.8,387.1 	"/>
	<polygon class="st5" points="-549.4,250.5 -513,214 -348,229 -290,330.3 -549.4,361.3 	"/>
	<polygon class="st6" points="-544.1,254.3 -465,230 -294,249.6 -304.6,377 -343.3,389.3 -493,384 -546.3,364.9 	"/>
	<polygon class="st7" points="-534.3,264.1 -443,249.6 -323.2,264.1 -316,370 -517.4,361.1 	"/>
</g>
<g class="st3">
	<path class="st8" d="M233.2,400c0,46-37.3,5.4-83.3,5.4S66.5,446,66.5,400s37.3-161.2,83.3-161.2S233.2,353.9,233.2,400z"/>
	<path class="st7" d="M221.5,399.5c0,39.8-32.2,72-72,72s-72-32.2-72-72s32.2-149.9,72-149.9S221.5,359.8,221.5,399.5z"/>
	<path class="st9" d="M215.6,400c0,36.4-29.5,65.9-65.9,65.9S83.9,436.4,83.9,400s29.5-143.8,65.9-143.8S215.6,363.6,215.6,400z"/>
</g>
</svg>
