<?xml version="1.0" encoding="utf-8"?>
<!-- Generator: Adobe Illustrator 23.0.3, SVG Export Plug-In . SVG Version: 6.00 Build 0)  -->
<svg version="1.1" id="Capa_1" xmlns="http://www.w3.org/2000/svg" xmlns:xlink="http://www.w3.org/1999/xlink" x="0px" y="0px"
	 viewBox="0 0 531 111" style="enable-background:new 0 0 531 111;" xml:space="preserve">
<style type="text/css">
	.st0{display:none;fill:#F3E8C0;}
	.st1{display:none;fill:#EB6528;}
	.st2{display:none;fill:#EBA623;}
	.st3{display:none;fill:#F2E7C1;}
	.st4{display:none;fill:#7CC4A7;}
	.st5{display:none;fill:#F2E7C4;enable-background:new    ;}
	.st6{font-family:'moonhouse';}
	.st7{font-size:36px;}
	.st8{fill:#78C3A5;}
	.st9{enable-background:new    ;}
	.st10{fill:#EBA022;}
	.st11{fill:#EB6528;}
	.st12{fill:#F1E6C0;}
	.st13{font-size:60px;}
	.st14{display:none;fill:#78C3A6;}
	.st15{display:none;}
</style>
<rect x="-57.5" y="-279.7" class="st0" width="841.9" height="595.3"/>
<image style="display:none;overflow:visible;enable-background:new    ;" width="568" height="483" xlink:href="135B49D4000A20E0.jpeg"  transform="matrix(0.4459 0 0 0.4459 527.7827 -209.5405)">
</image>
<ellipse class="st1" cx="197.5" cy="137.5" rx="137.2" ry="86.8"/>
<ellipse class="st2" cx="197.5" cy="137.5" rx="126.7" ry="80.2"/>
<ellipse class="st3" cx="198.4" cy="137.7" rx="119.8" ry="75.8"/>
<ellipse class="st4" cx="198.3" cy="137.5" rx="114.7" ry="72.6"/>
<text transform="matrix(1 0 0 1 128.4832 110.293)" class="st5 st6 st7">LEVEL</text>
<g>
	<rect x="38.4" y="5.6" class="st8" width="445" height="93.2"/>
	<ellipse class="st8" cx="485.6" cy="52.2" rx="36.1" ry="46.6"/>
	<ellipse class="st8" cx="43.2" cy="52.2" rx="36.1" ry="46.6"/>
</g>
<g class="st9">
	<rect x="39.6" y="12.8" class="st10" width="440.9" height="92.4"/>
	<ellipse class="st10" cx="482.7" cy="59" rx="35.8" ry="46.2"/>
	<ellipse class="st10" cx="44.3" cy="59" rx="35.8" ry="46.2"/>
</g>
<g class="st9">
	<rect x="49.2" y="19.5" class="st11" width="424.9" height="85.3"/>
	<ellipse class="st11" cx="476.3" cy="62.1" rx="34.5" ry="42.7"/>
	<ellipse class="st11" cx="53.8" cy="62.1" rx="34.5" ry="42.7"/>
</g>
<text transform="matrix(1 0 0 1 101.203 78.2246)" class="st12 st6 st13">YOU WIN</text>
<polygon class="st14" points="184.8,104.8 278.4,143.1 371.9,183.5 184.8,252.7 "/>
<g class="st15">
	<text transform="matrix(1 0 0 1 192.0327 194.905)" class="st6" style="display:inline;fill:#F2E6C4; font-size:44px;">PLAY</text>
</g>
</svg>
